%TF.GenerationSoftware,KiCad,Pcbnew,7.0.2*%
%TF.CreationDate,2023-11-10T23:30:57+01:00*%
%TF.ProjectId,PoweredUSB-Adapter,506f7765-7265-4645-9553-422d41646170,rev?*%
%TF.SameCoordinates,Original*%
%TF.FileFunction,Legend,Top*%
%TF.FilePolarity,Positive*%
%FSLAX46Y46*%
G04 Gerber Fmt 4.6, Leading zero omitted, Abs format (unit mm)*
G04 Created by KiCad (PCBNEW 7.0.2) date 2023-11-10 23:30:57*
%MOMM*%
%LPD*%
G01*
G04 APERTURE LIST*
%ADD10C,0.203200*%
%ADD11C,0.254000*%
%ADD12C,0.508000*%
G04 APERTURE END LIST*
D10*
X108193523Y-89385375D02*
X108677333Y-89385375D01*
X108096761Y-89675660D02*
X108435428Y-88659660D01*
X108435428Y-88659660D02*
X108774095Y-89675660D01*
X109548190Y-89675660D02*
X109548190Y-88659660D01*
X109548190Y-89627280D02*
X109451428Y-89675660D01*
X109451428Y-89675660D02*
X109257904Y-89675660D01*
X109257904Y-89675660D02*
X109161142Y-89627280D01*
X109161142Y-89627280D02*
X109112761Y-89578899D01*
X109112761Y-89578899D02*
X109064380Y-89482137D01*
X109064380Y-89482137D02*
X109064380Y-89191851D01*
X109064380Y-89191851D02*
X109112761Y-89095089D01*
X109112761Y-89095089D02*
X109161142Y-89046708D01*
X109161142Y-89046708D02*
X109257904Y-88998327D01*
X109257904Y-88998327D02*
X109451428Y-88998327D01*
X109451428Y-88998327D02*
X109548190Y-89046708D01*
X110467428Y-89675660D02*
X110467428Y-89143470D01*
X110467428Y-89143470D02*
X110419047Y-89046708D01*
X110419047Y-89046708D02*
X110322285Y-88998327D01*
X110322285Y-88998327D02*
X110128761Y-88998327D01*
X110128761Y-88998327D02*
X110031999Y-89046708D01*
X110467428Y-89627280D02*
X110370666Y-89675660D01*
X110370666Y-89675660D02*
X110128761Y-89675660D01*
X110128761Y-89675660D02*
X110031999Y-89627280D01*
X110031999Y-89627280D02*
X109983618Y-89530518D01*
X109983618Y-89530518D02*
X109983618Y-89433756D01*
X109983618Y-89433756D02*
X110031999Y-89336994D01*
X110031999Y-89336994D02*
X110128761Y-89288613D01*
X110128761Y-89288613D02*
X110370666Y-89288613D01*
X110370666Y-89288613D02*
X110467428Y-89240232D01*
X110951237Y-88998327D02*
X110951237Y-90014327D01*
X110951237Y-89046708D02*
X111047999Y-88998327D01*
X111047999Y-88998327D02*
X111241523Y-88998327D01*
X111241523Y-88998327D02*
X111338285Y-89046708D01*
X111338285Y-89046708D02*
X111386666Y-89095089D01*
X111386666Y-89095089D02*
X111435047Y-89191851D01*
X111435047Y-89191851D02*
X111435047Y-89482137D01*
X111435047Y-89482137D02*
X111386666Y-89578899D01*
X111386666Y-89578899D02*
X111338285Y-89627280D01*
X111338285Y-89627280D02*
X111241523Y-89675660D01*
X111241523Y-89675660D02*
X111047999Y-89675660D01*
X111047999Y-89675660D02*
X110951237Y-89627280D01*
X111725332Y-88998327D02*
X112112380Y-88998327D01*
X111870475Y-88659660D02*
X111870475Y-89530518D01*
X111870475Y-89530518D02*
X111918856Y-89627280D01*
X111918856Y-89627280D02*
X112015618Y-89675660D01*
X112015618Y-89675660D02*
X112112380Y-89675660D01*
X112838094Y-89627280D02*
X112741332Y-89675660D01*
X112741332Y-89675660D02*
X112547808Y-89675660D01*
X112547808Y-89675660D02*
X112451046Y-89627280D01*
X112451046Y-89627280D02*
X112402665Y-89530518D01*
X112402665Y-89530518D02*
X112402665Y-89143470D01*
X112402665Y-89143470D02*
X112451046Y-89046708D01*
X112451046Y-89046708D02*
X112547808Y-88998327D01*
X112547808Y-88998327D02*
X112741332Y-88998327D01*
X112741332Y-88998327D02*
X112838094Y-89046708D01*
X112838094Y-89046708D02*
X112886475Y-89143470D01*
X112886475Y-89143470D02*
X112886475Y-89240232D01*
X112886475Y-89240232D02*
X112402665Y-89336994D01*
X113321903Y-89675660D02*
X113321903Y-88998327D01*
X113321903Y-89191851D02*
X113370284Y-89095089D01*
X113370284Y-89095089D02*
X113418665Y-89046708D01*
X113418665Y-89046708D02*
X113515427Y-88998327D01*
X113515427Y-88998327D02*
X113612189Y-88998327D01*
X114724950Y-89675660D02*
X114724950Y-88659660D01*
X114724950Y-89046708D02*
X114821712Y-88998327D01*
X114821712Y-88998327D02*
X115015236Y-88998327D01*
X115015236Y-88998327D02*
X115111998Y-89046708D01*
X115111998Y-89046708D02*
X115160379Y-89095089D01*
X115160379Y-89095089D02*
X115208760Y-89191851D01*
X115208760Y-89191851D02*
X115208760Y-89482137D01*
X115208760Y-89482137D02*
X115160379Y-89578899D01*
X115160379Y-89578899D02*
X115111998Y-89627280D01*
X115111998Y-89627280D02*
X115015236Y-89675660D01*
X115015236Y-89675660D02*
X114821712Y-89675660D01*
X114821712Y-89675660D02*
X114724950Y-89627280D01*
X115789331Y-89675660D02*
X115692569Y-89627280D01*
X115692569Y-89627280D02*
X115644188Y-89578899D01*
X115644188Y-89578899D02*
X115595807Y-89482137D01*
X115595807Y-89482137D02*
X115595807Y-89191851D01*
X115595807Y-89191851D02*
X115644188Y-89095089D01*
X115644188Y-89095089D02*
X115692569Y-89046708D01*
X115692569Y-89046708D02*
X115789331Y-88998327D01*
X115789331Y-88998327D02*
X115934474Y-88998327D01*
X115934474Y-88998327D02*
X116031236Y-89046708D01*
X116031236Y-89046708D02*
X116079617Y-89095089D01*
X116079617Y-89095089D02*
X116127998Y-89191851D01*
X116127998Y-89191851D02*
X116127998Y-89482137D01*
X116127998Y-89482137D02*
X116079617Y-89578899D01*
X116079617Y-89578899D02*
X116031236Y-89627280D01*
X116031236Y-89627280D02*
X115934474Y-89675660D01*
X115934474Y-89675660D02*
X115789331Y-89675660D01*
X116998855Y-89675660D02*
X116998855Y-89143470D01*
X116998855Y-89143470D02*
X116950474Y-89046708D01*
X116950474Y-89046708D02*
X116853712Y-88998327D01*
X116853712Y-88998327D02*
X116660188Y-88998327D01*
X116660188Y-88998327D02*
X116563426Y-89046708D01*
X116998855Y-89627280D02*
X116902093Y-89675660D01*
X116902093Y-89675660D02*
X116660188Y-89675660D01*
X116660188Y-89675660D02*
X116563426Y-89627280D01*
X116563426Y-89627280D02*
X116515045Y-89530518D01*
X116515045Y-89530518D02*
X116515045Y-89433756D01*
X116515045Y-89433756D02*
X116563426Y-89336994D01*
X116563426Y-89336994D02*
X116660188Y-89288613D01*
X116660188Y-89288613D02*
X116902093Y-89288613D01*
X116902093Y-89288613D02*
X116998855Y-89240232D01*
X117482664Y-89675660D02*
X117482664Y-88998327D01*
X117482664Y-89191851D02*
X117531045Y-89095089D01*
X117531045Y-89095089D02*
X117579426Y-89046708D01*
X117579426Y-89046708D02*
X117676188Y-88998327D01*
X117676188Y-88998327D02*
X117772950Y-88998327D01*
X118547045Y-89675660D02*
X118547045Y-88659660D01*
X118547045Y-89627280D02*
X118450283Y-89675660D01*
X118450283Y-89675660D02*
X118256759Y-89675660D01*
X118256759Y-89675660D02*
X118159997Y-89627280D01*
X118159997Y-89627280D02*
X118111616Y-89578899D01*
X118111616Y-89578899D02*
X118063235Y-89482137D01*
X118063235Y-89482137D02*
X118063235Y-89191851D01*
X118063235Y-89191851D02*
X118111616Y-89095089D01*
X118111616Y-89095089D02*
X118159997Y-89046708D01*
X118159997Y-89046708D02*
X118256759Y-88998327D01*
X118256759Y-88998327D02*
X118450283Y-88998327D01*
X118450283Y-88998327D02*
X118547045Y-89046708D01*
D11*
X119229999Y-67010766D02*
X120197619Y-67010766D01*
X119713809Y-67494576D02*
X119713809Y-66526957D01*
D10*
X108096761Y-92598327D02*
X108483809Y-92598327D01*
X108241904Y-92259660D02*
X108241904Y-93130518D01*
X108241904Y-93130518D02*
X108290285Y-93227280D01*
X108290285Y-93227280D02*
X108387047Y-93275660D01*
X108387047Y-93275660D02*
X108483809Y-93275660D01*
X108967618Y-93275660D02*
X108870856Y-93227280D01*
X108870856Y-93227280D02*
X108822475Y-93178899D01*
X108822475Y-93178899D02*
X108774094Y-93082137D01*
X108774094Y-93082137D02*
X108774094Y-92791851D01*
X108774094Y-92791851D02*
X108822475Y-92695089D01*
X108822475Y-92695089D02*
X108870856Y-92646708D01*
X108870856Y-92646708D02*
X108967618Y-92598327D01*
X108967618Y-92598327D02*
X109112761Y-92598327D01*
X109112761Y-92598327D02*
X109209523Y-92646708D01*
X109209523Y-92646708D02*
X109257904Y-92695089D01*
X109257904Y-92695089D02*
X109306285Y-92791851D01*
X109306285Y-92791851D02*
X109306285Y-93082137D01*
X109306285Y-93082137D02*
X109257904Y-93178899D01*
X109257904Y-93178899D02*
X109209523Y-93227280D01*
X109209523Y-93227280D02*
X109112761Y-93275660D01*
X109112761Y-93275660D02*
X108967618Y-93275660D01*
X110515808Y-93275660D02*
X110515808Y-92259660D01*
X110515808Y-92259660D02*
X110902856Y-92259660D01*
X110902856Y-92259660D02*
X110999618Y-92308041D01*
X110999618Y-92308041D02*
X111047999Y-92356422D01*
X111047999Y-92356422D02*
X111096380Y-92453184D01*
X111096380Y-92453184D02*
X111096380Y-92598327D01*
X111096380Y-92598327D02*
X111047999Y-92695089D01*
X111047999Y-92695089D02*
X110999618Y-92743470D01*
X110999618Y-92743470D02*
X110902856Y-92791851D01*
X110902856Y-92791851D02*
X110515808Y-92791851D01*
X111676951Y-93275660D02*
X111580189Y-93227280D01*
X111580189Y-93227280D02*
X111531808Y-93178899D01*
X111531808Y-93178899D02*
X111483427Y-93082137D01*
X111483427Y-93082137D02*
X111483427Y-92791851D01*
X111483427Y-92791851D02*
X111531808Y-92695089D01*
X111531808Y-92695089D02*
X111580189Y-92646708D01*
X111580189Y-92646708D02*
X111676951Y-92598327D01*
X111676951Y-92598327D02*
X111822094Y-92598327D01*
X111822094Y-92598327D02*
X111918856Y-92646708D01*
X111918856Y-92646708D02*
X111967237Y-92695089D01*
X111967237Y-92695089D02*
X112015618Y-92791851D01*
X112015618Y-92791851D02*
X112015618Y-93082137D01*
X112015618Y-93082137D02*
X111967237Y-93178899D01*
X111967237Y-93178899D02*
X111918856Y-93227280D01*
X111918856Y-93227280D02*
X111822094Y-93275660D01*
X111822094Y-93275660D02*
X111676951Y-93275660D01*
X112354284Y-92598327D02*
X112547808Y-93275660D01*
X112547808Y-93275660D02*
X112741332Y-92791851D01*
X112741332Y-92791851D02*
X112934856Y-93275660D01*
X112934856Y-93275660D02*
X113128380Y-92598327D01*
X113902475Y-93227280D02*
X113805713Y-93275660D01*
X113805713Y-93275660D02*
X113612189Y-93275660D01*
X113612189Y-93275660D02*
X113515427Y-93227280D01*
X113515427Y-93227280D02*
X113467046Y-93130518D01*
X113467046Y-93130518D02*
X113467046Y-92743470D01*
X113467046Y-92743470D02*
X113515427Y-92646708D01*
X113515427Y-92646708D02*
X113612189Y-92598327D01*
X113612189Y-92598327D02*
X113805713Y-92598327D01*
X113805713Y-92598327D02*
X113902475Y-92646708D01*
X113902475Y-92646708D02*
X113950856Y-92743470D01*
X113950856Y-92743470D02*
X113950856Y-92840232D01*
X113950856Y-92840232D02*
X113467046Y-92936994D01*
X114386284Y-93275660D02*
X114386284Y-92598327D01*
X114386284Y-92791851D02*
X114434665Y-92695089D01*
X114434665Y-92695089D02*
X114483046Y-92646708D01*
X114483046Y-92646708D02*
X114579808Y-92598327D01*
X114579808Y-92598327D02*
X114676570Y-92598327D01*
X115402284Y-93227280D02*
X115305522Y-93275660D01*
X115305522Y-93275660D02*
X115111998Y-93275660D01*
X115111998Y-93275660D02*
X115015236Y-93227280D01*
X115015236Y-93227280D02*
X114966855Y-93130518D01*
X114966855Y-93130518D02*
X114966855Y-92743470D01*
X114966855Y-92743470D02*
X115015236Y-92646708D01*
X115015236Y-92646708D02*
X115111998Y-92598327D01*
X115111998Y-92598327D02*
X115305522Y-92598327D01*
X115305522Y-92598327D02*
X115402284Y-92646708D01*
X115402284Y-92646708D02*
X115450665Y-92743470D01*
X115450665Y-92743470D02*
X115450665Y-92840232D01*
X115450665Y-92840232D02*
X114966855Y-92936994D01*
X116321522Y-93275660D02*
X116321522Y-92259660D01*
X116321522Y-93227280D02*
X116224760Y-93275660D01*
X116224760Y-93275660D02*
X116031236Y-93275660D01*
X116031236Y-93275660D02*
X115934474Y-93227280D01*
X115934474Y-93227280D02*
X115886093Y-93178899D01*
X115886093Y-93178899D02*
X115837712Y-93082137D01*
X115837712Y-93082137D02*
X115837712Y-92791851D01*
X115837712Y-92791851D02*
X115886093Y-92695089D01*
X115886093Y-92695089D02*
X115934474Y-92646708D01*
X115934474Y-92646708D02*
X116031236Y-92598327D01*
X116031236Y-92598327D02*
X116224760Y-92598327D01*
X116224760Y-92598327D02*
X116321522Y-92646708D01*
X116805331Y-92259660D02*
X116805331Y-93082137D01*
X116805331Y-93082137D02*
X116853712Y-93178899D01*
X116853712Y-93178899D02*
X116902093Y-93227280D01*
X116902093Y-93227280D02*
X116998855Y-93275660D01*
X116998855Y-93275660D02*
X117192379Y-93275660D01*
X117192379Y-93275660D02*
X117289141Y-93227280D01*
X117289141Y-93227280D02*
X117337522Y-93178899D01*
X117337522Y-93178899D02*
X117385903Y-93082137D01*
X117385903Y-93082137D02*
X117385903Y-92259660D01*
X117821331Y-93227280D02*
X117966474Y-93275660D01*
X117966474Y-93275660D02*
X118208379Y-93275660D01*
X118208379Y-93275660D02*
X118305141Y-93227280D01*
X118305141Y-93227280D02*
X118353522Y-93178899D01*
X118353522Y-93178899D02*
X118401903Y-93082137D01*
X118401903Y-93082137D02*
X118401903Y-92985375D01*
X118401903Y-92985375D02*
X118353522Y-92888613D01*
X118353522Y-92888613D02*
X118305141Y-92840232D01*
X118305141Y-92840232D02*
X118208379Y-92791851D01*
X118208379Y-92791851D02*
X118014855Y-92743470D01*
X118014855Y-92743470D02*
X117918093Y-92695089D01*
X117918093Y-92695089D02*
X117869712Y-92646708D01*
X117869712Y-92646708D02*
X117821331Y-92549946D01*
X117821331Y-92549946D02*
X117821331Y-92453184D01*
X117821331Y-92453184D02*
X117869712Y-92356422D01*
X117869712Y-92356422D02*
X117918093Y-92308041D01*
X117918093Y-92308041D02*
X118014855Y-92259660D01*
X118014855Y-92259660D02*
X118256760Y-92259660D01*
X118256760Y-92259660D02*
X118401903Y-92308041D01*
X119175998Y-92743470D02*
X119321141Y-92791851D01*
X119321141Y-92791851D02*
X119369522Y-92840232D01*
X119369522Y-92840232D02*
X119417903Y-92936994D01*
X119417903Y-92936994D02*
X119417903Y-93082137D01*
X119417903Y-93082137D02*
X119369522Y-93178899D01*
X119369522Y-93178899D02*
X119321141Y-93227280D01*
X119321141Y-93227280D02*
X119224379Y-93275660D01*
X119224379Y-93275660D02*
X118837331Y-93275660D01*
X118837331Y-93275660D02*
X118837331Y-92259660D01*
X118837331Y-92259660D02*
X119175998Y-92259660D01*
X119175998Y-92259660D02*
X119272760Y-92308041D01*
X119272760Y-92308041D02*
X119321141Y-92356422D01*
X119321141Y-92356422D02*
X119369522Y-92453184D01*
X119369522Y-92453184D02*
X119369522Y-92549946D01*
X119369522Y-92549946D02*
X119321141Y-92646708D01*
X119321141Y-92646708D02*
X119272760Y-92695089D01*
X119272760Y-92695089D02*
X119175998Y-92743470D01*
X119175998Y-92743470D02*
X118837331Y-92743470D01*
X120530664Y-92598327D02*
X120724188Y-93275660D01*
X120724188Y-93275660D02*
X120917712Y-92791851D01*
X120917712Y-92791851D02*
X121111236Y-93275660D01*
X121111236Y-93275660D02*
X121304760Y-92598327D01*
X122417522Y-92211280D02*
X121546664Y-93517565D01*
X122756188Y-93275660D02*
X122756188Y-92259660D01*
X123191617Y-93275660D02*
X123191617Y-92743470D01*
X123191617Y-92743470D02*
X123143236Y-92646708D01*
X123143236Y-92646708D02*
X123046474Y-92598327D01*
X123046474Y-92598327D02*
X122901331Y-92598327D01*
X122901331Y-92598327D02*
X122804569Y-92646708D01*
X122804569Y-92646708D02*
X122756188Y-92695089D01*
X124836569Y-93227280D02*
X124739807Y-93275660D01*
X124739807Y-93275660D02*
X124546283Y-93275660D01*
X124546283Y-93275660D02*
X124449521Y-93227280D01*
X124449521Y-93227280D02*
X124401140Y-93130518D01*
X124401140Y-93130518D02*
X124401140Y-92743470D01*
X124401140Y-92743470D02*
X124449521Y-92646708D01*
X124449521Y-92646708D02*
X124546283Y-92598327D01*
X124546283Y-92598327D02*
X124739807Y-92598327D01*
X124739807Y-92598327D02*
X124836569Y-92646708D01*
X124836569Y-92646708D02*
X124884950Y-92743470D01*
X124884950Y-92743470D02*
X124884950Y-92840232D01*
X124884950Y-92840232D02*
X124401140Y-92936994D01*
X125223616Y-93275660D02*
X125755807Y-92598327D01*
X125223616Y-92598327D02*
X125755807Y-93275660D01*
X125997711Y-92598327D02*
X126384759Y-92598327D01*
X126142854Y-92259660D02*
X126142854Y-93130518D01*
X126142854Y-93130518D02*
X126191235Y-93227280D01*
X126191235Y-93227280D02*
X126287997Y-93275660D01*
X126287997Y-93275660D02*
X126384759Y-93275660D01*
X126723425Y-93178899D02*
X126771806Y-93227280D01*
X126771806Y-93227280D02*
X126723425Y-93275660D01*
X126723425Y-93275660D02*
X126675044Y-93227280D01*
X126675044Y-93227280D02*
X126723425Y-93178899D01*
X126723425Y-93178899D02*
X126723425Y-93275660D01*
X127981330Y-92598327D02*
X127981330Y-93614327D01*
X127981330Y-92646708D02*
X128078092Y-92598327D01*
X128078092Y-92598327D02*
X128271616Y-92598327D01*
X128271616Y-92598327D02*
X128368378Y-92646708D01*
X128368378Y-92646708D02*
X128416759Y-92695089D01*
X128416759Y-92695089D02*
X128465140Y-92791851D01*
X128465140Y-92791851D02*
X128465140Y-93082137D01*
X128465140Y-93082137D02*
X128416759Y-93178899D01*
X128416759Y-93178899D02*
X128368378Y-93227280D01*
X128368378Y-93227280D02*
X128271616Y-93275660D01*
X128271616Y-93275660D02*
X128078092Y-93275660D01*
X128078092Y-93275660D02*
X127981330Y-93227280D01*
X129045711Y-93275660D02*
X128948949Y-93227280D01*
X128948949Y-93227280D02*
X128900568Y-93178899D01*
X128900568Y-93178899D02*
X128852187Y-93082137D01*
X128852187Y-93082137D02*
X128852187Y-92791851D01*
X128852187Y-92791851D02*
X128900568Y-92695089D01*
X128900568Y-92695089D02*
X128948949Y-92646708D01*
X128948949Y-92646708D02*
X129045711Y-92598327D01*
X129045711Y-92598327D02*
X129190854Y-92598327D01*
X129190854Y-92598327D02*
X129287616Y-92646708D01*
X129287616Y-92646708D02*
X129335997Y-92695089D01*
X129335997Y-92695089D02*
X129384378Y-92791851D01*
X129384378Y-92791851D02*
X129384378Y-93082137D01*
X129384378Y-93082137D02*
X129335997Y-93178899D01*
X129335997Y-93178899D02*
X129287616Y-93227280D01*
X129287616Y-93227280D02*
X129190854Y-93275660D01*
X129190854Y-93275660D02*
X129045711Y-93275660D01*
X129723044Y-92598327D02*
X129916568Y-93275660D01*
X129916568Y-93275660D02*
X130110092Y-92791851D01*
X130110092Y-92791851D02*
X130303616Y-93275660D01*
X130303616Y-93275660D02*
X130497140Y-92598327D01*
X131271235Y-93227280D02*
X131174473Y-93275660D01*
X131174473Y-93275660D02*
X130980949Y-93275660D01*
X130980949Y-93275660D02*
X130884187Y-93227280D01*
X130884187Y-93227280D02*
X130835806Y-93130518D01*
X130835806Y-93130518D02*
X130835806Y-92743470D01*
X130835806Y-92743470D02*
X130884187Y-92646708D01*
X130884187Y-92646708D02*
X130980949Y-92598327D01*
X130980949Y-92598327D02*
X131174473Y-92598327D01*
X131174473Y-92598327D02*
X131271235Y-92646708D01*
X131271235Y-92646708D02*
X131319616Y-92743470D01*
X131319616Y-92743470D02*
X131319616Y-92840232D01*
X131319616Y-92840232D02*
X130835806Y-92936994D01*
X131755044Y-93275660D02*
X131755044Y-92598327D01*
X131755044Y-92791851D02*
X131803425Y-92695089D01*
X131803425Y-92695089D02*
X131851806Y-92646708D01*
X131851806Y-92646708D02*
X131948568Y-92598327D01*
X131948568Y-92598327D02*
X132045330Y-92598327D01*
D11*
X117597143Y-63635052D02*
X117476190Y-63574576D01*
X117476190Y-63574576D02*
X117294762Y-63574576D01*
X117294762Y-63574576D02*
X117113333Y-63635052D01*
X117113333Y-63635052D02*
X116992381Y-63756004D01*
X116992381Y-63756004D02*
X116931904Y-63876957D01*
X116931904Y-63876957D02*
X116871428Y-64118861D01*
X116871428Y-64118861D02*
X116871428Y-64300290D01*
X116871428Y-64300290D02*
X116931904Y-64542195D01*
X116931904Y-64542195D02*
X116992381Y-64663147D01*
X116992381Y-64663147D02*
X117113333Y-64784100D01*
X117113333Y-64784100D02*
X117294762Y-64844576D01*
X117294762Y-64844576D02*
X117415714Y-64844576D01*
X117415714Y-64844576D02*
X117597143Y-64784100D01*
X117597143Y-64784100D02*
X117657619Y-64723623D01*
X117657619Y-64723623D02*
X117657619Y-64300290D01*
X117657619Y-64300290D02*
X117415714Y-64300290D01*
X118201904Y-64844576D02*
X118201904Y-63574576D01*
X118201904Y-63574576D02*
X118927619Y-64844576D01*
X118927619Y-64844576D02*
X118927619Y-63574576D01*
X119532380Y-64844576D02*
X119532380Y-63574576D01*
X119532380Y-63574576D02*
X119834761Y-63574576D01*
X119834761Y-63574576D02*
X120016190Y-63635052D01*
X120016190Y-63635052D02*
X120137142Y-63756004D01*
X120137142Y-63756004D02*
X120197619Y-63876957D01*
X120197619Y-63876957D02*
X120258095Y-64118861D01*
X120258095Y-64118861D02*
X120258095Y-64300290D01*
X120258095Y-64300290D02*
X120197619Y-64542195D01*
X120197619Y-64542195D02*
X120137142Y-64663147D01*
X120137142Y-64663147D02*
X120016190Y-64784100D01*
X120016190Y-64784100D02*
X119834761Y-64844576D01*
X119834761Y-64844576D02*
X119532380Y-64844576D01*
X101802380Y-86544576D02*
X101802380Y-85274576D01*
X101802380Y-85274576D02*
X102286190Y-85274576D01*
X102286190Y-85274576D02*
X102407142Y-85335052D01*
X102407142Y-85335052D02*
X102467619Y-85395528D01*
X102467619Y-85395528D02*
X102528095Y-85516480D01*
X102528095Y-85516480D02*
X102528095Y-85697909D01*
X102528095Y-85697909D02*
X102467619Y-85818861D01*
X102467619Y-85818861D02*
X102407142Y-85879338D01*
X102407142Y-85879338D02*
X102286190Y-85939814D01*
X102286190Y-85939814D02*
X101802380Y-85939814D01*
X103253809Y-86544576D02*
X103132857Y-86484100D01*
X103132857Y-86484100D02*
X103072380Y-86423623D01*
X103072380Y-86423623D02*
X103011904Y-86302671D01*
X103011904Y-86302671D02*
X103011904Y-85939814D01*
X103011904Y-85939814D02*
X103072380Y-85818861D01*
X103072380Y-85818861D02*
X103132857Y-85758385D01*
X103132857Y-85758385D02*
X103253809Y-85697909D01*
X103253809Y-85697909D02*
X103435238Y-85697909D01*
X103435238Y-85697909D02*
X103556190Y-85758385D01*
X103556190Y-85758385D02*
X103616666Y-85818861D01*
X103616666Y-85818861D02*
X103677142Y-85939814D01*
X103677142Y-85939814D02*
X103677142Y-86302671D01*
X103677142Y-86302671D02*
X103616666Y-86423623D01*
X103616666Y-86423623D02*
X103556190Y-86484100D01*
X103556190Y-86484100D02*
X103435238Y-86544576D01*
X103435238Y-86544576D02*
X103253809Y-86544576D01*
X104100476Y-85697909D02*
X104342381Y-86544576D01*
X104342381Y-86544576D02*
X104584286Y-85939814D01*
X104584286Y-85939814D02*
X104826190Y-86544576D01*
X104826190Y-86544576D02*
X105068095Y-85697909D01*
X106035714Y-86484100D02*
X105914762Y-86544576D01*
X105914762Y-86544576D02*
X105672857Y-86544576D01*
X105672857Y-86544576D02*
X105551904Y-86484100D01*
X105551904Y-86484100D02*
X105491428Y-86363147D01*
X105491428Y-86363147D02*
X105491428Y-85879338D01*
X105491428Y-85879338D02*
X105551904Y-85758385D01*
X105551904Y-85758385D02*
X105672857Y-85697909D01*
X105672857Y-85697909D02*
X105914762Y-85697909D01*
X105914762Y-85697909D02*
X106035714Y-85758385D01*
X106035714Y-85758385D02*
X106096190Y-85879338D01*
X106096190Y-85879338D02*
X106096190Y-86000290D01*
X106096190Y-86000290D02*
X105491428Y-86121242D01*
X106640475Y-86544576D02*
X106640475Y-85697909D01*
X106640475Y-85939814D02*
X106700952Y-85818861D01*
X106700952Y-85818861D02*
X106761428Y-85758385D01*
X106761428Y-85758385D02*
X106882380Y-85697909D01*
X106882380Y-85697909D02*
X107003333Y-85697909D01*
X107910475Y-86484100D02*
X107789523Y-86544576D01*
X107789523Y-86544576D02*
X107547618Y-86544576D01*
X107547618Y-86544576D02*
X107426665Y-86484100D01*
X107426665Y-86484100D02*
X107366189Y-86363147D01*
X107366189Y-86363147D02*
X107366189Y-85879338D01*
X107366189Y-85879338D02*
X107426665Y-85758385D01*
X107426665Y-85758385D02*
X107547618Y-85697909D01*
X107547618Y-85697909D02*
X107789523Y-85697909D01*
X107789523Y-85697909D02*
X107910475Y-85758385D01*
X107910475Y-85758385D02*
X107970951Y-85879338D01*
X107970951Y-85879338D02*
X107970951Y-86000290D01*
X107970951Y-86000290D02*
X107366189Y-86121242D01*
X109059522Y-86544576D02*
X109059522Y-85274576D01*
X109059522Y-86484100D02*
X108938570Y-86544576D01*
X108938570Y-86544576D02*
X108696665Y-86544576D01*
X108696665Y-86544576D02*
X108575713Y-86484100D01*
X108575713Y-86484100D02*
X108515236Y-86423623D01*
X108515236Y-86423623D02*
X108454760Y-86302671D01*
X108454760Y-86302671D02*
X108454760Y-85939814D01*
X108454760Y-85939814D02*
X108515236Y-85818861D01*
X108515236Y-85818861D02*
X108575713Y-85758385D01*
X108575713Y-85758385D02*
X108696665Y-85697909D01*
X108696665Y-85697909D02*
X108938570Y-85697909D01*
X108938570Y-85697909D02*
X109059522Y-85758385D01*
X109664284Y-85274576D02*
X109664284Y-86302671D01*
X109664284Y-86302671D02*
X109724761Y-86423623D01*
X109724761Y-86423623D02*
X109785237Y-86484100D01*
X109785237Y-86484100D02*
X109906189Y-86544576D01*
X109906189Y-86544576D02*
X110148094Y-86544576D01*
X110148094Y-86544576D02*
X110269046Y-86484100D01*
X110269046Y-86484100D02*
X110329523Y-86423623D01*
X110329523Y-86423623D02*
X110389999Y-86302671D01*
X110389999Y-86302671D02*
X110389999Y-85274576D01*
X110934284Y-86484100D02*
X111115713Y-86544576D01*
X111115713Y-86544576D02*
X111418094Y-86544576D01*
X111418094Y-86544576D02*
X111539046Y-86484100D01*
X111539046Y-86484100D02*
X111599522Y-86423623D01*
X111599522Y-86423623D02*
X111659999Y-86302671D01*
X111659999Y-86302671D02*
X111659999Y-86181719D01*
X111659999Y-86181719D02*
X111599522Y-86060766D01*
X111599522Y-86060766D02*
X111539046Y-86000290D01*
X111539046Y-86000290D02*
X111418094Y-85939814D01*
X111418094Y-85939814D02*
X111176189Y-85879338D01*
X111176189Y-85879338D02*
X111055237Y-85818861D01*
X111055237Y-85818861D02*
X110994760Y-85758385D01*
X110994760Y-85758385D02*
X110934284Y-85637433D01*
X110934284Y-85637433D02*
X110934284Y-85516480D01*
X110934284Y-85516480D02*
X110994760Y-85395528D01*
X110994760Y-85395528D02*
X111055237Y-85335052D01*
X111055237Y-85335052D02*
X111176189Y-85274576D01*
X111176189Y-85274576D02*
X111478570Y-85274576D01*
X111478570Y-85274576D02*
X111659999Y-85335052D01*
X112627618Y-85879338D02*
X112809046Y-85939814D01*
X112809046Y-85939814D02*
X112869523Y-86000290D01*
X112869523Y-86000290D02*
X112929999Y-86121242D01*
X112929999Y-86121242D02*
X112929999Y-86302671D01*
X112929999Y-86302671D02*
X112869523Y-86423623D01*
X112869523Y-86423623D02*
X112809046Y-86484100D01*
X112809046Y-86484100D02*
X112688094Y-86544576D01*
X112688094Y-86544576D02*
X112204284Y-86544576D01*
X112204284Y-86544576D02*
X112204284Y-85274576D01*
X112204284Y-85274576D02*
X112627618Y-85274576D01*
X112627618Y-85274576D02*
X112748570Y-85335052D01*
X112748570Y-85335052D02*
X112809046Y-85395528D01*
X112809046Y-85395528D02*
X112869523Y-85516480D01*
X112869523Y-85516480D02*
X112869523Y-85637433D01*
X112869523Y-85637433D02*
X112809046Y-85758385D01*
X112809046Y-85758385D02*
X112748570Y-85818861D01*
X112748570Y-85818861D02*
X112627618Y-85879338D01*
X112627618Y-85879338D02*
X112204284Y-85879338D01*
D10*
X117967999Y-83975660D02*
X117967999Y-82959660D01*
X117967999Y-82959660D02*
X118209904Y-82959660D01*
X118209904Y-82959660D02*
X118355047Y-83008041D01*
X118355047Y-83008041D02*
X118451809Y-83104803D01*
X118451809Y-83104803D02*
X118500190Y-83201565D01*
X118500190Y-83201565D02*
X118548571Y-83395089D01*
X118548571Y-83395089D02*
X118548571Y-83540232D01*
X118548571Y-83540232D02*
X118500190Y-83733756D01*
X118500190Y-83733756D02*
X118451809Y-83830518D01*
X118451809Y-83830518D02*
X118355047Y-83927280D01*
X118355047Y-83927280D02*
X118209904Y-83975660D01*
X118209904Y-83975660D02*
X117967999Y-83975660D01*
X118983999Y-83588613D02*
X119758095Y-83588613D01*
X119371047Y-83975660D02*
X119371047Y-83201565D01*
X117677714Y-85508041D02*
X117580952Y-85459660D01*
X117580952Y-85459660D02*
X117435809Y-85459660D01*
X117435809Y-85459660D02*
X117290666Y-85508041D01*
X117290666Y-85508041D02*
X117193904Y-85604803D01*
X117193904Y-85604803D02*
X117145523Y-85701565D01*
X117145523Y-85701565D02*
X117097142Y-85895089D01*
X117097142Y-85895089D02*
X117097142Y-86040232D01*
X117097142Y-86040232D02*
X117145523Y-86233756D01*
X117145523Y-86233756D02*
X117193904Y-86330518D01*
X117193904Y-86330518D02*
X117290666Y-86427280D01*
X117290666Y-86427280D02*
X117435809Y-86475660D01*
X117435809Y-86475660D02*
X117532571Y-86475660D01*
X117532571Y-86475660D02*
X117677714Y-86427280D01*
X117677714Y-86427280D02*
X117726095Y-86378899D01*
X117726095Y-86378899D02*
X117726095Y-86040232D01*
X117726095Y-86040232D02*
X117532571Y-86040232D01*
X118161523Y-86475660D02*
X118161523Y-85459660D01*
X118161523Y-85459660D02*
X118742095Y-86475660D01*
X118742095Y-86475660D02*
X118742095Y-85459660D01*
X119225904Y-86475660D02*
X119225904Y-85459660D01*
X119225904Y-85459660D02*
X119467809Y-85459660D01*
X119467809Y-85459660D02*
X119612952Y-85508041D01*
X119612952Y-85508041D02*
X119709714Y-85604803D01*
X119709714Y-85604803D02*
X119758095Y-85701565D01*
X119758095Y-85701565D02*
X119806476Y-85895089D01*
X119806476Y-85895089D02*
X119806476Y-86040232D01*
X119806476Y-86040232D02*
X119758095Y-86233756D01*
X119758095Y-86233756D02*
X119709714Y-86330518D01*
X119709714Y-86330518D02*
X119612952Y-86427280D01*
X119612952Y-86427280D02*
X119467809Y-86475660D01*
X119467809Y-86475660D02*
X119225904Y-86475660D01*
X120740339Y-73410094D02*
X119917862Y-73410094D01*
X119917862Y-73410094D02*
X119821100Y-73458475D01*
X119821100Y-73458475D02*
X119772720Y-73506856D01*
X119772720Y-73506856D02*
X119724339Y-73603618D01*
X119724339Y-73603618D02*
X119724339Y-73797142D01*
X119724339Y-73797142D02*
X119772720Y-73893904D01*
X119772720Y-73893904D02*
X119821100Y-73942285D01*
X119821100Y-73942285D02*
X119917862Y-73990666D01*
X119917862Y-73990666D02*
X120740339Y-73990666D01*
X119772720Y-74426094D02*
X119724339Y-74571237D01*
X119724339Y-74571237D02*
X119724339Y-74813142D01*
X119724339Y-74813142D02*
X119772720Y-74909904D01*
X119772720Y-74909904D02*
X119821100Y-74958285D01*
X119821100Y-74958285D02*
X119917862Y-75006666D01*
X119917862Y-75006666D02*
X120014624Y-75006666D01*
X120014624Y-75006666D02*
X120111386Y-74958285D01*
X120111386Y-74958285D02*
X120159767Y-74909904D01*
X120159767Y-74909904D02*
X120208148Y-74813142D01*
X120208148Y-74813142D02*
X120256529Y-74619618D01*
X120256529Y-74619618D02*
X120304910Y-74522856D01*
X120304910Y-74522856D02*
X120353291Y-74474475D01*
X120353291Y-74474475D02*
X120450053Y-74426094D01*
X120450053Y-74426094D02*
X120546815Y-74426094D01*
X120546815Y-74426094D02*
X120643577Y-74474475D01*
X120643577Y-74474475D02*
X120691958Y-74522856D01*
X120691958Y-74522856D02*
X120740339Y-74619618D01*
X120740339Y-74619618D02*
X120740339Y-74861523D01*
X120740339Y-74861523D02*
X120691958Y-75006666D01*
X120256529Y-75780761D02*
X120208148Y-75925904D01*
X120208148Y-75925904D02*
X120159767Y-75974285D01*
X120159767Y-75974285D02*
X120063005Y-76022666D01*
X120063005Y-76022666D02*
X119917862Y-76022666D01*
X119917862Y-76022666D02*
X119821100Y-75974285D01*
X119821100Y-75974285D02*
X119772720Y-75925904D01*
X119772720Y-75925904D02*
X119724339Y-75829142D01*
X119724339Y-75829142D02*
X119724339Y-75442094D01*
X119724339Y-75442094D02*
X120740339Y-75442094D01*
X120740339Y-75442094D02*
X120740339Y-75780761D01*
X120740339Y-75780761D02*
X120691958Y-75877523D01*
X120691958Y-75877523D02*
X120643577Y-75925904D01*
X120643577Y-75925904D02*
X120546815Y-75974285D01*
X120546815Y-75974285D02*
X120450053Y-75974285D01*
X120450053Y-75974285D02*
X120353291Y-75925904D01*
X120353291Y-75925904D02*
X120304910Y-75877523D01*
X120304910Y-75877523D02*
X120256529Y-75780761D01*
X120256529Y-75780761D02*
X120256529Y-75442094D01*
X119821100Y-76458094D02*
X119772720Y-76506475D01*
X119772720Y-76506475D02*
X119724339Y-76458094D01*
X119724339Y-76458094D02*
X119772720Y-76409713D01*
X119772720Y-76409713D02*
X119821100Y-76458094D01*
X119821100Y-76458094D02*
X119724339Y-76458094D01*
X120353291Y-76458094D02*
X120304910Y-76506475D01*
X120304910Y-76506475D02*
X120256529Y-76458094D01*
X120256529Y-76458094D02*
X120304910Y-76409713D01*
X120304910Y-76409713D02*
X120353291Y-76458094D01*
X120353291Y-76458094D02*
X120256529Y-76458094D01*
X118887238Y-77859660D02*
X118403428Y-77859660D01*
X118403428Y-77859660D02*
X118355047Y-78343470D01*
X118355047Y-78343470D02*
X118403428Y-78295089D01*
X118403428Y-78295089D02*
X118500190Y-78246708D01*
X118500190Y-78246708D02*
X118742095Y-78246708D01*
X118742095Y-78246708D02*
X118838857Y-78295089D01*
X118838857Y-78295089D02*
X118887238Y-78343470D01*
X118887238Y-78343470D02*
X118935619Y-78440232D01*
X118935619Y-78440232D02*
X118935619Y-78682137D01*
X118935619Y-78682137D02*
X118887238Y-78778899D01*
X118887238Y-78778899D02*
X118838857Y-78827280D01*
X118838857Y-78827280D02*
X118742095Y-78875660D01*
X118742095Y-78875660D02*
X118500190Y-78875660D01*
X118500190Y-78875660D02*
X118403428Y-78827280D01*
X118403428Y-78827280D02*
X118355047Y-78778899D01*
X119225904Y-77859660D02*
X119564571Y-78875660D01*
X119564571Y-78875660D02*
X119903238Y-77859660D01*
X108241904Y-90459660D02*
X108241904Y-91282137D01*
X108241904Y-91282137D02*
X108290285Y-91378899D01*
X108290285Y-91378899D02*
X108338666Y-91427280D01*
X108338666Y-91427280D02*
X108435428Y-91475660D01*
X108435428Y-91475660D02*
X108628952Y-91475660D01*
X108628952Y-91475660D02*
X108725714Y-91427280D01*
X108725714Y-91427280D02*
X108774095Y-91378899D01*
X108774095Y-91378899D02*
X108822476Y-91282137D01*
X108822476Y-91282137D02*
X108822476Y-90459660D01*
X109257904Y-91427280D02*
X109403047Y-91475660D01*
X109403047Y-91475660D02*
X109644952Y-91475660D01*
X109644952Y-91475660D02*
X109741714Y-91427280D01*
X109741714Y-91427280D02*
X109790095Y-91378899D01*
X109790095Y-91378899D02*
X109838476Y-91282137D01*
X109838476Y-91282137D02*
X109838476Y-91185375D01*
X109838476Y-91185375D02*
X109790095Y-91088613D01*
X109790095Y-91088613D02*
X109741714Y-91040232D01*
X109741714Y-91040232D02*
X109644952Y-90991851D01*
X109644952Y-90991851D02*
X109451428Y-90943470D01*
X109451428Y-90943470D02*
X109354666Y-90895089D01*
X109354666Y-90895089D02*
X109306285Y-90846708D01*
X109306285Y-90846708D02*
X109257904Y-90749946D01*
X109257904Y-90749946D02*
X109257904Y-90653184D01*
X109257904Y-90653184D02*
X109306285Y-90556422D01*
X109306285Y-90556422D02*
X109354666Y-90508041D01*
X109354666Y-90508041D02*
X109451428Y-90459660D01*
X109451428Y-90459660D02*
X109693333Y-90459660D01*
X109693333Y-90459660D02*
X109838476Y-90508041D01*
X110612571Y-90943470D02*
X110757714Y-90991851D01*
X110757714Y-90991851D02*
X110806095Y-91040232D01*
X110806095Y-91040232D02*
X110854476Y-91136994D01*
X110854476Y-91136994D02*
X110854476Y-91282137D01*
X110854476Y-91282137D02*
X110806095Y-91378899D01*
X110806095Y-91378899D02*
X110757714Y-91427280D01*
X110757714Y-91427280D02*
X110660952Y-91475660D01*
X110660952Y-91475660D02*
X110273904Y-91475660D01*
X110273904Y-91475660D02*
X110273904Y-90459660D01*
X110273904Y-90459660D02*
X110612571Y-90459660D01*
X110612571Y-90459660D02*
X110709333Y-90508041D01*
X110709333Y-90508041D02*
X110757714Y-90556422D01*
X110757714Y-90556422D02*
X110806095Y-90653184D01*
X110806095Y-90653184D02*
X110806095Y-90749946D01*
X110806095Y-90749946D02*
X110757714Y-90846708D01*
X110757714Y-90846708D02*
X110709333Y-90895089D01*
X110709333Y-90895089D02*
X110612571Y-90943470D01*
X110612571Y-90943470D02*
X110273904Y-90943470D01*
X111918856Y-90798327D02*
X112305904Y-90798327D01*
X112063999Y-90459660D02*
X112063999Y-91330518D01*
X112063999Y-91330518D02*
X112112380Y-91427280D01*
X112112380Y-91427280D02*
X112209142Y-91475660D01*
X112209142Y-91475660D02*
X112305904Y-91475660D01*
X112547808Y-90798327D02*
X112789713Y-91475660D01*
X113031618Y-90798327D02*
X112789713Y-91475660D01*
X112789713Y-91475660D02*
X112692951Y-91717565D01*
X112692951Y-91717565D02*
X112644570Y-91765946D01*
X112644570Y-91765946D02*
X112547808Y-91814327D01*
X113418665Y-90798327D02*
X113418665Y-91814327D01*
X113418665Y-90846708D02*
X113515427Y-90798327D01*
X113515427Y-90798327D02*
X113708951Y-90798327D01*
X113708951Y-90798327D02*
X113805713Y-90846708D01*
X113805713Y-90846708D02*
X113854094Y-90895089D01*
X113854094Y-90895089D02*
X113902475Y-90991851D01*
X113902475Y-90991851D02*
X113902475Y-91282137D01*
X113902475Y-91282137D02*
X113854094Y-91378899D01*
X113854094Y-91378899D02*
X113805713Y-91427280D01*
X113805713Y-91427280D02*
X113708951Y-91475660D01*
X113708951Y-91475660D02*
X113515427Y-91475660D01*
X113515427Y-91475660D02*
X113418665Y-91427280D01*
X114724951Y-91427280D02*
X114628189Y-91475660D01*
X114628189Y-91475660D02*
X114434665Y-91475660D01*
X114434665Y-91475660D02*
X114337903Y-91427280D01*
X114337903Y-91427280D02*
X114289522Y-91330518D01*
X114289522Y-91330518D02*
X114289522Y-90943470D01*
X114289522Y-90943470D02*
X114337903Y-90846708D01*
X114337903Y-90846708D02*
X114434665Y-90798327D01*
X114434665Y-90798327D02*
X114628189Y-90798327D01*
X114628189Y-90798327D02*
X114724951Y-90846708D01*
X114724951Y-90846708D02*
X114773332Y-90943470D01*
X114773332Y-90943470D02*
X114773332Y-91040232D01*
X114773332Y-91040232D02*
X114289522Y-91136994D01*
X115208760Y-91088613D02*
X115982856Y-91088613D01*
X117047237Y-91378899D02*
X116998856Y-91427280D01*
X116998856Y-91427280D02*
X116853713Y-91475660D01*
X116853713Y-91475660D02*
X116756951Y-91475660D01*
X116756951Y-91475660D02*
X116611808Y-91427280D01*
X116611808Y-91427280D02*
X116515046Y-91330518D01*
X116515046Y-91330518D02*
X116466665Y-91233756D01*
X116466665Y-91233756D02*
X116418284Y-91040232D01*
X116418284Y-91040232D02*
X116418284Y-90895089D01*
X116418284Y-90895089D02*
X116466665Y-90701565D01*
X116466665Y-90701565D02*
X116515046Y-90604803D01*
X116515046Y-90604803D02*
X116611808Y-90508041D01*
X116611808Y-90508041D02*
X116756951Y-90459660D01*
X116756951Y-90459660D02*
X116853713Y-90459660D01*
X116853713Y-90459660D02*
X116998856Y-90508041D01*
X116998856Y-90508041D02*
X117047237Y-90556422D01*
X117967999Y-81475660D02*
X117967999Y-80459660D01*
X117967999Y-80459660D02*
X118209904Y-80459660D01*
X118209904Y-80459660D02*
X118355047Y-80508041D01*
X118355047Y-80508041D02*
X118451809Y-80604803D01*
X118451809Y-80604803D02*
X118500190Y-80701565D01*
X118500190Y-80701565D02*
X118548571Y-80895089D01*
X118548571Y-80895089D02*
X118548571Y-81040232D01*
X118548571Y-81040232D02*
X118500190Y-81233756D01*
X118500190Y-81233756D02*
X118451809Y-81330518D01*
X118451809Y-81330518D02*
X118355047Y-81427280D01*
X118355047Y-81427280D02*
X118209904Y-81475660D01*
X118209904Y-81475660D02*
X117967999Y-81475660D01*
X118983999Y-81088613D02*
X119758095Y-81088613D01*
%TO.C,J2*%
X121767809Y-88845979D02*
X121767809Y-88120264D01*
X121767809Y-88120264D02*
X121816190Y-87975121D01*
X121816190Y-87975121D02*
X121912952Y-87878360D01*
X121912952Y-87878360D02*
X122058095Y-87829979D01*
X122058095Y-87829979D02*
X122154857Y-87829979D01*
X121332381Y-88749217D02*
X121284000Y-88797598D01*
X121284000Y-88797598D02*
X121187238Y-88845979D01*
X121187238Y-88845979D02*
X120945333Y-88845979D01*
X120945333Y-88845979D02*
X120848571Y-88797598D01*
X120848571Y-88797598D02*
X120800190Y-88749217D01*
X120800190Y-88749217D02*
X120751809Y-88652455D01*
X120751809Y-88652455D02*
X120751809Y-88555693D01*
X120751809Y-88555693D02*
X120800190Y-88410550D01*
X120800190Y-88410550D02*
X121380762Y-87829979D01*
X121380762Y-87829979D02*
X120751809Y-87829979D01*
%TO.C,CN1*%
X102322476Y-70173259D02*
X102274095Y-70221640D01*
X102274095Y-70221640D02*
X102128952Y-70270020D01*
X102128952Y-70270020D02*
X102032190Y-70270020D01*
X102032190Y-70270020D02*
X101887047Y-70221640D01*
X101887047Y-70221640D02*
X101790285Y-70124878D01*
X101790285Y-70124878D02*
X101741904Y-70028116D01*
X101741904Y-70028116D02*
X101693523Y-69834592D01*
X101693523Y-69834592D02*
X101693523Y-69689449D01*
X101693523Y-69689449D02*
X101741904Y-69495925D01*
X101741904Y-69495925D02*
X101790285Y-69399163D01*
X101790285Y-69399163D02*
X101887047Y-69302401D01*
X101887047Y-69302401D02*
X102032190Y-69254020D01*
X102032190Y-69254020D02*
X102128952Y-69254020D01*
X102128952Y-69254020D02*
X102274095Y-69302401D01*
X102274095Y-69302401D02*
X102322476Y-69350782D01*
X102757904Y-70270020D02*
X102757904Y-69254020D01*
X102757904Y-69254020D02*
X103338476Y-70270020D01*
X103338476Y-70270020D02*
X103338476Y-69254020D01*
X104354476Y-70270020D02*
X103773904Y-70270020D01*
X104064190Y-70270020D02*
X104064190Y-69254020D01*
X104064190Y-69254020D02*
X103967428Y-69399163D01*
X103967428Y-69399163D02*
X103870666Y-69495925D01*
X103870666Y-69495925D02*
X103773904Y-69544306D01*
%TO.C,J1*%
X135390476Y-60854020D02*
X135390476Y-61579735D01*
X135390476Y-61579735D02*
X135342095Y-61724878D01*
X135342095Y-61724878D02*
X135245333Y-61821640D01*
X135245333Y-61821640D02*
X135100190Y-61870020D01*
X135100190Y-61870020D02*
X135003428Y-61870020D01*
X136406476Y-61870020D02*
X135825904Y-61870020D01*
X136116190Y-61870020D02*
X136116190Y-60854020D01*
X136116190Y-60854020D02*
X136019428Y-60999163D01*
X136019428Y-60999163D02*
X135922666Y-61095925D01*
X135922666Y-61095925D02*
X135825904Y-61144306D01*
%TO.C,CN4*%
X135098476Y-74773259D02*
X135050095Y-74821640D01*
X135050095Y-74821640D02*
X134904952Y-74870020D01*
X134904952Y-74870020D02*
X134808190Y-74870020D01*
X134808190Y-74870020D02*
X134663047Y-74821640D01*
X134663047Y-74821640D02*
X134566285Y-74724878D01*
X134566285Y-74724878D02*
X134517904Y-74628116D01*
X134517904Y-74628116D02*
X134469523Y-74434592D01*
X134469523Y-74434592D02*
X134469523Y-74289449D01*
X134469523Y-74289449D02*
X134517904Y-74095925D01*
X134517904Y-74095925D02*
X134566285Y-73999163D01*
X134566285Y-73999163D02*
X134663047Y-73902401D01*
X134663047Y-73902401D02*
X134808190Y-73854020D01*
X134808190Y-73854020D02*
X134904952Y-73854020D01*
X134904952Y-73854020D02*
X135050095Y-73902401D01*
X135050095Y-73902401D02*
X135098476Y-73950782D01*
X135533904Y-74870020D02*
X135533904Y-73854020D01*
X135533904Y-73854020D02*
X136114476Y-74870020D01*
X136114476Y-74870020D02*
X136114476Y-73854020D01*
X137033714Y-74192687D02*
X137033714Y-74870020D01*
X136791809Y-73805640D02*
X136549904Y-74531354D01*
X136549904Y-74531354D02*
X137178857Y-74531354D01*
%TO.C,J3*%
X121367809Y-70845979D02*
X121367809Y-70120264D01*
X121367809Y-70120264D02*
X121416190Y-69975121D01*
X121416190Y-69975121D02*
X121512952Y-69878360D01*
X121512952Y-69878360D02*
X121658095Y-69829979D01*
X121658095Y-69829979D02*
X121754857Y-69829979D01*
X120980762Y-70845979D02*
X120351809Y-70845979D01*
X120351809Y-70845979D02*
X120690476Y-70458931D01*
X120690476Y-70458931D02*
X120545333Y-70458931D01*
X120545333Y-70458931D02*
X120448571Y-70410550D01*
X120448571Y-70410550D02*
X120400190Y-70362169D01*
X120400190Y-70362169D02*
X120351809Y-70265407D01*
X120351809Y-70265407D02*
X120351809Y-70023502D01*
X120351809Y-70023502D02*
X120400190Y-69926740D01*
X120400190Y-69926740D02*
X120448571Y-69878360D01*
X120448571Y-69878360D02*
X120545333Y-69829979D01*
X120545333Y-69829979D02*
X120835619Y-69829979D01*
X120835619Y-69829979D02*
X120932381Y-69878360D01*
X120932381Y-69878360D02*
X120980762Y-69926740D01*
D11*
%TO.C,J2*%
X120214200Y-77230000D02*
X120214200Y-77738000D01*
X120214200Y-77230000D02*
X120722200Y-77230000D01*
X120214200Y-78500000D02*
X120214200Y-87390000D01*
X120214200Y-87390000D02*
X122754200Y-87390000D01*
X122754200Y-77230000D02*
X121484200Y-77230000D01*
X122754200Y-87390000D02*
X122754200Y-77230000D01*
D12*
%TO.C,MH4*%
X136000000Y-90000000D02*
X133206000Y-90000000D01*
X136000000Y-90000000D02*
X133206000Y-90254000D01*
X136000000Y-90000000D02*
X133206000Y-90508000D01*
X136000000Y-90000000D02*
X133206000Y-90762000D01*
X136000000Y-90000000D02*
X133460000Y-91016000D01*
X136000000Y-90000000D02*
X133460000Y-91270000D01*
X136000000Y-90000000D02*
X133714000Y-91524000D01*
X136000000Y-90000000D02*
X133968000Y-91778000D01*
X136000000Y-90000000D02*
X134222000Y-92032000D01*
X136000000Y-90000000D02*
X134476000Y-92286000D01*
X136000000Y-90000000D02*
X134730000Y-92540000D01*
X136000000Y-90000000D02*
X134984000Y-92540000D01*
X136000000Y-90000000D02*
X135238000Y-92540000D01*
X136000000Y-90000000D02*
X135492000Y-92794000D01*
X136000000Y-90000000D02*
X136000000Y-87206000D01*
X136000000Y-90000000D02*
X136000000Y-92794000D01*
X136000000Y-90000000D02*
X136508000Y-87206000D01*
X136000000Y-90000000D02*
X136762000Y-87206000D01*
X136000000Y-90000000D02*
X137016000Y-87460000D01*
X136000000Y-90000000D02*
X137524000Y-87460000D01*
X136000000Y-90000000D02*
X137778000Y-87714000D01*
X136000000Y-90000000D02*
X138032000Y-87968000D01*
X136000000Y-90000000D02*
X138286000Y-88222000D01*
X136000000Y-90000000D02*
X138540000Y-88476000D01*
X136000000Y-90000000D02*
X138540000Y-88984000D01*
X136000000Y-90000000D02*
X138794000Y-89238000D01*
X136000000Y-90000000D02*
X138794000Y-89746000D01*
X136000000Y-90000000D02*
X138794000Y-90000000D01*
X139000000Y-90000000D02*
G75*
G03*
X139000000Y-90000000I-3000000J0D01*
G01*
D11*
%TO.C,CN1*%
X99795000Y-69400000D02*
X99795000Y-70600000D01*
X98795000Y-69400000D02*
X99795000Y-69400000D01*
X98795000Y-69400000D02*
X98795000Y-85600000D01*
X115195000Y-70600000D02*
X115195000Y-84400000D01*
X107095000Y-70600000D02*
X99795000Y-70600000D01*
X107095000Y-84400000D02*
X99795000Y-84400000D01*
X99795000Y-85600000D02*
X99795000Y-84400000D01*
X98795000Y-85600000D02*
X99795000Y-85600000D01*
%TO.C,J1*%
X143284200Y-71400000D02*
X129230200Y-71400000D01*
X143284200Y-62200000D02*
X143284200Y-71400000D01*
X134984200Y-62200000D02*
X143284200Y-62200000D01*
X129230200Y-71400000D02*
X128584200Y-70610000D01*
X128584200Y-70610000D02*
X128584200Y-69200000D01*
X128584200Y-64400000D02*
X128584200Y-62200000D01*
X128584200Y-62200000D02*
X129584200Y-62200000D01*
D12*
%TO.C,MH2*%
X104000000Y-90000000D02*
X101206000Y-90000000D01*
X104000000Y-90000000D02*
X101206000Y-90254000D01*
X104000000Y-90000000D02*
X101206000Y-90508000D01*
X104000000Y-90000000D02*
X101206000Y-90762000D01*
X104000000Y-90000000D02*
X101460000Y-91016000D01*
X104000000Y-90000000D02*
X101460000Y-91270000D01*
X104000000Y-90000000D02*
X101714000Y-91524000D01*
X104000000Y-90000000D02*
X101968000Y-91778000D01*
X104000000Y-90000000D02*
X102222000Y-92032000D01*
X104000000Y-90000000D02*
X102476000Y-92286000D01*
X104000000Y-90000000D02*
X102730000Y-92540000D01*
X104000000Y-90000000D02*
X102984000Y-92540000D01*
X104000000Y-90000000D02*
X103238000Y-92540000D01*
X104000000Y-90000000D02*
X103492000Y-92794000D01*
X104000000Y-90000000D02*
X104000000Y-87206000D01*
X104000000Y-90000000D02*
X104000000Y-92794000D01*
X104000000Y-90000000D02*
X104508000Y-87206000D01*
X104000000Y-90000000D02*
X104762000Y-87206000D01*
X104000000Y-90000000D02*
X105016000Y-87460000D01*
X104000000Y-90000000D02*
X105524000Y-87460000D01*
X104000000Y-90000000D02*
X105778000Y-87714000D01*
X104000000Y-90000000D02*
X106032000Y-87968000D01*
X104000000Y-90000000D02*
X106286000Y-88222000D01*
X104000000Y-90000000D02*
X106540000Y-88476000D01*
X104000000Y-90000000D02*
X106540000Y-88984000D01*
X104000000Y-90000000D02*
X106794000Y-89238000D01*
X104000000Y-90000000D02*
X106794000Y-89746000D01*
X104000000Y-90000000D02*
X106794000Y-90000000D01*
X107000000Y-90000000D02*
G75*
G03*
X107000000Y-90000000I-3000000J0D01*
G01*
%TO.C,MH1*%
X104000000Y-65000000D02*
X101206000Y-65000000D01*
X104000000Y-65000000D02*
X101206000Y-65254000D01*
X104000000Y-65000000D02*
X101206000Y-65508000D01*
X104000000Y-65000000D02*
X101206000Y-65762000D01*
X104000000Y-65000000D02*
X101460000Y-66016000D01*
X104000000Y-65000000D02*
X101460000Y-66270000D01*
X104000000Y-65000000D02*
X101714000Y-66524000D01*
X104000000Y-65000000D02*
X101968000Y-66778000D01*
X104000000Y-65000000D02*
X102222000Y-67032000D01*
X104000000Y-65000000D02*
X102476000Y-67286000D01*
X104000000Y-65000000D02*
X102730000Y-67540000D01*
X104000000Y-65000000D02*
X102984000Y-67540000D01*
X104000000Y-65000000D02*
X103238000Y-67540000D01*
X104000000Y-65000000D02*
X103492000Y-67794000D01*
X104000000Y-65000000D02*
X104000000Y-62206000D01*
X104000000Y-65000000D02*
X104000000Y-67794000D01*
X104000000Y-65000000D02*
X104508000Y-62206000D01*
X104000000Y-65000000D02*
X104762000Y-62206000D01*
X104000000Y-65000000D02*
X105016000Y-62460000D01*
X104000000Y-65000000D02*
X105524000Y-62460000D01*
X104000000Y-65000000D02*
X105778000Y-62714000D01*
X104000000Y-65000000D02*
X106032000Y-62968000D01*
X104000000Y-65000000D02*
X106286000Y-63222000D01*
X104000000Y-65000000D02*
X106540000Y-63476000D01*
X104000000Y-65000000D02*
X106540000Y-63984000D01*
X104000000Y-65000000D02*
X106794000Y-64238000D01*
X104000000Y-65000000D02*
X106794000Y-64746000D01*
X104000000Y-65000000D02*
X106794000Y-65000000D01*
X107000000Y-65000000D02*
G75*
G03*
X107000000Y-65000000I-3000000J0D01*
G01*
D11*
%TO.C,CN4*%
X132300000Y-84500000D02*
X132400000Y-84500000D01*
X132300000Y-84500000D02*
X132300000Y-84300000D01*
X136700000Y-84500000D02*
X135100000Y-84500000D01*
X140500000Y-84500000D02*
X139100000Y-84500000D01*
X140500000Y-84500000D02*
X140500000Y-75500000D01*
X132300000Y-84000000D02*
X132300000Y-83800000D01*
X132300000Y-75500000D02*
X132300000Y-76200000D01*
X132300000Y-75500000D02*
X132400000Y-75500000D01*
X136700000Y-75500000D02*
X135100000Y-75500000D01*
X140500000Y-75500000D02*
X139100000Y-75500000D01*
D12*
%TO.C,MH3*%
X125000000Y-74000000D02*
X122206000Y-74000000D01*
X125000000Y-74000000D02*
X122206000Y-74254000D01*
X125000000Y-74000000D02*
X122206000Y-74508000D01*
X125000000Y-74000000D02*
X122206000Y-74762000D01*
X125000000Y-74000000D02*
X122460000Y-75016000D01*
X125000000Y-74000000D02*
X122460000Y-75270000D01*
X125000000Y-74000000D02*
X122714000Y-75524000D01*
X125000000Y-74000000D02*
X122968000Y-75778000D01*
X125000000Y-74000000D02*
X123222000Y-76032000D01*
X125000000Y-74000000D02*
X123476000Y-76286000D01*
X125000000Y-74000000D02*
X123730000Y-76540000D01*
X125000000Y-74000000D02*
X123984000Y-76540000D01*
X125000000Y-74000000D02*
X124238000Y-76540000D01*
X125000000Y-74000000D02*
X124492000Y-76794000D01*
X125000000Y-74000000D02*
X125000000Y-71206000D01*
X125000000Y-74000000D02*
X125000000Y-76794000D01*
X125000000Y-74000000D02*
X125508000Y-71206000D01*
X125000000Y-74000000D02*
X125762000Y-71206000D01*
X125000000Y-74000000D02*
X126016000Y-71460000D01*
X125000000Y-74000000D02*
X126524000Y-71460000D01*
X125000000Y-74000000D02*
X126778000Y-71714000D01*
X125000000Y-74000000D02*
X127032000Y-71968000D01*
X125000000Y-74000000D02*
X127286000Y-72222000D01*
X125000000Y-74000000D02*
X127540000Y-72476000D01*
X125000000Y-74000000D02*
X127540000Y-72984000D01*
X125000000Y-74000000D02*
X127794000Y-73238000D01*
X125000000Y-74000000D02*
X127794000Y-73746000D01*
X125000000Y-74000000D02*
X127794000Y-74000000D01*
X128000000Y-74000000D02*
G75*
G03*
X128000000Y-74000000I-3000000J0D01*
G01*
D11*
%TO.C,J3*%
X120684200Y-69450000D02*
X121684200Y-69450000D01*
X120684200Y-69450000D02*
X120684200Y-68450000D01*
X123184200Y-69450000D02*
X122484200Y-69450000D01*
X123184200Y-69450000D02*
X126684200Y-69450000D01*
X126684200Y-69450000D02*
X126684200Y-61750000D01*
X120684200Y-67650000D02*
X120684200Y-61750000D01*
X126684200Y-61750000D02*
X120684200Y-61750000D01*
%TD*%
M02*
