%TF.GenerationSoftware,KiCad,Pcbnew,7.0.2*%
%TF.CreationDate,2023-11-10T23:31:00+01:00*%
%TF.ProjectId,PoweredUSB-Adapter,506f7765-7265-4645-9553-422d41646170,rev?*%
%TF.SameCoordinates,Original*%
%TF.FileFunction,Drillmap*%
%TF.FilePolarity,Positive*%
%FSLAX45Y45*%
G04 Gerber Fmt 4.5, Leading zero omitted, Abs format (unit mm)*
G04 Created by KiCad (PCBNEW 7.0.2) date 2023-11-10 23:31:00*
%MOMM*%
%LPD*%
G01*
G04 APERTURE LIST*
%ADD10C,0.100000*%
%ADD11C,0.200000*%
%ADD12C,0.070000*%
%ADD13C,0.320000*%
G04 APERTURE END LIST*
D10*
X10000000Y-6000000D02*
X10000000Y-9500000D01*
X10000000Y-9500000D02*
X14000000Y-9500000D01*
X14000000Y-9500000D02*
X14000000Y-6000000D01*
X14000000Y-6000000D02*
X10000000Y-6000000D01*
D11*
D12*
X13387000Y-7676000D02*
X13457000Y-7746000D01*
X13457000Y-7676000D02*
X13387000Y-7746000D01*
X13387000Y-8254000D02*
X13457000Y-8324000D01*
X13457000Y-8254000D02*
X13387000Y-8324000D01*
D13*
X10560000Y-6500000D02*
G75*
G03*
X10560000Y-6500000I-160000J0D01*
G01*
X10560000Y-9000000D02*
G75*
G03*
X10560000Y-9000000I-160000J0D01*
G01*
X12660000Y-7400000D02*
G75*
G03*
X12660000Y-7400000I-160000J0D01*
G01*
X13760000Y-9000000D02*
G75*
G03*
X13760000Y-9000000I-160000J0D01*
G01*
D11*
X10242619Y-9817524D02*
X10242619Y-9617524D01*
X10242619Y-9617524D02*
X10290238Y-9617524D01*
X10290238Y-9617524D02*
X10318810Y-9627048D01*
X10318810Y-9627048D02*
X10337857Y-9646095D01*
X10337857Y-9646095D02*
X10347381Y-9665143D01*
X10347381Y-9665143D02*
X10356905Y-9703238D01*
X10356905Y-9703238D02*
X10356905Y-9731810D01*
X10356905Y-9731810D02*
X10347381Y-9769905D01*
X10347381Y-9769905D02*
X10337857Y-9788952D01*
X10337857Y-9788952D02*
X10318810Y-9808000D01*
X10318810Y-9808000D02*
X10290238Y-9817524D01*
X10290238Y-9817524D02*
X10242619Y-9817524D01*
X10442619Y-9817524D02*
X10442619Y-9684190D01*
X10442619Y-9722286D02*
X10452143Y-9703238D01*
X10452143Y-9703238D02*
X10461667Y-9693714D01*
X10461667Y-9693714D02*
X10480714Y-9684190D01*
X10480714Y-9684190D02*
X10499762Y-9684190D01*
X10566429Y-9817524D02*
X10566429Y-9684190D01*
X10566429Y-9617524D02*
X10556905Y-9627048D01*
X10556905Y-9627048D02*
X10566429Y-9636571D01*
X10566429Y-9636571D02*
X10575952Y-9627048D01*
X10575952Y-9627048D02*
X10566429Y-9617524D01*
X10566429Y-9617524D02*
X10566429Y-9636571D01*
X10690238Y-9817524D02*
X10671190Y-9808000D01*
X10671190Y-9808000D02*
X10661667Y-9788952D01*
X10661667Y-9788952D02*
X10661667Y-9617524D01*
X10795000Y-9817524D02*
X10775952Y-9808000D01*
X10775952Y-9808000D02*
X10766429Y-9788952D01*
X10766429Y-9788952D02*
X10766429Y-9617524D01*
X11023571Y-9817524D02*
X11023571Y-9617524D01*
X11023571Y-9617524D02*
X11090238Y-9760381D01*
X11090238Y-9760381D02*
X11156905Y-9617524D01*
X11156905Y-9617524D02*
X11156905Y-9817524D01*
X11337857Y-9817524D02*
X11337857Y-9712762D01*
X11337857Y-9712762D02*
X11328333Y-9693714D01*
X11328333Y-9693714D02*
X11309286Y-9684190D01*
X11309286Y-9684190D02*
X11271190Y-9684190D01*
X11271190Y-9684190D02*
X11252143Y-9693714D01*
X11337857Y-9808000D02*
X11318809Y-9817524D01*
X11318809Y-9817524D02*
X11271190Y-9817524D01*
X11271190Y-9817524D02*
X11252143Y-9808000D01*
X11252143Y-9808000D02*
X11242619Y-9788952D01*
X11242619Y-9788952D02*
X11242619Y-9769905D01*
X11242619Y-9769905D02*
X11252143Y-9750857D01*
X11252143Y-9750857D02*
X11271190Y-9741333D01*
X11271190Y-9741333D02*
X11318809Y-9741333D01*
X11318809Y-9741333D02*
X11337857Y-9731810D01*
X11433095Y-9684190D02*
X11433095Y-9884190D01*
X11433095Y-9693714D02*
X11452143Y-9684190D01*
X11452143Y-9684190D02*
X11490238Y-9684190D01*
X11490238Y-9684190D02*
X11509286Y-9693714D01*
X11509286Y-9693714D02*
X11518809Y-9703238D01*
X11518809Y-9703238D02*
X11528333Y-9722286D01*
X11528333Y-9722286D02*
X11528333Y-9779429D01*
X11528333Y-9779429D02*
X11518809Y-9798476D01*
X11518809Y-9798476D02*
X11509286Y-9808000D01*
X11509286Y-9808000D02*
X11490238Y-9817524D01*
X11490238Y-9817524D02*
X11452143Y-9817524D01*
X11452143Y-9817524D02*
X11433095Y-9808000D01*
X11614048Y-9798476D02*
X11623571Y-9808000D01*
X11623571Y-9808000D02*
X11614048Y-9817524D01*
X11614048Y-9817524D02*
X11604524Y-9808000D01*
X11604524Y-9808000D02*
X11614048Y-9798476D01*
X11614048Y-9798476D02*
X11614048Y-9817524D01*
X11614048Y-9693714D02*
X11623571Y-9703238D01*
X11623571Y-9703238D02*
X11614048Y-9712762D01*
X11614048Y-9712762D02*
X11604524Y-9703238D01*
X11604524Y-9703238D02*
X11614048Y-9693714D01*
X11614048Y-9693714D02*
X11614048Y-9712762D01*
D12*
X9925000Y-10110000D02*
X9995000Y-10180000D01*
X9995000Y-10110000D02*
X9925000Y-10180000D01*
D11*
X10280714Y-10037524D02*
X10299762Y-10037524D01*
X10299762Y-10037524D02*
X10318810Y-10047048D01*
X10318810Y-10047048D02*
X10328333Y-10056571D01*
X10328333Y-10056571D02*
X10337857Y-10075619D01*
X10337857Y-10075619D02*
X10347381Y-10113714D01*
X10347381Y-10113714D02*
X10347381Y-10161333D01*
X10347381Y-10161333D02*
X10337857Y-10199429D01*
X10337857Y-10199429D02*
X10328333Y-10218476D01*
X10328333Y-10218476D02*
X10318810Y-10228000D01*
X10318810Y-10228000D02*
X10299762Y-10237524D01*
X10299762Y-10237524D02*
X10280714Y-10237524D01*
X10280714Y-10237524D02*
X10261667Y-10228000D01*
X10261667Y-10228000D02*
X10252143Y-10218476D01*
X10252143Y-10218476D02*
X10242619Y-10199429D01*
X10242619Y-10199429D02*
X10233095Y-10161333D01*
X10233095Y-10161333D02*
X10233095Y-10113714D01*
X10233095Y-10113714D02*
X10242619Y-10075619D01*
X10242619Y-10075619D02*
X10252143Y-10056571D01*
X10252143Y-10056571D02*
X10261667Y-10047048D01*
X10261667Y-10047048D02*
X10280714Y-10037524D01*
X10433095Y-10218476D02*
X10442619Y-10228000D01*
X10442619Y-10228000D02*
X10433095Y-10237524D01*
X10433095Y-10237524D02*
X10423571Y-10228000D01*
X10423571Y-10228000D02*
X10433095Y-10218476D01*
X10433095Y-10218476D02*
X10433095Y-10237524D01*
X10509286Y-10037524D02*
X10642619Y-10037524D01*
X10642619Y-10037524D02*
X10556905Y-10237524D01*
X10756905Y-10037524D02*
X10775952Y-10037524D01*
X10775952Y-10037524D02*
X10795000Y-10047048D01*
X10795000Y-10047048D02*
X10804524Y-10056571D01*
X10804524Y-10056571D02*
X10814048Y-10075619D01*
X10814048Y-10075619D02*
X10823571Y-10113714D01*
X10823571Y-10113714D02*
X10823571Y-10161333D01*
X10823571Y-10161333D02*
X10814048Y-10199429D01*
X10814048Y-10199429D02*
X10804524Y-10218476D01*
X10804524Y-10218476D02*
X10795000Y-10228000D01*
X10795000Y-10228000D02*
X10775952Y-10237524D01*
X10775952Y-10237524D02*
X10756905Y-10237524D01*
X10756905Y-10237524D02*
X10737857Y-10228000D01*
X10737857Y-10228000D02*
X10728333Y-10218476D01*
X10728333Y-10218476D02*
X10718810Y-10199429D01*
X10718810Y-10199429D02*
X10709286Y-10161333D01*
X10709286Y-10161333D02*
X10709286Y-10113714D01*
X10709286Y-10113714D02*
X10718810Y-10075619D01*
X10718810Y-10075619D02*
X10728333Y-10056571D01*
X10728333Y-10056571D02*
X10737857Y-10047048D01*
X10737857Y-10047048D02*
X10756905Y-10037524D01*
X10947381Y-10037524D02*
X10966429Y-10037524D01*
X10966429Y-10037524D02*
X10985476Y-10047048D01*
X10985476Y-10047048D02*
X10995000Y-10056571D01*
X10995000Y-10056571D02*
X11004524Y-10075619D01*
X11004524Y-10075619D02*
X11014048Y-10113714D01*
X11014048Y-10113714D02*
X11014048Y-10161333D01*
X11014048Y-10161333D02*
X11004524Y-10199429D01*
X11004524Y-10199429D02*
X10995000Y-10218476D01*
X10995000Y-10218476D02*
X10985476Y-10228000D01*
X10985476Y-10228000D02*
X10966429Y-10237524D01*
X10966429Y-10237524D02*
X10947381Y-10237524D01*
X10947381Y-10237524D02*
X10928333Y-10228000D01*
X10928333Y-10228000D02*
X10918810Y-10218476D01*
X10918810Y-10218476D02*
X10909286Y-10199429D01*
X10909286Y-10199429D02*
X10899762Y-10161333D01*
X10899762Y-10161333D02*
X10899762Y-10113714D01*
X10899762Y-10113714D02*
X10909286Y-10075619D01*
X10909286Y-10075619D02*
X10918810Y-10056571D01*
X10918810Y-10056571D02*
X10928333Y-10047048D01*
X10928333Y-10047048D02*
X10947381Y-10037524D01*
X11099762Y-10237524D02*
X11099762Y-10104190D01*
X11099762Y-10123238D02*
X11109286Y-10113714D01*
X11109286Y-10113714D02*
X11128333Y-10104190D01*
X11128333Y-10104190D02*
X11156905Y-10104190D01*
X11156905Y-10104190D02*
X11175952Y-10113714D01*
X11175952Y-10113714D02*
X11185476Y-10132762D01*
X11185476Y-10132762D02*
X11185476Y-10237524D01*
X11185476Y-10132762D02*
X11195000Y-10113714D01*
X11195000Y-10113714D02*
X11214048Y-10104190D01*
X11214048Y-10104190D02*
X11242619Y-10104190D01*
X11242619Y-10104190D02*
X11261667Y-10113714D01*
X11261667Y-10113714D02*
X11271190Y-10132762D01*
X11271190Y-10132762D02*
X11271190Y-10237524D01*
X11366429Y-10237524D02*
X11366429Y-10104190D01*
X11366429Y-10123238D02*
X11375952Y-10113714D01*
X11375952Y-10113714D02*
X11395000Y-10104190D01*
X11395000Y-10104190D02*
X11423571Y-10104190D01*
X11423571Y-10104190D02*
X11442619Y-10113714D01*
X11442619Y-10113714D02*
X11452143Y-10132762D01*
X11452143Y-10132762D02*
X11452143Y-10237524D01*
X11452143Y-10132762D02*
X11461667Y-10113714D01*
X11461667Y-10113714D02*
X11480714Y-10104190D01*
X11480714Y-10104190D02*
X11509286Y-10104190D01*
X11509286Y-10104190D02*
X11528333Y-10113714D01*
X11528333Y-10113714D02*
X11537857Y-10132762D01*
X11537857Y-10132762D02*
X11537857Y-10237524D01*
X11928333Y-10028000D02*
X11756905Y-10285143D01*
X12185476Y-10037524D02*
X12204524Y-10037524D01*
X12204524Y-10037524D02*
X12223572Y-10047048D01*
X12223572Y-10047048D02*
X12233095Y-10056571D01*
X12233095Y-10056571D02*
X12242619Y-10075619D01*
X12242619Y-10075619D02*
X12252143Y-10113714D01*
X12252143Y-10113714D02*
X12252143Y-10161333D01*
X12252143Y-10161333D02*
X12242619Y-10199429D01*
X12242619Y-10199429D02*
X12233095Y-10218476D01*
X12233095Y-10218476D02*
X12223572Y-10228000D01*
X12223572Y-10228000D02*
X12204524Y-10237524D01*
X12204524Y-10237524D02*
X12185476Y-10237524D01*
X12185476Y-10237524D02*
X12166429Y-10228000D01*
X12166429Y-10228000D02*
X12156905Y-10218476D01*
X12156905Y-10218476D02*
X12147381Y-10199429D01*
X12147381Y-10199429D02*
X12137857Y-10161333D01*
X12137857Y-10161333D02*
X12137857Y-10113714D01*
X12137857Y-10113714D02*
X12147381Y-10075619D01*
X12147381Y-10075619D02*
X12156905Y-10056571D01*
X12156905Y-10056571D02*
X12166429Y-10047048D01*
X12166429Y-10047048D02*
X12185476Y-10037524D01*
X12337857Y-10218476D02*
X12347381Y-10228000D01*
X12347381Y-10228000D02*
X12337857Y-10237524D01*
X12337857Y-10237524D02*
X12328333Y-10228000D01*
X12328333Y-10228000D02*
X12337857Y-10218476D01*
X12337857Y-10218476D02*
X12337857Y-10237524D01*
X12471191Y-10037524D02*
X12490238Y-10037524D01*
X12490238Y-10037524D02*
X12509286Y-10047048D01*
X12509286Y-10047048D02*
X12518810Y-10056571D01*
X12518810Y-10056571D02*
X12528333Y-10075619D01*
X12528333Y-10075619D02*
X12537857Y-10113714D01*
X12537857Y-10113714D02*
X12537857Y-10161333D01*
X12537857Y-10161333D02*
X12528333Y-10199429D01*
X12528333Y-10199429D02*
X12518810Y-10218476D01*
X12518810Y-10218476D02*
X12509286Y-10228000D01*
X12509286Y-10228000D02*
X12490238Y-10237524D01*
X12490238Y-10237524D02*
X12471191Y-10237524D01*
X12471191Y-10237524D02*
X12452143Y-10228000D01*
X12452143Y-10228000D02*
X12442619Y-10218476D01*
X12442619Y-10218476D02*
X12433095Y-10199429D01*
X12433095Y-10199429D02*
X12423572Y-10161333D01*
X12423572Y-10161333D02*
X12423572Y-10113714D01*
X12423572Y-10113714D02*
X12433095Y-10075619D01*
X12433095Y-10075619D02*
X12442619Y-10056571D01*
X12442619Y-10056571D02*
X12452143Y-10047048D01*
X12452143Y-10047048D02*
X12471191Y-10037524D01*
X12614048Y-10056571D02*
X12623572Y-10047048D01*
X12623572Y-10047048D02*
X12642619Y-10037524D01*
X12642619Y-10037524D02*
X12690238Y-10037524D01*
X12690238Y-10037524D02*
X12709286Y-10047048D01*
X12709286Y-10047048D02*
X12718810Y-10056571D01*
X12718810Y-10056571D02*
X12728333Y-10075619D01*
X12728333Y-10075619D02*
X12728333Y-10094667D01*
X12728333Y-10094667D02*
X12718810Y-10123238D01*
X12718810Y-10123238D02*
X12604524Y-10237524D01*
X12604524Y-10237524D02*
X12728333Y-10237524D01*
X12795000Y-10037524D02*
X12928333Y-10037524D01*
X12928333Y-10037524D02*
X12842619Y-10237524D01*
X13090238Y-10037524D02*
X13052143Y-10037524D01*
X13052143Y-10037524D02*
X13033095Y-10047048D01*
X13033095Y-10047048D02*
X13023572Y-10056571D01*
X13023572Y-10056571D02*
X13004524Y-10085143D01*
X13004524Y-10085143D02*
X12995000Y-10123238D01*
X12995000Y-10123238D02*
X12995000Y-10199429D01*
X12995000Y-10199429D02*
X13004524Y-10218476D01*
X13004524Y-10218476D02*
X13014048Y-10228000D01*
X13014048Y-10228000D02*
X13033095Y-10237524D01*
X13033095Y-10237524D02*
X13071191Y-10237524D01*
X13071191Y-10237524D02*
X13090238Y-10228000D01*
X13090238Y-10228000D02*
X13099762Y-10218476D01*
X13099762Y-10218476D02*
X13109286Y-10199429D01*
X13109286Y-10199429D02*
X13109286Y-10151810D01*
X13109286Y-10151810D02*
X13099762Y-10132762D01*
X13099762Y-10132762D02*
X13090238Y-10123238D01*
X13090238Y-10123238D02*
X13071191Y-10113714D01*
X13071191Y-10113714D02*
X13033095Y-10113714D01*
X13033095Y-10113714D02*
X13014048Y-10123238D01*
X13014048Y-10123238D02*
X13004524Y-10132762D01*
X13004524Y-10132762D02*
X12995000Y-10151810D01*
X13185476Y-10037524D02*
X13185476Y-10075619D01*
X13261667Y-10037524D02*
X13261667Y-10075619D01*
X13556905Y-10313714D02*
X13547381Y-10304190D01*
X13547381Y-10304190D02*
X13528334Y-10275619D01*
X13528334Y-10275619D02*
X13518810Y-10256571D01*
X13518810Y-10256571D02*
X13509286Y-10228000D01*
X13509286Y-10228000D02*
X13499762Y-10180381D01*
X13499762Y-10180381D02*
X13499762Y-10142286D01*
X13499762Y-10142286D02*
X13509286Y-10094667D01*
X13509286Y-10094667D02*
X13518810Y-10066095D01*
X13518810Y-10066095D02*
X13528334Y-10047048D01*
X13528334Y-10047048D02*
X13547381Y-10018476D01*
X13547381Y-10018476D02*
X13556905Y-10008952D01*
X13623572Y-10056571D02*
X13633095Y-10047048D01*
X13633095Y-10047048D02*
X13652143Y-10037524D01*
X13652143Y-10037524D02*
X13699762Y-10037524D01*
X13699762Y-10037524D02*
X13718810Y-10047048D01*
X13718810Y-10047048D02*
X13728334Y-10056571D01*
X13728334Y-10056571D02*
X13737857Y-10075619D01*
X13737857Y-10075619D02*
X13737857Y-10094667D01*
X13737857Y-10094667D02*
X13728334Y-10123238D01*
X13728334Y-10123238D02*
X13614048Y-10237524D01*
X13614048Y-10237524D02*
X13737857Y-10237524D01*
X13975953Y-10237524D02*
X13975953Y-10037524D01*
X14061667Y-10237524D02*
X14061667Y-10132762D01*
X14061667Y-10132762D02*
X14052143Y-10113714D01*
X14052143Y-10113714D02*
X14033096Y-10104190D01*
X14033096Y-10104190D02*
X14004524Y-10104190D01*
X14004524Y-10104190D02*
X13985476Y-10113714D01*
X13985476Y-10113714D02*
X13975953Y-10123238D01*
X14185476Y-10237524D02*
X14166429Y-10228000D01*
X14166429Y-10228000D02*
X14156905Y-10218476D01*
X14156905Y-10218476D02*
X14147381Y-10199429D01*
X14147381Y-10199429D02*
X14147381Y-10142286D01*
X14147381Y-10142286D02*
X14156905Y-10123238D01*
X14156905Y-10123238D02*
X14166429Y-10113714D01*
X14166429Y-10113714D02*
X14185476Y-10104190D01*
X14185476Y-10104190D02*
X14214048Y-10104190D01*
X14214048Y-10104190D02*
X14233096Y-10113714D01*
X14233096Y-10113714D02*
X14242619Y-10123238D01*
X14242619Y-10123238D02*
X14252143Y-10142286D01*
X14252143Y-10142286D02*
X14252143Y-10199429D01*
X14252143Y-10199429D02*
X14242619Y-10218476D01*
X14242619Y-10218476D02*
X14233096Y-10228000D01*
X14233096Y-10228000D02*
X14214048Y-10237524D01*
X14214048Y-10237524D02*
X14185476Y-10237524D01*
X14366429Y-10237524D02*
X14347381Y-10228000D01*
X14347381Y-10228000D02*
X14337857Y-10208952D01*
X14337857Y-10208952D02*
X14337857Y-10037524D01*
X14518810Y-10228000D02*
X14499762Y-10237524D01*
X14499762Y-10237524D02*
X14461667Y-10237524D01*
X14461667Y-10237524D02*
X14442619Y-10228000D01*
X14442619Y-10228000D02*
X14433096Y-10208952D01*
X14433096Y-10208952D02*
X14433096Y-10132762D01*
X14433096Y-10132762D02*
X14442619Y-10113714D01*
X14442619Y-10113714D02*
X14461667Y-10104190D01*
X14461667Y-10104190D02*
X14499762Y-10104190D01*
X14499762Y-10104190D02*
X14518810Y-10113714D01*
X14518810Y-10113714D02*
X14528334Y-10132762D01*
X14528334Y-10132762D02*
X14528334Y-10151810D01*
X14528334Y-10151810D02*
X14433096Y-10170857D01*
X14604524Y-10228000D02*
X14623572Y-10237524D01*
X14623572Y-10237524D02*
X14661667Y-10237524D01*
X14661667Y-10237524D02*
X14680715Y-10228000D01*
X14680715Y-10228000D02*
X14690238Y-10208952D01*
X14690238Y-10208952D02*
X14690238Y-10199429D01*
X14690238Y-10199429D02*
X14680715Y-10180381D01*
X14680715Y-10180381D02*
X14661667Y-10170857D01*
X14661667Y-10170857D02*
X14633096Y-10170857D01*
X14633096Y-10170857D02*
X14614048Y-10161333D01*
X14614048Y-10161333D02*
X14604524Y-10142286D01*
X14604524Y-10142286D02*
X14604524Y-10132762D01*
X14604524Y-10132762D02*
X14614048Y-10113714D01*
X14614048Y-10113714D02*
X14633096Y-10104190D01*
X14633096Y-10104190D02*
X14661667Y-10104190D01*
X14661667Y-10104190D02*
X14680715Y-10113714D01*
X14756905Y-10313714D02*
X14766429Y-10304190D01*
X14766429Y-10304190D02*
X14785477Y-10275619D01*
X14785477Y-10275619D02*
X14795000Y-10256571D01*
X14795000Y-10256571D02*
X14804524Y-10228000D01*
X14804524Y-10228000D02*
X14814048Y-10180381D01*
X14814048Y-10180381D02*
X14814048Y-10142286D01*
X14814048Y-10142286D02*
X14804524Y-10094667D01*
X14804524Y-10094667D02*
X14795000Y-10066095D01*
X14795000Y-10066095D02*
X14785477Y-10047048D01*
X14785477Y-10047048D02*
X14766429Y-10018476D01*
X14766429Y-10018476D02*
X14756905Y-10008952D01*
X15118810Y-10313714D02*
X15109286Y-10304190D01*
X15109286Y-10304190D02*
X15090238Y-10275619D01*
X15090238Y-10275619D02*
X15080715Y-10256571D01*
X15080715Y-10256571D02*
X15071191Y-10228000D01*
X15071191Y-10228000D02*
X15061667Y-10180381D01*
X15061667Y-10180381D02*
X15061667Y-10142286D01*
X15061667Y-10142286D02*
X15071191Y-10094667D01*
X15071191Y-10094667D02*
X15080715Y-10066095D01*
X15080715Y-10066095D02*
X15090238Y-10047048D01*
X15090238Y-10047048D02*
X15109286Y-10018476D01*
X15109286Y-10018476D02*
X15118810Y-10008952D01*
X15195000Y-10104190D02*
X15195000Y-10237524D01*
X15195000Y-10123238D02*
X15204524Y-10113714D01*
X15204524Y-10113714D02*
X15223572Y-10104190D01*
X15223572Y-10104190D02*
X15252143Y-10104190D01*
X15252143Y-10104190D02*
X15271191Y-10113714D01*
X15271191Y-10113714D02*
X15280715Y-10132762D01*
X15280715Y-10132762D02*
X15280715Y-10237524D01*
X15404524Y-10237524D02*
X15385477Y-10228000D01*
X15385477Y-10228000D02*
X15375953Y-10218476D01*
X15375953Y-10218476D02*
X15366429Y-10199429D01*
X15366429Y-10199429D02*
X15366429Y-10142286D01*
X15366429Y-10142286D02*
X15375953Y-10123238D01*
X15375953Y-10123238D02*
X15385477Y-10113714D01*
X15385477Y-10113714D02*
X15404524Y-10104190D01*
X15404524Y-10104190D02*
X15433096Y-10104190D01*
X15433096Y-10104190D02*
X15452143Y-10113714D01*
X15452143Y-10113714D02*
X15461667Y-10123238D01*
X15461667Y-10123238D02*
X15471191Y-10142286D01*
X15471191Y-10142286D02*
X15471191Y-10199429D01*
X15471191Y-10199429D02*
X15461667Y-10218476D01*
X15461667Y-10218476D02*
X15452143Y-10228000D01*
X15452143Y-10228000D02*
X15433096Y-10237524D01*
X15433096Y-10237524D02*
X15404524Y-10237524D01*
X15528334Y-10104190D02*
X15604524Y-10104190D01*
X15556905Y-10037524D02*
X15556905Y-10208952D01*
X15556905Y-10208952D02*
X15566429Y-10228000D01*
X15566429Y-10228000D02*
X15585477Y-10237524D01*
X15585477Y-10237524D02*
X15604524Y-10237524D01*
X15823572Y-10104190D02*
X15823572Y-10304190D01*
X15823572Y-10113714D02*
X15842619Y-10104190D01*
X15842619Y-10104190D02*
X15880715Y-10104190D01*
X15880715Y-10104190D02*
X15899762Y-10113714D01*
X15899762Y-10113714D02*
X15909286Y-10123238D01*
X15909286Y-10123238D02*
X15918810Y-10142286D01*
X15918810Y-10142286D02*
X15918810Y-10199429D01*
X15918810Y-10199429D02*
X15909286Y-10218476D01*
X15909286Y-10218476D02*
X15899762Y-10228000D01*
X15899762Y-10228000D02*
X15880715Y-10237524D01*
X15880715Y-10237524D02*
X15842619Y-10237524D01*
X15842619Y-10237524D02*
X15823572Y-10228000D01*
X16033096Y-10237524D02*
X16014048Y-10228000D01*
X16014048Y-10228000D02*
X16004524Y-10208952D01*
X16004524Y-10208952D02*
X16004524Y-10037524D01*
X16195000Y-10237524D02*
X16195000Y-10132762D01*
X16195000Y-10132762D02*
X16185477Y-10113714D01*
X16185477Y-10113714D02*
X16166429Y-10104190D01*
X16166429Y-10104190D02*
X16128334Y-10104190D01*
X16128334Y-10104190D02*
X16109286Y-10113714D01*
X16195000Y-10228000D02*
X16175953Y-10237524D01*
X16175953Y-10237524D02*
X16128334Y-10237524D01*
X16128334Y-10237524D02*
X16109286Y-10228000D01*
X16109286Y-10228000D02*
X16099762Y-10208952D01*
X16099762Y-10208952D02*
X16099762Y-10189905D01*
X16099762Y-10189905D02*
X16109286Y-10170857D01*
X16109286Y-10170857D02*
X16128334Y-10161333D01*
X16128334Y-10161333D02*
X16175953Y-10161333D01*
X16175953Y-10161333D02*
X16195000Y-10151810D01*
X16261667Y-10104190D02*
X16337858Y-10104190D01*
X16290239Y-10037524D02*
X16290239Y-10208952D01*
X16290239Y-10208952D02*
X16299762Y-10228000D01*
X16299762Y-10228000D02*
X16318810Y-10237524D01*
X16318810Y-10237524D02*
X16337858Y-10237524D01*
X16480715Y-10228000D02*
X16461667Y-10237524D01*
X16461667Y-10237524D02*
X16423572Y-10237524D01*
X16423572Y-10237524D02*
X16404524Y-10228000D01*
X16404524Y-10228000D02*
X16395000Y-10208952D01*
X16395000Y-10208952D02*
X16395000Y-10132762D01*
X16395000Y-10132762D02*
X16404524Y-10113714D01*
X16404524Y-10113714D02*
X16423572Y-10104190D01*
X16423572Y-10104190D02*
X16461667Y-10104190D01*
X16461667Y-10104190D02*
X16480715Y-10113714D01*
X16480715Y-10113714D02*
X16490239Y-10132762D01*
X16490239Y-10132762D02*
X16490239Y-10151810D01*
X16490239Y-10151810D02*
X16395000Y-10170857D01*
X16661667Y-10237524D02*
X16661667Y-10037524D01*
X16661667Y-10228000D02*
X16642620Y-10237524D01*
X16642620Y-10237524D02*
X16604524Y-10237524D01*
X16604524Y-10237524D02*
X16585477Y-10228000D01*
X16585477Y-10228000D02*
X16575953Y-10218476D01*
X16575953Y-10218476D02*
X16566429Y-10199429D01*
X16566429Y-10199429D02*
X16566429Y-10142286D01*
X16566429Y-10142286D02*
X16575953Y-10123238D01*
X16575953Y-10123238D02*
X16585477Y-10113714D01*
X16585477Y-10113714D02*
X16604524Y-10104190D01*
X16604524Y-10104190D02*
X16642620Y-10104190D01*
X16642620Y-10104190D02*
X16661667Y-10113714D01*
X16737858Y-10313714D02*
X16747381Y-10304190D01*
X16747381Y-10304190D02*
X16766429Y-10275619D01*
X16766429Y-10275619D02*
X16775953Y-10256571D01*
X16775953Y-10256571D02*
X16785477Y-10228000D01*
X16785477Y-10228000D02*
X16795001Y-10180381D01*
X16795001Y-10180381D02*
X16795001Y-10142286D01*
X16795001Y-10142286D02*
X16785477Y-10094667D01*
X16785477Y-10094667D02*
X16775953Y-10066095D01*
X16775953Y-10066095D02*
X16766429Y-10047048D01*
X16766429Y-10047048D02*
X16747381Y-10018476D01*
X16747381Y-10018476D02*
X16737858Y-10008952D01*
X9995000Y-10409000D02*
G75*
G03*
X9995000Y-10409000I-100000J0D01*
G01*
X10223571Y-10301524D02*
X10347381Y-10301524D01*
X10347381Y-10301524D02*
X10280714Y-10377714D01*
X10280714Y-10377714D02*
X10309286Y-10377714D01*
X10309286Y-10377714D02*
X10328333Y-10387238D01*
X10328333Y-10387238D02*
X10337857Y-10396762D01*
X10337857Y-10396762D02*
X10347381Y-10415810D01*
X10347381Y-10415810D02*
X10347381Y-10463429D01*
X10347381Y-10463429D02*
X10337857Y-10482476D01*
X10337857Y-10482476D02*
X10328333Y-10492000D01*
X10328333Y-10492000D02*
X10309286Y-10501524D01*
X10309286Y-10501524D02*
X10252143Y-10501524D01*
X10252143Y-10501524D02*
X10233095Y-10492000D01*
X10233095Y-10492000D02*
X10223571Y-10482476D01*
X10433095Y-10482476D02*
X10442619Y-10492000D01*
X10442619Y-10492000D02*
X10433095Y-10501524D01*
X10433095Y-10501524D02*
X10423571Y-10492000D01*
X10423571Y-10492000D02*
X10433095Y-10482476D01*
X10433095Y-10482476D02*
X10433095Y-10501524D01*
X10518810Y-10320571D02*
X10528333Y-10311048D01*
X10528333Y-10311048D02*
X10547381Y-10301524D01*
X10547381Y-10301524D02*
X10595000Y-10301524D01*
X10595000Y-10301524D02*
X10614048Y-10311048D01*
X10614048Y-10311048D02*
X10623571Y-10320571D01*
X10623571Y-10320571D02*
X10633095Y-10339619D01*
X10633095Y-10339619D02*
X10633095Y-10358667D01*
X10633095Y-10358667D02*
X10623571Y-10387238D01*
X10623571Y-10387238D02*
X10509286Y-10501524D01*
X10509286Y-10501524D02*
X10633095Y-10501524D01*
X10756905Y-10301524D02*
X10775952Y-10301524D01*
X10775952Y-10301524D02*
X10795000Y-10311048D01*
X10795000Y-10311048D02*
X10804524Y-10320571D01*
X10804524Y-10320571D02*
X10814048Y-10339619D01*
X10814048Y-10339619D02*
X10823571Y-10377714D01*
X10823571Y-10377714D02*
X10823571Y-10425333D01*
X10823571Y-10425333D02*
X10814048Y-10463429D01*
X10814048Y-10463429D02*
X10804524Y-10482476D01*
X10804524Y-10482476D02*
X10795000Y-10492000D01*
X10795000Y-10492000D02*
X10775952Y-10501524D01*
X10775952Y-10501524D02*
X10756905Y-10501524D01*
X10756905Y-10501524D02*
X10737857Y-10492000D01*
X10737857Y-10492000D02*
X10728333Y-10482476D01*
X10728333Y-10482476D02*
X10718810Y-10463429D01*
X10718810Y-10463429D02*
X10709286Y-10425333D01*
X10709286Y-10425333D02*
X10709286Y-10377714D01*
X10709286Y-10377714D02*
X10718810Y-10339619D01*
X10718810Y-10339619D02*
X10728333Y-10320571D01*
X10728333Y-10320571D02*
X10737857Y-10311048D01*
X10737857Y-10311048D02*
X10756905Y-10301524D01*
X10947381Y-10301524D02*
X10966429Y-10301524D01*
X10966429Y-10301524D02*
X10985476Y-10311048D01*
X10985476Y-10311048D02*
X10995000Y-10320571D01*
X10995000Y-10320571D02*
X11004524Y-10339619D01*
X11004524Y-10339619D02*
X11014048Y-10377714D01*
X11014048Y-10377714D02*
X11014048Y-10425333D01*
X11014048Y-10425333D02*
X11004524Y-10463429D01*
X11004524Y-10463429D02*
X10995000Y-10482476D01*
X10995000Y-10482476D02*
X10985476Y-10492000D01*
X10985476Y-10492000D02*
X10966429Y-10501524D01*
X10966429Y-10501524D02*
X10947381Y-10501524D01*
X10947381Y-10501524D02*
X10928333Y-10492000D01*
X10928333Y-10492000D02*
X10918810Y-10482476D01*
X10918810Y-10482476D02*
X10909286Y-10463429D01*
X10909286Y-10463429D02*
X10899762Y-10425333D01*
X10899762Y-10425333D02*
X10899762Y-10377714D01*
X10899762Y-10377714D02*
X10909286Y-10339619D01*
X10909286Y-10339619D02*
X10918810Y-10320571D01*
X10918810Y-10320571D02*
X10928333Y-10311048D01*
X10928333Y-10311048D02*
X10947381Y-10301524D01*
X11099762Y-10501524D02*
X11099762Y-10368190D01*
X11099762Y-10387238D02*
X11109286Y-10377714D01*
X11109286Y-10377714D02*
X11128333Y-10368190D01*
X11128333Y-10368190D02*
X11156905Y-10368190D01*
X11156905Y-10368190D02*
X11175952Y-10377714D01*
X11175952Y-10377714D02*
X11185476Y-10396762D01*
X11185476Y-10396762D02*
X11185476Y-10501524D01*
X11185476Y-10396762D02*
X11195000Y-10377714D01*
X11195000Y-10377714D02*
X11214048Y-10368190D01*
X11214048Y-10368190D02*
X11242619Y-10368190D01*
X11242619Y-10368190D02*
X11261667Y-10377714D01*
X11261667Y-10377714D02*
X11271190Y-10396762D01*
X11271190Y-10396762D02*
X11271190Y-10501524D01*
X11366429Y-10501524D02*
X11366429Y-10368190D01*
X11366429Y-10387238D02*
X11375952Y-10377714D01*
X11375952Y-10377714D02*
X11395000Y-10368190D01*
X11395000Y-10368190D02*
X11423571Y-10368190D01*
X11423571Y-10368190D02*
X11442619Y-10377714D01*
X11442619Y-10377714D02*
X11452143Y-10396762D01*
X11452143Y-10396762D02*
X11452143Y-10501524D01*
X11452143Y-10396762D02*
X11461667Y-10377714D01*
X11461667Y-10377714D02*
X11480714Y-10368190D01*
X11480714Y-10368190D02*
X11509286Y-10368190D01*
X11509286Y-10368190D02*
X11528333Y-10377714D01*
X11528333Y-10377714D02*
X11537857Y-10396762D01*
X11537857Y-10396762D02*
X11537857Y-10501524D01*
X11928333Y-10292000D02*
X11756905Y-10549143D01*
X12185476Y-10301524D02*
X12204524Y-10301524D01*
X12204524Y-10301524D02*
X12223572Y-10311048D01*
X12223572Y-10311048D02*
X12233095Y-10320571D01*
X12233095Y-10320571D02*
X12242619Y-10339619D01*
X12242619Y-10339619D02*
X12252143Y-10377714D01*
X12252143Y-10377714D02*
X12252143Y-10425333D01*
X12252143Y-10425333D02*
X12242619Y-10463429D01*
X12242619Y-10463429D02*
X12233095Y-10482476D01*
X12233095Y-10482476D02*
X12223572Y-10492000D01*
X12223572Y-10492000D02*
X12204524Y-10501524D01*
X12204524Y-10501524D02*
X12185476Y-10501524D01*
X12185476Y-10501524D02*
X12166429Y-10492000D01*
X12166429Y-10492000D02*
X12156905Y-10482476D01*
X12156905Y-10482476D02*
X12147381Y-10463429D01*
X12147381Y-10463429D02*
X12137857Y-10425333D01*
X12137857Y-10425333D02*
X12137857Y-10377714D01*
X12137857Y-10377714D02*
X12147381Y-10339619D01*
X12147381Y-10339619D02*
X12156905Y-10320571D01*
X12156905Y-10320571D02*
X12166429Y-10311048D01*
X12166429Y-10311048D02*
X12185476Y-10301524D01*
X12337857Y-10482476D02*
X12347381Y-10492000D01*
X12347381Y-10492000D02*
X12337857Y-10501524D01*
X12337857Y-10501524D02*
X12328333Y-10492000D01*
X12328333Y-10492000D02*
X12337857Y-10482476D01*
X12337857Y-10482476D02*
X12337857Y-10501524D01*
X12537857Y-10501524D02*
X12423572Y-10501524D01*
X12480714Y-10501524D02*
X12480714Y-10301524D01*
X12480714Y-10301524D02*
X12461667Y-10330095D01*
X12461667Y-10330095D02*
X12442619Y-10349143D01*
X12442619Y-10349143D02*
X12423572Y-10358667D01*
X12614048Y-10320571D02*
X12623572Y-10311048D01*
X12623572Y-10311048D02*
X12642619Y-10301524D01*
X12642619Y-10301524D02*
X12690238Y-10301524D01*
X12690238Y-10301524D02*
X12709286Y-10311048D01*
X12709286Y-10311048D02*
X12718810Y-10320571D01*
X12718810Y-10320571D02*
X12728333Y-10339619D01*
X12728333Y-10339619D02*
X12728333Y-10358667D01*
X12728333Y-10358667D02*
X12718810Y-10387238D01*
X12718810Y-10387238D02*
X12604524Y-10501524D01*
X12604524Y-10501524D02*
X12728333Y-10501524D01*
X12899762Y-10301524D02*
X12861667Y-10301524D01*
X12861667Y-10301524D02*
X12842619Y-10311048D01*
X12842619Y-10311048D02*
X12833095Y-10320571D01*
X12833095Y-10320571D02*
X12814048Y-10349143D01*
X12814048Y-10349143D02*
X12804524Y-10387238D01*
X12804524Y-10387238D02*
X12804524Y-10463429D01*
X12804524Y-10463429D02*
X12814048Y-10482476D01*
X12814048Y-10482476D02*
X12823572Y-10492000D01*
X12823572Y-10492000D02*
X12842619Y-10501524D01*
X12842619Y-10501524D02*
X12880714Y-10501524D01*
X12880714Y-10501524D02*
X12899762Y-10492000D01*
X12899762Y-10492000D02*
X12909286Y-10482476D01*
X12909286Y-10482476D02*
X12918810Y-10463429D01*
X12918810Y-10463429D02*
X12918810Y-10415810D01*
X12918810Y-10415810D02*
X12909286Y-10396762D01*
X12909286Y-10396762D02*
X12899762Y-10387238D01*
X12899762Y-10387238D02*
X12880714Y-10377714D01*
X12880714Y-10377714D02*
X12842619Y-10377714D01*
X12842619Y-10377714D02*
X12823572Y-10387238D01*
X12823572Y-10387238D02*
X12814048Y-10396762D01*
X12814048Y-10396762D02*
X12804524Y-10415810D01*
X13042619Y-10301524D02*
X13061667Y-10301524D01*
X13061667Y-10301524D02*
X13080714Y-10311048D01*
X13080714Y-10311048D02*
X13090238Y-10320571D01*
X13090238Y-10320571D02*
X13099762Y-10339619D01*
X13099762Y-10339619D02*
X13109286Y-10377714D01*
X13109286Y-10377714D02*
X13109286Y-10425333D01*
X13109286Y-10425333D02*
X13099762Y-10463429D01*
X13099762Y-10463429D02*
X13090238Y-10482476D01*
X13090238Y-10482476D02*
X13080714Y-10492000D01*
X13080714Y-10492000D02*
X13061667Y-10501524D01*
X13061667Y-10501524D02*
X13042619Y-10501524D01*
X13042619Y-10501524D02*
X13023572Y-10492000D01*
X13023572Y-10492000D02*
X13014048Y-10482476D01*
X13014048Y-10482476D02*
X13004524Y-10463429D01*
X13004524Y-10463429D02*
X12995000Y-10425333D01*
X12995000Y-10425333D02*
X12995000Y-10377714D01*
X12995000Y-10377714D02*
X13004524Y-10339619D01*
X13004524Y-10339619D02*
X13014048Y-10320571D01*
X13014048Y-10320571D02*
X13023572Y-10311048D01*
X13023572Y-10311048D02*
X13042619Y-10301524D01*
X13185476Y-10301524D02*
X13185476Y-10339619D01*
X13261667Y-10301524D02*
X13261667Y-10339619D01*
X13556905Y-10577714D02*
X13547381Y-10568190D01*
X13547381Y-10568190D02*
X13528334Y-10539619D01*
X13528334Y-10539619D02*
X13518810Y-10520571D01*
X13518810Y-10520571D02*
X13509286Y-10492000D01*
X13509286Y-10492000D02*
X13499762Y-10444381D01*
X13499762Y-10444381D02*
X13499762Y-10406286D01*
X13499762Y-10406286D02*
X13509286Y-10358667D01*
X13509286Y-10358667D02*
X13518810Y-10330095D01*
X13518810Y-10330095D02*
X13528334Y-10311048D01*
X13528334Y-10311048D02*
X13547381Y-10282476D01*
X13547381Y-10282476D02*
X13556905Y-10272952D01*
X13718810Y-10368190D02*
X13718810Y-10501524D01*
X13671191Y-10292000D02*
X13623572Y-10434857D01*
X13623572Y-10434857D02*
X13747381Y-10434857D01*
X13975953Y-10501524D02*
X13975953Y-10301524D01*
X14061667Y-10501524D02*
X14061667Y-10396762D01*
X14061667Y-10396762D02*
X14052143Y-10377714D01*
X14052143Y-10377714D02*
X14033096Y-10368190D01*
X14033096Y-10368190D02*
X14004524Y-10368190D01*
X14004524Y-10368190D02*
X13985476Y-10377714D01*
X13985476Y-10377714D02*
X13975953Y-10387238D01*
X14185476Y-10501524D02*
X14166429Y-10492000D01*
X14166429Y-10492000D02*
X14156905Y-10482476D01*
X14156905Y-10482476D02*
X14147381Y-10463429D01*
X14147381Y-10463429D02*
X14147381Y-10406286D01*
X14147381Y-10406286D02*
X14156905Y-10387238D01*
X14156905Y-10387238D02*
X14166429Y-10377714D01*
X14166429Y-10377714D02*
X14185476Y-10368190D01*
X14185476Y-10368190D02*
X14214048Y-10368190D01*
X14214048Y-10368190D02*
X14233096Y-10377714D01*
X14233096Y-10377714D02*
X14242619Y-10387238D01*
X14242619Y-10387238D02*
X14252143Y-10406286D01*
X14252143Y-10406286D02*
X14252143Y-10463429D01*
X14252143Y-10463429D02*
X14242619Y-10482476D01*
X14242619Y-10482476D02*
X14233096Y-10492000D01*
X14233096Y-10492000D02*
X14214048Y-10501524D01*
X14214048Y-10501524D02*
X14185476Y-10501524D01*
X14366429Y-10501524D02*
X14347381Y-10492000D01*
X14347381Y-10492000D02*
X14337857Y-10472952D01*
X14337857Y-10472952D02*
X14337857Y-10301524D01*
X14518810Y-10492000D02*
X14499762Y-10501524D01*
X14499762Y-10501524D02*
X14461667Y-10501524D01*
X14461667Y-10501524D02*
X14442619Y-10492000D01*
X14442619Y-10492000D02*
X14433096Y-10472952D01*
X14433096Y-10472952D02*
X14433096Y-10396762D01*
X14433096Y-10396762D02*
X14442619Y-10377714D01*
X14442619Y-10377714D02*
X14461667Y-10368190D01*
X14461667Y-10368190D02*
X14499762Y-10368190D01*
X14499762Y-10368190D02*
X14518810Y-10377714D01*
X14518810Y-10377714D02*
X14528334Y-10396762D01*
X14528334Y-10396762D02*
X14528334Y-10415810D01*
X14528334Y-10415810D02*
X14433096Y-10434857D01*
X14604524Y-10492000D02*
X14623572Y-10501524D01*
X14623572Y-10501524D02*
X14661667Y-10501524D01*
X14661667Y-10501524D02*
X14680715Y-10492000D01*
X14680715Y-10492000D02*
X14690238Y-10472952D01*
X14690238Y-10472952D02*
X14690238Y-10463429D01*
X14690238Y-10463429D02*
X14680715Y-10444381D01*
X14680715Y-10444381D02*
X14661667Y-10434857D01*
X14661667Y-10434857D02*
X14633096Y-10434857D01*
X14633096Y-10434857D02*
X14614048Y-10425333D01*
X14614048Y-10425333D02*
X14604524Y-10406286D01*
X14604524Y-10406286D02*
X14604524Y-10396762D01*
X14604524Y-10396762D02*
X14614048Y-10377714D01*
X14614048Y-10377714D02*
X14633096Y-10368190D01*
X14633096Y-10368190D02*
X14661667Y-10368190D01*
X14661667Y-10368190D02*
X14680715Y-10377714D01*
X14756905Y-10577714D02*
X14766429Y-10568190D01*
X14766429Y-10568190D02*
X14785477Y-10539619D01*
X14785477Y-10539619D02*
X14795000Y-10520571D01*
X14795000Y-10520571D02*
X14804524Y-10492000D01*
X14804524Y-10492000D02*
X14814048Y-10444381D01*
X14814048Y-10444381D02*
X14814048Y-10406286D01*
X14814048Y-10406286D02*
X14804524Y-10358667D01*
X14804524Y-10358667D02*
X14795000Y-10330095D01*
X14795000Y-10330095D02*
X14785477Y-10311048D01*
X14785477Y-10311048D02*
X14766429Y-10282476D01*
X14766429Y-10282476D02*
X14756905Y-10272952D01*
X15118810Y-10577714D02*
X15109286Y-10568190D01*
X15109286Y-10568190D02*
X15090238Y-10539619D01*
X15090238Y-10539619D02*
X15080715Y-10520571D01*
X15080715Y-10520571D02*
X15071191Y-10492000D01*
X15071191Y-10492000D02*
X15061667Y-10444381D01*
X15061667Y-10444381D02*
X15061667Y-10406286D01*
X15061667Y-10406286D02*
X15071191Y-10358667D01*
X15071191Y-10358667D02*
X15080715Y-10330095D01*
X15080715Y-10330095D02*
X15090238Y-10311048D01*
X15090238Y-10311048D02*
X15109286Y-10282476D01*
X15109286Y-10282476D02*
X15118810Y-10272952D01*
X15195000Y-10368190D02*
X15195000Y-10501524D01*
X15195000Y-10387238D02*
X15204524Y-10377714D01*
X15204524Y-10377714D02*
X15223572Y-10368190D01*
X15223572Y-10368190D02*
X15252143Y-10368190D01*
X15252143Y-10368190D02*
X15271191Y-10377714D01*
X15271191Y-10377714D02*
X15280715Y-10396762D01*
X15280715Y-10396762D02*
X15280715Y-10501524D01*
X15404524Y-10501524D02*
X15385477Y-10492000D01*
X15385477Y-10492000D02*
X15375953Y-10482476D01*
X15375953Y-10482476D02*
X15366429Y-10463429D01*
X15366429Y-10463429D02*
X15366429Y-10406286D01*
X15366429Y-10406286D02*
X15375953Y-10387238D01*
X15375953Y-10387238D02*
X15385477Y-10377714D01*
X15385477Y-10377714D02*
X15404524Y-10368190D01*
X15404524Y-10368190D02*
X15433096Y-10368190D01*
X15433096Y-10368190D02*
X15452143Y-10377714D01*
X15452143Y-10377714D02*
X15461667Y-10387238D01*
X15461667Y-10387238D02*
X15471191Y-10406286D01*
X15471191Y-10406286D02*
X15471191Y-10463429D01*
X15471191Y-10463429D02*
X15461667Y-10482476D01*
X15461667Y-10482476D02*
X15452143Y-10492000D01*
X15452143Y-10492000D02*
X15433096Y-10501524D01*
X15433096Y-10501524D02*
X15404524Y-10501524D01*
X15528334Y-10368190D02*
X15604524Y-10368190D01*
X15556905Y-10301524D02*
X15556905Y-10472952D01*
X15556905Y-10472952D02*
X15566429Y-10492000D01*
X15566429Y-10492000D02*
X15585477Y-10501524D01*
X15585477Y-10501524D02*
X15604524Y-10501524D01*
X15823572Y-10368190D02*
X15823572Y-10568190D01*
X15823572Y-10377714D02*
X15842619Y-10368190D01*
X15842619Y-10368190D02*
X15880715Y-10368190D01*
X15880715Y-10368190D02*
X15899762Y-10377714D01*
X15899762Y-10377714D02*
X15909286Y-10387238D01*
X15909286Y-10387238D02*
X15918810Y-10406286D01*
X15918810Y-10406286D02*
X15918810Y-10463429D01*
X15918810Y-10463429D02*
X15909286Y-10482476D01*
X15909286Y-10482476D02*
X15899762Y-10492000D01*
X15899762Y-10492000D02*
X15880715Y-10501524D01*
X15880715Y-10501524D02*
X15842619Y-10501524D01*
X15842619Y-10501524D02*
X15823572Y-10492000D01*
X16033096Y-10501524D02*
X16014048Y-10492000D01*
X16014048Y-10492000D02*
X16004524Y-10472952D01*
X16004524Y-10472952D02*
X16004524Y-10301524D01*
X16195000Y-10501524D02*
X16195000Y-10396762D01*
X16195000Y-10396762D02*
X16185477Y-10377714D01*
X16185477Y-10377714D02*
X16166429Y-10368190D01*
X16166429Y-10368190D02*
X16128334Y-10368190D01*
X16128334Y-10368190D02*
X16109286Y-10377714D01*
X16195000Y-10492000D02*
X16175953Y-10501524D01*
X16175953Y-10501524D02*
X16128334Y-10501524D01*
X16128334Y-10501524D02*
X16109286Y-10492000D01*
X16109286Y-10492000D02*
X16099762Y-10472952D01*
X16099762Y-10472952D02*
X16099762Y-10453905D01*
X16099762Y-10453905D02*
X16109286Y-10434857D01*
X16109286Y-10434857D02*
X16128334Y-10425333D01*
X16128334Y-10425333D02*
X16175953Y-10425333D01*
X16175953Y-10425333D02*
X16195000Y-10415810D01*
X16261667Y-10368190D02*
X16337858Y-10368190D01*
X16290239Y-10301524D02*
X16290239Y-10472952D01*
X16290239Y-10472952D02*
X16299762Y-10492000D01*
X16299762Y-10492000D02*
X16318810Y-10501524D01*
X16318810Y-10501524D02*
X16337858Y-10501524D01*
X16480715Y-10492000D02*
X16461667Y-10501524D01*
X16461667Y-10501524D02*
X16423572Y-10501524D01*
X16423572Y-10501524D02*
X16404524Y-10492000D01*
X16404524Y-10492000D02*
X16395000Y-10472952D01*
X16395000Y-10472952D02*
X16395000Y-10396762D01*
X16395000Y-10396762D02*
X16404524Y-10377714D01*
X16404524Y-10377714D02*
X16423572Y-10368190D01*
X16423572Y-10368190D02*
X16461667Y-10368190D01*
X16461667Y-10368190D02*
X16480715Y-10377714D01*
X16480715Y-10377714D02*
X16490239Y-10396762D01*
X16490239Y-10396762D02*
X16490239Y-10415810D01*
X16490239Y-10415810D02*
X16395000Y-10434857D01*
X16661667Y-10501524D02*
X16661667Y-10301524D01*
X16661667Y-10492000D02*
X16642620Y-10501524D01*
X16642620Y-10501524D02*
X16604524Y-10501524D01*
X16604524Y-10501524D02*
X16585477Y-10492000D01*
X16585477Y-10492000D02*
X16575953Y-10482476D01*
X16575953Y-10482476D02*
X16566429Y-10463429D01*
X16566429Y-10463429D02*
X16566429Y-10406286D01*
X16566429Y-10406286D02*
X16575953Y-10387238D01*
X16575953Y-10387238D02*
X16585477Y-10377714D01*
X16585477Y-10377714D02*
X16604524Y-10368190D01*
X16604524Y-10368190D02*
X16642620Y-10368190D01*
X16642620Y-10368190D02*
X16661667Y-10377714D01*
X16737858Y-10577714D02*
X16747381Y-10568190D01*
X16747381Y-10568190D02*
X16766429Y-10539619D01*
X16766429Y-10539619D02*
X16775953Y-10520571D01*
X16775953Y-10520571D02*
X16785477Y-10492000D01*
X16785477Y-10492000D02*
X16795001Y-10444381D01*
X16795001Y-10444381D02*
X16795001Y-10406286D01*
X16795001Y-10406286D02*
X16785477Y-10358667D01*
X16785477Y-10358667D02*
X16775953Y-10330095D01*
X16775953Y-10330095D02*
X16766429Y-10311048D01*
X16766429Y-10311048D02*
X16747381Y-10282476D01*
X16747381Y-10282476D02*
X16737858Y-10272952D01*
M02*
