%TF.GenerationSoftware,KiCad,Pcbnew,7.0.2*%
%TF.CreationDate,2023-11-10T23:30:57+01:00*%
%TF.ProjectId,PoweredUSB-Adapter,506f7765-7265-4645-9553-422d41646170,rev?*%
%TF.SameCoordinates,Original*%
%TF.FileFunction,Soldermask,Bot*%
%TF.FilePolarity,Negative*%
%FSLAX46Y46*%
G04 Gerber Fmt 4.6, Leading zero omitted, Abs format (unit mm)*
G04 Created by KiCad (PCBNEW 7.0.2) date 2023-11-10 23:30:57*
%MOMM*%
%LPD*%
G01*
G04 APERTURE LIST*
G04 Aperture macros list*
%AMOutline5P*
0 Free polygon, 5 corners , with rotation*
0 The origin of the aperture is its center*
0 number of corners: always 5*
0 $1 to $10 corner X, Y*
0 $11 Rotation angle, in degrees counterclockwise*
0 create outline with 5 corners*
4,1,5,$1,$2,$3,$4,$5,$6,$7,$8,$9,$10,$1,$2,$11*%
%AMOutline6P*
0 Free polygon, 6 corners , with rotation*
0 The origin of the aperture is its center*
0 number of corners: always 6*
0 $1 to $12 corner X, Y*
0 $13 Rotation angle, in degrees counterclockwise*
0 create outline with 6 corners*
4,1,6,$1,$2,$3,$4,$5,$6,$7,$8,$9,$10,$11,$12,$1,$2,$13*%
%AMOutline7P*
0 Free polygon, 7 corners , with rotation*
0 The origin of the aperture is its center*
0 number of corners: always 7*
0 $1 to $14 corner X, Y*
0 $15 Rotation angle, in degrees counterclockwise*
0 create outline with 7 corners*
4,1,7,$1,$2,$3,$4,$5,$6,$7,$8,$9,$10,$11,$12,$13,$14,$1,$2,$15*%
%AMOutline8P*
0 Free polygon, 8 corners , with rotation*
0 The origin of the aperture is its center*
0 number of corners: always 8*
0 $1 to $16 corner X, Y*
0 $17 Rotation angle, in degrees counterclockwise*
0 create outline with 8 corners*
4,1,8,$1,$2,$3,$4,$5,$6,$7,$8,$9,$10,$11,$12,$13,$14,$15,$16,$1,$2,$17*%
G04 Aperture macros list end*
%ADD10C,0.150000*%
%ADD11C,0.203200*%
%ADD12R,1.905000X1.905000*%
%ADD13C,1.905000*%
%ADD14C,3.200000*%
%ADD15Outline8P,-0.762000X0.381000X-0.381000X0.762000X0.381000X0.762000X0.762000X0.381000X0.762000X-0.381000X0.381000X-0.762000X-0.381000X-0.762000X-0.762000X-0.381000X270.000000*%
%ADD16C,1.524000*%
%ADD17R,1.778000X1.778000*%
%ADD18O,1.778000X1.524000*%
%ADD19C,1.778000*%
%ADD20O,3.556000X2.032000*%
%ADD21O,3.000000X5.000000*%
%ADD22O,4.400000X2.200000*%
%ADD23C,0.700000*%
%ADD24O,2.100000X1.000000*%
%ADD25O,2.000000X1.200000*%
%ADD26R,2.500000X1.900000*%
%ADD27O,2.500000X1.900000*%
%ADD28R,0.640000X0.700000*%
%ADD29R,1.651000X1.778000*%
%ADD30R,1.625600X1.778000*%
G04 APERTURE END LIST*
D10*
X117808276Y-89450000D02*
G75*
G03*
X117808276Y-89450000I-708276J0D01*
G01*
D11*
X124098200Y-89777280D02*
X124001438Y-89825660D01*
X124001438Y-89825660D02*
X123807914Y-89825660D01*
X123807914Y-89825660D02*
X123711152Y-89777280D01*
X123711152Y-89777280D02*
X123662771Y-89680518D01*
X123662771Y-89680518D02*
X123662771Y-89632137D01*
X123662771Y-89632137D02*
X123711152Y-89535375D01*
X123711152Y-89535375D02*
X123807914Y-89486994D01*
X123807914Y-89486994D02*
X123953057Y-89486994D01*
X123953057Y-89486994D02*
X124049819Y-89438613D01*
X124049819Y-89438613D02*
X124098200Y-89341851D01*
X124098200Y-89341851D02*
X124098200Y-89293470D01*
X124098200Y-89293470D02*
X124049819Y-89196708D01*
X124049819Y-89196708D02*
X123953057Y-89148327D01*
X123953057Y-89148327D02*
X123807914Y-89148327D01*
X123807914Y-89148327D02*
X123711152Y-89196708D01*
X122791914Y-89825660D02*
X122791914Y-89293470D01*
X122791914Y-89293470D02*
X122840295Y-89196708D01*
X122840295Y-89196708D02*
X122937057Y-89148327D01*
X122937057Y-89148327D02*
X123130581Y-89148327D01*
X123130581Y-89148327D02*
X123227343Y-89196708D01*
X122791914Y-89777280D02*
X122888676Y-89825660D01*
X122888676Y-89825660D02*
X123130581Y-89825660D01*
X123130581Y-89825660D02*
X123227343Y-89777280D01*
X123227343Y-89777280D02*
X123275724Y-89680518D01*
X123275724Y-89680518D02*
X123275724Y-89583756D01*
X123275724Y-89583756D02*
X123227343Y-89486994D01*
X123227343Y-89486994D02*
X123130581Y-89438613D01*
X123130581Y-89438613D02*
X122888676Y-89438613D01*
X122888676Y-89438613D02*
X122791914Y-89390232D01*
X122308105Y-89148327D02*
X122308105Y-90164327D01*
X122308105Y-89196708D02*
X122211343Y-89148327D01*
X122211343Y-89148327D02*
X122017819Y-89148327D01*
X122017819Y-89148327D02*
X121921057Y-89196708D01*
X121921057Y-89196708D02*
X121872676Y-89245089D01*
X121872676Y-89245089D02*
X121824295Y-89341851D01*
X121824295Y-89341851D02*
X121824295Y-89632137D01*
X121824295Y-89632137D02*
X121872676Y-89728899D01*
X121872676Y-89728899D02*
X121921057Y-89777280D01*
X121921057Y-89777280D02*
X122017819Y-89825660D01*
X122017819Y-89825660D02*
X122211343Y-89825660D01*
X122211343Y-89825660D02*
X122308105Y-89777280D01*
X121001819Y-89777280D02*
X121098581Y-89825660D01*
X121098581Y-89825660D02*
X121292105Y-89825660D01*
X121292105Y-89825660D02*
X121388867Y-89777280D01*
X121388867Y-89777280D02*
X121437248Y-89680518D01*
X121437248Y-89680518D02*
X121437248Y-89293470D01*
X121437248Y-89293470D02*
X121388867Y-89196708D01*
X121388867Y-89196708D02*
X121292105Y-89148327D01*
X121292105Y-89148327D02*
X121098581Y-89148327D01*
X121098581Y-89148327D02*
X121001819Y-89196708D01*
X121001819Y-89196708D02*
X120953438Y-89293470D01*
X120953438Y-89293470D02*
X120953438Y-89390232D01*
X120953438Y-89390232D02*
X121437248Y-89486994D01*
X120518010Y-89825660D02*
X120518010Y-89148327D01*
X120518010Y-89341851D02*
X120469629Y-89245089D01*
X120469629Y-89245089D02*
X120421248Y-89196708D01*
X120421248Y-89196708D02*
X120324486Y-89148327D01*
X120324486Y-89148327D02*
X120227724Y-89148327D01*
X120130963Y-89922422D02*
X119356867Y-89922422D01*
X119163344Y-88906422D02*
X119114963Y-88858041D01*
X119114963Y-88858041D02*
X119018201Y-88809660D01*
X119018201Y-88809660D02*
X118776296Y-88809660D01*
X118776296Y-88809660D02*
X118679534Y-88858041D01*
X118679534Y-88858041D02*
X118631153Y-88906422D01*
X118631153Y-88906422D02*
X118582772Y-89003184D01*
X118582772Y-89003184D02*
X118582772Y-89099946D01*
X118582772Y-89099946D02*
X118631153Y-89245089D01*
X118631153Y-89245089D02*
X119211725Y-89825660D01*
X119211725Y-89825660D02*
X118582772Y-89825660D01*
X116937820Y-89777280D02*
X117034582Y-89825660D01*
X117034582Y-89825660D02*
X117228106Y-89825660D01*
X117228106Y-89825660D02*
X117324868Y-89777280D01*
X117324868Y-89777280D02*
X117373249Y-89728899D01*
X117373249Y-89728899D02*
X117421630Y-89632137D01*
X117421630Y-89632137D02*
X117421630Y-89341851D01*
X117421630Y-89341851D02*
X117373249Y-89245089D01*
X117373249Y-89245089D02*
X117324868Y-89196708D01*
X117324868Y-89196708D02*
X117228106Y-89148327D01*
X117228106Y-89148327D02*
X117034582Y-89148327D01*
X117034582Y-89148327D02*
X116937820Y-89196708D01*
X115776678Y-88906422D02*
X115728297Y-88858041D01*
X115728297Y-88858041D02*
X115631535Y-88809660D01*
X115631535Y-88809660D02*
X115389630Y-88809660D01*
X115389630Y-88809660D02*
X115292868Y-88858041D01*
X115292868Y-88858041D02*
X115244487Y-88906422D01*
X115244487Y-88906422D02*
X115196106Y-89003184D01*
X115196106Y-89003184D02*
X115196106Y-89099946D01*
X115196106Y-89099946D02*
X115244487Y-89245089D01*
X115244487Y-89245089D02*
X115825059Y-89825660D01*
X115825059Y-89825660D02*
X115196106Y-89825660D01*
X114567154Y-88809660D02*
X114470392Y-88809660D01*
X114470392Y-88809660D02*
X114373630Y-88858041D01*
X114373630Y-88858041D02*
X114325249Y-88906422D01*
X114325249Y-88906422D02*
X114276868Y-89003184D01*
X114276868Y-89003184D02*
X114228487Y-89196708D01*
X114228487Y-89196708D02*
X114228487Y-89438613D01*
X114228487Y-89438613D02*
X114276868Y-89632137D01*
X114276868Y-89632137D02*
X114325249Y-89728899D01*
X114325249Y-89728899D02*
X114373630Y-89777280D01*
X114373630Y-89777280D02*
X114470392Y-89825660D01*
X114470392Y-89825660D02*
X114567154Y-89825660D01*
X114567154Y-89825660D02*
X114663916Y-89777280D01*
X114663916Y-89777280D02*
X114712297Y-89728899D01*
X114712297Y-89728899D02*
X114760678Y-89632137D01*
X114760678Y-89632137D02*
X114809059Y-89438613D01*
X114809059Y-89438613D02*
X114809059Y-89196708D01*
X114809059Y-89196708D02*
X114760678Y-89003184D01*
X114760678Y-89003184D02*
X114712297Y-88906422D01*
X114712297Y-88906422D02*
X114663916Y-88858041D01*
X114663916Y-88858041D02*
X114567154Y-88809660D01*
X113841440Y-88906422D02*
X113793059Y-88858041D01*
X113793059Y-88858041D02*
X113696297Y-88809660D01*
X113696297Y-88809660D02*
X113454392Y-88809660D01*
X113454392Y-88809660D02*
X113357630Y-88858041D01*
X113357630Y-88858041D02*
X113309249Y-88906422D01*
X113309249Y-88906422D02*
X113260868Y-89003184D01*
X113260868Y-89003184D02*
X113260868Y-89099946D01*
X113260868Y-89099946D02*
X113309249Y-89245089D01*
X113309249Y-89245089D02*
X113889821Y-89825660D01*
X113889821Y-89825660D02*
X113260868Y-89825660D01*
X112922202Y-88809660D02*
X112293249Y-88809660D01*
X112293249Y-88809660D02*
X112631916Y-89196708D01*
X112631916Y-89196708D02*
X112486773Y-89196708D01*
X112486773Y-89196708D02*
X112390011Y-89245089D01*
X112390011Y-89245089D02*
X112341630Y-89293470D01*
X112341630Y-89293470D02*
X112293249Y-89390232D01*
X112293249Y-89390232D02*
X112293249Y-89632137D01*
X112293249Y-89632137D02*
X112341630Y-89728899D01*
X112341630Y-89728899D02*
X112390011Y-89777280D01*
X112390011Y-89777280D02*
X112486773Y-89825660D01*
X112486773Y-89825660D02*
X112777059Y-89825660D01*
X112777059Y-89825660D02*
X112873821Y-89777280D01*
X112873821Y-89777280D02*
X112922202Y-89728899D01*
D12*
%TO.C,J2*%
X121484200Y-78500000D03*
D13*
X121484200Y-81040000D03*
X121484200Y-83580000D03*
X121484200Y-86120000D03*
%TD*%
D14*
%TO.C,MH4*%
X136000000Y-90000000D03*
%TD*%
D15*
%TO.C,CN1*%
X111405000Y-74000000D03*
D16*
X111405000Y-76500000D03*
X111405000Y-78500000D03*
X111405000Y-81000000D03*
D17*
X113835000Y-73750000D03*
D18*
X113835000Y-76250000D03*
X113835000Y-78750000D03*
D19*
X113835000Y-81250000D03*
D20*
X113095000Y-71100000D03*
X109095000Y-71100000D03*
X113095000Y-83900000D03*
X109095000Y-83900000D03*
%TD*%
D21*
%TO.C,J1*%
X129684200Y-66800000D03*
X135884200Y-66800000D03*
D22*
X132284200Y-62000000D03*
%TD*%
D14*
%TO.C,MH2*%
X104000000Y-90000000D03*
%TD*%
%TO.C,MH1*%
X104000000Y-65000000D03*
%TD*%
D23*
%TO.C,CN4*%
X134220000Y-82890000D03*
X134220000Y-77110000D03*
D24*
X133720000Y-84320000D03*
D25*
X137900000Y-84320000D03*
D24*
X133720000Y-75680000D03*
D25*
X137900000Y-75680000D03*
%TD*%
D14*
%TO.C,MH3*%
X125000000Y-74000000D03*
%TD*%
D26*
%TO.C,J3*%
X123184200Y-66850000D03*
D27*
X123184200Y-64350000D03*
%TD*%
D28*
%TO.C,R2*%
X131050000Y-83584200D03*
X131050000Y-82390400D03*
%TD*%
%TO.C,R3*%
X130550000Y-76665800D03*
X130550000Y-77859600D03*
%TD*%
D29*
%TO.C,D1*%
X120184200Y-67778000D03*
D30*
X120184200Y-64222000D03*
%TD*%
M02*
