M48
; DRILL file {KiCad 7.0.2} date Fri Nov 10 23:31:00 2023
; FORMAT={-:-/ absolute / inch / decimal}
; #@! TF.CreationDate,2023-11-10T23:31:00+01:00
; #@! TF.GenerationSoftware,Kicad,Pcbnew,7.0.2
; #@! TF.FileFunction,Plated,1,2,PTH
FMAT,2
INCH
; #@! TA.AperFunction,Plated,PTH,ViaDrill
T1C0.0118
; #@! TA.AperFunction,Plated,PTH,ComponentDrill
T2C0.0197
; #@! TA.AperFunction,Plated,PTH,ComponentDrill
T3C0.0236
; #@! TA.AperFunction,Plated,PTH,ComponentDrill
T4C0.0315
; #@! TA.AperFunction,Plated,PTH,ComponentDrill
T5C0.0354
; #@! TA.AperFunction,Plated,PTH,ComponentDrill
T6C0.0394
; #@! TA.AperFunction,Plated,PTH,ComponentDrill
T7C0.0433
; #@! TA.AperFunction,Plated,PTH,ComponentDrill
T8C0.0472
%
G90
G05
T1
X3.9764Y-2.4016
X3.9764Y-2.4409
X3.9764Y-2.4803
X3.9764Y-2.8327
X3.9764Y-2.9508
X3.9764Y-3.0512
X3.9764Y-3.1516
X3.9764Y-3.2677
X3.9764Y-3.622
X3.9764Y-3.6614
X3.9764Y-3.7008
X4.0157Y-2.4016
X4.0157Y-3.7008
X4.0551Y-2.4016
X4.0551Y-3.7008
X4.1652Y-2.8858
X4.2953Y-2.7283
X4.311Y-2.5
X4.311Y-2.6181
X4.3484Y-3.4665
X4.3701Y-2.7283
X4.3898Y-2.5
X4.3898Y-2.6181
X4.4528Y-2.7283
X4.4646Y-2.5
X4.4646Y-2.6181
X4.4705Y-3.563
X4.5591Y-2.7205
X4.5669Y-2.4016
X4.5669Y-3.7008
X4.622Y-2.7165
X4.6457Y-2.4016
X4.6457Y-3.7008
X4.6614Y-2.9528
X4.6614Y-3.0118
X4.6654Y-3.3268
X4.7185Y-3.4823
X4.7244Y-2.4016
X4.7244Y-3.7008
X4.8031Y-2.4016
X4.8031Y-2.8701
X4.8031Y-3.7008
X4.8819Y-2.4016
X4.8819Y-3.7008
X4.8898Y-3.3346
X4.8937Y-3.1378
X4.9291Y-3.122
X4.9783Y-3.5374
X4.9843Y-3.2441
X5.0236Y-3.3583
X5.0394Y-3.0748
X5.0709Y-2.9882
X5.0945Y-3.0866
X5.1004Y-3.1299
X5.1063Y-3.2047
X5.1161Y-3.6161
X5.1594Y-3.2126
X5.1634Y-3.0925
X5.1673Y-3.1358
X5.1969Y-2.9173
X5.1969Y-3.3819
X5.3937Y-2.4016
X5.3937Y-3.7008
X5.4331Y-2.4016
X5.4331Y-3.7008
X5.4724Y-2.4016
X5.4724Y-2.4409
X5.4724Y-2.4803
X5.4724Y-2.874
X5.4724Y-2.9134
X5.4724Y-3.0709
X5.4724Y-3.1496
X5.4724Y-3.2283
X5.4724Y-3.3799
X5.4724Y-3.4311
X5.4724Y-3.4705
X5.4724Y-3.622
X5.4724Y-3.6614
X5.4724Y-3.7008
T4
X4.386Y-2.9134
X4.386Y-3.0118
X4.386Y-3.0906
X4.386Y-3.189
T5
X4.7828Y-3.0906
X4.7828Y-3.1906
X4.7828Y-3.2906
X4.7828Y-3.3906
T6
X4.4817Y-2.9035
X4.4817Y-3.002
X4.4817Y-3.1004
X4.4817Y-3.1988
T7
X4.8498Y-2.5335
X4.8498Y-2.6319
T2
G00X5.2469Y-2.9795
M15
G01X5.2823Y-2.9795
M16
G05
G00X5.2469Y-3.3197
M15
G01X5.2823Y-3.3197
M16
G05
T3
G00X5.4134Y-2.9795
M15
G01X5.4449Y-2.9795
M16
G05
G00X5.4134Y-3.3197
M15
G01X5.4449Y-3.3197
M16
G05
T6
G00X4.3209Y-2.7992
M15
G01X4.2693Y-2.7992
M16
G05
G00X4.3209Y-3.3031
M15
G01X4.2693Y-3.3031
M16
G05
G00X4.4784Y-2.7992
M15
G01X4.4267Y-2.7992
M16
G05
G00X4.4784Y-3.3031
M15
G01X4.4267Y-3.3031
M16
G05
G00X5.2474Y-2.4409
M15
G01X5.1687Y-2.4409
M16
G05
T8
G00X5.1057Y-2.6752
M15
G01X5.1057Y-2.5846
M16
G05
G00X5.3498Y-2.6752
M15
G01X5.3498Y-2.5846
M16
G05
T0
M30
