%TF.GenerationSoftware,KiCad,Pcbnew,7.0.2*%
%TF.CreationDate,2023-11-10T23:30:57+01:00*%
%TF.ProjectId,PoweredUSB-Adapter,506f7765-7265-4645-9553-422d41646170,rev?*%
%TF.SameCoordinates,Original*%
%TF.FileFunction,Soldermask,Top*%
%TF.FilePolarity,Negative*%
%FSLAX46Y46*%
G04 Gerber Fmt 4.6, Leading zero omitted, Abs format (unit mm)*
G04 Created by KiCad (PCBNEW 7.0.2) date 2023-11-10 23:30:57*
%MOMM*%
%LPD*%
G01*
G04 APERTURE LIST*
G04 Aperture macros list*
%AMOutline5P*
0 Free polygon, 5 corners , with rotation*
0 The origin of the aperture is its center*
0 number of corners: always 5*
0 $1 to $10 corner X, Y*
0 $11 Rotation angle, in degrees counterclockwise*
0 create outline with 5 corners*
4,1,5,$1,$2,$3,$4,$5,$6,$7,$8,$9,$10,$1,$2,$11*%
%AMOutline6P*
0 Free polygon, 6 corners , with rotation*
0 The origin of the aperture is its center*
0 number of corners: always 6*
0 $1 to $12 corner X, Y*
0 $13 Rotation angle, in degrees counterclockwise*
0 create outline with 6 corners*
4,1,6,$1,$2,$3,$4,$5,$6,$7,$8,$9,$10,$11,$12,$1,$2,$13*%
%AMOutline7P*
0 Free polygon, 7 corners , with rotation*
0 The origin of the aperture is its center*
0 number of corners: always 7*
0 $1 to $14 corner X, Y*
0 $15 Rotation angle, in degrees counterclockwise*
0 create outline with 7 corners*
4,1,7,$1,$2,$3,$4,$5,$6,$7,$8,$9,$10,$11,$12,$13,$14,$1,$2,$15*%
%AMOutline8P*
0 Free polygon, 8 corners , with rotation*
0 The origin of the aperture is its center*
0 number of corners: always 8*
0 $1 to $16 corner X, Y*
0 $17 Rotation angle, in degrees counterclockwise*
0 create outline with 8 corners*
4,1,8,$1,$2,$3,$4,$5,$6,$7,$8,$9,$10,$11,$12,$13,$14,$15,$16,$1,$2,$17*%
G04 Aperture macros list end*
%ADD10R,1.905000X1.905000*%
%ADD11C,1.905000*%
%ADD12C,3.200000*%
%ADD13Outline8P,-0.762000X0.381000X-0.381000X0.762000X0.381000X0.762000X0.762000X0.381000X0.762000X-0.381000X0.381000X-0.762000X-0.381000X-0.762000X-0.762000X-0.381000X270.000000*%
%ADD14C,1.524000*%
%ADD15R,1.778000X1.778000*%
%ADD16O,1.778000X1.524000*%
%ADD17C,1.778000*%
%ADD18O,3.556000X2.032000*%
%ADD19O,3.000000X5.000000*%
%ADD20O,4.400000X2.200000*%
%ADD21C,0.700000*%
%ADD22R,1.300000X0.300000*%
%ADD23O,2.100000X1.000000*%
%ADD24O,2.000000X1.200000*%
%ADD25R,2.500000X1.900000*%
%ADD26O,2.500000X1.900000*%
G04 APERTURE END LIST*
D10*
%TO.C,J2*%
X121484200Y-78500000D03*
D11*
X121484200Y-81040000D03*
X121484200Y-83580000D03*
X121484200Y-86120000D03*
%TD*%
D12*
%TO.C,MH4*%
X136000000Y-90000000D03*
%TD*%
D13*
%TO.C,CN1*%
X111405000Y-74000000D03*
D14*
X111405000Y-76500000D03*
X111405000Y-78500000D03*
X111405000Y-81000000D03*
D15*
X113835000Y-73750000D03*
D16*
X113835000Y-76250000D03*
X113835000Y-78750000D03*
D17*
X113835000Y-81250000D03*
D18*
X113095000Y-71100000D03*
X109095000Y-71100000D03*
X113095000Y-83900000D03*
X109095000Y-83900000D03*
%TD*%
D19*
%TO.C,J1*%
X129684200Y-66800000D03*
X135884200Y-66800000D03*
D20*
X132284200Y-62000000D03*
%TD*%
D12*
%TO.C,MH2*%
X104000000Y-90000000D03*
%TD*%
%TO.C,MH1*%
X104000000Y-65000000D03*
%TD*%
D21*
%TO.C,CN4*%
X134220000Y-82890000D03*
X134220000Y-77110000D03*
D22*
X133000000Y-83350000D03*
X133000000Y-82550000D03*
X133000000Y-81250000D03*
X133000000Y-80250000D03*
X133000000Y-79750000D03*
X133000000Y-78750000D03*
X133000000Y-77450000D03*
X133000000Y-76650000D03*
X133000000Y-76950000D03*
X133000000Y-77750000D03*
X133000000Y-78250000D03*
X133000000Y-79250000D03*
X133000000Y-80750000D03*
X133000000Y-81750000D03*
X133000000Y-82250000D03*
X133000000Y-83050000D03*
D23*
X133720000Y-84320000D03*
D24*
X137900000Y-84320000D03*
D23*
X133720000Y-75680000D03*
D24*
X137900000Y-75680000D03*
%TD*%
D12*
%TO.C,MH3*%
X125000000Y-74000000D03*
%TD*%
D25*
%TO.C,J3*%
X123184200Y-66850000D03*
D26*
X123184200Y-64350000D03*
%TD*%
M02*
