%TF.GenerationSoftware,KiCad,Pcbnew,7.0.2*%
%TF.CreationDate,2023-11-10T23:31:00+01:00*%
%TF.ProjectId,PoweredUSB-Adapter,506f7765-7265-4645-9553-422d41646170,rev?*%
%TF.SameCoordinates,Original*%
%TF.FileFunction,Drillmap*%
%TF.FilePolarity,Positive*%
%FSLAX45Y45*%
G04 Gerber Fmt 4.5, Leading zero omitted, Abs format (unit mm)*
G04 Created by KiCad (PCBNEW 7.0.2) date 2023-11-10 23:31:00*
%MOMM*%
%LPD*%
G01*
G04 APERTURE LIST*
%ADD10C,0.100000*%
%ADD11C,0.200000*%
%ADD12C,0.030000*%
%ADD13C,0.050000*%
%ADD14C,0.060000*%
%ADD15C,0.080000*%
%ADD16C,0.090000*%
%ADD17C,0.110000*%
%ADD18C,0.120000*%
G04 APERTURE END LIST*
D10*
X10000000Y-6000000D02*
X10000000Y-9500000D01*
X10000000Y-9500000D02*
X14000000Y-9500000D01*
X14000000Y-9500000D02*
X14000000Y-6000000D01*
X14000000Y-6000000D02*
X10000000Y-6000000D01*
D11*
D12*
X10085000Y-6085000D02*
X10115000Y-6115000D01*
X10115000Y-6085000D02*
X10085000Y-6115000D01*
X10085000Y-6185000D02*
X10115000Y-6215000D01*
X10115000Y-6185000D02*
X10085000Y-6215000D01*
X10085000Y-6285000D02*
X10115000Y-6315000D01*
X10115000Y-6285000D02*
X10085000Y-6315000D01*
X10085000Y-7180000D02*
X10115000Y-7210000D01*
X10115000Y-7180000D02*
X10085000Y-7210000D01*
X10085000Y-7480000D02*
X10115000Y-7510000D01*
X10115000Y-7480000D02*
X10085000Y-7510000D01*
X10085000Y-7735000D02*
X10115000Y-7765000D01*
X10115000Y-7735000D02*
X10085000Y-7765000D01*
X10085000Y-7990000D02*
X10115000Y-8020000D01*
X10115000Y-7990000D02*
X10085000Y-8020000D01*
X10085000Y-8285000D02*
X10115000Y-8315000D01*
X10115000Y-8285000D02*
X10085000Y-8315000D01*
X10085000Y-9185000D02*
X10115000Y-9215000D01*
X10115000Y-9185000D02*
X10085000Y-9215000D01*
X10085000Y-9285000D02*
X10115000Y-9315000D01*
X10115000Y-9285000D02*
X10085000Y-9315000D01*
X10085000Y-9385000D02*
X10115000Y-9415000D01*
X10115000Y-9385000D02*
X10085000Y-9415000D01*
X10185000Y-6085000D02*
X10215000Y-6115000D01*
X10215000Y-6085000D02*
X10185000Y-6115000D01*
X10185000Y-9385000D02*
X10215000Y-9415000D01*
X10215000Y-9385000D02*
X10185000Y-9415000D01*
X10285000Y-6085000D02*
X10315000Y-6115000D01*
X10315000Y-6085000D02*
X10285000Y-6115000D01*
X10285000Y-9385000D02*
X10315000Y-9415000D01*
X10315000Y-9385000D02*
X10285000Y-9415000D01*
X10564500Y-7315000D02*
X10594500Y-7345000D01*
X10594500Y-7315000D02*
X10564500Y-7345000D01*
X10895000Y-6915000D02*
X10925000Y-6945000D01*
X10925000Y-6915000D02*
X10895000Y-6945000D01*
X10935000Y-6335000D02*
X10965000Y-6365000D01*
X10965000Y-6335000D02*
X10935000Y-6365000D01*
X10935000Y-6635000D02*
X10965000Y-6665000D01*
X10965000Y-6635000D02*
X10935000Y-6665000D01*
X11030000Y-8790000D02*
X11060000Y-8820000D01*
X11060000Y-8790000D02*
X11030000Y-8820000D01*
X11085000Y-6915000D02*
X11115000Y-6945000D01*
X11115000Y-6915000D02*
X11085000Y-6945000D01*
X11135000Y-6335000D02*
X11165000Y-6365000D01*
X11165000Y-6335000D02*
X11135000Y-6365000D01*
X11135000Y-6635000D02*
X11165000Y-6665000D01*
X11165000Y-6635000D02*
X11135000Y-6665000D01*
X11295000Y-6915000D02*
X11325000Y-6945000D01*
X11325000Y-6915000D02*
X11295000Y-6945000D01*
X11325000Y-6335000D02*
X11355000Y-6365000D01*
X11355000Y-6335000D02*
X11325000Y-6365000D01*
X11325000Y-6635000D02*
X11355000Y-6665000D01*
X11355000Y-6635000D02*
X11325000Y-6665000D01*
X11340000Y-9035000D02*
X11370000Y-9065000D01*
X11370000Y-9035000D02*
X11340000Y-9065000D01*
X11565000Y-6895000D02*
X11595000Y-6925000D01*
X11595000Y-6895000D02*
X11565000Y-6925000D01*
X11585000Y-6085000D02*
X11615000Y-6115000D01*
X11615000Y-6085000D02*
X11585000Y-6115000D01*
X11585000Y-9385000D02*
X11615000Y-9415000D01*
X11615000Y-9385000D02*
X11585000Y-9415000D01*
X11725000Y-6885000D02*
X11755000Y-6915000D01*
X11755000Y-6885000D02*
X11725000Y-6915000D01*
X11785000Y-6085000D02*
X11815000Y-6115000D01*
X11815000Y-6085000D02*
X11785000Y-6115000D01*
X11785000Y-9385000D02*
X11815000Y-9415000D01*
X11815000Y-9385000D02*
X11785000Y-9415000D01*
X11825000Y-7485000D02*
X11855000Y-7515000D01*
X11855000Y-7485000D02*
X11825000Y-7515000D01*
X11825000Y-7635000D02*
X11855000Y-7665000D01*
X11855000Y-7635000D02*
X11825000Y-7665000D01*
X11835000Y-8435000D02*
X11865000Y-8465000D01*
X11865000Y-8435000D02*
X11835000Y-8465000D01*
X11970000Y-8830000D02*
X12000000Y-8860000D01*
X12000000Y-8830000D02*
X11970000Y-8860000D01*
X11985000Y-6085000D02*
X12015000Y-6115000D01*
X12015000Y-6085000D02*
X11985000Y-6115000D01*
X11985000Y-9385000D02*
X12015000Y-9415000D01*
X12015000Y-9385000D02*
X11985000Y-9415000D01*
X12185000Y-6085000D02*
X12215000Y-6115000D01*
X12215000Y-6085000D02*
X12185000Y-6115000D01*
X12185000Y-7275000D02*
X12215000Y-7305000D01*
X12215000Y-7275000D02*
X12185000Y-7305000D01*
X12185000Y-9385000D02*
X12215000Y-9415000D01*
X12215000Y-9385000D02*
X12185000Y-9415000D01*
X12385000Y-6085000D02*
X12415000Y-6115000D01*
X12415000Y-6085000D02*
X12385000Y-6115000D01*
X12385000Y-9385000D02*
X12415000Y-9415000D01*
X12415000Y-9385000D02*
X12385000Y-9415000D01*
X12405000Y-8455000D02*
X12435000Y-8485000D01*
X12435000Y-8455000D02*
X12405000Y-8485000D01*
X12415000Y-7955000D02*
X12445000Y-7985000D01*
X12445000Y-7955000D02*
X12415000Y-7985000D01*
X12505000Y-7915000D02*
X12535000Y-7945000D01*
X12535000Y-7915000D02*
X12505000Y-7945000D01*
X12630000Y-8970000D02*
X12660000Y-9000000D01*
X12660000Y-8970000D02*
X12630000Y-9000000D01*
X12645000Y-8225000D02*
X12675000Y-8255000D01*
X12675000Y-8225000D02*
X12645000Y-8255000D01*
X12745000Y-8515000D02*
X12775000Y-8545000D01*
X12775000Y-8515000D02*
X12745000Y-8545000D01*
X12785000Y-7795000D02*
X12815000Y-7825000D01*
X12815000Y-7795000D02*
X12785000Y-7825000D01*
X12865000Y-7575000D02*
X12895000Y-7605000D01*
X12895000Y-7575000D02*
X12865000Y-7605000D01*
X12925000Y-7825000D02*
X12955000Y-7855000D01*
X12955000Y-7825000D02*
X12925000Y-7855000D01*
X12940000Y-7935000D02*
X12970000Y-7965000D01*
X12970000Y-7935000D02*
X12940000Y-7965000D01*
X12955000Y-8125000D02*
X12985000Y-8155000D01*
X12985000Y-8125000D02*
X12955000Y-8155000D01*
X12980000Y-9170000D02*
X13010000Y-9200000D01*
X13010000Y-9170000D02*
X12980000Y-9200000D01*
X13090000Y-8145000D02*
X13120000Y-8175000D01*
X13120000Y-8145000D02*
X13090000Y-8175000D01*
X13100000Y-7840000D02*
X13130000Y-7870000D01*
X13130000Y-7840000D02*
X13100000Y-7870000D01*
X13110000Y-7950000D02*
X13140000Y-7980000D01*
X13140000Y-7950000D02*
X13110000Y-7980000D01*
X13185000Y-7395000D02*
X13215000Y-7425000D01*
X13215000Y-7395000D02*
X13185000Y-7425000D01*
X13185000Y-8575000D02*
X13215000Y-8605000D01*
X13215000Y-8575000D02*
X13185000Y-8605000D01*
X13685000Y-6085000D02*
X13715000Y-6115000D01*
X13715000Y-6085000D02*
X13685000Y-6115000D01*
X13685000Y-9385000D02*
X13715000Y-9415000D01*
X13715000Y-9385000D02*
X13685000Y-9415000D01*
X13785000Y-6085000D02*
X13815000Y-6115000D01*
X13815000Y-6085000D02*
X13785000Y-6115000D01*
X13785000Y-9385000D02*
X13815000Y-9415000D01*
X13815000Y-9385000D02*
X13785000Y-9415000D01*
X13885000Y-6085000D02*
X13915000Y-6115000D01*
X13915000Y-6085000D02*
X13885000Y-6115000D01*
X13885000Y-6185000D02*
X13915000Y-6215000D01*
X13915000Y-6185000D02*
X13885000Y-6215000D01*
X13885000Y-6285000D02*
X13915000Y-6315000D01*
X13915000Y-6285000D02*
X13885000Y-6315000D01*
X13885000Y-7285000D02*
X13915000Y-7315000D01*
X13915000Y-7285000D02*
X13885000Y-7315000D01*
X13885000Y-7385000D02*
X13915000Y-7415000D01*
X13915000Y-7385000D02*
X13885000Y-7415000D01*
X13885000Y-7785000D02*
X13915000Y-7815000D01*
X13915000Y-7785000D02*
X13885000Y-7815000D01*
X13885000Y-7985000D02*
X13915000Y-8015000D01*
X13915000Y-7985000D02*
X13885000Y-8015000D01*
X13885000Y-8185000D02*
X13915000Y-8215000D01*
X13915000Y-8185000D02*
X13885000Y-8215000D01*
X13885000Y-8570000D02*
X13915000Y-8600000D01*
X13915000Y-8570000D02*
X13885000Y-8600000D01*
X13885000Y-8700000D02*
X13915000Y-8730000D01*
X13915000Y-8700000D02*
X13885000Y-8730000D01*
X13885000Y-8800000D02*
X13915000Y-8830000D01*
X13915000Y-8800000D02*
X13885000Y-8830000D01*
X13885000Y-9185000D02*
X13915000Y-9215000D01*
X13915000Y-9185000D02*
X13885000Y-9215000D01*
X13885000Y-9285000D02*
X13915000Y-9315000D01*
X13915000Y-9285000D02*
X13885000Y-9315000D01*
X13885000Y-9385000D02*
X13915000Y-9415000D01*
X13915000Y-9385000D02*
X13885000Y-9415000D01*
D13*
X13397000Y-7568000D02*
G75*
G03*
X13397000Y-7568000I-25000J0D01*
G01*
D11*
X13327000Y-7593000D02*
X13417000Y-7593000D01*
X13417000Y-7593000D02*
G75*
G03*
X13417000Y-7543000I0J25000D01*
G01*
X13417000Y-7543000D02*
X13327000Y-7543000D01*
X13327000Y-7543000D02*
G75*
G03*
X13327000Y-7593000I0J-25000D01*
G01*
D13*
X13397000Y-8432000D02*
G75*
G03*
X13397000Y-8432000I-25000J0D01*
G01*
D11*
X13327000Y-8457000D02*
X13417000Y-8457000D01*
X13417000Y-8457000D02*
G75*
G03*
X13417000Y-8407000I0J25000D01*
G01*
X13417000Y-8407000D02*
X13327000Y-8407000D01*
X13327000Y-8407000D02*
G75*
G03*
X13327000Y-8457000I0J-25000D01*
G01*
D14*
X13790000Y-7538000D02*
X13790000Y-7598000D01*
X13760000Y-7568000D02*
X13820000Y-7568000D01*
D11*
X13750000Y-7598000D02*
X13830000Y-7598000D01*
X13830000Y-7598000D02*
G75*
G03*
X13830000Y-7538000I0J30000D01*
G01*
X13830000Y-7538000D02*
X13750000Y-7538000D01*
X13750000Y-7538000D02*
G75*
G03*
X13750000Y-7598000I0J-30000D01*
G01*
D14*
X13790000Y-8402000D02*
X13790000Y-8462000D01*
X13760000Y-8432000D02*
X13820000Y-8432000D01*
D11*
X13750000Y-8462000D02*
X13830000Y-8462000D01*
X13830000Y-8462000D02*
G75*
G03*
X13830000Y-8402000I0J30000D01*
G01*
X13830000Y-8402000D02*
X13750000Y-8402000D01*
X13750000Y-8402000D02*
G75*
G03*
X13750000Y-8462000I0J-30000D01*
G01*
D15*
X11168785Y-7428284D02*
X11168785Y-7371715D01*
X11112216Y-7371715D01*
X11112216Y-7428284D01*
X11168785Y-7428284D01*
X11168785Y-7678284D02*
X11168785Y-7621715D01*
X11112216Y-7621715D01*
X11112216Y-7678284D01*
X11168785Y-7678284D01*
X11168785Y-7878284D02*
X11168785Y-7821715D01*
X11112216Y-7821715D01*
X11112216Y-7878284D01*
X11168785Y-7878284D01*
X11168785Y-8128284D02*
X11168785Y-8071715D01*
X11112216Y-8071715D01*
X11112216Y-8128284D01*
X11168785Y-8128284D01*
D16*
X12148420Y-7895000D02*
X12193420Y-7850000D01*
X12148420Y-7805000D01*
X12103420Y-7850000D01*
X12148420Y-7895000D01*
X12148420Y-8149000D02*
X12193420Y-8104000D01*
X12148420Y-8059000D01*
X12103420Y-8104000D01*
X12148420Y-8149000D01*
X12148420Y-8403000D02*
X12193420Y-8358000D01*
X12148420Y-8313000D01*
X12103420Y-8358000D01*
X12148420Y-8403000D01*
X12148420Y-8657000D02*
X12193420Y-8612000D01*
X12148420Y-8567000D01*
X12103420Y-8612000D01*
X12148420Y-8657000D01*
D10*
X10859500Y-7060000D02*
X10959500Y-7160000D01*
X10959500Y-7060000D02*
X10859500Y-7160000D01*
X10959500Y-7110000D02*
G75*
G03*
X10959500Y-7110000I-50000J0D01*
G01*
D11*
X10975070Y-7060000D02*
X10843930Y-7060000D01*
X10843930Y-7060000D02*
G75*
G03*
X10843930Y-7160000I0J-50000D01*
G01*
X10843930Y-7160000D02*
X10975070Y-7160000D01*
X10975070Y-7160000D02*
G75*
G03*
X10975070Y-7060000I0J50000D01*
G01*
D10*
X10859500Y-8340000D02*
X10959500Y-8440000D01*
X10959500Y-8340000D02*
X10859500Y-8440000D01*
X10959500Y-8390000D02*
G75*
G03*
X10959500Y-8390000I-50000J0D01*
G01*
D11*
X10975070Y-8340000D02*
X10843930Y-8340000D01*
X10843930Y-8340000D02*
G75*
G03*
X10843930Y-8440000I0J-50000D01*
G01*
X10843930Y-8440000D02*
X10975070Y-8440000D01*
X10975070Y-8440000D02*
G75*
G03*
X10975070Y-8340000I0J50000D01*
G01*
D10*
X11259500Y-7060000D02*
X11359500Y-7160000D01*
X11359500Y-7060000D02*
X11259500Y-7160000D01*
X11359500Y-7110000D02*
G75*
G03*
X11359500Y-7110000I-50000J0D01*
G01*
D11*
X11375070Y-7060000D02*
X11243930Y-7060000D01*
X11243930Y-7060000D02*
G75*
G03*
X11243930Y-7160000I0J-50000D01*
G01*
X11243930Y-7160000D02*
X11375070Y-7160000D01*
X11375070Y-7160000D02*
G75*
G03*
X11375070Y-7060000I0J50000D01*
G01*
D10*
X11259500Y-8340000D02*
X11359500Y-8440000D01*
X11359500Y-8340000D02*
X11259500Y-8440000D01*
X11359500Y-8390000D02*
G75*
G03*
X11359500Y-8390000I-50000J0D01*
G01*
D11*
X11375070Y-8340000D02*
X11243930Y-8340000D01*
X11243930Y-8340000D02*
G75*
G03*
X11243930Y-8440000I0J-50000D01*
G01*
X11243930Y-8440000D02*
X11375070Y-8440000D01*
X11375070Y-8440000D02*
G75*
G03*
X11375070Y-8340000I0J50000D01*
G01*
D10*
X11333500Y-7325000D02*
X11433500Y-7425000D01*
X11433500Y-7325000D02*
X11333500Y-7425000D01*
X11433500Y-7375000D02*
G75*
G03*
X11433500Y-7375000I-50000J0D01*
G01*
X11333500Y-7575000D02*
X11433500Y-7675000D01*
X11433500Y-7575000D02*
X11333500Y-7675000D01*
X11433500Y-7625000D02*
G75*
G03*
X11433500Y-7625000I-50000J0D01*
G01*
X11333500Y-7825000D02*
X11433500Y-7925000D01*
X11433500Y-7825000D02*
X11333500Y-7925000D01*
X11433500Y-7875000D02*
G75*
G03*
X11433500Y-7875000I-50000J0D01*
G01*
X11333500Y-8075000D02*
X11433500Y-8175000D01*
X11433500Y-8075000D02*
X11333500Y-8175000D01*
X11433500Y-8125000D02*
G75*
G03*
X11433500Y-8125000I-50000J0D01*
G01*
X13178420Y-6150000D02*
X13278420Y-6250000D01*
X13278420Y-6150000D02*
X13178420Y-6250000D01*
X13278420Y-6200000D02*
G75*
G03*
X13278420Y-6200000I-50000J0D01*
G01*
D11*
X13328420Y-6150000D02*
X13128420Y-6150000D01*
X13128420Y-6150000D02*
G75*
G03*
X13128420Y-6250000I0J-50000D01*
G01*
X13128420Y-6250000D02*
X13328420Y-6250000D01*
X13328420Y-6250000D02*
G75*
G03*
X13328420Y-6150000I0J50000D01*
G01*
D17*
X12263420Y-6380000D02*
X12373420Y-6490000D01*
X12373420Y-6380000D02*
X12263420Y-6490000D01*
X12318420Y-6380000D02*
X12318420Y-6490000D01*
X12263420Y-6435000D02*
X12373420Y-6435000D01*
X12263420Y-6630000D02*
X12373420Y-6740000D01*
X12373420Y-6630000D02*
X12263420Y-6740000D01*
X12318420Y-6630000D02*
X12318420Y-6740000D01*
X12263420Y-6685000D02*
X12373420Y-6685000D01*
D18*
X12908420Y-6620000D02*
X13028420Y-6740000D01*
X13028420Y-6620000D02*
X12908420Y-6740000D01*
X13010847Y-6722427D02*
X13010847Y-6637573D01*
X12925993Y-6637573D01*
X12925993Y-6722427D01*
X13010847Y-6722427D01*
D11*
X13028420Y-6795000D02*
X13028420Y-6565000D01*
X13028420Y-6565000D02*
G75*
G03*
X12908420Y-6565000I-60000J0D01*
G01*
X12908420Y-6565000D02*
X12908420Y-6795000D01*
X12908420Y-6795000D02*
G75*
G03*
X13028420Y-6795000I60000J0D01*
G01*
D18*
X13528420Y-6620000D02*
X13648420Y-6740000D01*
X13648420Y-6620000D02*
X13528420Y-6740000D01*
X13630847Y-6722427D02*
X13630847Y-6637573D01*
X13545993Y-6637573D01*
X13545993Y-6722427D01*
X13630847Y-6722427D01*
D11*
X13648420Y-6795000D02*
X13648420Y-6565000D01*
X13648420Y-6565000D02*
G75*
G03*
X13528420Y-6565000I-60000J0D01*
G01*
X13528420Y-6565000D02*
X13528420Y-6795000D01*
X13528420Y-6795000D02*
G75*
G03*
X13648420Y-6795000I60000J0D01*
G01*
X10242619Y-9817524D02*
X10242619Y-9617524D01*
X10242619Y-9617524D02*
X10290238Y-9617524D01*
X10290238Y-9617524D02*
X10318810Y-9627048D01*
X10318810Y-9627048D02*
X10337857Y-9646095D01*
X10337857Y-9646095D02*
X10347381Y-9665143D01*
X10347381Y-9665143D02*
X10356905Y-9703238D01*
X10356905Y-9703238D02*
X10356905Y-9731810D01*
X10356905Y-9731810D02*
X10347381Y-9769905D01*
X10347381Y-9769905D02*
X10337857Y-9788952D01*
X10337857Y-9788952D02*
X10318810Y-9808000D01*
X10318810Y-9808000D02*
X10290238Y-9817524D01*
X10290238Y-9817524D02*
X10242619Y-9817524D01*
X10442619Y-9817524D02*
X10442619Y-9684190D01*
X10442619Y-9722286D02*
X10452143Y-9703238D01*
X10452143Y-9703238D02*
X10461667Y-9693714D01*
X10461667Y-9693714D02*
X10480714Y-9684190D01*
X10480714Y-9684190D02*
X10499762Y-9684190D01*
X10566429Y-9817524D02*
X10566429Y-9684190D01*
X10566429Y-9617524D02*
X10556905Y-9627048D01*
X10556905Y-9627048D02*
X10566429Y-9636571D01*
X10566429Y-9636571D02*
X10575952Y-9627048D01*
X10575952Y-9627048D02*
X10566429Y-9617524D01*
X10566429Y-9617524D02*
X10566429Y-9636571D01*
X10690238Y-9817524D02*
X10671190Y-9808000D01*
X10671190Y-9808000D02*
X10661667Y-9788952D01*
X10661667Y-9788952D02*
X10661667Y-9617524D01*
X10795000Y-9817524D02*
X10775952Y-9808000D01*
X10775952Y-9808000D02*
X10766429Y-9788952D01*
X10766429Y-9788952D02*
X10766429Y-9617524D01*
X11023571Y-9817524D02*
X11023571Y-9617524D01*
X11023571Y-9617524D02*
X11090238Y-9760381D01*
X11090238Y-9760381D02*
X11156905Y-9617524D01*
X11156905Y-9617524D02*
X11156905Y-9817524D01*
X11337857Y-9817524D02*
X11337857Y-9712762D01*
X11337857Y-9712762D02*
X11328333Y-9693714D01*
X11328333Y-9693714D02*
X11309286Y-9684190D01*
X11309286Y-9684190D02*
X11271190Y-9684190D01*
X11271190Y-9684190D02*
X11252143Y-9693714D01*
X11337857Y-9808000D02*
X11318809Y-9817524D01*
X11318809Y-9817524D02*
X11271190Y-9817524D01*
X11271190Y-9817524D02*
X11252143Y-9808000D01*
X11252143Y-9808000D02*
X11242619Y-9788952D01*
X11242619Y-9788952D02*
X11242619Y-9769905D01*
X11242619Y-9769905D02*
X11252143Y-9750857D01*
X11252143Y-9750857D02*
X11271190Y-9741333D01*
X11271190Y-9741333D02*
X11318809Y-9741333D01*
X11318809Y-9741333D02*
X11337857Y-9731810D01*
X11433095Y-9684190D02*
X11433095Y-9884190D01*
X11433095Y-9693714D02*
X11452143Y-9684190D01*
X11452143Y-9684190D02*
X11490238Y-9684190D01*
X11490238Y-9684190D02*
X11509286Y-9693714D01*
X11509286Y-9693714D02*
X11518809Y-9703238D01*
X11518809Y-9703238D02*
X11528333Y-9722286D01*
X11528333Y-9722286D02*
X11528333Y-9779429D01*
X11528333Y-9779429D02*
X11518809Y-9798476D01*
X11518809Y-9798476D02*
X11509286Y-9808000D01*
X11509286Y-9808000D02*
X11490238Y-9817524D01*
X11490238Y-9817524D02*
X11452143Y-9817524D01*
X11452143Y-9817524D02*
X11433095Y-9808000D01*
X11614048Y-9798476D02*
X11623571Y-9808000D01*
X11623571Y-9808000D02*
X11614048Y-9817524D01*
X11614048Y-9817524D02*
X11604524Y-9808000D01*
X11604524Y-9808000D02*
X11614048Y-9798476D01*
X11614048Y-9798476D02*
X11614048Y-9817524D01*
X11614048Y-9693714D02*
X11623571Y-9703238D01*
X11623571Y-9703238D02*
X11614048Y-9712762D01*
X11614048Y-9712762D02*
X11604524Y-9703238D01*
X11604524Y-9703238D02*
X11614048Y-9693714D01*
X11614048Y-9693714D02*
X11614048Y-9712762D01*
D12*
X9965000Y-10130000D02*
X9995000Y-10160000D01*
X9995000Y-10130000D02*
X9965000Y-10160000D01*
D11*
X10280714Y-10037524D02*
X10299762Y-10037524D01*
X10299762Y-10037524D02*
X10318810Y-10047048D01*
X10318810Y-10047048D02*
X10328333Y-10056571D01*
X10328333Y-10056571D02*
X10337857Y-10075619D01*
X10337857Y-10075619D02*
X10347381Y-10113714D01*
X10347381Y-10113714D02*
X10347381Y-10161333D01*
X10347381Y-10161333D02*
X10337857Y-10199429D01*
X10337857Y-10199429D02*
X10328333Y-10218476D01*
X10328333Y-10218476D02*
X10318810Y-10228000D01*
X10318810Y-10228000D02*
X10299762Y-10237524D01*
X10299762Y-10237524D02*
X10280714Y-10237524D01*
X10280714Y-10237524D02*
X10261667Y-10228000D01*
X10261667Y-10228000D02*
X10252143Y-10218476D01*
X10252143Y-10218476D02*
X10242619Y-10199429D01*
X10242619Y-10199429D02*
X10233095Y-10161333D01*
X10233095Y-10161333D02*
X10233095Y-10113714D01*
X10233095Y-10113714D02*
X10242619Y-10075619D01*
X10242619Y-10075619D02*
X10252143Y-10056571D01*
X10252143Y-10056571D02*
X10261667Y-10047048D01*
X10261667Y-10047048D02*
X10280714Y-10037524D01*
X10433095Y-10218476D02*
X10442619Y-10228000D01*
X10442619Y-10228000D02*
X10433095Y-10237524D01*
X10433095Y-10237524D02*
X10423571Y-10228000D01*
X10423571Y-10228000D02*
X10433095Y-10218476D01*
X10433095Y-10218476D02*
X10433095Y-10237524D01*
X10509286Y-10037524D02*
X10633095Y-10037524D01*
X10633095Y-10037524D02*
X10566429Y-10113714D01*
X10566429Y-10113714D02*
X10595000Y-10113714D01*
X10595000Y-10113714D02*
X10614048Y-10123238D01*
X10614048Y-10123238D02*
X10623571Y-10132762D01*
X10623571Y-10132762D02*
X10633095Y-10151810D01*
X10633095Y-10151810D02*
X10633095Y-10199429D01*
X10633095Y-10199429D02*
X10623571Y-10218476D01*
X10623571Y-10218476D02*
X10614048Y-10228000D01*
X10614048Y-10228000D02*
X10595000Y-10237524D01*
X10595000Y-10237524D02*
X10537857Y-10237524D01*
X10537857Y-10237524D02*
X10518810Y-10228000D01*
X10518810Y-10228000D02*
X10509286Y-10218476D01*
X10756905Y-10037524D02*
X10775952Y-10037524D01*
X10775952Y-10037524D02*
X10795000Y-10047048D01*
X10795000Y-10047048D02*
X10804524Y-10056571D01*
X10804524Y-10056571D02*
X10814048Y-10075619D01*
X10814048Y-10075619D02*
X10823571Y-10113714D01*
X10823571Y-10113714D02*
X10823571Y-10161333D01*
X10823571Y-10161333D02*
X10814048Y-10199429D01*
X10814048Y-10199429D02*
X10804524Y-10218476D01*
X10804524Y-10218476D02*
X10795000Y-10228000D01*
X10795000Y-10228000D02*
X10775952Y-10237524D01*
X10775952Y-10237524D02*
X10756905Y-10237524D01*
X10756905Y-10237524D02*
X10737857Y-10228000D01*
X10737857Y-10228000D02*
X10728333Y-10218476D01*
X10728333Y-10218476D02*
X10718810Y-10199429D01*
X10718810Y-10199429D02*
X10709286Y-10161333D01*
X10709286Y-10161333D02*
X10709286Y-10113714D01*
X10709286Y-10113714D02*
X10718810Y-10075619D01*
X10718810Y-10075619D02*
X10728333Y-10056571D01*
X10728333Y-10056571D02*
X10737857Y-10047048D01*
X10737857Y-10047048D02*
X10756905Y-10037524D01*
X10947381Y-10037524D02*
X10966429Y-10037524D01*
X10966429Y-10037524D02*
X10985476Y-10047048D01*
X10985476Y-10047048D02*
X10995000Y-10056571D01*
X10995000Y-10056571D02*
X11004524Y-10075619D01*
X11004524Y-10075619D02*
X11014048Y-10113714D01*
X11014048Y-10113714D02*
X11014048Y-10161333D01*
X11014048Y-10161333D02*
X11004524Y-10199429D01*
X11004524Y-10199429D02*
X10995000Y-10218476D01*
X10995000Y-10218476D02*
X10985476Y-10228000D01*
X10985476Y-10228000D02*
X10966429Y-10237524D01*
X10966429Y-10237524D02*
X10947381Y-10237524D01*
X10947381Y-10237524D02*
X10928333Y-10228000D01*
X10928333Y-10228000D02*
X10918810Y-10218476D01*
X10918810Y-10218476D02*
X10909286Y-10199429D01*
X10909286Y-10199429D02*
X10899762Y-10161333D01*
X10899762Y-10161333D02*
X10899762Y-10113714D01*
X10899762Y-10113714D02*
X10909286Y-10075619D01*
X10909286Y-10075619D02*
X10918810Y-10056571D01*
X10918810Y-10056571D02*
X10928333Y-10047048D01*
X10928333Y-10047048D02*
X10947381Y-10037524D01*
X11099762Y-10237524D02*
X11099762Y-10104190D01*
X11099762Y-10123238D02*
X11109286Y-10113714D01*
X11109286Y-10113714D02*
X11128333Y-10104190D01*
X11128333Y-10104190D02*
X11156905Y-10104190D01*
X11156905Y-10104190D02*
X11175952Y-10113714D01*
X11175952Y-10113714D02*
X11185476Y-10132762D01*
X11185476Y-10132762D02*
X11185476Y-10237524D01*
X11185476Y-10132762D02*
X11195000Y-10113714D01*
X11195000Y-10113714D02*
X11214048Y-10104190D01*
X11214048Y-10104190D02*
X11242619Y-10104190D01*
X11242619Y-10104190D02*
X11261667Y-10113714D01*
X11261667Y-10113714D02*
X11271190Y-10132762D01*
X11271190Y-10132762D02*
X11271190Y-10237524D01*
X11366429Y-10237524D02*
X11366429Y-10104190D01*
X11366429Y-10123238D02*
X11375952Y-10113714D01*
X11375952Y-10113714D02*
X11395000Y-10104190D01*
X11395000Y-10104190D02*
X11423571Y-10104190D01*
X11423571Y-10104190D02*
X11442619Y-10113714D01*
X11442619Y-10113714D02*
X11452143Y-10132762D01*
X11452143Y-10132762D02*
X11452143Y-10237524D01*
X11452143Y-10132762D02*
X11461667Y-10113714D01*
X11461667Y-10113714D02*
X11480714Y-10104190D01*
X11480714Y-10104190D02*
X11509286Y-10104190D01*
X11509286Y-10104190D02*
X11528333Y-10113714D01*
X11528333Y-10113714D02*
X11537857Y-10132762D01*
X11537857Y-10132762D02*
X11537857Y-10237524D01*
X11928333Y-10028000D02*
X11756905Y-10285143D01*
X12185476Y-10037524D02*
X12204524Y-10037524D01*
X12204524Y-10037524D02*
X12223572Y-10047048D01*
X12223572Y-10047048D02*
X12233095Y-10056571D01*
X12233095Y-10056571D02*
X12242619Y-10075619D01*
X12242619Y-10075619D02*
X12252143Y-10113714D01*
X12252143Y-10113714D02*
X12252143Y-10161333D01*
X12252143Y-10161333D02*
X12242619Y-10199429D01*
X12242619Y-10199429D02*
X12233095Y-10218476D01*
X12233095Y-10218476D02*
X12223572Y-10228000D01*
X12223572Y-10228000D02*
X12204524Y-10237524D01*
X12204524Y-10237524D02*
X12185476Y-10237524D01*
X12185476Y-10237524D02*
X12166429Y-10228000D01*
X12166429Y-10228000D02*
X12156905Y-10218476D01*
X12156905Y-10218476D02*
X12147381Y-10199429D01*
X12147381Y-10199429D02*
X12137857Y-10161333D01*
X12137857Y-10161333D02*
X12137857Y-10113714D01*
X12137857Y-10113714D02*
X12147381Y-10075619D01*
X12147381Y-10075619D02*
X12156905Y-10056571D01*
X12156905Y-10056571D02*
X12166429Y-10047048D01*
X12166429Y-10047048D02*
X12185476Y-10037524D01*
X12337857Y-10218476D02*
X12347381Y-10228000D01*
X12347381Y-10228000D02*
X12337857Y-10237524D01*
X12337857Y-10237524D02*
X12328333Y-10228000D01*
X12328333Y-10228000D02*
X12337857Y-10218476D01*
X12337857Y-10218476D02*
X12337857Y-10237524D01*
X12471191Y-10037524D02*
X12490238Y-10037524D01*
X12490238Y-10037524D02*
X12509286Y-10047048D01*
X12509286Y-10047048D02*
X12518810Y-10056571D01*
X12518810Y-10056571D02*
X12528333Y-10075619D01*
X12528333Y-10075619D02*
X12537857Y-10113714D01*
X12537857Y-10113714D02*
X12537857Y-10161333D01*
X12537857Y-10161333D02*
X12528333Y-10199429D01*
X12528333Y-10199429D02*
X12518810Y-10218476D01*
X12518810Y-10218476D02*
X12509286Y-10228000D01*
X12509286Y-10228000D02*
X12490238Y-10237524D01*
X12490238Y-10237524D02*
X12471191Y-10237524D01*
X12471191Y-10237524D02*
X12452143Y-10228000D01*
X12452143Y-10228000D02*
X12442619Y-10218476D01*
X12442619Y-10218476D02*
X12433095Y-10199429D01*
X12433095Y-10199429D02*
X12423572Y-10161333D01*
X12423572Y-10161333D02*
X12423572Y-10113714D01*
X12423572Y-10113714D02*
X12433095Y-10075619D01*
X12433095Y-10075619D02*
X12442619Y-10056571D01*
X12442619Y-10056571D02*
X12452143Y-10047048D01*
X12452143Y-10047048D02*
X12471191Y-10037524D01*
X12728333Y-10237524D02*
X12614048Y-10237524D01*
X12671191Y-10237524D02*
X12671191Y-10037524D01*
X12671191Y-10037524D02*
X12652143Y-10066095D01*
X12652143Y-10066095D02*
X12633095Y-10085143D01*
X12633095Y-10085143D02*
X12614048Y-10094667D01*
X12918810Y-10237524D02*
X12804524Y-10237524D01*
X12861667Y-10237524D02*
X12861667Y-10037524D01*
X12861667Y-10037524D02*
X12842619Y-10066095D01*
X12842619Y-10066095D02*
X12823572Y-10085143D01*
X12823572Y-10085143D02*
X12804524Y-10094667D01*
X13033095Y-10123238D02*
X13014048Y-10113714D01*
X13014048Y-10113714D02*
X13004524Y-10104190D01*
X13004524Y-10104190D02*
X12995000Y-10085143D01*
X12995000Y-10085143D02*
X12995000Y-10075619D01*
X12995000Y-10075619D02*
X13004524Y-10056571D01*
X13004524Y-10056571D02*
X13014048Y-10047048D01*
X13014048Y-10047048D02*
X13033095Y-10037524D01*
X13033095Y-10037524D02*
X13071191Y-10037524D01*
X13071191Y-10037524D02*
X13090238Y-10047048D01*
X13090238Y-10047048D02*
X13099762Y-10056571D01*
X13099762Y-10056571D02*
X13109286Y-10075619D01*
X13109286Y-10075619D02*
X13109286Y-10085143D01*
X13109286Y-10085143D02*
X13099762Y-10104190D01*
X13099762Y-10104190D02*
X13090238Y-10113714D01*
X13090238Y-10113714D02*
X13071191Y-10123238D01*
X13071191Y-10123238D02*
X13033095Y-10123238D01*
X13033095Y-10123238D02*
X13014048Y-10132762D01*
X13014048Y-10132762D02*
X13004524Y-10142286D01*
X13004524Y-10142286D02*
X12995000Y-10161333D01*
X12995000Y-10161333D02*
X12995000Y-10199429D01*
X12995000Y-10199429D02*
X13004524Y-10218476D01*
X13004524Y-10218476D02*
X13014048Y-10228000D01*
X13014048Y-10228000D02*
X13033095Y-10237524D01*
X13033095Y-10237524D02*
X13071191Y-10237524D01*
X13071191Y-10237524D02*
X13090238Y-10228000D01*
X13090238Y-10228000D02*
X13099762Y-10218476D01*
X13099762Y-10218476D02*
X13109286Y-10199429D01*
X13109286Y-10199429D02*
X13109286Y-10161333D01*
X13109286Y-10161333D02*
X13099762Y-10142286D01*
X13099762Y-10142286D02*
X13090238Y-10132762D01*
X13090238Y-10132762D02*
X13071191Y-10123238D01*
X13185476Y-10037524D02*
X13185476Y-10075619D01*
X13261667Y-10037524D02*
X13261667Y-10075619D01*
X13556905Y-10313714D02*
X13547381Y-10304190D01*
X13547381Y-10304190D02*
X13528334Y-10275619D01*
X13528334Y-10275619D02*
X13518810Y-10256571D01*
X13518810Y-10256571D02*
X13509286Y-10228000D01*
X13509286Y-10228000D02*
X13499762Y-10180381D01*
X13499762Y-10180381D02*
X13499762Y-10142286D01*
X13499762Y-10142286D02*
X13509286Y-10094667D01*
X13509286Y-10094667D02*
X13518810Y-10066095D01*
X13518810Y-10066095D02*
X13528334Y-10047048D01*
X13528334Y-10047048D02*
X13547381Y-10018476D01*
X13547381Y-10018476D02*
X13556905Y-10008952D01*
X13614048Y-10037524D02*
X13747381Y-10037524D01*
X13747381Y-10037524D02*
X13661667Y-10237524D01*
X13833095Y-10237524D02*
X13871191Y-10237524D01*
X13871191Y-10237524D02*
X13890238Y-10228000D01*
X13890238Y-10228000D02*
X13899762Y-10218476D01*
X13899762Y-10218476D02*
X13918810Y-10189905D01*
X13918810Y-10189905D02*
X13928334Y-10151810D01*
X13928334Y-10151810D02*
X13928334Y-10075619D01*
X13928334Y-10075619D02*
X13918810Y-10056571D01*
X13918810Y-10056571D02*
X13909286Y-10047048D01*
X13909286Y-10047048D02*
X13890238Y-10037524D01*
X13890238Y-10037524D02*
X13852143Y-10037524D01*
X13852143Y-10037524D02*
X13833095Y-10047048D01*
X13833095Y-10047048D02*
X13823572Y-10056571D01*
X13823572Y-10056571D02*
X13814048Y-10075619D01*
X13814048Y-10075619D02*
X13814048Y-10123238D01*
X13814048Y-10123238D02*
X13823572Y-10142286D01*
X13823572Y-10142286D02*
X13833095Y-10151810D01*
X13833095Y-10151810D02*
X13852143Y-10161333D01*
X13852143Y-10161333D02*
X13890238Y-10161333D01*
X13890238Y-10161333D02*
X13909286Y-10151810D01*
X13909286Y-10151810D02*
X13918810Y-10142286D01*
X13918810Y-10142286D02*
X13928334Y-10123238D01*
X14166429Y-10237524D02*
X14166429Y-10037524D01*
X14252143Y-10237524D02*
X14252143Y-10132762D01*
X14252143Y-10132762D02*
X14242619Y-10113714D01*
X14242619Y-10113714D02*
X14223572Y-10104190D01*
X14223572Y-10104190D02*
X14195000Y-10104190D01*
X14195000Y-10104190D02*
X14175953Y-10113714D01*
X14175953Y-10113714D02*
X14166429Y-10123238D01*
X14375953Y-10237524D02*
X14356905Y-10228000D01*
X14356905Y-10228000D02*
X14347381Y-10218476D01*
X14347381Y-10218476D02*
X14337857Y-10199429D01*
X14337857Y-10199429D02*
X14337857Y-10142286D01*
X14337857Y-10142286D02*
X14347381Y-10123238D01*
X14347381Y-10123238D02*
X14356905Y-10113714D01*
X14356905Y-10113714D02*
X14375953Y-10104190D01*
X14375953Y-10104190D02*
X14404524Y-10104190D01*
X14404524Y-10104190D02*
X14423572Y-10113714D01*
X14423572Y-10113714D02*
X14433096Y-10123238D01*
X14433096Y-10123238D02*
X14442619Y-10142286D01*
X14442619Y-10142286D02*
X14442619Y-10199429D01*
X14442619Y-10199429D02*
X14433096Y-10218476D01*
X14433096Y-10218476D02*
X14423572Y-10228000D01*
X14423572Y-10228000D02*
X14404524Y-10237524D01*
X14404524Y-10237524D02*
X14375953Y-10237524D01*
X14556905Y-10237524D02*
X14537857Y-10228000D01*
X14537857Y-10228000D02*
X14528334Y-10208952D01*
X14528334Y-10208952D02*
X14528334Y-10037524D01*
X14709286Y-10228000D02*
X14690238Y-10237524D01*
X14690238Y-10237524D02*
X14652143Y-10237524D01*
X14652143Y-10237524D02*
X14633096Y-10228000D01*
X14633096Y-10228000D02*
X14623572Y-10208952D01*
X14623572Y-10208952D02*
X14623572Y-10132762D01*
X14623572Y-10132762D02*
X14633096Y-10113714D01*
X14633096Y-10113714D02*
X14652143Y-10104190D01*
X14652143Y-10104190D02*
X14690238Y-10104190D01*
X14690238Y-10104190D02*
X14709286Y-10113714D01*
X14709286Y-10113714D02*
X14718810Y-10132762D01*
X14718810Y-10132762D02*
X14718810Y-10151810D01*
X14718810Y-10151810D02*
X14623572Y-10170857D01*
X14795000Y-10228000D02*
X14814048Y-10237524D01*
X14814048Y-10237524D02*
X14852143Y-10237524D01*
X14852143Y-10237524D02*
X14871191Y-10228000D01*
X14871191Y-10228000D02*
X14880715Y-10208952D01*
X14880715Y-10208952D02*
X14880715Y-10199429D01*
X14880715Y-10199429D02*
X14871191Y-10180381D01*
X14871191Y-10180381D02*
X14852143Y-10170857D01*
X14852143Y-10170857D02*
X14823572Y-10170857D01*
X14823572Y-10170857D02*
X14804524Y-10161333D01*
X14804524Y-10161333D02*
X14795000Y-10142286D01*
X14795000Y-10142286D02*
X14795000Y-10132762D01*
X14795000Y-10132762D02*
X14804524Y-10113714D01*
X14804524Y-10113714D02*
X14823572Y-10104190D01*
X14823572Y-10104190D02*
X14852143Y-10104190D01*
X14852143Y-10104190D02*
X14871191Y-10113714D01*
X14947381Y-10313714D02*
X14956905Y-10304190D01*
X14956905Y-10304190D02*
X14975953Y-10275619D01*
X14975953Y-10275619D02*
X14985477Y-10256571D01*
X14985477Y-10256571D02*
X14995000Y-10228000D01*
X14995000Y-10228000D02*
X15004524Y-10180381D01*
X15004524Y-10180381D02*
X15004524Y-10142286D01*
X15004524Y-10142286D02*
X14995000Y-10094667D01*
X14995000Y-10094667D02*
X14985477Y-10066095D01*
X14985477Y-10066095D02*
X14975953Y-10047048D01*
X14975953Y-10047048D02*
X14956905Y-10018476D01*
X14956905Y-10018476D02*
X14947381Y-10008952D01*
D13*
X9995000Y-10409000D02*
G75*
G03*
X9995000Y-10409000I-25000J0D01*
G01*
D11*
X10280714Y-10301524D02*
X10299762Y-10301524D01*
X10299762Y-10301524D02*
X10318810Y-10311048D01*
X10318810Y-10311048D02*
X10328333Y-10320571D01*
X10328333Y-10320571D02*
X10337857Y-10339619D01*
X10337857Y-10339619D02*
X10347381Y-10377714D01*
X10347381Y-10377714D02*
X10347381Y-10425333D01*
X10347381Y-10425333D02*
X10337857Y-10463429D01*
X10337857Y-10463429D02*
X10328333Y-10482476D01*
X10328333Y-10482476D02*
X10318810Y-10492000D01*
X10318810Y-10492000D02*
X10299762Y-10501524D01*
X10299762Y-10501524D02*
X10280714Y-10501524D01*
X10280714Y-10501524D02*
X10261667Y-10492000D01*
X10261667Y-10492000D02*
X10252143Y-10482476D01*
X10252143Y-10482476D02*
X10242619Y-10463429D01*
X10242619Y-10463429D02*
X10233095Y-10425333D01*
X10233095Y-10425333D02*
X10233095Y-10377714D01*
X10233095Y-10377714D02*
X10242619Y-10339619D01*
X10242619Y-10339619D02*
X10252143Y-10320571D01*
X10252143Y-10320571D02*
X10261667Y-10311048D01*
X10261667Y-10311048D02*
X10280714Y-10301524D01*
X10433095Y-10482476D02*
X10442619Y-10492000D01*
X10442619Y-10492000D02*
X10433095Y-10501524D01*
X10433095Y-10501524D02*
X10423571Y-10492000D01*
X10423571Y-10492000D02*
X10433095Y-10482476D01*
X10433095Y-10482476D02*
X10433095Y-10501524D01*
X10623571Y-10301524D02*
X10528333Y-10301524D01*
X10528333Y-10301524D02*
X10518810Y-10396762D01*
X10518810Y-10396762D02*
X10528333Y-10387238D01*
X10528333Y-10387238D02*
X10547381Y-10377714D01*
X10547381Y-10377714D02*
X10595000Y-10377714D01*
X10595000Y-10377714D02*
X10614048Y-10387238D01*
X10614048Y-10387238D02*
X10623571Y-10396762D01*
X10623571Y-10396762D02*
X10633095Y-10415810D01*
X10633095Y-10415810D02*
X10633095Y-10463429D01*
X10633095Y-10463429D02*
X10623571Y-10482476D01*
X10623571Y-10482476D02*
X10614048Y-10492000D01*
X10614048Y-10492000D02*
X10595000Y-10501524D01*
X10595000Y-10501524D02*
X10547381Y-10501524D01*
X10547381Y-10501524D02*
X10528333Y-10492000D01*
X10528333Y-10492000D02*
X10518810Y-10482476D01*
X10756905Y-10301524D02*
X10775952Y-10301524D01*
X10775952Y-10301524D02*
X10795000Y-10311048D01*
X10795000Y-10311048D02*
X10804524Y-10320571D01*
X10804524Y-10320571D02*
X10814048Y-10339619D01*
X10814048Y-10339619D02*
X10823571Y-10377714D01*
X10823571Y-10377714D02*
X10823571Y-10425333D01*
X10823571Y-10425333D02*
X10814048Y-10463429D01*
X10814048Y-10463429D02*
X10804524Y-10482476D01*
X10804524Y-10482476D02*
X10795000Y-10492000D01*
X10795000Y-10492000D02*
X10775952Y-10501524D01*
X10775952Y-10501524D02*
X10756905Y-10501524D01*
X10756905Y-10501524D02*
X10737857Y-10492000D01*
X10737857Y-10492000D02*
X10728333Y-10482476D01*
X10728333Y-10482476D02*
X10718810Y-10463429D01*
X10718810Y-10463429D02*
X10709286Y-10425333D01*
X10709286Y-10425333D02*
X10709286Y-10377714D01*
X10709286Y-10377714D02*
X10718810Y-10339619D01*
X10718810Y-10339619D02*
X10728333Y-10320571D01*
X10728333Y-10320571D02*
X10737857Y-10311048D01*
X10737857Y-10311048D02*
X10756905Y-10301524D01*
X10947381Y-10301524D02*
X10966429Y-10301524D01*
X10966429Y-10301524D02*
X10985476Y-10311048D01*
X10985476Y-10311048D02*
X10995000Y-10320571D01*
X10995000Y-10320571D02*
X11004524Y-10339619D01*
X11004524Y-10339619D02*
X11014048Y-10377714D01*
X11014048Y-10377714D02*
X11014048Y-10425333D01*
X11014048Y-10425333D02*
X11004524Y-10463429D01*
X11004524Y-10463429D02*
X10995000Y-10482476D01*
X10995000Y-10482476D02*
X10985476Y-10492000D01*
X10985476Y-10492000D02*
X10966429Y-10501524D01*
X10966429Y-10501524D02*
X10947381Y-10501524D01*
X10947381Y-10501524D02*
X10928333Y-10492000D01*
X10928333Y-10492000D02*
X10918810Y-10482476D01*
X10918810Y-10482476D02*
X10909286Y-10463429D01*
X10909286Y-10463429D02*
X10899762Y-10425333D01*
X10899762Y-10425333D02*
X10899762Y-10377714D01*
X10899762Y-10377714D02*
X10909286Y-10339619D01*
X10909286Y-10339619D02*
X10918810Y-10320571D01*
X10918810Y-10320571D02*
X10928333Y-10311048D01*
X10928333Y-10311048D02*
X10947381Y-10301524D01*
X11099762Y-10501524D02*
X11099762Y-10368190D01*
X11099762Y-10387238D02*
X11109286Y-10377714D01*
X11109286Y-10377714D02*
X11128333Y-10368190D01*
X11128333Y-10368190D02*
X11156905Y-10368190D01*
X11156905Y-10368190D02*
X11175952Y-10377714D01*
X11175952Y-10377714D02*
X11185476Y-10396762D01*
X11185476Y-10396762D02*
X11185476Y-10501524D01*
X11185476Y-10396762D02*
X11195000Y-10377714D01*
X11195000Y-10377714D02*
X11214048Y-10368190D01*
X11214048Y-10368190D02*
X11242619Y-10368190D01*
X11242619Y-10368190D02*
X11261667Y-10377714D01*
X11261667Y-10377714D02*
X11271190Y-10396762D01*
X11271190Y-10396762D02*
X11271190Y-10501524D01*
X11366429Y-10501524D02*
X11366429Y-10368190D01*
X11366429Y-10387238D02*
X11375952Y-10377714D01*
X11375952Y-10377714D02*
X11395000Y-10368190D01*
X11395000Y-10368190D02*
X11423571Y-10368190D01*
X11423571Y-10368190D02*
X11442619Y-10377714D01*
X11442619Y-10377714D02*
X11452143Y-10396762D01*
X11452143Y-10396762D02*
X11452143Y-10501524D01*
X11452143Y-10396762D02*
X11461667Y-10377714D01*
X11461667Y-10377714D02*
X11480714Y-10368190D01*
X11480714Y-10368190D02*
X11509286Y-10368190D01*
X11509286Y-10368190D02*
X11528333Y-10377714D01*
X11528333Y-10377714D02*
X11537857Y-10396762D01*
X11537857Y-10396762D02*
X11537857Y-10501524D01*
X11928333Y-10292000D02*
X11756905Y-10549143D01*
X12185476Y-10301524D02*
X12204524Y-10301524D01*
X12204524Y-10301524D02*
X12223572Y-10311048D01*
X12223572Y-10311048D02*
X12233095Y-10320571D01*
X12233095Y-10320571D02*
X12242619Y-10339619D01*
X12242619Y-10339619D02*
X12252143Y-10377714D01*
X12252143Y-10377714D02*
X12252143Y-10425333D01*
X12252143Y-10425333D02*
X12242619Y-10463429D01*
X12242619Y-10463429D02*
X12233095Y-10482476D01*
X12233095Y-10482476D02*
X12223572Y-10492000D01*
X12223572Y-10492000D02*
X12204524Y-10501524D01*
X12204524Y-10501524D02*
X12185476Y-10501524D01*
X12185476Y-10501524D02*
X12166429Y-10492000D01*
X12166429Y-10492000D02*
X12156905Y-10482476D01*
X12156905Y-10482476D02*
X12147381Y-10463429D01*
X12147381Y-10463429D02*
X12137857Y-10425333D01*
X12137857Y-10425333D02*
X12137857Y-10377714D01*
X12137857Y-10377714D02*
X12147381Y-10339619D01*
X12147381Y-10339619D02*
X12156905Y-10320571D01*
X12156905Y-10320571D02*
X12166429Y-10311048D01*
X12166429Y-10311048D02*
X12185476Y-10301524D01*
X12337857Y-10482476D02*
X12347381Y-10492000D01*
X12347381Y-10492000D02*
X12337857Y-10501524D01*
X12337857Y-10501524D02*
X12328333Y-10492000D01*
X12328333Y-10492000D02*
X12337857Y-10482476D01*
X12337857Y-10482476D02*
X12337857Y-10501524D01*
X12471191Y-10301524D02*
X12490238Y-10301524D01*
X12490238Y-10301524D02*
X12509286Y-10311048D01*
X12509286Y-10311048D02*
X12518810Y-10320571D01*
X12518810Y-10320571D02*
X12528333Y-10339619D01*
X12528333Y-10339619D02*
X12537857Y-10377714D01*
X12537857Y-10377714D02*
X12537857Y-10425333D01*
X12537857Y-10425333D02*
X12528333Y-10463429D01*
X12528333Y-10463429D02*
X12518810Y-10482476D01*
X12518810Y-10482476D02*
X12509286Y-10492000D01*
X12509286Y-10492000D02*
X12490238Y-10501524D01*
X12490238Y-10501524D02*
X12471191Y-10501524D01*
X12471191Y-10501524D02*
X12452143Y-10492000D01*
X12452143Y-10492000D02*
X12442619Y-10482476D01*
X12442619Y-10482476D02*
X12433095Y-10463429D01*
X12433095Y-10463429D02*
X12423572Y-10425333D01*
X12423572Y-10425333D02*
X12423572Y-10377714D01*
X12423572Y-10377714D02*
X12433095Y-10339619D01*
X12433095Y-10339619D02*
X12442619Y-10320571D01*
X12442619Y-10320571D02*
X12452143Y-10311048D01*
X12452143Y-10311048D02*
X12471191Y-10301524D01*
X12728333Y-10501524D02*
X12614048Y-10501524D01*
X12671191Y-10501524D02*
X12671191Y-10301524D01*
X12671191Y-10301524D02*
X12652143Y-10330095D01*
X12652143Y-10330095D02*
X12633095Y-10349143D01*
X12633095Y-10349143D02*
X12614048Y-10358667D01*
X12823572Y-10501524D02*
X12861667Y-10501524D01*
X12861667Y-10501524D02*
X12880714Y-10492000D01*
X12880714Y-10492000D02*
X12890238Y-10482476D01*
X12890238Y-10482476D02*
X12909286Y-10453905D01*
X12909286Y-10453905D02*
X12918810Y-10415810D01*
X12918810Y-10415810D02*
X12918810Y-10339619D01*
X12918810Y-10339619D02*
X12909286Y-10320571D01*
X12909286Y-10320571D02*
X12899762Y-10311048D01*
X12899762Y-10311048D02*
X12880714Y-10301524D01*
X12880714Y-10301524D02*
X12842619Y-10301524D01*
X12842619Y-10301524D02*
X12823572Y-10311048D01*
X12823572Y-10311048D02*
X12814048Y-10320571D01*
X12814048Y-10320571D02*
X12804524Y-10339619D01*
X12804524Y-10339619D02*
X12804524Y-10387238D01*
X12804524Y-10387238D02*
X12814048Y-10406286D01*
X12814048Y-10406286D02*
X12823572Y-10415810D01*
X12823572Y-10415810D02*
X12842619Y-10425333D01*
X12842619Y-10425333D02*
X12880714Y-10425333D01*
X12880714Y-10425333D02*
X12899762Y-10415810D01*
X12899762Y-10415810D02*
X12909286Y-10406286D01*
X12909286Y-10406286D02*
X12918810Y-10387238D01*
X12985476Y-10301524D02*
X13118810Y-10301524D01*
X13118810Y-10301524D02*
X13033095Y-10501524D01*
X13185476Y-10301524D02*
X13185476Y-10339619D01*
X13261667Y-10301524D02*
X13261667Y-10339619D01*
X13556905Y-10577714D02*
X13547381Y-10568190D01*
X13547381Y-10568190D02*
X13528334Y-10539619D01*
X13528334Y-10539619D02*
X13518810Y-10520571D01*
X13518810Y-10520571D02*
X13509286Y-10492000D01*
X13509286Y-10492000D02*
X13499762Y-10444381D01*
X13499762Y-10444381D02*
X13499762Y-10406286D01*
X13499762Y-10406286D02*
X13509286Y-10358667D01*
X13509286Y-10358667D02*
X13518810Y-10330095D01*
X13518810Y-10330095D02*
X13528334Y-10311048D01*
X13528334Y-10311048D02*
X13547381Y-10282476D01*
X13547381Y-10282476D02*
X13556905Y-10272952D01*
X13671191Y-10301524D02*
X13690238Y-10301524D01*
X13690238Y-10301524D02*
X13709286Y-10311048D01*
X13709286Y-10311048D02*
X13718810Y-10320571D01*
X13718810Y-10320571D02*
X13728334Y-10339619D01*
X13728334Y-10339619D02*
X13737857Y-10377714D01*
X13737857Y-10377714D02*
X13737857Y-10425333D01*
X13737857Y-10425333D02*
X13728334Y-10463429D01*
X13728334Y-10463429D02*
X13718810Y-10482476D01*
X13718810Y-10482476D02*
X13709286Y-10492000D01*
X13709286Y-10492000D02*
X13690238Y-10501524D01*
X13690238Y-10501524D02*
X13671191Y-10501524D01*
X13671191Y-10501524D02*
X13652143Y-10492000D01*
X13652143Y-10492000D02*
X13642619Y-10482476D01*
X13642619Y-10482476D02*
X13633095Y-10463429D01*
X13633095Y-10463429D02*
X13623572Y-10425333D01*
X13623572Y-10425333D02*
X13623572Y-10377714D01*
X13623572Y-10377714D02*
X13633095Y-10339619D01*
X13633095Y-10339619D02*
X13642619Y-10320571D01*
X13642619Y-10320571D02*
X13652143Y-10311048D01*
X13652143Y-10311048D02*
X13671191Y-10301524D01*
X13975953Y-10501524D02*
X13975953Y-10301524D01*
X14061667Y-10501524D02*
X14061667Y-10396762D01*
X14061667Y-10396762D02*
X14052143Y-10377714D01*
X14052143Y-10377714D02*
X14033096Y-10368190D01*
X14033096Y-10368190D02*
X14004524Y-10368190D01*
X14004524Y-10368190D02*
X13985476Y-10377714D01*
X13985476Y-10377714D02*
X13975953Y-10387238D01*
X14185476Y-10501524D02*
X14166429Y-10492000D01*
X14166429Y-10492000D02*
X14156905Y-10482476D01*
X14156905Y-10482476D02*
X14147381Y-10463429D01*
X14147381Y-10463429D02*
X14147381Y-10406286D01*
X14147381Y-10406286D02*
X14156905Y-10387238D01*
X14156905Y-10387238D02*
X14166429Y-10377714D01*
X14166429Y-10377714D02*
X14185476Y-10368190D01*
X14185476Y-10368190D02*
X14214048Y-10368190D01*
X14214048Y-10368190D02*
X14233096Y-10377714D01*
X14233096Y-10377714D02*
X14242619Y-10387238D01*
X14242619Y-10387238D02*
X14252143Y-10406286D01*
X14252143Y-10406286D02*
X14252143Y-10463429D01*
X14252143Y-10463429D02*
X14242619Y-10482476D01*
X14242619Y-10482476D02*
X14233096Y-10492000D01*
X14233096Y-10492000D02*
X14214048Y-10501524D01*
X14214048Y-10501524D02*
X14185476Y-10501524D01*
X14366429Y-10501524D02*
X14347381Y-10492000D01*
X14347381Y-10492000D02*
X14337857Y-10472952D01*
X14337857Y-10472952D02*
X14337857Y-10301524D01*
X14518810Y-10492000D02*
X14499762Y-10501524D01*
X14499762Y-10501524D02*
X14461667Y-10501524D01*
X14461667Y-10501524D02*
X14442619Y-10492000D01*
X14442619Y-10492000D02*
X14433096Y-10472952D01*
X14433096Y-10472952D02*
X14433096Y-10396762D01*
X14433096Y-10396762D02*
X14442619Y-10377714D01*
X14442619Y-10377714D02*
X14461667Y-10368190D01*
X14461667Y-10368190D02*
X14499762Y-10368190D01*
X14499762Y-10368190D02*
X14518810Y-10377714D01*
X14518810Y-10377714D02*
X14528334Y-10396762D01*
X14528334Y-10396762D02*
X14528334Y-10415810D01*
X14528334Y-10415810D02*
X14433096Y-10434857D01*
X14604524Y-10492000D02*
X14623572Y-10501524D01*
X14623572Y-10501524D02*
X14661667Y-10501524D01*
X14661667Y-10501524D02*
X14680715Y-10492000D01*
X14680715Y-10492000D02*
X14690238Y-10472952D01*
X14690238Y-10472952D02*
X14690238Y-10463429D01*
X14690238Y-10463429D02*
X14680715Y-10444381D01*
X14680715Y-10444381D02*
X14661667Y-10434857D01*
X14661667Y-10434857D02*
X14633096Y-10434857D01*
X14633096Y-10434857D02*
X14614048Y-10425333D01*
X14614048Y-10425333D02*
X14604524Y-10406286D01*
X14604524Y-10406286D02*
X14604524Y-10396762D01*
X14604524Y-10396762D02*
X14614048Y-10377714D01*
X14614048Y-10377714D02*
X14633096Y-10368190D01*
X14633096Y-10368190D02*
X14661667Y-10368190D01*
X14661667Y-10368190D02*
X14680715Y-10377714D01*
X14928334Y-10425333D02*
X15080715Y-10425333D01*
X15004524Y-10501524D02*
X15004524Y-10349143D01*
X15318810Y-10320571D02*
X15328334Y-10311048D01*
X15328334Y-10311048D02*
X15347381Y-10301524D01*
X15347381Y-10301524D02*
X15395000Y-10301524D01*
X15395000Y-10301524D02*
X15414048Y-10311048D01*
X15414048Y-10311048D02*
X15423572Y-10320571D01*
X15423572Y-10320571D02*
X15433096Y-10339619D01*
X15433096Y-10339619D02*
X15433096Y-10358667D01*
X15433096Y-10358667D02*
X15423572Y-10387238D01*
X15423572Y-10387238D02*
X15309286Y-10501524D01*
X15309286Y-10501524D02*
X15433096Y-10501524D01*
X15661667Y-10492000D02*
X15680715Y-10501524D01*
X15680715Y-10501524D02*
X15718810Y-10501524D01*
X15718810Y-10501524D02*
X15737858Y-10492000D01*
X15737858Y-10492000D02*
X15747381Y-10472952D01*
X15747381Y-10472952D02*
X15747381Y-10463429D01*
X15747381Y-10463429D02*
X15737858Y-10444381D01*
X15737858Y-10444381D02*
X15718810Y-10434857D01*
X15718810Y-10434857D02*
X15690239Y-10434857D01*
X15690239Y-10434857D02*
X15671191Y-10425333D01*
X15671191Y-10425333D02*
X15661667Y-10406286D01*
X15661667Y-10406286D02*
X15661667Y-10396762D01*
X15661667Y-10396762D02*
X15671191Y-10377714D01*
X15671191Y-10377714D02*
X15690239Y-10368190D01*
X15690239Y-10368190D02*
X15718810Y-10368190D01*
X15718810Y-10368190D02*
X15737858Y-10377714D01*
X15861667Y-10501524D02*
X15842620Y-10492000D01*
X15842620Y-10492000D02*
X15833096Y-10472952D01*
X15833096Y-10472952D02*
X15833096Y-10301524D01*
X15966429Y-10501524D02*
X15947381Y-10492000D01*
X15947381Y-10492000D02*
X15937858Y-10482476D01*
X15937858Y-10482476D02*
X15928334Y-10463429D01*
X15928334Y-10463429D02*
X15928334Y-10406286D01*
X15928334Y-10406286D02*
X15937858Y-10387238D01*
X15937858Y-10387238D02*
X15947381Y-10377714D01*
X15947381Y-10377714D02*
X15966429Y-10368190D01*
X15966429Y-10368190D02*
X15995001Y-10368190D01*
X15995001Y-10368190D02*
X16014048Y-10377714D01*
X16014048Y-10377714D02*
X16023572Y-10387238D01*
X16023572Y-10387238D02*
X16033096Y-10406286D01*
X16033096Y-10406286D02*
X16033096Y-10463429D01*
X16033096Y-10463429D02*
X16023572Y-10482476D01*
X16023572Y-10482476D02*
X16014048Y-10492000D01*
X16014048Y-10492000D02*
X15995001Y-10501524D01*
X15995001Y-10501524D02*
X15966429Y-10501524D01*
X16090239Y-10368190D02*
X16166429Y-10368190D01*
X16118810Y-10301524D02*
X16118810Y-10472952D01*
X16118810Y-10472952D02*
X16128334Y-10492000D01*
X16128334Y-10492000D02*
X16147381Y-10501524D01*
X16147381Y-10501524D02*
X16166429Y-10501524D01*
X16223572Y-10492000D02*
X16242620Y-10501524D01*
X16242620Y-10501524D02*
X16280715Y-10501524D01*
X16280715Y-10501524D02*
X16299762Y-10492000D01*
X16299762Y-10492000D02*
X16309286Y-10472952D01*
X16309286Y-10472952D02*
X16309286Y-10463429D01*
X16309286Y-10463429D02*
X16299762Y-10444381D01*
X16299762Y-10444381D02*
X16280715Y-10434857D01*
X16280715Y-10434857D02*
X16252143Y-10434857D01*
X16252143Y-10434857D02*
X16233096Y-10425333D01*
X16233096Y-10425333D02*
X16223572Y-10406286D01*
X16223572Y-10406286D02*
X16223572Y-10396762D01*
X16223572Y-10396762D02*
X16233096Y-10377714D01*
X16233096Y-10377714D02*
X16252143Y-10368190D01*
X16252143Y-10368190D02*
X16280715Y-10368190D01*
X16280715Y-10368190D02*
X16299762Y-10377714D01*
X16375953Y-10577714D02*
X16385477Y-10568190D01*
X16385477Y-10568190D02*
X16404524Y-10539619D01*
X16404524Y-10539619D02*
X16414048Y-10520571D01*
X16414048Y-10520571D02*
X16423572Y-10492000D01*
X16423572Y-10492000D02*
X16433096Y-10444381D01*
X16433096Y-10444381D02*
X16433096Y-10406286D01*
X16433096Y-10406286D02*
X16423572Y-10358667D01*
X16423572Y-10358667D02*
X16414048Y-10330095D01*
X16414048Y-10330095D02*
X16404524Y-10311048D01*
X16404524Y-10311048D02*
X16385477Y-10282476D01*
X16385477Y-10282476D02*
X16375953Y-10272952D01*
D14*
X9965000Y-10643000D02*
X9965000Y-10703000D01*
X9935000Y-10673000D02*
X9995000Y-10673000D01*
D11*
X10280714Y-10565524D02*
X10299762Y-10565524D01*
X10299762Y-10565524D02*
X10318810Y-10575048D01*
X10318810Y-10575048D02*
X10328333Y-10584571D01*
X10328333Y-10584571D02*
X10337857Y-10603619D01*
X10337857Y-10603619D02*
X10347381Y-10641714D01*
X10347381Y-10641714D02*
X10347381Y-10689333D01*
X10347381Y-10689333D02*
X10337857Y-10727429D01*
X10337857Y-10727429D02*
X10328333Y-10746476D01*
X10328333Y-10746476D02*
X10318810Y-10756000D01*
X10318810Y-10756000D02*
X10299762Y-10765524D01*
X10299762Y-10765524D02*
X10280714Y-10765524D01*
X10280714Y-10765524D02*
X10261667Y-10756000D01*
X10261667Y-10756000D02*
X10252143Y-10746476D01*
X10252143Y-10746476D02*
X10242619Y-10727429D01*
X10242619Y-10727429D02*
X10233095Y-10689333D01*
X10233095Y-10689333D02*
X10233095Y-10641714D01*
X10233095Y-10641714D02*
X10242619Y-10603619D01*
X10242619Y-10603619D02*
X10252143Y-10584571D01*
X10252143Y-10584571D02*
X10261667Y-10575048D01*
X10261667Y-10575048D02*
X10280714Y-10565524D01*
X10433095Y-10746476D02*
X10442619Y-10756000D01*
X10442619Y-10756000D02*
X10433095Y-10765524D01*
X10433095Y-10765524D02*
X10423571Y-10756000D01*
X10423571Y-10756000D02*
X10433095Y-10746476D01*
X10433095Y-10746476D02*
X10433095Y-10765524D01*
X10614048Y-10565524D02*
X10575952Y-10565524D01*
X10575952Y-10565524D02*
X10556905Y-10575048D01*
X10556905Y-10575048D02*
X10547381Y-10584571D01*
X10547381Y-10584571D02*
X10528333Y-10613143D01*
X10528333Y-10613143D02*
X10518810Y-10651238D01*
X10518810Y-10651238D02*
X10518810Y-10727429D01*
X10518810Y-10727429D02*
X10528333Y-10746476D01*
X10528333Y-10746476D02*
X10537857Y-10756000D01*
X10537857Y-10756000D02*
X10556905Y-10765524D01*
X10556905Y-10765524D02*
X10595000Y-10765524D01*
X10595000Y-10765524D02*
X10614048Y-10756000D01*
X10614048Y-10756000D02*
X10623571Y-10746476D01*
X10623571Y-10746476D02*
X10633095Y-10727429D01*
X10633095Y-10727429D02*
X10633095Y-10679810D01*
X10633095Y-10679810D02*
X10623571Y-10660762D01*
X10623571Y-10660762D02*
X10614048Y-10651238D01*
X10614048Y-10651238D02*
X10595000Y-10641714D01*
X10595000Y-10641714D02*
X10556905Y-10641714D01*
X10556905Y-10641714D02*
X10537857Y-10651238D01*
X10537857Y-10651238D02*
X10528333Y-10660762D01*
X10528333Y-10660762D02*
X10518810Y-10679810D01*
X10756905Y-10565524D02*
X10775952Y-10565524D01*
X10775952Y-10565524D02*
X10795000Y-10575048D01*
X10795000Y-10575048D02*
X10804524Y-10584571D01*
X10804524Y-10584571D02*
X10814048Y-10603619D01*
X10814048Y-10603619D02*
X10823571Y-10641714D01*
X10823571Y-10641714D02*
X10823571Y-10689333D01*
X10823571Y-10689333D02*
X10814048Y-10727429D01*
X10814048Y-10727429D02*
X10804524Y-10746476D01*
X10804524Y-10746476D02*
X10795000Y-10756000D01*
X10795000Y-10756000D02*
X10775952Y-10765524D01*
X10775952Y-10765524D02*
X10756905Y-10765524D01*
X10756905Y-10765524D02*
X10737857Y-10756000D01*
X10737857Y-10756000D02*
X10728333Y-10746476D01*
X10728333Y-10746476D02*
X10718810Y-10727429D01*
X10718810Y-10727429D02*
X10709286Y-10689333D01*
X10709286Y-10689333D02*
X10709286Y-10641714D01*
X10709286Y-10641714D02*
X10718810Y-10603619D01*
X10718810Y-10603619D02*
X10728333Y-10584571D01*
X10728333Y-10584571D02*
X10737857Y-10575048D01*
X10737857Y-10575048D02*
X10756905Y-10565524D01*
X10947381Y-10565524D02*
X10966429Y-10565524D01*
X10966429Y-10565524D02*
X10985476Y-10575048D01*
X10985476Y-10575048D02*
X10995000Y-10584571D01*
X10995000Y-10584571D02*
X11004524Y-10603619D01*
X11004524Y-10603619D02*
X11014048Y-10641714D01*
X11014048Y-10641714D02*
X11014048Y-10689333D01*
X11014048Y-10689333D02*
X11004524Y-10727429D01*
X11004524Y-10727429D02*
X10995000Y-10746476D01*
X10995000Y-10746476D02*
X10985476Y-10756000D01*
X10985476Y-10756000D02*
X10966429Y-10765524D01*
X10966429Y-10765524D02*
X10947381Y-10765524D01*
X10947381Y-10765524D02*
X10928333Y-10756000D01*
X10928333Y-10756000D02*
X10918810Y-10746476D01*
X10918810Y-10746476D02*
X10909286Y-10727429D01*
X10909286Y-10727429D02*
X10899762Y-10689333D01*
X10899762Y-10689333D02*
X10899762Y-10641714D01*
X10899762Y-10641714D02*
X10909286Y-10603619D01*
X10909286Y-10603619D02*
X10918810Y-10584571D01*
X10918810Y-10584571D02*
X10928333Y-10575048D01*
X10928333Y-10575048D02*
X10947381Y-10565524D01*
X11099762Y-10765524D02*
X11099762Y-10632190D01*
X11099762Y-10651238D02*
X11109286Y-10641714D01*
X11109286Y-10641714D02*
X11128333Y-10632190D01*
X11128333Y-10632190D02*
X11156905Y-10632190D01*
X11156905Y-10632190D02*
X11175952Y-10641714D01*
X11175952Y-10641714D02*
X11185476Y-10660762D01*
X11185476Y-10660762D02*
X11185476Y-10765524D01*
X11185476Y-10660762D02*
X11195000Y-10641714D01*
X11195000Y-10641714D02*
X11214048Y-10632190D01*
X11214048Y-10632190D02*
X11242619Y-10632190D01*
X11242619Y-10632190D02*
X11261667Y-10641714D01*
X11261667Y-10641714D02*
X11271190Y-10660762D01*
X11271190Y-10660762D02*
X11271190Y-10765524D01*
X11366429Y-10765524D02*
X11366429Y-10632190D01*
X11366429Y-10651238D02*
X11375952Y-10641714D01*
X11375952Y-10641714D02*
X11395000Y-10632190D01*
X11395000Y-10632190D02*
X11423571Y-10632190D01*
X11423571Y-10632190D02*
X11442619Y-10641714D01*
X11442619Y-10641714D02*
X11452143Y-10660762D01*
X11452143Y-10660762D02*
X11452143Y-10765524D01*
X11452143Y-10660762D02*
X11461667Y-10641714D01*
X11461667Y-10641714D02*
X11480714Y-10632190D01*
X11480714Y-10632190D02*
X11509286Y-10632190D01*
X11509286Y-10632190D02*
X11528333Y-10641714D01*
X11528333Y-10641714D02*
X11537857Y-10660762D01*
X11537857Y-10660762D02*
X11537857Y-10765524D01*
X11928333Y-10556000D02*
X11756905Y-10813143D01*
X12185476Y-10565524D02*
X12204524Y-10565524D01*
X12204524Y-10565524D02*
X12223572Y-10575048D01*
X12223572Y-10575048D02*
X12233095Y-10584571D01*
X12233095Y-10584571D02*
X12242619Y-10603619D01*
X12242619Y-10603619D02*
X12252143Y-10641714D01*
X12252143Y-10641714D02*
X12252143Y-10689333D01*
X12252143Y-10689333D02*
X12242619Y-10727429D01*
X12242619Y-10727429D02*
X12233095Y-10746476D01*
X12233095Y-10746476D02*
X12223572Y-10756000D01*
X12223572Y-10756000D02*
X12204524Y-10765524D01*
X12204524Y-10765524D02*
X12185476Y-10765524D01*
X12185476Y-10765524D02*
X12166429Y-10756000D01*
X12166429Y-10756000D02*
X12156905Y-10746476D01*
X12156905Y-10746476D02*
X12147381Y-10727429D01*
X12147381Y-10727429D02*
X12137857Y-10689333D01*
X12137857Y-10689333D02*
X12137857Y-10641714D01*
X12137857Y-10641714D02*
X12147381Y-10603619D01*
X12147381Y-10603619D02*
X12156905Y-10584571D01*
X12156905Y-10584571D02*
X12166429Y-10575048D01*
X12166429Y-10575048D02*
X12185476Y-10565524D01*
X12337857Y-10746476D02*
X12347381Y-10756000D01*
X12347381Y-10756000D02*
X12337857Y-10765524D01*
X12337857Y-10765524D02*
X12328333Y-10756000D01*
X12328333Y-10756000D02*
X12337857Y-10746476D01*
X12337857Y-10746476D02*
X12337857Y-10765524D01*
X12471191Y-10565524D02*
X12490238Y-10565524D01*
X12490238Y-10565524D02*
X12509286Y-10575048D01*
X12509286Y-10575048D02*
X12518810Y-10584571D01*
X12518810Y-10584571D02*
X12528333Y-10603619D01*
X12528333Y-10603619D02*
X12537857Y-10641714D01*
X12537857Y-10641714D02*
X12537857Y-10689333D01*
X12537857Y-10689333D02*
X12528333Y-10727429D01*
X12528333Y-10727429D02*
X12518810Y-10746476D01*
X12518810Y-10746476D02*
X12509286Y-10756000D01*
X12509286Y-10756000D02*
X12490238Y-10765524D01*
X12490238Y-10765524D02*
X12471191Y-10765524D01*
X12471191Y-10765524D02*
X12452143Y-10756000D01*
X12452143Y-10756000D02*
X12442619Y-10746476D01*
X12442619Y-10746476D02*
X12433095Y-10727429D01*
X12433095Y-10727429D02*
X12423572Y-10689333D01*
X12423572Y-10689333D02*
X12423572Y-10641714D01*
X12423572Y-10641714D02*
X12433095Y-10603619D01*
X12433095Y-10603619D02*
X12442619Y-10584571D01*
X12442619Y-10584571D02*
X12452143Y-10575048D01*
X12452143Y-10575048D02*
X12471191Y-10565524D01*
X12614048Y-10584571D02*
X12623572Y-10575048D01*
X12623572Y-10575048D02*
X12642619Y-10565524D01*
X12642619Y-10565524D02*
X12690238Y-10565524D01*
X12690238Y-10565524D02*
X12709286Y-10575048D01*
X12709286Y-10575048D02*
X12718810Y-10584571D01*
X12718810Y-10584571D02*
X12728333Y-10603619D01*
X12728333Y-10603619D02*
X12728333Y-10622667D01*
X12728333Y-10622667D02*
X12718810Y-10651238D01*
X12718810Y-10651238D02*
X12604524Y-10765524D01*
X12604524Y-10765524D02*
X12728333Y-10765524D01*
X12795000Y-10565524D02*
X12918810Y-10565524D01*
X12918810Y-10565524D02*
X12852143Y-10641714D01*
X12852143Y-10641714D02*
X12880714Y-10641714D01*
X12880714Y-10641714D02*
X12899762Y-10651238D01*
X12899762Y-10651238D02*
X12909286Y-10660762D01*
X12909286Y-10660762D02*
X12918810Y-10679810D01*
X12918810Y-10679810D02*
X12918810Y-10727429D01*
X12918810Y-10727429D02*
X12909286Y-10746476D01*
X12909286Y-10746476D02*
X12899762Y-10756000D01*
X12899762Y-10756000D02*
X12880714Y-10765524D01*
X12880714Y-10765524D02*
X12823572Y-10765524D01*
X12823572Y-10765524D02*
X12804524Y-10756000D01*
X12804524Y-10756000D02*
X12795000Y-10746476D01*
X13090238Y-10565524D02*
X13052143Y-10565524D01*
X13052143Y-10565524D02*
X13033095Y-10575048D01*
X13033095Y-10575048D02*
X13023572Y-10584571D01*
X13023572Y-10584571D02*
X13004524Y-10613143D01*
X13004524Y-10613143D02*
X12995000Y-10651238D01*
X12995000Y-10651238D02*
X12995000Y-10727429D01*
X12995000Y-10727429D02*
X13004524Y-10746476D01*
X13004524Y-10746476D02*
X13014048Y-10756000D01*
X13014048Y-10756000D02*
X13033095Y-10765524D01*
X13033095Y-10765524D02*
X13071191Y-10765524D01*
X13071191Y-10765524D02*
X13090238Y-10756000D01*
X13090238Y-10756000D02*
X13099762Y-10746476D01*
X13099762Y-10746476D02*
X13109286Y-10727429D01*
X13109286Y-10727429D02*
X13109286Y-10679810D01*
X13109286Y-10679810D02*
X13099762Y-10660762D01*
X13099762Y-10660762D02*
X13090238Y-10651238D01*
X13090238Y-10651238D02*
X13071191Y-10641714D01*
X13071191Y-10641714D02*
X13033095Y-10641714D01*
X13033095Y-10641714D02*
X13014048Y-10651238D01*
X13014048Y-10651238D02*
X13004524Y-10660762D01*
X13004524Y-10660762D02*
X12995000Y-10679810D01*
X13185476Y-10565524D02*
X13185476Y-10603619D01*
X13261667Y-10565524D02*
X13261667Y-10603619D01*
X13556905Y-10841714D02*
X13547381Y-10832190D01*
X13547381Y-10832190D02*
X13528334Y-10803619D01*
X13528334Y-10803619D02*
X13518810Y-10784571D01*
X13518810Y-10784571D02*
X13509286Y-10756000D01*
X13509286Y-10756000D02*
X13499762Y-10708381D01*
X13499762Y-10708381D02*
X13499762Y-10670286D01*
X13499762Y-10670286D02*
X13509286Y-10622667D01*
X13509286Y-10622667D02*
X13518810Y-10594095D01*
X13518810Y-10594095D02*
X13528334Y-10575048D01*
X13528334Y-10575048D02*
X13547381Y-10546476D01*
X13547381Y-10546476D02*
X13556905Y-10536952D01*
X13671191Y-10565524D02*
X13690238Y-10565524D01*
X13690238Y-10565524D02*
X13709286Y-10575048D01*
X13709286Y-10575048D02*
X13718810Y-10584571D01*
X13718810Y-10584571D02*
X13728334Y-10603619D01*
X13728334Y-10603619D02*
X13737857Y-10641714D01*
X13737857Y-10641714D02*
X13737857Y-10689333D01*
X13737857Y-10689333D02*
X13728334Y-10727429D01*
X13728334Y-10727429D02*
X13718810Y-10746476D01*
X13718810Y-10746476D02*
X13709286Y-10756000D01*
X13709286Y-10756000D02*
X13690238Y-10765524D01*
X13690238Y-10765524D02*
X13671191Y-10765524D01*
X13671191Y-10765524D02*
X13652143Y-10756000D01*
X13652143Y-10756000D02*
X13642619Y-10746476D01*
X13642619Y-10746476D02*
X13633095Y-10727429D01*
X13633095Y-10727429D02*
X13623572Y-10689333D01*
X13623572Y-10689333D02*
X13623572Y-10641714D01*
X13623572Y-10641714D02*
X13633095Y-10603619D01*
X13633095Y-10603619D02*
X13642619Y-10584571D01*
X13642619Y-10584571D02*
X13652143Y-10575048D01*
X13652143Y-10575048D02*
X13671191Y-10565524D01*
X13975953Y-10765524D02*
X13975953Y-10565524D01*
X14061667Y-10765524D02*
X14061667Y-10660762D01*
X14061667Y-10660762D02*
X14052143Y-10641714D01*
X14052143Y-10641714D02*
X14033096Y-10632190D01*
X14033096Y-10632190D02*
X14004524Y-10632190D01*
X14004524Y-10632190D02*
X13985476Y-10641714D01*
X13985476Y-10641714D02*
X13975953Y-10651238D01*
X14185476Y-10765524D02*
X14166429Y-10756000D01*
X14166429Y-10756000D02*
X14156905Y-10746476D01*
X14156905Y-10746476D02*
X14147381Y-10727429D01*
X14147381Y-10727429D02*
X14147381Y-10670286D01*
X14147381Y-10670286D02*
X14156905Y-10651238D01*
X14156905Y-10651238D02*
X14166429Y-10641714D01*
X14166429Y-10641714D02*
X14185476Y-10632190D01*
X14185476Y-10632190D02*
X14214048Y-10632190D01*
X14214048Y-10632190D02*
X14233096Y-10641714D01*
X14233096Y-10641714D02*
X14242619Y-10651238D01*
X14242619Y-10651238D02*
X14252143Y-10670286D01*
X14252143Y-10670286D02*
X14252143Y-10727429D01*
X14252143Y-10727429D02*
X14242619Y-10746476D01*
X14242619Y-10746476D02*
X14233096Y-10756000D01*
X14233096Y-10756000D02*
X14214048Y-10765524D01*
X14214048Y-10765524D02*
X14185476Y-10765524D01*
X14366429Y-10765524D02*
X14347381Y-10756000D01*
X14347381Y-10756000D02*
X14337857Y-10736952D01*
X14337857Y-10736952D02*
X14337857Y-10565524D01*
X14518810Y-10756000D02*
X14499762Y-10765524D01*
X14499762Y-10765524D02*
X14461667Y-10765524D01*
X14461667Y-10765524D02*
X14442619Y-10756000D01*
X14442619Y-10756000D02*
X14433096Y-10736952D01*
X14433096Y-10736952D02*
X14433096Y-10660762D01*
X14433096Y-10660762D02*
X14442619Y-10641714D01*
X14442619Y-10641714D02*
X14461667Y-10632190D01*
X14461667Y-10632190D02*
X14499762Y-10632190D01*
X14499762Y-10632190D02*
X14518810Y-10641714D01*
X14518810Y-10641714D02*
X14528334Y-10660762D01*
X14528334Y-10660762D02*
X14528334Y-10679810D01*
X14528334Y-10679810D02*
X14433096Y-10698857D01*
X14604524Y-10756000D02*
X14623572Y-10765524D01*
X14623572Y-10765524D02*
X14661667Y-10765524D01*
X14661667Y-10765524D02*
X14680715Y-10756000D01*
X14680715Y-10756000D02*
X14690238Y-10736952D01*
X14690238Y-10736952D02*
X14690238Y-10727429D01*
X14690238Y-10727429D02*
X14680715Y-10708381D01*
X14680715Y-10708381D02*
X14661667Y-10698857D01*
X14661667Y-10698857D02*
X14633096Y-10698857D01*
X14633096Y-10698857D02*
X14614048Y-10689333D01*
X14614048Y-10689333D02*
X14604524Y-10670286D01*
X14604524Y-10670286D02*
X14604524Y-10660762D01*
X14604524Y-10660762D02*
X14614048Y-10641714D01*
X14614048Y-10641714D02*
X14633096Y-10632190D01*
X14633096Y-10632190D02*
X14661667Y-10632190D01*
X14661667Y-10632190D02*
X14680715Y-10641714D01*
X14928334Y-10689333D02*
X15080715Y-10689333D01*
X15004524Y-10765524D02*
X15004524Y-10613143D01*
X15318810Y-10584571D02*
X15328334Y-10575048D01*
X15328334Y-10575048D02*
X15347381Y-10565524D01*
X15347381Y-10565524D02*
X15395000Y-10565524D01*
X15395000Y-10565524D02*
X15414048Y-10575048D01*
X15414048Y-10575048D02*
X15423572Y-10584571D01*
X15423572Y-10584571D02*
X15433096Y-10603619D01*
X15433096Y-10603619D02*
X15433096Y-10622667D01*
X15433096Y-10622667D02*
X15423572Y-10651238D01*
X15423572Y-10651238D02*
X15309286Y-10765524D01*
X15309286Y-10765524D02*
X15433096Y-10765524D01*
X15661667Y-10756000D02*
X15680715Y-10765524D01*
X15680715Y-10765524D02*
X15718810Y-10765524D01*
X15718810Y-10765524D02*
X15737858Y-10756000D01*
X15737858Y-10756000D02*
X15747381Y-10736952D01*
X15747381Y-10736952D02*
X15747381Y-10727429D01*
X15747381Y-10727429D02*
X15737858Y-10708381D01*
X15737858Y-10708381D02*
X15718810Y-10698857D01*
X15718810Y-10698857D02*
X15690239Y-10698857D01*
X15690239Y-10698857D02*
X15671191Y-10689333D01*
X15671191Y-10689333D02*
X15661667Y-10670286D01*
X15661667Y-10670286D02*
X15661667Y-10660762D01*
X15661667Y-10660762D02*
X15671191Y-10641714D01*
X15671191Y-10641714D02*
X15690239Y-10632190D01*
X15690239Y-10632190D02*
X15718810Y-10632190D01*
X15718810Y-10632190D02*
X15737858Y-10641714D01*
X15861667Y-10765524D02*
X15842620Y-10756000D01*
X15842620Y-10756000D02*
X15833096Y-10736952D01*
X15833096Y-10736952D02*
X15833096Y-10565524D01*
X15966429Y-10765524D02*
X15947381Y-10756000D01*
X15947381Y-10756000D02*
X15937858Y-10746476D01*
X15937858Y-10746476D02*
X15928334Y-10727429D01*
X15928334Y-10727429D02*
X15928334Y-10670286D01*
X15928334Y-10670286D02*
X15937858Y-10651238D01*
X15937858Y-10651238D02*
X15947381Y-10641714D01*
X15947381Y-10641714D02*
X15966429Y-10632190D01*
X15966429Y-10632190D02*
X15995001Y-10632190D01*
X15995001Y-10632190D02*
X16014048Y-10641714D01*
X16014048Y-10641714D02*
X16023572Y-10651238D01*
X16023572Y-10651238D02*
X16033096Y-10670286D01*
X16033096Y-10670286D02*
X16033096Y-10727429D01*
X16033096Y-10727429D02*
X16023572Y-10746476D01*
X16023572Y-10746476D02*
X16014048Y-10756000D01*
X16014048Y-10756000D02*
X15995001Y-10765524D01*
X15995001Y-10765524D02*
X15966429Y-10765524D01*
X16090239Y-10632190D02*
X16166429Y-10632190D01*
X16118810Y-10565524D02*
X16118810Y-10736952D01*
X16118810Y-10736952D02*
X16128334Y-10756000D01*
X16128334Y-10756000D02*
X16147381Y-10765524D01*
X16147381Y-10765524D02*
X16166429Y-10765524D01*
X16223572Y-10756000D02*
X16242620Y-10765524D01*
X16242620Y-10765524D02*
X16280715Y-10765524D01*
X16280715Y-10765524D02*
X16299762Y-10756000D01*
X16299762Y-10756000D02*
X16309286Y-10736952D01*
X16309286Y-10736952D02*
X16309286Y-10727429D01*
X16309286Y-10727429D02*
X16299762Y-10708381D01*
X16299762Y-10708381D02*
X16280715Y-10698857D01*
X16280715Y-10698857D02*
X16252143Y-10698857D01*
X16252143Y-10698857D02*
X16233096Y-10689333D01*
X16233096Y-10689333D02*
X16223572Y-10670286D01*
X16223572Y-10670286D02*
X16223572Y-10660762D01*
X16223572Y-10660762D02*
X16233096Y-10641714D01*
X16233096Y-10641714D02*
X16252143Y-10632190D01*
X16252143Y-10632190D02*
X16280715Y-10632190D01*
X16280715Y-10632190D02*
X16299762Y-10641714D01*
X16375953Y-10841714D02*
X16385477Y-10832190D01*
X16385477Y-10832190D02*
X16404524Y-10803619D01*
X16404524Y-10803619D02*
X16414048Y-10784571D01*
X16414048Y-10784571D02*
X16423572Y-10756000D01*
X16423572Y-10756000D02*
X16433096Y-10708381D01*
X16433096Y-10708381D02*
X16433096Y-10670286D01*
X16433096Y-10670286D02*
X16423572Y-10622667D01*
X16423572Y-10622667D02*
X16414048Y-10594095D01*
X16414048Y-10594095D02*
X16404524Y-10575048D01*
X16404524Y-10575048D02*
X16385477Y-10546476D01*
X16385477Y-10546476D02*
X16375953Y-10536952D01*
D15*
X9983285Y-10965285D02*
X9983285Y-10908716D01*
X9926716Y-10908716D01*
X9926716Y-10965285D01*
X9983285Y-10965285D01*
D11*
X10280714Y-10829524D02*
X10299762Y-10829524D01*
X10299762Y-10829524D02*
X10318810Y-10839048D01*
X10318810Y-10839048D02*
X10328333Y-10848571D01*
X10328333Y-10848571D02*
X10337857Y-10867619D01*
X10337857Y-10867619D02*
X10347381Y-10905714D01*
X10347381Y-10905714D02*
X10347381Y-10953333D01*
X10347381Y-10953333D02*
X10337857Y-10991429D01*
X10337857Y-10991429D02*
X10328333Y-11010476D01*
X10328333Y-11010476D02*
X10318810Y-11020000D01*
X10318810Y-11020000D02*
X10299762Y-11029524D01*
X10299762Y-11029524D02*
X10280714Y-11029524D01*
X10280714Y-11029524D02*
X10261667Y-11020000D01*
X10261667Y-11020000D02*
X10252143Y-11010476D01*
X10252143Y-11010476D02*
X10242619Y-10991429D01*
X10242619Y-10991429D02*
X10233095Y-10953333D01*
X10233095Y-10953333D02*
X10233095Y-10905714D01*
X10233095Y-10905714D02*
X10242619Y-10867619D01*
X10242619Y-10867619D02*
X10252143Y-10848571D01*
X10252143Y-10848571D02*
X10261667Y-10839048D01*
X10261667Y-10839048D02*
X10280714Y-10829524D01*
X10433095Y-11010476D02*
X10442619Y-11020000D01*
X10442619Y-11020000D02*
X10433095Y-11029524D01*
X10433095Y-11029524D02*
X10423571Y-11020000D01*
X10423571Y-11020000D02*
X10433095Y-11010476D01*
X10433095Y-11010476D02*
X10433095Y-11029524D01*
X10556905Y-10915238D02*
X10537857Y-10905714D01*
X10537857Y-10905714D02*
X10528333Y-10896190D01*
X10528333Y-10896190D02*
X10518810Y-10877143D01*
X10518810Y-10877143D02*
X10518810Y-10867619D01*
X10518810Y-10867619D02*
X10528333Y-10848571D01*
X10528333Y-10848571D02*
X10537857Y-10839048D01*
X10537857Y-10839048D02*
X10556905Y-10829524D01*
X10556905Y-10829524D02*
X10595000Y-10829524D01*
X10595000Y-10829524D02*
X10614048Y-10839048D01*
X10614048Y-10839048D02*
X10623571Y-10848571D01*
X10623571Y-10848571D02*
X10633095Y-10867619D01*
X10633095Y-10867619D02*
X10633095Y-10877143D01*
X10633095Y-10877143D02*
X10623571Y-10896190D01*
X10623571Y-10896190D02*
X10614048Y-10905714D01*
X10614048Y-10905714D02*
X10595000Y-10915238D01*
X10595000Y-10915238D02*
X10556905Y-10915238D01*
X10556905Y-10915238D02*
X10537857Y-10924762D01*
X10537857Y-10924762D02*
X10528333Y-10934286D01*
X10528333Y-10934286D02*
X10518810Y-10953333D01*
X10518810Y-10953333D02*
X10518810Y-10991429D01*
X10518810Y-10991429D02*
X10528333Y-11010476D01*
X10528333Y-11010476D02*
X10537857Y-11020000D01*
X10537857Y-11020000D02*
X10556905Y-11029524D01*
X10556905Y-11029524D02*
X10595000Y-11029524D01*
X10595000Y-11029524D02*
X10614048Y-11020000D01*
X10614048Y-11020000D02*
X10623571Y-11010476D01*
X10623571Y-11010476D02*
X10633095Y-10991429D01*
X10633095Y-10991429D02*
X10633095Y-10953333D01*
X10633095Y-10953333D02*
X10623571Y-10934286D01*
X10623571Y-10934286D02*
X10614048Y-10924762D01*
X10614048Y-10924762D02*
X10595000Y-10915238D01*
X10756905Y-10829524D02*
X10775952Y-10829524D01*
X10775952Y-10829524D02*
X10795000Y-10839048D01*
X10795000Y-10839048D02*
X10804524Y-10848571D01*
X10804524Y-10848571D02*
X10814048Y-10867619D01*
X10814048Y-10867619D02*
X10823571Y-10905714D01*
X10823571Y-10905714D02*
X10823571Y-10953333D01*
X10823571Y-10953333D02*
X10814048Y-10991429D01*
X10814048Y-10991429D02*
X10804524Y-11010476D01*
X10804524Y-11010476D02*
X10795000Y-11020000D01*
X10795000Y-11020000D02*
X10775952Y-11029524D01*
X10775952Y-11029524D02*
X10756905Y-11029524D01*
X10756905Y-11029524D02*
X10737857Y-11020000D01*
X10737857Y-11020000D02*
X10728333Y-11010476D01*
X10728333Y-11010476D02*
X10718810Y-10991429D01*
X10718810Y-10991429D02*
X10709286Y-10953333D01*
X10709286Y-10953333D02*
X10709286Y-10905714D01*
X10709286Y-10905714D02*
X10718810Y-10867619D01*
X10718810Y-10867619D02*
X10728333Y-10848571D01*
X10728333Y-10848571D02*
X10737857Y-10839048D01*
X10737857Y-10839048D02*
X10756905Y-10829524D01*
X10947381Y-10829524D02*
X10966429Y-10829524D01*
X10966429Y-10829524D02*
X10985476Y-10839048D01*
X10985476Y-10839048D02*
X10995000Y-10848571D01*
X10995000Y-10848571D02*
X11004524Y-10867619D01*
X11004524Y-10867619D02*
X11014048Y-10905714D01*
X11014048Y-10905714D02*
X11014048Y-10953333D01*
X11014048Y-10953333D02*
X11004524Y-10991429D01*
X11004524Y-10991429D02*
X10995000Y-11010476D01*
X10995000Y-11010476D02*
X10985476Y-11020000D01*
X10985476Y-11020000D02*
X10966429Y-11029524D01*
X10966429Y-11029524D02*
X10947381Y-11029524D01*
X10947381Y-11029524D02*
X10928333Y-11020000D01*
X10928333Y-11020000D02*
X10918810Y-11010476D01*
X10918810Y-11010476D02*
X10909286Y-10991429D01*
X10909286Y-10991429D02*
X10899762Y-10953333D01*
X10899762Y-10953333D02*
X10899762Y-10905714D01*
X10899762Y-10905714D02*
X10909286Y-10867619D01*
X10909286Y-10867619D02*
X10918810Y-10848571D01*
X10918810Y-10848571D02*
X10928333Y-10839048D01*
X10928333Y-10839048D02*
X10947381Y-10829524D01*
X11099762Y-11029524D02*
X11099762Y-10896190D01*
X11099762Y-10915238D02*
X11109286Y-10905714D01*
X11109286Y-10905714D02*
X11128333Y-10896190D01*
X11128333Y-10896190D02*
X11156905Y-10896190D01*
X11156905Y-10896190D02*
X11175952Y-10905714D01*
X11175952Y-10905714D02*
X11185476Y-10924762D01*
X11185476Y-10924762D02*
X11185476Y-11029524D01*
X11185476Y-10924762D02*
X11195000Y-10905714D01*
X11195000Y-10905714D02*
X11214048Y-10896190D01*
X11214048Y-10896190D02*
X11242619Y-10896190D01*
X11242619Y-10896190D02*
X11261667Y-10905714D01*
X11261667Y-10905714D02*
X11271190Y-10924762D01*
X11271190Y-10924762D02*
X11271190Y-11029524D01*
X11366429Y-11029524D02*
X11366429Y-10896190D01*
X11366429Y-10915238D02*
X11375952Y-10905714D01*
X11375952Y-10905714D02*
X11395000Y-10896190D01*
X11395000Y-10896190D02*
X11423571Y-10896190D01*
X11423571Y-10896190D02*
X11442619Y-10905714D01*
X11442619Y-10905714D02*
X11452143Y-10924762D01*
X11452143Y-10924762D02*
X11452143Y-11029524D01*
X11452143Y-10924762D02*
X11461667Y-10905714D01*
X11461667Y-10905714D02*
X11480714Y-10896190D01*
X11480714Y-10896190D02*
X11509286Y-10896190D01*
X11509286Y-10896190D02*
X11528333Y-10905714D01*
X11528333Y-10905714D02*
X11537857Y-10924762D01*
X11537857Y-10924762D02*
X11537857Y-11029524D01*
X11928333Y-10820000D02*
X11756905Y-11077143D01*
X12185476Y-10829524D02*
X12204524Y-10829524D01*
X12204524Y-10829524D02*
X12223572Y-10839048D01*
X12223572Y-10839048D02*
X12233095Y-10848571D01*
X12233095Y-10848571D02*
X12242619Y-10867619D01*
X12242619Y-10867619D02*
X12252143Y-10905714D01*
X12252143Y-10905714D02*
X12252143Y-10953333D01*
X12252143Y-10953333D02*
X12242619Y-10991429D01*
X12242619Y-10991429D02*
X12233095Y-11010476D01*
X12233095Y-11010476D02*
X12223572Y-11020000D01*
X12223572Y-11020000D02*
X12204524Y-11029524D01*
X12204524Y-11029524D02*
X12185476Y-11029524D01*
X12185476Y-11029524D02*
X12166429Y-11020000D01*
X12166429Y-11020000D02*
X12156905Y-11010476D01*
X12156905Y-11010476D02*
X12147381Y-10991429D01*
X12147381Y-10991429D02*
X12137857Y-10953333D01*
X12137857Y-10953333D02*
X12137857Y-10905714D01*
X12137857Y-10905714D02*
X12147381Y-10867619D01*
X12147381Y-10867619D02*
X12156905Y-10848571D01*
X12156905Y-10848571D02*
X12166429Y-10839048D01*
X12166429Y-10839048D02*
X12185476Y-10829524D01*
X12337857Y-11010476D02*
X12347381Y-11020000D01*
X12347381Y-11020000D02*
X12337857Y-11029524D01*
X12337857Y-11029524D02*
X12328333Y-11020000D01*
X12328333Y-11020000D02*
X12337857Y-11010476D01*
X12337857Y-11010476D02*
X12337857Y-11029524D01*
X12471191Y-10829524D02*
X12490238Y-10829524D01*
X12490238Y-10829524D02*
X12509286Y-10839048D01*
X12509286Y-10839048D02*
X12518810Y-10848571D01*
X12518810Y-10848571D02*
X12528333Y-10867619D01*
X12528333Y-10867619D02*
X12537857Y-10905714D01*
X12537857Y-10905714D02*
X12537857Y-10953333D01*
X12537857Y-10953333D02*
X12528333Y-10991429D01*
X12528333Y-10991429D02*
X12518810Y-11010476D01*
X12518810Y-11010476D02*
X12509286Y-11020000D01*
X12509286Y-11020000D02*
X12490238Y-11029524D01*
X12490238Y-11029524D02*
X12471191Y-11029524D01*
X12471191Y-11029524D02*
X12452143Y-11020000D01*
X12452143Y-11020000D02*
X12442619Y-11010476D01*
X12442619Y-11010476D02*
X12433095Y-10991429D01*
X12433095Y-10991429D02*
X12423572Y-10953333D01*
X12423572Y-10953333D02*
X12423572Y-10905714D01*
X12423572Y-10905714D02*
X12433095Y-10867619D01*
X12433095Y-10867619D02*
X12442619Y-10848571D01*
X12442619Y-10848571D02*
X12452143Y-10839048D01*
X12452143Y-10839048D02*
X12471191Y-10829524D01*
X12604524Y-10829524D02*
X12728333Y-10829524D01*
X12728333Y-10829524D02*
X12661667Y-10905714D01*
X12661667Y-10905714D02*
X12690238Y-10905714D01*
X12690238Y-10905714D02*
X12709286Y-10915238D01*
X12709286Y-10915238D02*
X12718810Y-10924762D01*
X12718810Y-10924762D02*
X12728333Y-10943810D01*
X12728333Y-10943810D02*
X12728333Y-10991429D01*
X12728333Y-10991429D02*
X12718810Y-11010476D01*
X12718810Y-11010476D02*
X12709286Y-11020000D01*
X12709286Y-11020000D02*
X12690238Y-11029524D01*
X12690238Y-11029524D02*
X12633095Y-11029524D01*
X12633095Y-11029524D02*
X12614048Y-11020000D01*
X12614048Y-11020000D02*
X12604524Y-11010476D01*
X12918810Y-11029524D02*
X12804524Y-11029524D01*
X12861667Y-11029524D02*
X12861667Y-10829524D01*
X12861667Y-10829524D02*
X12842619Y-10858095D01*
X12842619Y-10858095D02*
X12823572Y-10877143D01*
X12823572Y-10877143D02*
X12804524Y-10886667D01*
X13099762Y-10829524D02*
X13004524Y-10829524D01*
X13004524Y-10829524D02*
X12995000Y-10924762D01*
X12995000Y-10924762D02*
X13004524Y-10915238D01*
X13004524Y-10915238D02*
X13023572Y-10905714D01*
X13023572Y-10905714D02*
X13071191Y-10905714D01*
X13071191Y-10905714D02*
X13090238Y-10915238D01*
X13090238Y-10915238D02*
X13099762Y-10924762D01*
X13099762Y-10924762D02*
X13109286Y-10943810D01*
X13109286Y-10943810D02*
X13109286Y-10991429D01*
X13109286Y-10991429D02*
X13099762Y-11010476D01*
X13099762Y-11010476D02*
X13090238Y-11020000D01*
X13090238Y-11020000D02*
X13071191Y-11029524D01*
X13071191Y-11029524D02*
X13023572Y-11029524D01*
X13023572Y-11029524D02*
X13004524Y-11020000D01*
X13004524Y-11020000D02*
X12995000Y-11010476D01*
X13185476Y-10829524D02*
X13185476Y-10867619D01*
X13261667Y-10829524D02*
X13261667Y-10867619D01*
X13556905Y-11105714D02*
X13547381Y-11096190D01*
X13547381Y-11096190D02*
X13528334Y-11067619D01*
X13528334Y-11067619D02*
X13518810Y-11048571D01*
X13518810Y-11048571D02*
X13509286Y-11020000D01*
X13509286Y-11020000D02*
X13499762Y-10972381D01*
X13499762Y-10972381D02*
X13499762Y-10934286D01*
X13499762Y-10934286D02*
X13509286Y-10886667D01*
X13509286Y-10886667D02*
X13518810Y-10858095D01*
X13518810Y-10858095D02*
X13528334Y-10839048D01*
X13528334Y-10839048D02*
X13547381Y-10810476D01*
X13547381Y-10810476D02*
X13556905Y-10800952D01*
X13718810Y-10896190D02*
X13718810Y-11029524D01*
X13671191Y-10820000D02*
X13623572Y-10962857D01*
X13623572Y-10962857D02*
X13747381Y-10962857D01*
X13975953Y-11029524D02*
X13975953Y-10829524D01*
X14061667Y-11029524D02*
X14061667Y-10924762D01*
X14061667Y-10924762D02*
X14052143Y-10905714D01*
X14052143Y-10905714D02*
X14033096Y-10896190D01*
X14033096Y-10896190D02*
X14004524Y-10896190D01*
X14004524Y-10896190D02*
X13985476Y-10905714D01*
X13985476Y-10905714D02*
X13975953Y-10915238D01*
X14185476Y-11029524D02*
X14166429Y-11020000D01*
X14166429Y-11020000D02*
X14156905Y-11010476D01*
X14156905Y-11010476D02*
X14147381Y-10991429D01*
X14147381Y-10991429D02*
X14147381Y-10934286D01*
X14147381Y-10934286D02*
X14156905Y-10915238D01*
X14156905Y-10915238D02*
X14166429Y-10905714D01*
X14166429Y-10905714D02*
X14185476Y-10896190D01*
X14185476Y-10896190D02*
X14214048Y-10896190D01*
X14214048Y-10896190D02*
X14233096Y-10905714D01*
X14233096Y-10905714D02*
X14242619Y-10915238D01*
X14242619Y-10915238D02*
X14252143Y-10934286D01*
X14252143Y-10934286D02*
X14252143Y-10991429D01*
X14252143Y-10991429D02*
X14242619Y-11010476D01*
X14242619Y-11010476D02*
X14233096Y-11020000D01*
X14233096Y-11020000D02*
X14214048Y-11029524D01*
X14214048Y-11029524D02*
X14185476Y-11029524D01*
X14366429Y-11029524D02*
X14347381Y-11020000D01*
X14347381Y-11020000D02*
X14337857Y-11000952D01*
X14337857Y-11000952D02*
X14337857Y-10829524D01*
X14518810Y-11020000D02*
X14499762Y-11029524D01*
X14499762Y-11029524D02*
X14461667Y-11029524D01*
X14461667Y-11029524D02*
X14442619Y-11020000D01*
X14442619Y-11020000D02*
X14433096Y-11000952D01*
X14433096Y-11000952D02*
X14433096Y-10924762D01*
X14433096Y-10924762D02*
X14442619Y-10905714D01*
X14442619Y-10905714D02*
X14461667Y-10896190D01*
X14461667Y-10896190D02*
X14499762Y-10896190D01*
X14499762Y-10896190D02*
X14518810Y-10905714D01*
X14518810Y-10905714D02*
X14528334Y-10924762D01*
X14528334Y-10924762D02*
X14528334Y-10943810D01*
X14528334Y-10943810D02*
X14433096Y-10962857D01*
X14604524Y-11020000D02*
X14623572Y-11029524D01*
X14623572Y-11029524D02*
X14661667Y-11029524D01*
X14661667Y-11029524D02*
X14680715Y-11020000D01*
X14680715Y-11020000D02*
X14690238Y-11000952D01*
X14690238Y-11000952D02*
X14690238Y-10991429D01*
X14690238Y-10991429D02*
X14680715Y-10972381D01*
X14680715Y-10972381D02*
X14661667Y-10962857D01*
X14661667Y-10962857D02*
X14633096Y-10962857D01*
X14633096Y-10962857D02*
X14614048Y-10953333D01*
X14614048Y-10953333D02*
X14604524Y-10934286D01*
X14604524Y-10934286D02*
X14604524Y-10924762D01*
X14604524Y-10924762D02*
X14614048Y-10905714D01*
X14614048Y-10905714D02*
X14633096Y-10896190D01*
X14633096Y-10896190D02*
X14661667Y-10896190D01*
X14661667Y-10896190D02*
X14680715Y-10905714D01*
X14756905Y-11105714D02*
X14766429Y-11096190D01*
X14766429Y-11096190D02*
X14785477Y-11067619D01*
X14785477Y-11067619D02*
X14795000Y-11048571D01*
X14795000Y-11048571D02*
X14804524Y-11020000D01*
X14804524Y-11020000D02*
X14814048Y-10972381D01*
X14814048Y-10972381D02*
X14814048Y-10934286D01*
X14814048Y-10934286D02*
X14804524Y-10886667D01*
X14804524Y-10886667D02*
X14795000Y-10858095D01*
X14795000Y-10858095D02*
X14785477Y-10839048D01*
X14785477Y-10839048D02*
X14766429Y-10810476D01*
X14766429Y-10810476D02*
X14756905Y-10800952D01*
D16*
X9950000Y-11246000D02*
X9995000Y-11201000D01*
X9950000Y-11156000D01*
X9905000Y-11201000D01*
X9950000Y-11246000D01*
D11*
X10280714Y-11093524D02*
X10299762Y-11093524D01*
X10299762Y-11093524D02*
X10318810Y-11103048D01*
X10318810Y-11103048D02*
X10328333Y-11112571D01*
X10328333Y-11112571D02*
X10337857Y-11131619D01*
X10337857Y-11131619D02*
X10347381Y-11169714D01*
X10347381Y-11169714D02*
X10347381Y-11217333D01*
X10347381Y-11217333D02*
X10337857Y-11255428D01*
X10337857Y-11255428D02*
X10328333Y-11274476D01*
X10328333Y-11274476D02*
X10318810Y-11284000D01*
X10318810Y-11284000D02*
X10299762Y-11293524D01*
X10299762Y-11293524D02*
X10280714Y-11293524D01*
X10280714Y-11293524D02*
X10261667Y-11284000D01*
X10261667Y-11284000D02*
X10252143Y-11274476D01*
X10252143Y-11274476D02*
X10242619Y-11255428D01*
X10242619Y-11255428D02*
X10233095Y-11217333D01*
X10233095Y-11217333D02*
X10233095Y-11169714D01*
X10233095Y-11169714D02*
X10242619Y-11131619D01*
X10242619Y-11131619D02*
X10252143Y-11112571D01*
X10252143Y-11112571D02*
X10261667Y-11103048D01*
X10261667Y-11103048D02*
X10280714Y-11093524D01*
X10433095Y-11274476D02*
X10442619Y-11284000D01*
X10442619Y-11284000D02*
X10433095Y-11293524D01*
X10433095Y-11293524D02*
X10423571Y-11284000D01*
X10423571Y-11284000D02*
X10433095Y-11274476D01*
X10433095Y-11274476D02*
X10433095Y-11293524D01*
X10537857Y-11293524D02*
X10575952Y-11293524D01*
X10575952Y-11293524D02*
X10595000Y-11284000D01*
X10595000Y-11284000D02*
X10604524Y-11274476D01*
X10604524Y-11274476D02*
X10623571Y-11245905D01*
X10623571Y-11245905D02*
X10633095Y-11207809D01*
X10633095Y-11207809D02*
X10633095Y-11131619D01*
X10633095Y-11131619D02*
X10623571Y-11112571D01*
X10623571Y-11112571D02*
X10614048Y-11103048D01*
X10614048Y-11103048D02*
X10595000Y-11093524D01*
X10595000Y-11093524D02*
X10556905Y-11093524D01*
X10556905Y-11093524D02*
X10537857Y-11103048D01*
X10537857Y-11103048D02*
X10528333Y-11112571D01*
X10528333Y-11112571D02*
X10518810Y-11131619D01*
X10518810Y-11131619D02*
X10518810Y-11179238D01*
X10518810Y-11179238D02*
X10528333Y-11198286D01*
X10528333Y-11198286D02*
X10537857Y-11207809D01*
X10537857Y-11207809D02*
X10556905Y-11217333D01*
X10556905Y-11217333D02*
X10595000Y-11217333D01*
X10595000Y-11217333D02*
X10614048Y-11207809D01*
X10614048Y-11207809D02*
X10623571Y-11198286D01*
X10623571Y-11198286D02*
X10633095Y-11179238D01*
X10756905Y-11093524D02*
X10775952Y-11093524D01*
X10775952Y-11093524D02*
X10795000Y-11103048D01*
X10795000Y-11103048D02*
X10804524Y-11112571D01*
X10804524Y-11112571D02*
X10814048Y-11131619D01*
X10814048Y-11131619D02*
X10823571Y-11169714D01*
X10823571Y-11169714D02*
X10823571Y-11217333D01*
X10823571Y-11217333D02*
X10814048Y-11255428D01*
X10814048Y-11255428D02*
X10804524Y-11274476D01*
X10804524Y-11274476D02*
X10795000Y-11284000D01*
X10795000Y-11284000D02*
X10775952Y-11293524D01*
X10775952Y-11293524D02*
X10756905Y-11293524D01*
X10756905Y-11293524D02*
X10737857Y-11284000D01*
X10737857Y-11284000D02*
X10728333Y-11274476D01*
X10728333Y-11274476D02*
X10718810Y-11255428D01*
X10718810Y-11255428D02*
X10709286Y-11217333D01*
X10709286Y-11217333D02*
X10709286Y-11169714D01*
X10709286Y-11169714D02*
X10718810Y-11131619D01*
X10718810Y-11131619D02*
X10728333Y-11112571D01*
X10728333Y-11112571D02*
X10737857Y-11103048D01*
X10737857Y-11103048D02*
X10756905Y-11093524D01*
X10947381Y-11093524D02*
X10966429Y-11093524D01*
X10966429Y-11093524D02*
X10985476Y-11103048D01*
X10985476Y-11103048D02*
X10995000Y-11112571D01*
X10995000Y-11112571D02*
X11004524Y-11131619D01*
X11004524Y-11131619D02*
X11014048Y-11169714D01*
X11014048Y-11169714D02*
X11014048Y-11217333D01*
X11014048Y-11217333D02*
X11004524Y-11255428D01*
X11004524Y-11255428D02*
X10995000Y-11274476D01*
X10995000Y-11274476D02*
X10985476Y-11284000D01*
X10985476Y-11284000D02*
X10966429Y-11293524D01*
X10966429Y-11293524D02*
X10947381Y-11293524D01*
X10947381Y-11293524D02*
X10928333Y-11284000D01*
X10928333Y-11284000D02*
X10918810Y-11274476D01*
X10918810Y-11274476D02*
X10909286Y-11255428D01*
X10909286Y-11255428D02*
X10899762Y-11217333D01*
X10899762Y-11217333D02*
X10899762Y-11169714D01*
X10899762Y-11169714D02*
X10909286Y-11131619D01*
X10909286Y-11131619D02*
X10918810Y-11112571D01*
X10918810Y-11112571D02*
X10928333Y-11103048D01*
X10928333Y-11103048D02*
X10947381Y-11093524D01*
X11099762Y-11293524D02*
X11099762Y-11160190D01*
X11099762Y-11179238D02*
X11109286Y-11169714D01*
X11109286Y-11169714D02*
X11128333Y-11160190D01*
X11128333Y-11160190D02*
X11156905Y-11160190D01*
X11156905Y-11160190D02*
X11175952Y-11169714D01*
X11175952Y-11169714D02*
X11185476Y-11188762D01*
X11185476Y-11188762D02*
X11185476Y-11293524D01*
X11185476Y-11188762D02*
X11195000Y-11169714D01*
X11195000Y-11169714D02*
X11214048Y-11160190D01*
X11214048Y-11160190D02*
X11242619Y-11160190D01*
X11242619Y-11160190D02*
X11261667Y-11169714D01*
X11261667Y-11169714D02*
X11271190Y-11188762D01*
X11271190Y-11188762D02*
X11271190Y-11293524D01*
X11366429Y-11293524D02*
X11366429Y-11160190D01*
X11366429Y-11179238D02*
X11375952Y-11169714D01*
X11375952Y-11169714D02*
X11395000Y-11160190D01*
X11395000Y-11160190D02*
X11423571Y-11160190D01*
X11423571Y-11160190D02*
X11442619Y-11169714D01*
X11442619Y-11169714D02*
X11452143Y-11188762D01*
X11452143Y-11188762D02*
X11452143Y-11293524D01*
X11452143Y-11188762D02*
X11461667Y-11169714D01*
X11461667Y-11169714D02*
X11480714Y-11160190D01*
X11480714Y-11160190D02*
X11509286Y-11160190D01*
X11509286Y-11160190D02*
X11528333Y-11169714D01*
X11528333Y-11169714D02*
X11537857Y-11188762D01*
X11537857Y-11188762D02*
X11537857Y-11293524D01*
X11928333Y-11084000D02*
X11756905Y-11341143D01*
X12185476Y-11093524D02*
X12204524Y-11093524D01*
X12204524Y-11093524D02*
X12223572Y-11103048D01*
X12223572Y-11103048D02*
X12233095Y-11112571D01*
X12233095Y-11112571D02*
X12242619Y-11131619D01*
X12242619Y-11131619D02*
X12252143Y-11169714D01*
X12252143Y-11169714D02*
X12252143Y-11217333D01*
X12252143Y-11217333D02*
X12242619Y-11255428D01*
X12242619Y-11255428D02*
X12233095Y-11274476D01*
X12233095Y-11274476D02*
X12223572Y-11284000D01*
X12223572Y-11284000D02*
X12204524Y-11293524D01*
X12204524Y-11293524D02*
X12185476Y-11293524D01*
X12185476Y-11293524D02*
X12166429Y-11284000D01*
X12166429Y-11284000D02*
X12156905Y-11274476D01*
X12156905Y-11274476D02*
X12147381Y-11255428D01*
X12147381Y-11255428D02*
X12137857Y-11217333D01*
X12137857Y-11217333D02*
X12137857Y-11169714D01*
X12137857Y-11169714D02*
X12147381Y-11131619D01*
X12147381Y-11131619D02*
X12156905Y-11112571D01*
X12156905Y-11112571D02*
X12166429Y-11103048D01*
X12166429Y-11103048D02*
X12185476Y-11093524D01*
X12337857Y-11274476D02*
X12347381Y-11284000D01*
X12347381Y-11284000D02*
X12337857Y-11293524D01*
X12337857Y-11293524D02*
X12328333Y-11284000D01*
X12328333Y-11284000D02*
X12337857Y-11274476D01*
X12337857Y-11274476D02*
X12337857Y-11293524D01*
X12471191Y-11093524D02*
X12490238Y-11093524D01*
X12490238Y-11093524D02*
X12509286Y-11103048D01*
X12509286Y-11103048D02*
X12518810Y-11112571D01*
X12518810Y-11112571D02*
X12528333Y-11131619D01*
X12528333Y-11131619D02*
X12537857Y-11169714D01*
X12537857Y-11169714D02*
X12537857Y-11217333D01*
X12537857Y-11217333D02*
X12528333Y-11255428D01*
X12528333Y-11255428D02*
X12518810Y-11274476D01*
X12518810Y-11274476D02*
X12509286Y-11284000D01*
X12509286Y-11284000D02*
X12490238Y-11293524D01*
X12490238Y-11293524D02*
X12471191Y-11293524D01*
X12471191Y-11293524D02*
X12452143Y-11284000D01*
X12452143Y-11284000D02*
X12442619Y-11274476D01*
X12442619Y-11274476D02*
X12433095Y-11255428D01*
X12433095Y-11255428D02*
X12423572Y-11217333D01*
X12423572Y-11217333D02*
X12423572Y-11169714D01*
X12423572Y-11169714D02*
X12433095Y-11131619D01*
X12433095Y-11131619D02*
X12442619Y-11112571D01*
X12442619Y-11112571D02*
X12452143Y-11103048D01*
X12452143Y-11103048D02*
X12471191Y-11093524D01*
X12604524Y-11093524D02*
X12728333Y-11093524D01*
X12728333Y-11093524D02*
X12661667Y-11169714D01*
X12661667Y-11169714D02*
X12690238Y-11169714D01*
X12690238Y-11169714D02*
X12709286Y-11179238D01*
X12709286Y-11179238D02*
X12718810Y-11188762D01*
X12718810Y-11188762D02*
X12728333Y-11207809D01*
X12728333Y-11207809D02*
X12728333Y-11255428D01*
X12728333Y-11255428D02*
X12718810Y-11274476D01*
X12718810Y-11274476D02*
X12709286Y-11284000D01*
X12709286Y-11284000D02*
X12690238Y-11293524D01*
X12690238Y-11293524D02*
X12633095Y-11293524D01*
X12633095Y-11293524D02*
X12614048Y-11284000D01*
X12614048Y-11284000D02*
X12604524Y-11274476D01*
X12909286Y-11093524D02*
X12814048Y-11093524D01*
X12814048Y-11093524D02*
X12804524Y-11188762D01*
X12804524Y-11188762D02*
X12814048Y-11179238D01*
X12814048Y-11179238D02*
X12833095Y-11169714D01*
X12833095Y-11169714D02*
X12880714Y-11169714D01*
X12880714Y-11169714D02*
X12899762Y-11179238D01*
X12899762Y-11179238D02*
X12909286Y-11188762D01*
X12909286Y-11188762D02*
X12918810Y-11207809D01*
X12918810Y-11207809D02*
X12918810Y-11255428D01*
X12918810Y-11255428D02*
X12909286Y-11274476D01*
X12909286Y-11274476D02*
X12899762Y-11284000D01*
X12899762Y-11284000D02*
X12880714Y-11293524D01*
X12880714Y-11293524D02*
X12833095Y-11293524D01*
X12833095Y-11293524D02*
X12814048Y-11284000D01*
X12814048Y-11284000D02*
X12804524Y-11274476D01*
X13090238Y-11160190D02*
X13090238Y-11293524D01*
X13042619Y-11084000D02*
X12995000Y-11226857D01*
X12995000Y-11226857D02*
X13118810Y-11226857D01*
X13185476Y-11093524D02*
X13185476Y-11131619D01*
X13261667Y-11093524D02*
X13261667Y-11131619D01*
X13556905Y-11369714D02*
X13547381Y-11360190D01*
X13547381Y-11360190D02*
X13528334Y-11331619D01*
X13528334Y-11331619D02*
X13518810Y-11312571D01*
X13518810Y-11312571D02*
X13509286Y-11284000D01*
X13509286Y-11284000D02*
X13499762Y-11236381D01*
X13499762Y-11236381D02*
X13499762Y-11198286D01*
X13499762Y-11198286D02*
X13509286Y-11150667D01*
X13509286Y-11150667D02*
X13518810Y-11122095D01*
X13518810Y-11122095D02*
X13528334Y-11103048D01*
X13528334Y-11103048D02*
X13547381Y-11074476D01*
X13547381Y-11074476D02*
X13556905Y-11064952D01*
X13718810Y-11160190D02*
X13718810Y-11293524D01*
X13671191Y-11084000D02*
X13623572Y-11226857D01*
X13623572Y-11226857D02*
X13747381Y-11226857D01*
X13975953Y-11293524D02*
X13975953Y-11093524D01*
X14061667Y-11293524D02*
X14061667Y-11188762D01*
X14061667Y-11188762D02*
X14052143Y-11169714D01*
X14052143Y-11169714D02*
X14033096Y-11160190D01*
X14033096Y-11160190D02*
X14004524Y-11160190D01*
X14004524Y-11160190D02*
X13985476Y-11169714D01*
X13985476Y-11169714D02*
X13975953Y-11179238D01*
X14185476Y-11293524D02*
X14166429Y-11284000D01*
X14166429Y-11284000D02*
X14156905Y-11274476D01*
X14156905Y-11274476D02*
X14147381Y-11255428D01*
X14147381Y-11255428D02*
X14147381Y-11198286D01*
X14147381Y-11198286D02*
X14156905Y-11179238D01*
X14156905Y-11179238D02*
X14166429Y-11169714D01*
X14166429Y-11169714D02*
X14185476Y-11160190D01*
X14185476Y-11160190D02*
X14214048Y-11160190D01*
X14214048Y-11160190D02*
X14233096Y-11169714D01*
X14233096Y-11169714D02*
X14242619Y-11179238D01*
X14242619Y-11179238D02*
X14252143Y-11198286D01*
X14252143Y-11198286D02*
X14252143Y-11255428D01*
X14252143Y-11255428D02*
X14242619Y-11274476D01*
X14242619Y-11274476D02*
X14233096Y-11284000D01*
X14233096Y-11284000D02*
X14214048Y-11293524D01*
X14214048Y-11293524D02*
X14185476Y-11293524D01*
X14366429Y-11293524D02*
X14347381Y-11284000D01*
X14347381Y-11284000D02*
X14337857Y-11264952D01*
X14337857Y-11264952D02*
X14337857Y-11093524D01*
X14518810Y-11284000D02*
X14499762Y-11293524D01*
X14499762Y-11293524D02*
X14461667Y-11293524D01*
X14461667Y-11293524D02*
X14442619Y-11284000D01*
X14442619Y-11284000D02*
X14433096Y-11264952D01*
X14433096Y-11264952D02*
X14433096Y-11188762D01*
X14433096Y-11188762D02*
X14442619Y-11169714D01*
X14442619Y-11169714D02*
X14461667Y-11160190D01*
X14461667Y-11160190D02*
X14499762Y-11160190D01*
X14499762Y-11160190D02*
X14518810Y-11169714D01*
X14518810Y-11169714D02*
X14528334Y-11188762D01*
X14528334Y-11188762D02*
X14528334Y-11207809D01*
X14528334Y-11207809D02*
X14433096Y-11226857D01*
X14604524Y-11284000D02*
X14623572Y-11293524D01*
X14623572Y-11293524D02*
X14661667Y-11293524D01*
X14661667Y-11293524D02*
X14680715Y-11284000D01*
X14680715Y-11284000D02*
X14690238Y-11264952D01*
X14690238Y-11264952D02*
X14690238Y-11255428D01*
X14690238Y-11255428D02*
X14680715Y-11236381D01*
X14680715Y-11236381D02*
X14661667Y-11226857D01*
X14661667Y-11226857D02*
X14633096Y-11226857D01*
X14633096Y-11226857D02*
X14614048Y-11217333D01*
X14614048Y-11217333D02*
X14604524Y-11198286D01*
X14604524Y-11198286D02*
X14604524Y-11188762D01*
X14604524Y-11188762D02*
X14614048Y-11169714D01*
X14614048Y-11169714D02*
X14633096Y-11160190D01*
X14633096Y-11160190D02*
X14661667Y-11160190D01*
X14661667Y-11160190D02*
X14680715Y-11169714D01*
X14756905Y-11369714D02*
X14766429Y-11360190D01*
X14766429Y-11360190D02*
X14785477Y-11331619D01*
X14785477Y-11331619D02*
X14795000Y-11312571D01*
X14795000Y-11312571D02*
X14804524Y-11284000D01*
X14804524Y-11284000D02*
X14814048Y-11236381D01*
X14814048Y-11236381D02*
X14814048Y-11198286D01*
X14814048Y-11198286D02*
X14804524Y-11150667D01*
X14804524Y-11150667D02*
X14795000Y-11122095D01*
X14795000Y-11122095D02*
X14785477Y-11103048D01*
X14785477Y-11103048D02*
X14766429Y-11074476D01*
X14766429Y-11074476D02*
X14756905Y-11064952D01*
D10*
X9895000Y-11415000D02*
X9995000Y-11515000D01*
X9995000Y-11415000D02*
X9895000Y-11515000D01*
X9995000Y-11465000D02*
G75*
G03*
X9995000Y-11465000I-50000J0D01*
G01*
D11*
X10347381Y-11557524D02*
X10233095Y-11557524D01*
X10290238Y-11557524D02*
X10290238Y-11357524D01*
X10290238Y-11357524D02*
X10271190Y-11386095D01*
X10271190Y-11386095D02*
X10252143Y-11405143D01*
X10252143Y-11405143D02*
X10233095Y-11414667D01*
X10433095Y-11538476D02*
X10442619Y-11548000D01*
X10442619Y-11548000D02*
X10433095Y-11557524D01*
X10433095Y-11557524D02*
X10423571Y-11548000D01*
X10423571Y-11548000D02*
X10433095Y-11538476D01*
X10433095Y-11538476D02*
X10433095Y-11557524D01*
X10566429Y-11357524D02*
X10585476Y-11357524D01*
X10585476Y-11357524D02*
X10604524Y-11367048D01*
X10604524Y-11367048D02*
X10614048Y-11376571D01*
X10614048Y-11376571D02*
X10623571Y-11395619D01*
X10623571Y-11395619D02*
X10633095Y-11433714D01*
X10633095Y-11433714D02*
X10633095Y-11481333D01*
X10633095Y-11481333D02*
X10623571Y-11519428D01*
X10623571Y-11519428D02*
X10614048Y-11538476D01*
X10614048Y-11538476D02*
X10604524Y-11548000D01*
X10604524Y-11548000D02*
X10585476Y-11557524D01*
X10585476Y-11557524D02*
X10566429Y-11557524D01*
X10566429Y-11557524D02*
X10547381Y-11548000D01*
X10547381Y-11548000D02*
X10537857Y-11538476D01*
X10537857Y-11538476D02*
X10528333Y-11519428D01*
X10528333Y-11519428D02*
X10518810Y-11481333D01*
X10518810Y-11481333D02*
X10518810Y-11433714D01*
X10518810Y-11433714D02*
X10528333Y-11395619D01*
X10528333Y-11395619D02*
X10537857Y-11376571D01*
X10537857Y-11376571D02*
X10547381Y-11367048D01*
X10547381Y-11367048D02*
X10566429Y-11357524D01*
X10756905Y-11357524D02*
X10775952Y-11357524D01*
X10775952Y-11357524D02*
X10795000Y-11367048D01*
X10795000Y-11367048D02*
X10804524Y-11376571D01*
X10804524Y-11376571D02*
X10814048Y-11395619D01*
X10814048Y-11395619D02*
X10823571Y-11433714D01*
X10823571Y-11433714D02*
X10823571Y-11481333D01*
X10823571Y-11481333D02*
X10814048Y-11519428D01*
X10814048Y-11519428D02*
X10804524Y-11538476D01*
X10804524Y-11538476D02*
X10795000Y-11548000D01*
X10795000Y-11548000D02*
X10775952Y-11557524D01*
X10775952Y-11557524D02*
X10756905Y-11557524D01*
X10756905Y-11557524D02*
X10737857Y-11548000D01*
X10737857Y-11548000D02*
X10728333Y-11538476D01*
X10728333Y-11538476D02*
X10718810Y-11519428D01*
X10718810Y-11519428D02*
X10709286Y-11481333D01*
X10709286Y-11481333D02*
X10709286Y-11433714D01*
X10709286Y-11433714D02*
X10718810Y-11395619D01*
X10718810Y-11395619D02*
X10728333Y-11376571D01*
X10728333Y-11376571D02*
X10737857Y-11367048D01*
X10737857Y-11367048D02*
X10756905Y-11357524D01*
X10947381Y-11357524D02*
X10966429Y-11357524D01*
X10966429Y-11357524D02*
X10985476Y-11367048D01*
X10985476Y-11367048D02*
X10995000Y-11376571D01*
X10995000Y-11376571D02*
X11004524Y-11395619D01*
X11004524Y-11395619D02*
X11014048Y-11433714D01*
X11014048Y-11433714D02*
X11014048Y-11481333D01*
X11014048Y-11481333D02*
X11004524Y-11519428D01*
X11004524Y-11519428D02*
X10995000Y-11538476D01*
X10995000Y-11538476D02*
X10985476Y-11548000D01*
X10985476Y-11548000D02*
X10966429Y-11557524D01*
X10966429Y-11557524D02*
X10947381Y-11557524D01*
X10947381Y-11557524D02*
X10928333Y-11548000D01*
X10928333Y-11548000D02*
X10918810Y-11538476D01*
X10918810Y-11538476D02*
X10909286Y-11519428D01*
X10909286Y-11519428D02*
X10899762Y-11481333D01*
X10899762Y-11481333D02*
X10899762Y-11433714D01*
X10899762Y-11433714D02*
X10909286Y-11395619D01*
X10909286Y-11395619D02*
X10918810Y-11376571D01*
X10918810Y-11376571D02*
X10928333Y-11367048D01*
X10928333Y-11367048D02*
X10947381Y-11357524D01*
X11099762Y-11557524D02*
X11099762Y-11424190D01*
X11099762Y-11443238D02*
X11109286Y-11433714D01*
X11109286Y-11433714D02*
X11128333Y-11424190D01*
X11128333Y-11424190D02*
X11156905Y-11424190D01*
X11156905Y-11424190D02*
X11175952Y-11433714D01*
X11175952Y-11433714D02*
X11185476Y-11452762D01*
X11185476Y-11452762D02*
X11185476Y-11557524D01*
X11185476Y-11452762D02*
X11195000Y-11433714D01*
X11195000Y-11433714D02*
X11214048Y-11424190D01*
X11214048Y-11424190D02*
X11242619Y-11424190D01*
X11242619Y-11424190D02*
X11261667Y-11433714D01*
X11261667Y-11433714D02*
X11271190Y-11452762D01*
X11271190Y-11452762D02*
X11271190Y-11557524D01*
X11366429Y-11557524D02*
X11366429Y-11424190D01*
X11366429Y-11443238D02*
X11375952Y-11433714D01*
X11375952Y-11433714D02*
X11395000Y-11424190D01*
X11395000Y-11424190D02*
X11423571Y-11424190D01*
X11423571Y-11424190D02*
X11442619Y-11433714D01*
X11442619Y-11433714D02*
X11452143Y-11452762D01*
X11452143Y-11452762D02*
X11452143Y-11557524D01*
X11452143Y-11452762D02*
X11461667Y-11433714D01*
X11461667Y-11433714D02*
X11480714Y-11424190D01*
X11480714Y-11424190D02*
X11509286Y-11424190D01*
X11509286Y-11424190D02*
X11528333Y-11433714D01*
X11528333Y-11433714D02*
X11537857Y-11452762D01*
X11537857Y-11452762D02*
X11537857Y-11557524D01*
X11928333Y-11348000D02*
X11756905Y-11605143D01*
X12185476Y-11357524D02*
X12204524Y-11357524D01*
X12204524Y-11357524D02*
X12223572Y-11367048D01*
X12223572Y-11367048D02*
X12233095Y-11376571D01*
X12233095Y-11376571D02*
X12242619Y-11395619D01*
X12242619Y-11395619D02*
X12252143Y-11433714D01*
X12252143Y-11433714D02*
X12252143Y-11481333D01*
X12252143Y-11481333D02*
X12242619Y-11519428D01*
X12242619Y-11519428D02*
X12233095Y-11538476D01*
X12233095Y-11538476D02*
X12223572Y-11548000D01*
X12223572Y-11548000D02*
X12204524Y-11557524D01*
X12204524Y-11557524D02*
X12185476Y-11557524D01*
X12185476Y-11557524D02*
X12166429Y-11548000D01*
X12166429Y-11548000D02*
X12156905Y-11538476D01*
X12156905Y-11538476D02*
X12147381Y-11519428D01*
X12147381Y-11519428D02*
X12137857Y-11481333D01*
X12137857Y-11481333D02*
X12137857Y-11433714D01*
X12137857Y-11433714D02*
X12147381Y-11395619D01*
X12147381Y-11395619D02*
X12156905Y-11376571D01*
X12156905Y-11376571D02*
X12166429Y-11367048D01*
X12166429Y-11367048D02*
X12185476Y-11357524D01*
X12337857Y-11538476D02*
X12347381Y-11548000D01*
X12347381Y-11548000D02*
X12337857Y-11557524D01*
X12337857Y-11557524D02*
X12328333Y-11548000D01*
X12328333Y-11548000D02*
X12337857Y-11538476D01*
X12337857Y-11538476D02*
X12337857Y-11557524D01*
X12471191Y-11357524D02*
X12490238Y-11357524D01*
X12490238Y-11357524D02*
X12509286Y-11367048D01*
X12509286Y-11367048D02*
X12518810Y-11376571D01*
X12518810Y-11376571D02*
X12528333Y-11395619D01*
X12528333Y-11395619D02*
X12537857Y-11433714D01*
X12537857Y-11433714D02*
X12537857Y-11481333D01*
X12537857Y-11481333D02*
X12528333Y-11519428D01*
X12528333Y-11519428D02*
X12518810Y-11538476D01*
X12518810Y-11538476D02*
X12509286Y-11548000D01*
X12509286Y-11548000D02*
X12490238Y-11557524D01*
X12490238Y-11557524D02*
X12471191Y-11557524D01*
X12471191Y-11557524D02*
X12452143Y-11548000D01*
X12452143Y-11548000D02*
X12442619Y-11538476D01*
X12442619Y-11538476D02*
X12433095Y-11519428D01*
X12433095Y-11519428D02*
X12423572Y-11481333D01*
X12423572Y-11481333D02*
X12423572Y-11433714D01*
X12423572Y-11433714D02*
X12433095Y-11395619D01*
X12433095Y-11395619D02*
X12442619Y-11376571D01*
X12442619Y-11376571D02*
X12452143Y-11367048D01*
X12452143Y-11367048D02*
X12471191Y-11357524D01*
X12604524Y-11357524D02*
X12728333Y-11357524D01*
X12728333Y-11357524D02*
X12661667Y-11433714D01*
X12661667Y-11433714D02*
X12690238Y-11433714D01*
X12690238Y-11433714D02*
X12709286Y-11443238D01*
X12709286Y-11443238D02*
X12718810Y-11452762D01*
X12718810Y-11452762D02*
X12728333Y-11471809D01*
X12728333Y-11471809D02*
X12728333Y-11519428D01*
X12728333Y-11519428D02*
X12718810Y-11538476D01*
X12718810Y-11538476D02*
X12709286Y-11548000D01*
X12709286Y-11548000D02*
X12690238Y-11557524D01*
X12690238Y-11557524D02*
X12633095Y-11557524D01*
X12633095Y-11557524D02*
X12614048Y-11548000D01*
X12614048Y-11548000D02*
X12604524Y-11538476D01*
X12823572Y-11557524D02*
X12861667Y-11557524D01*
X12861667Y-11557524D02*
X12880714Y-11548000D01*
X12880714Y-11548000D02*
X12890238Y-11538476D01*
X12890238Y-11538476D02*
X12909286Y-11509905D01*
X12909286Y-11509905D02*
X12918810Y-11471809D01*
X12918810Y-11471809D02*
X12918810Y-11395619D01*
X12918810Y-11395619D02*
X12909286Y-11376571D01*
X12909286Y-11376571D02*
X12899762Y-11367048D01*
X12899762Y-11367048D02*
X12880714Y-11357524D01*
X12880714Y-11357524D02*
X12842619Y-11357524D01*
X12842619Y-11357524D02*
X12823572Y-11367048D01*
X12823572Y-11367048D02*
X12814048Y-11376571D01*
X12814048Y-11376571D02*
X12804524Y-11395619D01*
X12804524Y-11395619D02*
X12804524Y-11443238D01*
X12804524Y-11443238D02*
X12814048Y-11462286D01*
X12814048Y-11462286D02*
X12823572Y-11471809D01*
X12823572Y-11471809D02*
X12842619Y-11481333D01*
X12842619Y-11481333D02*
X12880714Y-11481333D01*
X12880714Y-11481333D02*
X12899762Y-11471809D01*
X12899762Y-11471809D02*
X12909286Y-11462286D01*
X12909286Y-11462286D02*
X12918810Y-11443238D01*
X13090238Y-11424190D02*
X13090238Y-11557524D01*
X13042619Y-11348000D02*
X12995000Y-11490857D01*
X12995000Y-11490857D02*
X13118810Y-11490857D01*
X13185476Y-11357524D02*
X13185476Y-11395619D01*
X13261667Y-11357524D02*
X13261667Y-11395619D01*
X13556905Y-11633714D02*
X13547381Y-11624190D01*
X13547381Y-11624190D02*
X13528334Y-11595619D01*
X13528334Y-11595619D02*
X13518810Y-11576571D01*
X13518810Y-11576571D02*
X13509286Y-11548000D01*
X13509286Y-11548000D02*
X13499762Y-11500381D01*
X13499762Y-11500381D02*
X13499762Y-11462286D01*
X13499762Y-11462286D02*
X13509286Y-11414667D01*
X13509286Y-11414667D02*
X13518810Y-11386095D01*
X13518810Y-11386095D02*
X13528334Y-11367048D01*
X13528334Y-11367048D02*
X13547381Y-11338476D01*
X13547381Y-11338476D02*
X13556905Y-11328952D01*
X13718810Y-11424190D02*
X13718810Y-11557524D01*
X13671191Y-11348000D02*
X13623572Y-11490857D01*
X13623572Y-11490857D02*
X13747381Y-11490857D01*
X13975953Y-11557524D02*
X13975953Y-11357524D01*
X14061667Y-11557524D02*
X14061667Y-11452762D01*
X14061667Y-11452762D02*
X14052143Y-11433714D01*
X14052143Y-11433714D02*
X14033096Y-11424190D01*
X14033096Y-11424190D02*
X14004524Y-11424190D01*
X14004524Y-11424190D02*
X13985476Y-11433714D01*
X13985476Y-11433714D02*
X13975953Y-11443238D01*
X14185476Y-11557524D02*
X14166429Y-11548000D01*
X14166429Y-11548000D02*
X14156905Y-11538476D01*
X14156905Y-11538476D02*
X14147381Y-11519428D01*
X14147381Y-11519428D02*
X14147381Y-11462286D01*
X14147381Y-11462286D02*
X14156905Y-11443238D01*
X14156905Y-11443238D02*
X14166429Y-11433714D01*
X14166429Y-11433714D02*
X14185476Y-11424190D01*
X14185476Y-11424190D02*
X14214048Y-11424190D01*
X14214048Y-11424190D02*
X14233096Y-11433714D01*
X14233096Y-11433714D02*
X14242619Y-11443238D01*
X14242619Y-11443238D02*
X14252143Y-11462286D01*
X14252143Y-11462286D02*
X14252143Y-11519428D01*
X14252143Y-11519428D02*
X14242619Y-11538476D01*
X14242619Y-11538476D02*
X14233096Y-11548000D01*
X14233096Y-11548000D02*
X14214048Y-11557524D01*
X14214048Y-11557524D02*
X14185476Y-11557524D01*
X14366429Y-11557524D02*
X14347381Y-11548000D01*
X14347381Y-11548000D02*
X14337857Y-11528952D01*
X14337857Y-11528952D02*
X14337857Y-11357524D01*
X14518810Y-11548000D02*
X14499762Y-11557524D01*
X14499762Y-11557524D02*
X14461667Y-11557524D01*
X14461667Y-11557524D02*
X14442619Y-11548000D01*
X14442619Y-11548000D02*
X14433096Y-11528952D01*
X14433096Y-11528952D02*
X14433096Y-11452762D01*
X14433096Y-11452762D02*
X14442619Y-11433714D01*
X14442619Y-11433714D02*
X14461667Y-11424190D01*
X14461667Y-11424190D02*
X14499762Y-11424190D01*
X14499762Y-11424190D02*
X14518810Y-11433714D01*
X14518810Y-11433714D02*
X14528334Y-11452762D01*
X14528334Y-11452762D02*
X14528334Y-11471809D01*
X14528334Y-11471809D02*
X14433096Y-11490857D01*
X14604524Y-11548000D02*
X14623572Y-11557524D01*
X14623572Y-11557524D02*
X14661667Y-11557524D01*
X14661667Y-11557524D02*
X14680715Y-11548000D01*
X14680715Y-11548000D02*
X14690238Y-11528952D01*
X14690238Y-11528952D02*
X14690238Y-11519428D01*
X14690238Y-11519428D02*
X14680715Y-11500381D01*
X14680715Y-11500381D02*
X14661667Y-11490857D01*
X14661667Y-11490857D02*
X14633096Y-11490857D01*
X14633096Y-11490857D02*
X14614048Y-11481333D01*
X14614048Y-11481333D02*
X14604524Y-11462286D01*
X14604524Y-11462286D02*
X14604524Y-11452762D01*
X14604524Y-11452762D02*
X14614048Y-11433714D01*
X14614048Y-11433714D02*
X14633096Y-11424190D01*
X14633096Y-11424190D02*
X14661667Y-11424190D01*
X14661667Y-11424190D02*
X14680715Y-11433714D01*
X14928334Y-11481333D02*
X15080715Y-11481333D01*
X15004524Y-11557524D02*
X15004524Y-11405143D01*
X15423572Y-11357524D02*
X15328334Y-11357524D01*
X15328334Y-11357524D02*
X15318810Y-11452762D01*
X15318810Y-11452762D02*
X15328334Y-11443238D01*
X15328334Y-11443238D02*
X15347381Y-11433714D01*
X15347381Y-11433714D02*
X15395000Y-11433714D01*
X15395000Y-11433714D02*
X15414048Y-11443238D01*
X15414048Y-11443238D02*
X15423572Y-11452762D01*
X15423572Y-11452762D02*
X15433096Y-11471809D01*
X15433096Y-11471809D02*
X15433096Y-11519428D01*
X15433096Y-11519428D02*
X15423572Y-11538476D01*
X15423572Y-11538476D02*
X15414048Y-11548000D01*
X15414048Y-11548000D02*
X15395000Y-11557524D01*
X15395000Y-11557524D02*
X15347381Y-11557524D01*
X15347381Y-11557524D02*
X15328334Y-11548000D01*
X15328334Y-11548000D02*
X15318810Y-11538476D01*
X15661667Y-11548000D02*
X15680715Y-11557524D01*
X15680715Y-11557524D02*
X15718810Y-11557524D01*
X15718810Y-11557524D02*
X15737858Y-11548000D01*
X15737858Y-11548000D02*
X15747381Y-11528952D01*
X15747381Y-11528952D02*
X15747381Y-11519428D01*
X15747381Y-11519428D02*
X15737858Y-11500381D01*
X15737858Y-11500381D02*
X15718810Y-11490857D01*
X15718810Y-11490857D02*
X15690239Y-11490857D01*
X15690239Y-11490857D02*
X15671191Y-11481333D01*
X15671191Y-11481333D02*
X15661667Y-11462286D01*
X15661667Y-11462286D02*
X15661667Y-11452762D01*
X15661667Y-11452762D02*
X15671191Y-11433714D01*
X15671191Y-11433714D02*
X15690239Y-11424190D01*
X15690239Y-11424190D02*
X15718810Y-11424190D01*
X15718810Y-11424190D02*
X15737858Y-11433714D01*
X15861667Y-11557524D02*
X15842620Y-11548000D01*
X15842620Y-11548000D02*
X15833096Y-11528952D01*
X15833096Y-11528952D02*
X15833096Y-11357524D01*
X15966429Y-11557524D02*
X15947381Y-11548000D01*
X15947381Y-11548000D02*
X15937858Y-11538476D01*
X15937858Y-11538476D02*
X15928334Y-11519428D01*
X15928334Y-11519428D02*
X15928334Y-11462286D01*
X15928334Y-11462286D02*
X15937858Y-11443238D01*
X15937858Y-11443238D02*
X15947381Y-11433714D01*
X15947381Y-11433714D02*
X15966429Y-11424190D01*
X15966429Y-11424190D02*
X15995001Y-11424190D01*
X15995001Y-11424190D02*
X16014048Y-11433714D01*
X16014048Y-11433714D02*
X16023572Y-11443238D01*
X16023572Y-11443238D02*
X16033096Y-11462286D01*
X16033096Y-11462286D02*
X16033096Y-11519428D01*
X16033096Y-11519428D02*
X16023572Y-11538476D01*
X16023572Y-11538476D02*
X16014048Y-11548000D01*
X16014048Y-11548000D02*
X15995001Y-11557524D01*
X15995001Y-11557524D02*
X15966429Y-11557524D01*
X16090239Y-11424190D02*
X16166429Y-11424190D01*
X16118810Y-11357524D02*
X16118810Y-11528952D01*
X16118810Y-11528952D02*
X16128334Y-11548000D01*
X16128334Y-11548000D02*
X16147381Y-11557524D01*
X16147381Y-11557524D02*
X16166429Y-11557524D01*
X16223572Y-11548000D02*
X16242620Y-11557524D01*
X16242620Y-11557524D02*
X16280715Y-11557524D01*
X16280715Y-11557524D02*
X16299762Y-11548000D01*
X16299762Y-11548000D02*
X16309286Y-11528952D01*
X16309286Y-11528952D02*
X16309286Y-11519428D01*
X16309286Y-11519428D02*
X16299762Y-11500381D01*
X16299762Y-11500381D02*
X16280715Y-11490857D01*
X16280715Y-11490857D02*
X16252143Y-11490857D01*
X16252143Y-11490857D02*
X16233096Y-11481333D01*
X16233096Y-11481333D02*
X16223572Y-11462286D01*
X16223572Y-11462286D02*
X16223572Y-11452762D01*
X16223572Y-11452762D02*
X16233096Y-11433714D01*
X16233096Y-11433714D02*
X16252143Y-11424190D01*
X16252143Y-11424190D02*
X16280715Y-11424190D01*
X16280715Y-11424190D02*
X16299762Y-11433714D01*
X16375953Y-11633714D02*
X16385477Y-11624190D01*
X16385477Y-11624190D02*
X16404524Y-11595619D01*
X16404524Y-11595619D02*
X16414048Y-11576571D01*
X16414048Y-11576571D02*
X16423572Y-11548000D01*
X16423572Y-11548000D02*
X16433096Y-11500381D01*
X16433096Y-11500381D02*
X16433096Y-11462286D01*
X16433096Y-11462286D02*
X16423572Y-11414667D01*
X16423572Y-11414667D02*
X16414048Y-11386095D01*
X16414048Y-11386095D02*
X16404524Y-11367048D01*
X16404524Y-11367048D02*
X16385477Y-11338476D01*
X16385477Y-11338476D02*
X16375953Y-11328952D01*
D17*
X9885000Y-11674000D02*
X9995000Y-11784000D01*
X9995000Y-11674000D02*
X9885000Y-11784000D01*
X9940000Y-11674000D02*
X9940000Y-11784000D01*
X9885000Y-11729000D02*
X9995000Y-11729000D01*
D11*
X10347381Y-11821524D02*
X10233095Y-11821524D01*
X10290238Y-11821524D02*
X10290238Y-11621524D01*
X10290238Y-11621524D02*
X10271190Y-11650095D01*
X10271190Y-11650095D02*
X10252143Y-11669143D01*
X10252143Y-11669143D02*
X10233095Y-11678667D01*
X10433095Y-11802476D02*
X10442619Y-11812000D01*
X10442619Y-11812000D02*
X10433095Y-11821524D01*
X10433095Y-11821524D02*
X10423571Y-11812000D01*
X10423571Y-11812000D02*
X10433095Y-11802476D01*
X10433095Y-11802476D02*
X10433095Y-11821524D01*
X10633095Y-11821524D02*
X10518810Y-11821524D01*
X10575952Y-11821524D02*
X10575952Y-11621524D01*
X10575952Y-11621524D02*
X10556905Y-11650095D01*
X10556905Y-11650095D02*
X10537857Y-11669143D01*
X10537857Y-11669143D02*
X10518810Y-11678667D01*
X10756905Y-11621524D02*
X10775952Y-11621524D01*
X10775952Y-11621524D02*
X10795000Y-11631048D01*
X10795000Y-11631048D02*
X10804524Y-11640571D01*
X10804524Y-11640571D02*
X10814048Y-11659619D01*
X10814048Y-11659619D02*
X10823571Y-11697714D01*
X10823571Y-11697714D02*
X10823571Y-11745333D01*
X10823571Y-11745333D02*
X10814048Y-11783428D01*
X10814048Y-11783428D02*
X10804524Y-11802476D01*
X10804524Y-11802476D02*
X10795000Y-11812000D01*
X10795000Y-11812000D02*
X10775952Y-11821524D01*
X10775952Y-11821524D02*
X10756905Y-11821524D01*
X10756905Y-11821524D02*
X10737857Y-11812000D01*
X10737857Y-11812000D02*
X10728333Y-11802476D01*
X10728333Y-11802476D02*
X10718810Y-11783428D01*
X10718810Y-11783428D02*
X10709286Y-11745333D01*
X10709286Y-11745333D02*
X10709286Y-11697714D01*
X10709286Y-11697714D02*
X10718810Y-11659619D01*
X10718810Y-11659619D02*
X10728333Y-11640571D01*
X10728333Y-11640571D02*
X10737857Y-11631048D01*
X10737857Y-11631048D02*
X10756905Y-11621524D01*
X10947381Y-11621524D02*
X10966429Y-11621524D01*
X10966429Y-11621524D02*
X10985476Y-11631048D01*
X10985476Y-11631048D02*
X10995000Y-11640571D01*
X10995000Y-11640571D02*
X11004524Y-11659619D01*
X11004524Y-11659619D02*
X11014048Y-11697714D01*
X11014048Y-11697714D02*
X11014048Y-11745333D01*
X11014048Y-11745333D02*
X11004524Y-11783428D01*
X11004524Y-11783428D02*
X10995000Y-11802476D01*
X10995000Y-11802476D02*
X10985476Y-11812000D01*
X10985476Y-11812000D02*
X10966429Y-11821524D01*
X10966429Y-11821524D02*
X10947381Y-11821524D01*
X10947381Y-11821524D02*
X10928333Y-11812000D01*
X10928333Y-11812000D02*
X10918810Y-11802476D01*
X10918810Y-11802476D02*
X10909286Y-11783428D01*
X10909286Y-11783428D02*
X10899762Y-11745333D01*
X10899762Y-11745333D02*
X10899762Y-11697714D01*
X10899762Y-11697714D02*
X10909286Y-11659619D01*
X10909286Y-11659619D02*
X10918810Y-11640571D01*
X10918810Y-11640571D02*
X10928333Y-11631048D01*
X10928333Y-11631048D02*
X10947381Y-11621524D01*
X11099762Y-11821524D02*
X11099762Y-11688190D01*
X11099762Y-11707238D02*
X11109286Y-11697714D01*
X11109286Y-11697714D02*
X11128333Y-11688190D01*
X11128333Y-11688190D02*
X11156905Y-11688190D01*
X11156905Y-11688190D02*
X11175952Y-11697714D01*
X11175952Y-11697714D02*
X11185476Y-11716762D01*
X11185476Y-11716762D02*
X11185476Y-11821524D01*
X11185476Y-11716762D02*
X11195000Y-11697714D01*
X11195000Y-11697714D02*
X11214048Y-11688190D01*
X11214048Y-11688190D02*
X11242619Y-11688190D01*
X11242619Y-11688190D02*
X11261667Y-11697714D01*
X11261667Y-11697714D02*
X11271190Y-11716762D01*
X11271190Y-11716762D02*
X11271190Y-11821524D01*
X11366429Y-11821524D02*
X11366429Y-11688190D01*
X11366429Y-11707238D02*
X11375952Y-11697714D01*
X11375952Y-11697714D02*
X11395000Y-11688190D01*
X11395000Y-11688190D02*
X11423571Y-11688190D01*
X11423571Y-11688190D02*
X11442619Y-11697714D01*
X11442619Y-11697714D02*
X11452143Y-11716762D01*
X11452143Y-11716762D02*
X11452143Y-11821524D01*
X11452143Y-11716762D02*
X11461667Y-11697714D01*
X11461667Y-11697714D02*
X11480714Y-11688190D01*
X11480714Y-11688190D02*
X11509286Y-11688190D01*
X11509286Y-11688190D02*
X11528333Y-11697714D01*
X11528333Y-11697714D02*
X11537857Y-11716762D01*
X11537857Y-11716762D02*
X11537857Y-11821524D01*
X11928333Y-11612000D02*
X11756905Y-11869143D01*
X12185476Y-11621524D02*
X12204524Y-11621524D01*
X12204524Y-11621524D02*
X12223572Y-11631048D01*
X12223572Y-11631048D02*
X12233095Y-11640571D01*
X12233095Y-11640571D02*
X12242619Y-11659619D01*
X12242619Y-11659619D02*
X12252143Y-11697714D01*
X12252143Y-11697714D02*
X12252143Y-11745333D01*
X12252143Y-11745333D02*
X12242619Y-11783428D01*
X12242619Y-11783428D02*
X12233095Y-11802476D01*
X12233095Y-11802476D02*
X12223572Y-11812000D01*
X12223572Y-11812000D02*
X12204524Y-11821524D01*
X12204524Y-11821524D02*
X12185476Y-11821524D01*
X12185476Y-11821524D02*
X12166429Y-11812000D01*
X12166429Y-11812000D02*
X12156905Y-11802476D01*
X12156905Y-11802476D02*
X12147381Y-11783428D01*
X12147381Y-11783428D02*
X12137857Y-11745333D01*
X12137857Y-11745333D02*
X12137857Y-11697714D01*
X12137857Y-11697714D02*
X12147381Y-11659619D01*
X12147381Y-11659619D02*
X12156905Y-11640571D01*
X12156905Y-11640571D02*
X12166429Y-11631048D01*
X12166429Y-11631048D02*
X12185476Y-11621524D01*
X12337857Y-11802476D02*
X12347381Y-11812000D01*
X12347381Y-11812000D02*
X12337857Y-11821524D01*
X12337857Y-11821524D02*
X12328333Y-11812000D01*
X12328333Y-11812000D02*
X12337857Y-11802476D01*
X12337857Y-11802476D02*
X12337857Y-11821524D01*
X12471191Y-11621524D02*
X12490238Y-11621524D01*
X12490238Y-11621524D02*
X12509286Y-11631048D01*
X12509286Y-11631048D02*
X12518810Y-11640571D01*
X12518810Y-11640571D02*
X12528333Y-11659619D01*
X12528333Y-11659619D02*
X12537857Y-11697714D01*
X12537857Y-11697714D02*
X12537857Y-11745333D01*
X12537857Y-11745333D02*
X12528333Y-11783428D01*
X12528333Y-11783428D02*
X12518810Y-11802476D01*
X12518810Y-11802476D02*
X12509286Y-11812000D01*
X12509286Y-11812000D02*
X12490238Y-11821524D01*
X12490238Y-11821524D02*
X12471191Y-11821524D01*
X12471191Y-11821524D02*
X12452143Y-11812000D01*
X12452143Y-11812000D02*
X12442619Y-11802476D01*
X12442619Y-11802476D02*
X12433095Y-11783428D01*
X12433095Y-11783428D02*
X12423572Y-11745333D01*
X12423572Y-11745333D02*
X12423572Y-11697714D01*
X12423572Y-11697714D02*
X12433095Y-11659619D01*
X12433095Y-11659619D02*
X12442619Y-11640571D01*
X12442619Y-11640571D02*
X12452143Y-11631048D01*
X12452143Y-11631048D02*
X12471191Y-11621524D01*
X12709286Y-11688190D02*
X12709286Y-11821524D01*
X12661667Y-11612000D02*
X12614048Y-11754857D01*
X12614048Y-11754857D02*
X12737857Y-11754857D01*
X12795000Y-11621524D02*
X12918810Y-11621524D01*
X12918810Y-11621524D02*
X12852143Y-11697714D01*
X12852143Y-11697714D02*
X12880714Y-11697714D01*
X12880714Y-11697714D02*
X12899762Y-11707238D01*
X12899762Y-11707238D02*
X12909286Y-11716762D01*
X12909286Y-11716762D02*
X12918810Y-11735809D01*
X12918810Y-11735809D02*
X12918810Y-11783428D01*
X12918810Y-11783428D02*
X12909286Y-11802476D01*
X12909286Y-11802476D02*
X12899762Y-11812000D01*
X12899762Y-11812000D02*
X12880714Y-11821524D01*
X12880714Y-11821524D02*
X12823572Y-11821524D01*
X12823572Y-11821524D02*
X12804524Y-11812000D01*
X12804524Y-11812000D02*
X12795000Y-11802476D01*
X12985476Y-11621524D02*
X13109286Y-11621524D01*
X13109286Y-11621524D02*
X13042619Y-11697714D01*
X13042619Y-11697714D02*
X13071191Y-11697714D01*
X13071191Y-11697714D02*
X13090238Y-11707238D01*
X13090238Y-11707238D02*
X13099762Y-11716762D01*
X13099762Y-11716762D02*
X13109286Y-11735809D01*
X13109286Y-11735809D02*
X13109286Y-11783428D01*
X13109286Y-11783428D02*
X13099762Y-11802476D01*
X13099762Y-11802476D02*
X13090238Y-11812000D01*
X13090238Y-11812000D02*
X13071191Y-11821524D01*
X13071191Y-11821524D02*
X13014048Y-11821524D01*
X13014048Y-11821524D02*
X12995000Y-11812000D01*
X12995000Y-11812000D02*
X12985476Y-11802476D01*
X13185476Y-11621524D02*
X13185476Y-11659619D01*
X13261667Y-11621524D02*
X13261667Y-11659619D01*
X13556905Y-11897714D02*
X13547381Y-11888190D01*
X13547381Y-11888190D02*
X13528334Y-11859619D01*
X13528334Y-11859619D02*
X13518810Y-11840571D01*
X13518810Y-11840571D02*
X13509286Y-11812000D01*
X13509286Y-11812000D02*
X13499762Y-11764381D01*
X13499762Y-11764381D02*
X13499762Y-11726286D01*
X13499762Y-11726286D02*
X13509286Y-11678667D01*
X13509286Y-11678667D02*
X13518810Y-11650095D01*
X13518810Y-11650095D02*
X13528334Y-11631048D01*
X13528334Y-11631048D02*
X13547381Y-11602476D01*
X13547381Y-11602476D02*
X13556905Y-11592952D01*
X13623572Y-11640571D02*
X13633095Y-11631048D01*
X13633095Y-11631048D02*
X13652143Y-11621524D01*
X13652143Y-11621524D02*
X13699762Y-11621524D01*
X13699762Y-11621524D02*
X13718810Y-11631048D01*
X13718810Y-11631048D02*
X13728334Y-11640571D01*
X13728334Y-11640571D02*
X13737857Y-11659619D01*
X13737857Y-11659619D02*
X13737857Y-11678667D01*
X13737857Y-11678667D02*
X13728334Y-11707238D01*
X13728334Y-11707238D02*
X13614048Y-11821524D01*
X13614048Y-11821524D02*
X13737857Y-11821524D01*
X13975953Y-11821524D02*
X13975953Y-11621524D01*
X14061667Y-11821524D02*
X14061667Y-11716762D01*
X14061667Y-11716762D02*
X14052143Y-11697714D01*
X14052143Y-11697714D02*
X14033096Y-11688190D01*
X14033096Y-11688190D02*
X14004524Y-11688190D01*
X14004524Y-11688190D02*
X13985476Y-11697714D01*
X13985476Y-11697714D02*
X13975953Y-11707238D01*
X14185476Y-11821524D02*
X14166429Y-11812000D01*
X14166429Y-11812000D02*
X14156905Y-11802476D01*
X14156905Y-11802476D02*
X14147381Y-11783428D01*
X14147381Y-11783428D02*
X14147381Y-11726286D01*
X14147381Y-11726286D02*
X14156905Y-11707238D01*
X14156905Y-11707238D02*
X14166429Y-11697714D01*
X14166429Y-11697714D02*
X14185476Y-11688190D01*
X14185476Y-11688190D02*
X14214048Y-11688190D01*
X14214048Y-11688190D02*
X14233096Y-11697714D01*
X14233096Y-11697714D02*
X14242619Y-11707238D01*
X14242619Y-11707238D02*
X14252143Y-11726286D01*
X14252143Y-11726286D02*
X14252143Y-11783428D01*
X14252143Y-11783428D02*
X14242619Y-11802476D01*
X14242619Y-11802476D02*
X14233096Y-11812000D01*
X14233096Y-11812000D02*
X14214048Y-11821524D01*
X14214048Y-11821524D02*
X14185476Y-11821524D01*
X14366429Y-11821524D02*
X14347381Y-11812000D01*
X14347381Y-11812000D02*
X14337857Y-11792952D01*
X14337857Y-11792952D02*
X14337857Y-11621524D01*
X14518810Y-11812000D02*
X14499762Y-11821524D01*
X14499762Y-11821524D02*
X14461667Y-11821524D01*
X14461667Y-11821524D02*
X14442619Y-11812000D01*
X14442619Y-11812000D02*
X14433096Y-11792952D01*
X14433096Y-11792952D02*
X14433096Y-11716762D01*
X14433096Y-11716762D02*
X14442619Y-11697714D01*
X14442619Y-11697714D02*
X14461667Y-11688190D01*
X14461667Y-11688190D02*
X14499762Y-11688190D01*
X14499762Y-11688190D02*
X14518810Y-11697714D01*
X14518810Y-11697714D02*
X14528334Y-11716762D01*
X14528334Y-11716762D02*
X14528334Y-11735809D01*
X14528334Y-11735809D02*
X14433096Y-11754857D01*
X14604524Y-11812000D02*
X14623572Y-11821524D01*
X14623572Y-11821524D02*
X14661667Y-11821524D01*
X14661667Y-11821524D02*
X14680715Y-11812000D01*
X14680715Y-11812000D02*
X14690238Y-11792952D01*
X14690238Y-11792952D02*
X14690238Y-11783428D01*
X14690238Y-11783428D02*
X14680715Y-11764381D01*
X14680715Y-11764381D02*
X14661667Y-11754857D01*
X14661667Y-11754857D02*
X14633096Y-11754857D01*
X14633096Y-11754857D02*
X14614048Y-11745333D01*
X14614048Y-11745333D02*
X14604524Y-11726286D01*
X14604524Y-11726286D02*
X14604524Y-11716762D01*
X14604524Y-11716762D02*
X14614048Y-11697714D01*
X14614048Y-11697714D02*
X14633096Y-11688190D01*
X14633096Y-11688190D02*
X14661667Y-11688190D01*
X14661667Y-11688190D02*
X14680715Y-11697714D01*
X14756905Y-11897714D02*
X14766429Y-11888190D01*
X14766429Y-11888190D02*
X14785477Y-11859619D01*
X14785477Y-11859619D02*
X14795000Y-11840571D01*
X14795000Y-11840571D02*
X14804524Y-11812000D01*
X14804524Y-11812000D02*
X14814048Y-11764381D01*
X14814048Y-11764381D02*
X14814048Y-11726286D01*
X14814048Y-11726286D02*
X14804524Y-11678667D01*
X14804524Y-11678667D02*
X14795000Y-11650095D01*
X14795000Y-11650095D02*
X14785477Y-11631048D01*
X14785477Y-11631048D02*
X14766429Y-11602476D01*
X14766429Y-11602476D02*
X14756905Y-11592952D01*
D18*
X9875000Y-11933000D02*
X9995000Y-12053000D01*
X9995000Y-11933000D02*
X9875000Y-12053000D01*
X9977427Y-12035427D02*
X9977427Y-11950573D01*
X9892573Y-11950573D01*
X9892573Y-12035427D01*
X9977427Y-12035427D01*
D11*
X10347381Y-12085524D02*
X10233095Y-12085524D01*
X10290238Y-12085524D02*
X10290238Y-11885524D01*
X10290238Y-11885524D02*
X10271190Y-11914095D01*
X10271190Y-11914095D02*
X10252143Y-11933143D01*
X10252143Y-11933143D02*
X10233095Y-11942667D01*
X10433095Y-12066476D02*
X10442619Y-12076000D01*
X10442619Y-12076000D02*
X10433095Y-12085524D01*
X10433095Y-12085524D02*
X10423571Y-12076000D01*
X10423571Y-12076000D02*
X10433095Y-12066476D01*
X10433095Y-12066476D02*
X10433095Y-12085524D01*
X10518810Y-11904571D02*
X10528333Y-11895048D01*
X10528333Y-11895048D02*
X10547381Y-11885524D01*
X10547381Y-11885524D02*
X10595000Y-11885524D01*
X10595000Y-11885524D02*
X10614048Y-11895048D01*
X10614048Y-11895048D02*
X10623571Y-11904571D01*
X10623571Y-11904571D02*
X10633095Y-11923619D01*
X10633095Y-11923619D02*
X10633095Y-11942667D01*
X10633095Y-11942667D02*
X10623571Y-11971238D01*
X10623571Y-11971238D02*
X10509286Y-12085524D01*
X10509286Y-12085524D02*
X10633095Y-12085524D01*
X10756905Y-11885524D02*
X10775952Y-11885524D01*
X10775952Y-11885524D02*
X10795000Y-11895048D01*
X10795000Y-11895048D02*
X10804524Y-11904571D01*
X10804524Y-11904571D02*
X10814048Y-11923619D01*
X10814048Y-11923619D02*
X10823571Y-11961714D01*
X10823571Y-11961714D02*
X10823571Y-12009333D01*
X10823571Y-12009333D02*
X10814048Y-12047428D01*
X10814048Y-12047428D02*
X10804524Y-12066476D01*
X10804524Y-12066476D02*
X10795000Y-12076000D01*
X10795000Y-12076000D02*
X10775952Y-12085524D01*
X10775952Y-12085524D02*
X10756905Y-12085524D01*
X10756905Y-12085524D02*
X10737857Y-12076000D01*
X10737857Y-12076000D02*
X10728333Y-12066476D01*
X10728333Y-12066476D02*
X10718810Y-12047428D01*
X10718810Y-12047428D02*
X10709286Y-12009333D01*
X10709286Y-12009333D02*
X10709286Y-11961714D01*
X10709286Y-11961714D02*
X10718810Y-11923619D01*
X10718810Y-11923619D02*
X10728333Y-11904571D01*
X10728333Y-11904571D02*
X10737857Y-11895048D01*
X10737857Y-11895048D02*
X10756905Y-11885524D01*
X10947381Y-11885524D02*
X10966429Y-11885524D01*
X10966429Y-11885524D02*
X10985476Y-11895048D01*
X10985476Y-11895048D02*
X10995000Y-11904571D01*
X10995000Y-11904571D02*
X11004524Y-11923619D01*
X11004524Y-11923619D02*
X11014048Y-11961714D01*
X11014048Y-11961714D02*
X11014048Y-12009333D01*
X11014048Y-12009333D02*
X11004524Y-12047428D01*
X11004524Y-12047428D02*
X10995000Y-12066476D01*
X10995000Y-12066476D02*
X10985476Y-12076000D01*
X10985476Y-12076000D02*
X10966429Y-12085524D01*
X10966429Y-12085524D02*
X10947381Y-12085524D01*
X10947381Y-12085524D02*
X10928333Y-12076000D01*
X10928333Y-12076000D02*
X10918810Y-12066476D01*
X10918810Y-12066476D02*
X10909286Y-12047428D01*
X10909286Y-12047428D02*
X10899762Y-12009333D01*
X10899762Y-12009333D02*
X10899762Y-11961714D01*
X10899762Y-11961714D02*
X10909286Y-11923619D01*
X10909286Y-11923619D02*
X10918810Y-11904571D01*
X10918810Y-11904571D02*
X10928333Y-11895048D01*
X10928333Y-11895048D02*
X10947381Y-11885524D01*
X11099762Y-12085524D02*
X11099762Y-11952190D01*
X11099762Y-11971238D02*
X11109286Y-11961714D01*
X11109286Y-11961714D02*
X11128333Y-11952190D01*
X11128333Y-11952190D02*
X11156905Y-11952190D01*
X11156905Y-11952190D02*
X11175952Y-11961714D01*
X11175952Y-11961714D02*
X11185476Y-11980762D01*
X11185476Y-11980762D02*
X11185476Y-12085524D01*
X11185476Y-11980762D02*
X11195000Y-11961714D01*
X11195000Y-11961714D02*
X11214048Y-11952190D01*
X11214048Y-11952190D02*
X11242619Y-11952190D01*
X11242619Y-11952190D02*
X11261667Y-11961714D01*
X11261667Y-11961714D02*
X11271190Y-11980762D01*
X11271190Y-11980762D02*
X11271190Y-12085524D01*
X11366429Y-12085524D02*
X11366429Y-11952190D01*
X11366429Y-11971238D02*
X11375952Y-11961714D01*
X11375952Y-11961714D02*
X11395000Y-11952190D01*
X11395000Y-11952190D02*
X11423571Y-11952190D01*
X11423571Y-11952190D02*
X11442619Y-11961714D01*
X11442619Y-11961714D02*
X11452143Y-11980762D01*
X11452143Y-11980762D02*
X11452143Y-12085524D01*
X11452143Y-11980762D02*
X11461667Y-11961714D01*
X11461667Y-11961714D02*
X11480714Y-11952190D01*
X11480714Y-11952190D02*
X11509286Y-11952190D01*
X11509286Y-11952190D02*
X11528333Y-11961714D01*
X11528333Y-11961714D02*
X11537857Y-11980762D01*
X11537857Y-11980762D02*
X11537857Y-12085524D01*
X11928333Y-11876000D02*
X11756905Y-12133143D01*
X12185476Y-11885524D02*
X12204524Y-11885524D01*
X12204524Y-11885524D02*
X12223572Y-11895048D01*
X12223572Y-11895048D02*
X12233095Y-11904571D01*
X12233095Y-11904571D02*
X12242619Y-11923619D01*
X12242619Y-11923619D02*
X12252143Y-11961714D01*
X12252143Y-11961714D02*
X12252143Y-12009333D01*
X12252143Y-12009333D02*
X12242619Y-12047428D01*
X12242619Y-12047428D02*
X12233095Y-12066476D01*
X12233095Y-12066476D02*
X12223572Y-12076000D01*
X12223572Y-12076000D02*
X12204524Y-12085524D01*
X12204524Y-12085524D02*
X12185476Y-12085524D01*
X12185476Y-12085524D02*
X12166429Y-12076000D01*
X12166429Y-12076000D02*
X12156905Y-12066476D01*
X12156905Y-12066476D02*
X12147381Y-12047428D01*
X12147381Y-12047428D02*
X12137857Y-12009333D01*
X12137857Y-12009333D02*
X12137857Y-11961714D01*
X12137857Y-11961714D02*
X12147381Y-11923619D01*
X12147381Y-11923619D02*
X12156905Y-11904571D01*
X12156905Y-11904571D02*
X12166429Y-11895048D01*
X12166429Y-11895048D02*
X12185476Y-11885524D01*
X12337857Y-12066476D02*
X12347381Y-12076000D01*
X12347381Y-12076000D02*
X12337857Y-12085524D01*
X12337857Y-12085524D02*
X12328333Y-12076000D01*
X12328333Y-12076000D02*
X12337857Y-12066476D01*
X12337857Y-12066476D02*
X12337857Y-12085524D01*
X12471191Y-11885524D02*
X12490238Y-11885524D01*
X12490238Y-11885524D02*
X12509286Y-11895048D01*
X12509286Y-11895048D02*
X12518810Y-11904571D01*
X12518810Y-11904571D02*
X12528333Y-11923619D01*
X12528333Y-11923619D02*
X12537857Y-11961714D01*
X12537857Y-11961714D02*
X12537857Y-12009333D01*
X12537857Y-12009333D02*
X12528333Y-12047428D01*
X12528333Y-12047428D02*
X12518810Y-12066476D01*
X12518810Y-12066476D02*
X12509286Y-12076000D01*
X12509286Y-12076000D02*
X12490238Y-12085524D01*
X12490238Y-12085524D02*
X12471191Y-12085524D01*
X12471191Y-12085524D02*
X12452143Y-12076000D01*
X12452143Y-12076000D02*
X12442619Y-12066476D01*
X12442619Y-12066476D02*
X12433095Y-12047428D01*
X12433095Y-12047428D02*
X12423572Y-12009333D01*
X12423572Y-12009333D02*
X12423572Y-11961714D01*
X12423572Y-11961714D02*
X12433095Y-11923619D01*
X12433095Y-11923619D02*
X12442619Y-11904571D01*
X12442619Y-11904571D02*
X12452143Y-11895048D01*
X12452143Y-11895048D02*
X12471191Y-11885524D01*
X12709286Y-11952190D02*
X12709286Y-12085524D01*
X12661667Y-11876000D02*
X12614048Y-12018857D01*
X12614048Y-12018857D02*
X12737857Y-12018857D01*
X12795000Y-11885524D02*
X12928333Y-11885524D01*
X12928333Y-11885524D02*
X12842619Y-12085524D01*
X12995000Y-11904571D02*
X13004524Y-11895048D01*
X13004524Y-11895048D02*
X13023572Y-11885524D01*
X13023572Y-11885524D02*
X13071191Y-11885524D01*
X13071191Y-11885524D02*
X13090238Y-11895048D01*
X13090238Y-11895048D02*
X13099762Y-11904571D01*
X13099762Y-11904571D02*
X13109286Y-11923619D01*
X13109286Y-11923619D02*
X13109286Y-11942667D01*
X13109286Y-11942667D02*
X13099762Y-11971238D01*
X13099762Y-11971238D02*
X12985476Y-12085524D01*
X12985476Y-12085524D02*
X13109286Y-12085524D01*
X13185476Y-11885524D02*
X13185476Y-11923619D01*
X13261667Y-11885524D02*
X13261667Y-11923619D01*
X13556905Y-12161714D02*
X13547381Y-12152190D01*
X13547381Y-12152190D02*
X13528334Y-12123619D01*
X13528334Y-12123619D02*
X13518810Y-12104571D01*
X13518810Y-12104571D02*
X13509286Y-12076000D01*
X13509286Y-12076000D02*
X13499762Y-12028381D01*
X13499762Y-12028381D02*
X13499762Y-11990286D01*
X13499762Y-11990286D02*
X13509286Y-11942667D01*
X13509286Y-11942667D02*
X13518810Y-11914095D01*
X13518810Y-11914095D02*
X13528334Y-11895048D01*
X13528334Y-11895048D02*
X13547381Y-11866476D01*
X13547381Y-11866476D02*
X13556905Y-11856952D01*
X13671191Y-11885524D02*
X13690238Y-11885524D01*
X13690238Y-11885524D02*
X13709286Y-11895048D01*
X13709286Y-11895048D02*
X13718810Y-11904571D01*
X13718810Y-11904571D02*
X13728334Y-11923619D01*
X13728334Y-11923619D02*
X13737857Y-11961714D01*
X13737857Y-11961714D02*
X13737857Y-12009333D01*
X13737857Y-12009333D02*
X13728334Y-12047428D01*
X13728334Y-12047428D02*
X13718810Y-12066476D01*
X13718810Y-12066476D02*
X13709286Y-12076000D01*
X13709286Y-12076000D02*
X13690238Y-12085524D01*
X13690238Y-12085524D02*
X13671191Y-12085524D01*
X13671191Y-12085524D02*
X13652143Y-12076000D01*
X13652143Y-12076000D02*
X13642619Y-12066476D01*
X13642619Y-12066476D02*
X13633095Y-12047428D01*
X13633095Y-12047428D02*
X13623572Y-12009333D01*
X13623572Y-12009333D02*
X13623572Y-11961714D01*
X13623572Y-11961714D02*
X13633095Y-11923619D01*
X13633095Y-11923619D02*
X13642619Y-11904571D01*
X13642619Y-11904571D02*
X13652143Y-11895048D01*
X13652143Y-11895048D02*
X13671191Y-11885524D01*
X13975953Y-12085524D02*
X13975953Y-11885524D01*
X14061667Y-12085524D02*
X14061667Y-11980762D01*
X14061667Y-11980762D02*
X14052143Y-11961714D01*
X14052143Y-11961714D02*
X14033096Y-11952190D01*
X14033096Y-11952190D02*
X14004524Y-11952190D01*
X14004524Y-11952190D02*
X13985476Y-11961714D01*
X13985476Y-11961714D02*
X13975953Y-11971238D01*
X14185476Y-12085524D02*
X14166429Y-12076000D01*
X14166429Y-12076000D02*
X14156905Y-12066476D01*
X14156905Y-12066476D02*
X14147381Y-12047428D01*
X14147381Y-12047428D02*
X14147381Y-11990286D01*
X14147381Y-11990286D02*
X14156905Y-11971238D01*
X14156905Y-11971238D02*
X14166429Y-11961714D01*
X14166429Y-11961714D02*
X14185476Y-11952190D01*
X14185476Y-11952190D02*
X14214048Y-11952190D01*
X14214048Y-11952190D02*
X14233096Y-11961714D01*
X14233096Y-11961714D02*
X14242619Y-11971238D01*
X14242619Y-11971238D02*
X14252143Y-11990286D01*
X14252143Y-11990286D02*
X14252143Y-12047428D01*
X14252143Y-12047428D02*
X14242619Y-12066476D01*
X14242619Y-12066476D02*
X14233096Y-12076000D01*
X14233096Y-12076000D02*
X14214048Y-12085524D01*
X14214048Y-12085524D02*
X14185476Y-12085524D01*
X14366429Y-12085524D02*
X14347381Y-12076000D01*
X14347381Y-12076000D02*
X14337857Y-12056952D01*
X14337857Y-12056952D02*
X14337857Y-11885524D01*
X14518810Y-12076000D02*
X14499762Y-12085524D01*
X14499762Y-12085524D02*
X14461667Y-12085524D01*
X14461667Y-12085524D02*
X14442619Y-12076000D01*
X14442619Y-12076000D02*
X14433096Y-12056952D01*
X14433096Y-12056952D02*
X14433096Y-11980762D01*
X14433096Y-11980762D02*
X14442619Y-11961714D01*
X14442619Y-11961714D02*
X14461667Y-11952190D01*
X14461667Y-11952190D02*
X14499762Y-11952190D01*
X14499762Y-11952190D02*
X14518810Y-11961714D01*
X14518810Y-11961714D02*
X14528334Y-11980762D01*
X14528334Y-11980762D02*
X14528334Y-11999809D01*
X14528334Y-11999809D02*
X14433096Y-12018857D01*
X14604524Y-12076000D02*
X14623572Y-12085524D01*
X14623572Y-12085524D02*
X14661667Y-12085524D01*
X14661667Y-12085524D02*
X14680715Y-12076000D01*
X14680715Y-12076000D02*
X14690238Y-12056952D01*
X14690238Y-12056952D02*
X14690238Y-12047428D01*
X14690238Y-12047428D02*
X14680715Y-12028381D01*
X14680715Y-12028381D02*
X14661667Y-12018857D01*
X14661667Y-12018857D02*
X14633096Y-12018857D01*
X14633096Y-12018857D02*
X14614048Y-12009333D01*
X14614048Y-12009333D02*
X14604524Y-11990286D01*
X14604524Y-11990286D02*
X14604524Y-11980762D01*
X14604524Y-11980762D02*
X14614048Y-11961714D01*
X14614048Y-11961714D02*
X14633096Y-11952190D01*
X14633096Y-11952190D02*
X14661667Y-11952190D01*
X14661667Y-11952190D02*
X14680715Y-11961714D01*
X14928334Y-12009333D02*
X15080715Y-12009333D01*
X15004524Y-12085524D02*
X15004524Y-11933143D01*
X15318810Y-11904571D02*
X15328334Y-11895048D01*
X15328334Y-11895048D02*
X15347381Y-11885524D01*
X15347381Y-11885524D02*
X15395000Y-11885524D01*
X15395000Y-11885524D02*
X15414048Y-11895048D01*
X15414048Y-11895048D02*
X15423572Y-11904571D01*
X15423572Y-11904571D02*
X15433096Y-11923619D01*
X15433096Y-11923619D02*
X15433096Y-11942667D01*
X15433096Y-11942667D02*
X15423572Y-11971238D01*
X15423572Y-11971238D02*
X15309286Y-12085524D01*
X15309286Y-12085524D02*
X15433096Y-12085524D01*
X15661667Y-12076000D02*
X15680715Y-12085524D01*
X15680715Y-12085524D02*
X15718810Y-12085524D01*
X15718810Y-12085524D02*
X15737858Y-12076000D01*
X15737858Y-12076000D02*
X15747381Y-12056952D01*
X15747381Y-12056952D02*
X15747381Y-12047428D01*
X15747381Y-12047428D02*
X15737858Y-12028381D01*
X15737858Y-12028381D02*
X15718810Y-12018857D01*
X15718810Y-12018857D02*
X15690239Y-12018857D01*
X15690239Y-12018857D02*
X15671191Y-12009333D01*
X15671191Y-12009333D02*
X15661667Y-11990286D01*
X15661667Y-11990286D02*
X15661667Y-11980762D01*
X15661667Y-11980762D02*
X15671191Y-11961714D01*
X15671191Y-11961714D02*
X15690239Y-11952190D01*
X15690239Y-11952190D02*
X15718810Y-11952190D01*
X15718810Y-11952190D02*
X15737858Y-11961714D01*
X15861667Y-12085524D02*
X15842620Y-12076000D01*
X15842620Y-12076000D02*
X15833096Y-12056952D01*
X15833096Y-12056952D02*
X15833096Y-11885524D01*
X15966429Y-12085524D02*
X15947381Y-12076000D01*
X15947381Y-12076000D02*
X15937858Y-12066476D01*
X15937858Y-12066476D02*
X15928334Y-12047428D01*
X15928334Y-12047428D02*
X15928334Y-11990286D01*
X15928334Y-11990286D02*
X15937858Y-11971238D01*
X15937858Y-11971238D02*
X15947381Y-11961714D01*
X15947381Y-11961714D02*
X15966429Y-11952190D01*
X15966429Y-11952190D02*
X15995001Y-11952190D01*
X15995001Y-11952190D02*
X16014048Y-11961714D01*
X16014048Y-11961714D02*
X16023572Y-11971238D01*
X16023572Y-11971238D02*
X16033096Y-11990286D01*
X16033096Y-11990286D02*
X16033096Y-12047428D01*
X16033096Y-12047428D02*
X16023572Y-12066476D01*
X16023572Y-12066476D02*
X16014048Y-12076000D01*
X16014048Y-12076000D02*
X15995001Y-12085524D01*
X15995001Y-12085524D02*
X15966429Y-12085524D01*
X16090239Y-11952190D02*
X16166429Y-11952190D01*
X16118810Y-11885524D02*
X16118810Y-12056952D01*
X16118810Y-12056952D02*
X16128334Y-12076000D01*
X16128334Y-12076000D02*
X16147381Y-12085524D01*
X16147381Y-12085524D02*
X16166429Y-12085524D01*
X16223572Y-12076000D02*
X16242620Y-12085524D01*
X16242620Y-12085524D02*
X16280715Y-12085524D01*
X16280715Y-12085524D02*
X16299762Y-12076000D01*
X16299762Y-12076000D02*
X16309286Y-12056952D01*
X16309286Y-12056952D02*
X16309286Y-12047428D01*
X16309286Y-12047428D02*
X16299762Y-12028381D01*
X16299762Y-12028381D02*
X16280715Y-12018857D01*
X16280715Y-12018857D02*
X16252143Y-12018857D01*
X16252143Y-12018857D02*
X16233096Y-12009333D01*
X16233096Y-12009333D02*
X16223572Y-11990286D01*
X16223572Y-11990286D02*
X16223572Y-11980762D01*
X16223572Y-11980762D02*
X16233096Y-11961714D01*
X16233096Y-11961714D02*
X16252143Y-11952190D01*
X16252143Y-11952190D02*
X16280715Y-11952190D01*
X16280715Y-11952190D02*
X16299762Y-11961714D01*
X16375953Y-12161714D02*
X16385477Y-12152190D01*
X16385477Y-12152190D02*
X16404524Y-12123619D01*
X16404524Y-12123619D02*
X16414048Y-12104571D01*
X16414048Y-12104571D02*
X16423572Y-12076000D01*
X16423572Y-12076000D02*
X16433096Y-12028381D01*
X16433096Y-12028381D02*
X16433096Y-11990286D01*
X16433096Y-11990286D02*
X16423572Y-11942667D01*
X16423572Y-11942667D02*
X16414048Y-11914095D01*
X16414048Y-11914095D02*
X16404524Y-11895048D01*
X16404524Y-11895048D02*
X16385477Y-11866476D01*
X16385477Y-11866476D02*
X16375953Y-11856952D01*
M02*
