%TF.GenerationSoftware,KiCad,Pcbnew,7.0.2*%
%TF.CreationDate,2023-11-10T23:30:57+01:00*%
%TF.ProjectId,PoweredUSB-Adapter,506f7765-7265-4645-9553-422d41646170,rev?*%
%TF.SameCoordinates,Original*%
%TF.FileFunction,Copper,L2,Bot*%
%TF.FilePolarity,Positive*%
%FSLAX46Y46*%
G04 Gerber Fmt 4.6, Leading zero omitted, Abs format (unit mm)*
G04 Created by KiCad (PCBNEW 7.0.2) date 2023-11-10 23:30:57*
%MOMM*%
%LPD*%
G01*
G04 APERTURE LIST*
G04 Aperture macros list*
%AMOutline5P*
0 Free polygon, 5 corners , with rotation*
0 The origin of the aperture is its center*
0 number of corners: always 5*
0 $1 to $10 corner X, Y*
0 $11 Rotation angle, in degrees counterclockwise*
0 create outline with 5 corners*
4,1,5,$1,$2,$3,$4,$5,$6,$7,$8,$9,$10,$1,$2,$11*%
%AMOutline6P*
0 Free polygon, 6 corners , with rotation*
0 The origin of the aperture is its center*
0 number of corners: always 6*
0 $1 to $12 corner X, Y*
0 $13 Rotation angle, in degrees counterclockwise*
0 create outline with 6 corners*
4,1,6,$1,$2,$3,$4,$5,$6,$7,$8,$9,$10,$11,$12,$1,$2,$13*%
%AMOutline7P*
0 Free polygon, 7 corners , with rotation*
0 The origin of the aperture is its center*
0 number of corners: always 7*
0 $1 to $14 corner X, Y*
0 $15 Rotation angle, in degrees counterclockwise*
0 create outline with 7 corners*
4,1,7,$1,$2,$3,$4,$5,$6,$7,$8,$9,$10,$11,$12,$13,$14,$1,$2,$15*%
%AMOutline8P*
0 Free polygon, 8 corners , with rotation*
0 The origin of the aperture is its center*
0 number of corners: always 8*
0 $1 to $16 corner X, Y*
0 $17 Rotation angle, in degrees counterclockwise*
0 create outline with 8 corners*
4,1,8,$1,$2,$3,$4,$5,$6,$7,$8,$9,$10,$11,$12,$13,$14,$15,$16,$1,$2,$17*%
G04 Aperture macros list end*
%TA.AperFunction,ComponentPad*%
%ADD10R,1.905000X1.905000*%
%TD*%
%TA.AperFunction,ComponentPad*%
%ADD11C,1.905000*%
%TD*%
%TA.AperFunction,ComponentPad*%
%ADD12Outline8P,-0.762000X0.381000X-0.381000X0.762000X0.381000X0.762000X0.762000X0.381000X0.762000X-0.381000X0.381000X-0.762000X-0.381000X-0.762000X-0.762000X-0.381000X270.000000*%
%TD*%
%TA.AperFunction,ComponentPad*%
%ADD13C,1.524000*%
%TD*%
%TA.AperFunction,ComponentPad*%
%ADD14R,1.778000X1.778000*%
%TD*%
%TA.AperFunction,ComponentPad*%
%ADD15O,1.778000X1.524000*%
%TD*%
%TA.AperFunction,ComponentPad*%
%ADD16C,1.778000*%
%TD*%
%TA.AperFunction,ComponentPad*%
%ADD17O,3.556000X2.032000*%
%TD*%
%TA.AperFunction,ComponentPad*%
%ADD18O,3.000000X5.000000*%
%TD*%
%TA.AperFunction,ComponentPad*%
%ADD19O,4.400000X2.200000*%
%TD*%
%TA.AperFunction,ComponentPad*%
%ADD20O,2.100000X1.000000*%
%TD*%
%TA.AperFunction,ComponentPad*%
%ADD21O,2.000000X1.200000*%
%TD*%
%TA.AperFunction,ComponentPad*%
%ADD22R,2.500000X1.900000*%
%TD*%
%TA.AperFunction,ComponentPad*%
%ADD23O,2.500000X1.900000*%
%TD*%
%TA.AperFunction,SMDPad,CuDef*%
%ADD24R,0.640000X0.700000*%
%TD*%
%TA.AperFunction,SMDPad,CuDef*%
%ADD25R,1.651000X1.778000*%
%TD*%
%TA.AperFunction,SMDPad,CuDef*%
%ADD26R,1.625600X1.778000*%
%TD*%
%TA.AperFunction,ViaPad*%
%ADD27C,0.812800*%
%TD*%
%TA.AperFunction,Conductor*%
%ADD28C,0.200000*%
%TD*%
%TA.AperFunction,Conductor*%
%ADD29C,0.381000*%
%TD*%
%TA.AperFunction,Conductor*%
%ADD30C,0.635000*%
%TD*%
%TA.AperFunction,Conductor*%
%ADD31C,0.254000*%
%TD*%
%TA.AperFunction,Conductor*%
%ADD32C,0.762000*%
%TD*%
%TA.AperFunction,Conductor*%
%ADD33C,0.889000*%
%TD*%
%TA.AperFunction,Conductor*%
%ADD34C,0.508000*%
%TD*%
%TA.AperFunction,Conductor*%
%ADD35C,0.203200*%
%TD*%
G04 APERTURE END LIST*
D10*
%TO.P,J2,1,Pin_1*%
%TO.N,+5V*%
X121484200Y-78500000D03*
D11*
%TO.P,J2,2,Pin_2*%
%TO.N,/D-*%
X121484200Y-81040000D03*
%TO.P,J2,3,Pin_3*%
%TO.N,/D+*%
X121484200Y-83580000D03*
%TO.P,J2,4,Pin_4*%
%TO.N,GND*%
X121484200Y-86120000D03*
%TD*%
D12*
%TO.P,CN1,1,Vbus*%
%TO.N,+5V*%
X111405000Y-74000000D03*
D13*
%TO.P,CN1,2,D-*%
%TO.N,/D-*%
X111405000Y-76500000D03*
%TO.P,CN1,3,D+*%
%TO.N,/D+*%
X111405000Y-78500000D03*
%TO.P,CN1,4,GND*%
%TO.N,GND*%
X111405000Y-81000000D03*
D14*
%TO.P,CN1,5,PGND*%
X113835000Y-73750000D03*
D15*
%TO.P,CN1,6,PWR+*%
%TO.N,VCC*%
X113835000Y-76250000D03*
%TO.P,CN1,7,PWR+*%
X113835000Y-78750000D03*
D16*
%TO.P,CN1,8,PGND*%
%TO.N,GND*%
X113835000Y-81250000D03*
D17*
%TO.P,CN1,S,Shd*%
X113095000Y-71100000D03*
X109095000Y-71100000D03*
X113095000Y-83900000D03*
X109095000Y-83900000D03*
%TD*%
D18*
%TO.P,J1,1*%
%TO.N,VCC*%
X129684200Y-66800000D03*
%TO.P,J1,2*%
%TO.N,GND*%
X135884200Y-66800000D03*
D19*
%TO.P,J1,3*%
X132284200Y-62000000D03*
%TD*%
D20*
%TO.P,CN4,S,SH*%
%TO.N,GND*%
X133720000Y-84320000D03*
D21*
X137900000Y-84320000D03*
D20*
X133720000Y-75680000D03*
D21*
X137900000Y-75680000D03*
%TD*%
D22*
%TO.P,J3,1,Pin_1*%
%TO.N,VCC*%
X123184200Y-66850000D03*
D23*
%TO.P,J3,2,Pin_2*%
%TO.N,GND*%
X123184200Y-64350000D03*
%TD*%
D24*
%TO.P,R2,1*%
%TO.N,GND*%
X131050000Y-83584200D03*
%TO.P,R2,2*%
%TO.N,Net-(CN4-CC1)*%
X131050000Y-82390400D03*
%TD*%
%TO.P,R3,1*%
%TO.N,GND*%
X130550000Y-76665800D03*
%TO.P,R3,2*%
%TO.N,Net-(CN4-CC2)*%
X130550000Y-77859600D03*
%TD*%
D25*
%TO.P,D1,1,C*%
%TO.N,VCC*%
X120184200Y-67778000D03*
D26*
%TO.P,D1,2,A*%
%TO.N,GND*%
X120184200Y-64222000D03*
%TD*%
D27*
%TO.N,+5V*%
X105795000Y-73300000D03*
X128000000Y-78100000D03*
X115800000Y-69100000D03*
%TO.N,/D-*%
X129550000Y-79500000D03*
%TO.N,/D+*%
X131250000Y-79650000D03*
%TO.N,GND*%
X129950000Y-91850000D03*
X101000000Y-94000000D03*
X124000000Y-61000000D03*
X125200000Y-79300000D03*
X124300000Y-79700000D03*
X122000000Y-61000000D03*
X137000000Y-61000000D03*
X109500000Y-63500000D03*
X124000000Y-94000000D03*
X111500000Y-63500000D03*
X139000000Y-92000000D03*
X103000000Y-94000000D03*
X139000000Y-80000000D03*
X109100000Y-69300000D03*
X118400000Y-76500000D03*
X126600000Y-82400000D03*
X139000000Y-73000000D03*
X111500000Y-66500000D03*
X113550000Y-90500000D03*
X118000000Y-61000000D03*
X113400000Y-63500000D03*
X117400000Y-69000000D03*
X101000000Y-74950000D03*
X139000000Y-85850000D03*
X110450000Y-88050000D03*
X101000000Y-80050000D03*
X116000000Y-61000000D03*
X139000000Y-63000000D03*
X138000000Y-94000000D03*
X132000000Y-85900000D03*
X137000000Y-94000000D03*
X111000000Y-69300000D03*
X102000000Y-94000000D03*
X109500000Y-66500000D03*
X139000000Y-62000000D03*
X139000000Y-88150000D03*
X113400000Y-66500000D03*
X122000000Y-94000000D03*
X139000000Y-87150000D03*
X126450000Y-89850000D03*
X132000000Y-74100000D03*
X120000000Y-61000000D03*
X118400000Y-75000000D03*
X139000000Y-93000000D03*
X101000000Y-83000000D03*
X118000000Y-94000000D03*
X124200000Y-84700000D03*
X101000000Y-93000000D03*
X139000000Y-78000000D03*
X103000000Y-61000000D03*
X129400000Y-78400000D03*
X101000000Y-92000000D03*
X129700000Y-81400000D03*
X139000000Y-74000000D03*
X101000000Y-77500000D03*
X120000000Y-94000000D03*
X102000000Y-61000000D03*
X139000000Y-61000000D03*
X139000000Y-94000000D03*
X101000000Y-61000000D03*
X101000000Y-62000000D03*
X101000000Y-71950000D03*
X119850000Y-88450000D03*
X122000000Y-72900000D03*
X118500000Y-84500000D03*
X101000000Y-63000000D03*
X139000000Y-82000000D03*
X127600000Y-85300000D03*
X113100000Y-69300000D03*
X128800000Y-75900000D03*
X138000000Y-61000000D03*
X116000000Y-94000000D03*
%TO.N,Net-(CN4-CC1)*%
X131050000Y-81600000D03*
%TO.N,Net-(CN4-CC2)*%
X131150000Y-78550000D03*
%TD*%
D28*
%TO.N,/D+*%
X123850000Y-83250000D02*
X124550000Y-82550000D01*
D29*
X126700000Y-80400000D02*
X124550000Y-82550000D01*
X123850000Y-83250000D02*
X123520000Y-83580000D01*
%TO.N,/D-*%
X124200000Y-81040000D02*
X124960000Y-81040000D01*
D28*
X123200000Y-81040000D02*
X124200000Y-81040000D01*
D29*
X121484200Y-81040000D02*
X123200000Y-81040000D01*
X124960000Y-81040000D02*
X126500000Y-79500000D01*
X126500000Y-79500000D02*
X129550000Y-79500000D01*
D30*
%TO.N,+5V*%
X121484200Y-78500000D02*
X124300000Y-78500000D01*
X111405000Y-74000000D02*
X106495000Y-74000000D01*
X115800000Y-69100000D02*
X121484200Y-74784200D01*
X121484200Y-74784200D02*
X121484200Y-75600000D01*
X124700000Y-78100000D02*
X128000000Y-78100000D01*
X106495000Y-74000000D02*
X105795000Y-73300000D01*
X124300000Y-78500000D02*
X124700000Y-78100000D01*
X121484200Y-75600000D02*
X121484200Y-78500000D01*
D31*
%TO.N,/D-*%
X112405000Y-77500000D02*
X114900000Y-77500000D01*
X111405000Y-76500000D02*
X112405000Y-77500000D01*
D29*
X117400000Y-77500000D02*
X114900000Y-77500000D01*
X121484200Y-81040000D02*
X119784200Y-81040000D01*
X118972100Y-79072100D02*
X117400000Y-77500000D01*
X118972100Y-80227900D02*
X118972100Y-79072100D01*
X119784200Y-81040000D02*
X118972100Y-80227900D01*
D31*
%TO.N,/D+*%
X112805000Y-79900000D02*
X115000000Y-79900000D01*
D29*
X117300000Y-79900000D02*
X115000000Y-79900000D01*
X121484200Y-83580000D02*
X119280000Y-83580000D01*
X131250000Y-79650000D02*
X130500000Y-80400000D01*
X119280000Y-83580000D02*
X117900000Y-82200000D01*
D31*
X111405000Y-78500000D02*
X112805000Y-79900000D01*
D29*
X117900000Y-80500000D02*
X117300000Y-79900000D01*
X130500000Y-80400000D02*
X126700000Y-80400000D01*
X117900000Y-82200000D02*
X117900000Y-80500000D01*
X123520000Y-83580000D02*
X121484200Y-83580000D01*
D32*
%TO.N,GND*%
X123184200Y-64350000D02*
X123184200Y-63100000D01*
X113095000Y-83900000D02*
X106050000Y-83900000D01*
X117750000Y-85750000D02*
X116150000Y-84150000D01*
X109095000Y-83900000D02*
X109095000Y-81000000D01*
X109095000Y-71100000D02*
X109095000Y-67700000D01*
X111405000Y-81000000D02*
X109095000Y-81000000D01*
D29*
X115750000Y-81250000D02*
X115750000Y-83750000D01*
D33*
X132284200Y-62000000D02*
X136884200Y-62000000D01*
D32*
X109095000Y-71100000D02*
X109095000Y-72655000D01*
D33*
X120184200Y-64222000D02*
X120184200Y-61900000D01*
X135884200Y-66800000D02*
X135884200Y-60950000D01*
D32*
X109095000Y-81000000D02*
X108295000Y-81000000D01*
D33*
X135884200Y-71600000D02*
X137384200Y-73100000D01*
D32*
X119504200Y-86120000D02*
X119134200Y-85750000D01*
D34*
X133720000Y-75680000D02*
X135170000Y-75680000D01*
D33*
X120184200Y-61900000D02*
X124184200Y-61900000D01*
X113835000Y-73750000D02*
X113835000Y-71840000D01*
D34*
X137900000Y-84320000D02*
X136380000Y-84320000D01*
D32*
X109095000Y-83900000D02*
X116400000Y-83900000D01*
D33*
X123892100Y-62392100D02*
X124284200Y-62000000D01*
D32*
X117750000Y-85750000D02*
X119134200Y-85750000D01*
X115600000Y-83900000D02*
X116400000Y-83900000D01*
X113095000Y-83900000D02*
X115600000Y-83900000D01*
D29*
X113835000Y-81250000D02*
X115750000Y-81250000D01*
D32*
X113095000Y-83900000D02*
X113095000Y-82705000D01*
D34*
X133720000Y-84320000D02*
X132280000Y-84320000D01*
X137900000Y-84320000D02*
X137900000Y-85400000D01*
D33*
X135884200Y-66800000D02*
X133584200Y-66800000D01*
D32*
X113095000Y-83900000D02*
X109095000Y-83900000D01*
D33*
X135884200Y-66800000D02*
X138084200Y-66800000D01*
D32*
X121484200Y-86120000D02*
X124504200Y-86120000D01*
D33*
X135884200Y-66800000D02*
X135884200Y-71600000D01*
D29*
X124784200Y-86400000D02*
X124504200Y-86120000D01*
D34*
X133720000Y-84320000D02*
X135320000Y-84320000D01*
D32*
X109095000Y-83900000D02*
X109095000Y-86100000D01*
D33*
X124184200Y-61900000D02*
X124284200Y-62000000D01*
D32*
X109095000Y-71100000D02*
X115750000Y-71100000D01*
X113095000Y-83900000D02*
X113095000Y-86000000D01*
D34*
X137900000Y-75680000D02*
X137900000Y-84320000D01*
D29*
X115750000Y-83750000D02*
X115600000Y-83900000D01*
D32*
X116400000Y-83900000D02*
X116695000Y-83900000D01*
D34*
X133720000Y-84320000D02*
X133720000Y-85470000D01*
X133720000Y-75680000D02*
X133720000Y-74330000D01*
D33*
X113095000Y-71100000D02*
X113095000Y-68000000D01*
D34*
X137900000Y-75680000D02*
X137900000Y-74815800D01*
D33*
X113835000Y-71840000D02*
X113095000Y-71100000D01*
X124284200Y-62000000D02*
X132284200Y-62000000D01*
D32*
X123184200Y-63100000D02*
X123892100Y-62392100D01*
D34*
X137900000Y-75680000D02*
X136070000Y-75680000D01*
D35*
X130912500Y-80787500D02*
X130487500Y-81012500D01*
D32*
X109095000Y-71100000D02*
X107050000Y-71100000D01*
D34*
X133720000Y-75680000D02*
X131980000Y-75680000D01*
D33*
X132284200Y-62000000D02*
X132284200Y-63900000D01*
D32*
X121484200Y-86120000D02*
X119504200Y-86120000D01*
%TO.N,VCC*%
X120212200Y-67750000D02*
X120184200Y-67778000D01*
D33*
X123184200Y-66850000D02*
X122256200Y-67778000D01*
X122256200Y-67778000D02*
X120184200Y-67778000D01*
D31*
%TO.N,Net-(CN4-CC1)*%
X131050000Y-81600000D02*
X131050000Y-82390400D01*
%TO.N,Net-(CN4-CC2)*%
X130550000Y-77950000D02*
X131150000Y-78550000D01*
X130550000Y-77859600D02*
X130550000Y-77950000D01*
%TD*%
%TA.AperFunction,Conductor*%
%TO.N,GND*%
G36*
X111939300Y-83828111D02*
G01*
X111939300Y-83971889D01*
X111974127Y-84090500D01*
X110215873Y-84090500D01*
X110250700Y-83971889D01*
X110250700Y-83828111D01*
X110215873Y-83709500D01*
X111974127Y-83709500D01*
X111939300Y-83828111D01*
G37*
%TD.AperFunction*%
%TA.AperFunction,Conductor*%
G36*
X111939300Y-71028111D02*
G01*
X111939300Y-71171889D01*
X111974127Y-71290500D01*
X110215873Y-71290500D01*
X110250700Y-71171889D01*
X110250700Y-71028111D01*
X110215873Y-70909500D01*
X111974127Y-70909500D01*
X111939300Y-71028111D01*
G37*
%TD.AperFunction*%
%TA.AperFunction,Conductor*%
G36*
X139612621Y-60349502D02*
G01*
X139659114Y-60403158D01*
X139670500Y-60455500D01*
X139670500Y-94544500D01*
X139650498Y-94612621D01*
X139596842Y-94659114D01*
X139544500Y-94670500D01*
X100455500Y-94670500D01*
X100387379Y-94650498D01*
X100340886Y-94596842D01*
X100329500Y-94544500D01*
X100329500Y-90067766D01*
X102145787Y-90067766D01*
X102175413Y-90337015D01*
X102175414Y-90337018D01*
X102243928Y-90599088D01*
X102349870Y-90848390D01*
X102490982Y-91079610D01*
X102664255Y-91287820D01*
X102664256Y-91287821D01*
X102664258Y-91287823D01*
X102865993Y-91468578D01*
X102865995Y-91468579D01*
X102865998Y-91468582D01*
X103091910Y-91618044D01*
X103224104Y-91680014D01*
X103337171Y-91733018D01*
X103337173Y-91733018D01*
X103337176Y-91733020D01*
X103596569Y-91811060D01*
X103596572Y-91811060D01*
X103596574Y-91811061D01*
X103864558Y-91850500D01*
X103864561Y-91850500D01*
X104065330Y-91850500D01*
X104067631Y-91850500D01*
X104270156Y-91835677D01*
X104534553Y-91776780D01*
X104787558Y-91680014D01*
X105023777Y-91547441D01*
X105238177Y-91381888D01*
X105426186Y-91186881D01*
X105583799Y-90966579D01*
X105707656Y-90725675D01*
X105795118Y-90469305D01*
X105844319Y-90202933D01*
X105849259Y-90067766D01*
X134145787Y-90067766D01*
X134175413Y-90337015D01*
X134175414Y-90337018D01*
X134243928Y-90599088D01*
X134349870Y-90848390D01*
X134490982Y-91079610D01*
X134664255Y-91287820D01*
X134664256Y-91287821D01*
X134664258Y-91287823D01*
X134865993Y-91468578D01*
X134865995Y-91468579D01*
X134865998Y-91468582D01*
X135091910Y-91618044D01*
X135224104Y-91680014D01*
X135337171Y-91733018D01*
X135337173Y-91733018D01*
X135337176Y-91733020D01*
X135596569Y-91811060D01*
X135596572Y-91811060D01*
X135596574Y-91811061D01*
X135864558Y-91850500D01*
X135864561Y-91850500D01*
X136065330Y-91850500D01*
X136067631Y-91850500D01*
X136270156Y-91835677D01*
X136534553Y-91776780D01*
X136787558Y-91680014D01*
X137023777Y-91547441D01*
X137238177Y-91381888D01*
X137426186Y-91186881D01*
X137583799Y-90966579D01*
X137707656Y-90725675D01*
X137795118Y-90469305D01*
X137844319Y-90202933D01*
X137854212Y-89932235D01*
X137824586Y-89662982D01*
X137756072Y-89400912D01*
X137650130Y-89151610D01*
X137509018Y-88920390D01*
X137335745Y-88712180D01*
X137230759Y-88618112D01*
X137134006Y-88531421D01*
X137134003Y-88531419D01*
X137134002Y-88531418D01*
X136908090Y-88381956D01*
X136908086Y-88381954D01*
X136662828Y-88266981D01*
X136403425Y-88188938D01*
X136135442Y-88149500D01*
X136135439Y-88149500D01*
X135932369Y-88149500D01*
X135930099Y-88149666D01*
X135930075Y-88149667D01*
X135729839Y-88164323D01*
X135465449Y-88223219D01*
X135212441Y-88319985D01*
X134976225Y-88452557D01*
X134761820Y-88618114D01*
X134573815Y-88813117D01*
X134416200Y-89033422D01*
X134292342Y-89274328D01*
X134204882Y-89530693D01*
X134155681Y-89797065D01*
X134145787Y-90067766D01*
X105849259Y-90067766D01*
X105854212Y-89932235D01*
X105824586Y-89662982D01*
X105756072Y-89400912D01*
X105650130Y-89151610D01*
X105509018Y-88920390D01*
X105335745Y-88712180D01*
X105230759Y-88618112D01*
X105134006Y-88531421D01*
X105134003Y-88531419D01*
X105134002Y-88531418D01*
X104908090Y-88381956D01*
X104908086Y-88381954D01*
X104662828Y-88266981D01*
X104403425Y-88188938D01*
X104135442Y-88149500D01*
X104135439Y-88149500D01*
X103932369Y-88149500D01*
X103930099Y-88149666D01*
X103930075Y-88149667D01*
X103729839Y-88164323D01*
X103465449Y-88223219D01*
X103212441Y-88319985D01*
X102976225Y-88452557D01*
X102761820Y-88618114D01*
X102573815Y-88813117D01*
X102416200Y-89033422D01*
X102292342Y-89274328D01*
X102204882Y-89530693D01*
X102155681Y-89797065D01*
X102145787Y-90067766D01*
X100329500Y-90067766D01*
X100329500Y-83709500D01*
X107073820Y-83709500D01*
X107974127Y-83709500D01*
X107939300Y-83828111D01*
X107939300Y-83971889D01*
X107974127Y-84090500D01*
X107077207Y-84090500D01*
X107089838Y-84183746D01*
X107160478Y-84401156D01*
X107268809Y-84602468D01*
X107411339Y-84781196D01*
X107583497Y-84931605D01*
X107779736Y-85048852D01*
X107993770Y-85129181D01*
X108218697Y-85170000D01*
X108904500Y-85170000D01*
X108904500Y-84400000D01*
X109285500Y-84400000D01*
X109285500Y-85170000D01*
X109911211Y-85170000D01*
X109916838Y-85169747D01*
X110084686Y-85154640D01*
X110305050Y-85093823D01*
X110511011Y-84994638D01*
X110695960Y-84860263D01*
X110853939Y-84695030D01*
X110979873Y-84504249D01*
X110981546Y-84500336D01*
X110986115Y-84494793D01*
X110986123Y-84494782D01*
X110986124Y-84494782D01*
X111026708Y-84445556D01*
X111094318Y-84423889D01*
X111162909Y-84442214D01*
X111208364Y-84490143D01*
X111268809Y-84602468D01*
X111411339Y-84781196D01*
X111583497Y-84931605D01*
X111779736Y-85048852D01*
X111993770Y-85129181D01*
X112218697Y-85170000D01*
X112904500Y-85170000D01*
X112904500Y-84400000D01*
X113285500Y-84400000D01*
X113285500Y-85170000D01*
X113911211Y-85170000D01*
X113916838Y-85169747D01*
X114084686Y-85154640D01*
X114305050Y-85093823D01*
X114511011Y-84994638D01*
X114695960Y-84860263D01*
X114853939Y-84695030D01*
X114979875Y-84504246D01*
X115069723Y-84294039D01*
X115116180Y-84090500D01*
X114215873Y-84090500D01*
X114250700Y-83971889D01*
X114250700Y-83828111D01*
X114215873Y-83709500D01*
X115112793Y-83709500D01*
X115100161Y-83616253D01*
X115029521Y-83398843D01*
X114921190Y-83197531D01*
X114778660Y-83018803D01*
X114606502Y-82868394D01*
X114410263Y-82751147D01*
X114196230Y-82670818D01*
X113985610Y-82632596D01*
X113922156Y-82600752D01*
X113885991Y-82539657D01*
X113888598Y-82468708D01*
X113929148Y-82410431D01*
X113984957Y-82384766D01*
X114149137Y-82354076D01*
X114346663Y-82277554D01*
X114498890Y-82183297D01*
X114027399Y-81711806D01*
X114108100Y-81674952D01*
X114216761Y-81580798D01*
X114294493Y-81459844D01*
X114298978Y-81444569D01*
X114766962Y-81912553D01*
X114810959Y-81854292D01*
X114905382Y-81664666D01*
X114963352Y-81460923D01*
X114982897Y-81249999D01*
X114963352Y-81039076D01*
X114905382Y-80835333D01*
X114810961Y-80645710D01*
X114712978Y-80515961D01*
X114687888Y-80449545D01*
X114702687Y-80380108D01*
X114752678Y-80329695D01*
X114821988Y-80314312D01*
X114850668Y-80319626D01*
X114932927Y-80345000D01*
X117063485Y-80345000D01*
X117131606Y-80365002D01*
X117152575Y-80381900D01*
X117286636Y-80515961D01*
X117418095Y-80647420D01*
X117452120Y-80709732D01*
X117454999Y-80736515D01*
X117455000Y-82167936D01*
X117454208Y-82182042D01*
X117450289Y-82216826D01*
X117460771Y-82272230D01*
X117461559Y-82276872D01*
X117470906Y-82338881D01*
X117472281Y-82343059D01*
X117501574Y-82398486D01*
X117503696Y-82402688D01*
X117530908Y-82459193D01*
X117533451Y-82462775D01*
X117537908Y-82467232D01*
X117537910Y-82467235D01*
X117577810Y-82507135D01*
X117581053Y-82510502D01*
X117623710Y-82556475D01*
X117638493Y-82567818D01*
X118942666Y-83871991D01*
X118952081Y-83882526D01*
X118966447Y-83900541D01*
X118973905Y-83909892D01*
X119006064Y-83931817D01*
X119020496Y-83941657D01*
X119024339Y-83944384D01*
X119068966Y-83977321D01*
X119074801Y-83981627D01*
X119078700Y-83983595D01*
X119084739Y-83985457D01*
X119084741Y-83985459D01*
X119138654Y-84002089D01*
X119143083Y-84003547D01*
X119161619Y-84010033D01*
X119202296Y-84024267D01*
X119206608Y-84025000D01*
X119212927Y-84025000D01*
X119269329Y-84025000D01*
X119274038Y-84025087D01*
X119330387Y-84027196D01*
X119336695Y-84027432D01*
X119355170Y-84025000D01*
X120279658Y-84025000D01*
X120347779Y-84045002D01*
X120393853Y-84097750D01*
X120434914Y-84185807D01*
X120556054Y-84358812D01*
X120705387Y-84508145D01*
X120705390Y-84508147D01*
X120705391Y-84508148D01*
X120758797Y-84545543D01*
X120878392Y-84629285D01*
X121069804Y-84718542D01*
X121106312Y-84728324D01*
X121166935Y-84765276D01*
X121197956Y-84829136D01*
X121189528Y-84899631D01*
X121144325Y-84954378D01*
X121119217Y-84967523D01*
X120944113Y-85035358D01*
X120774181Y-85140574D01*
X121328922Y-85695315D01*
X121227843Y-85743993D01*
X121128402Y-85836260D01*
X121060575Y-85953740D01*
X121058337Y-85963544D01*
X120506901Y-85412108D01*
X120506900Y-85412108D01*
X120454018Y-85482136D01*
X120354350Y-85682297D01*
X120293161Y-85897357D01*
X120272530Y-86120000D01*
X120293161Y-86342642D01*
X120354350Y-86557701D01*
X120454019Y-86757863D01*
X120506900Y-86827890D01*
X120506902Y-86827890D01*
X121061102Y-86273690D01*
X121090087Y-86347541D01*
X121174665Y-86453599D01*
X121286747Y-86530016D01*
X121330190Y-86543416D01*
X120774181Y-87099424D01*
X120944113Y-87204641D01*
X121152610Y-87285413D01*
X121372403Y-87326500D01*
X121595997Y-87326500D01*
X121815789Y-87285413D01*
X122024288Y-87204641D01*
X122194218Y-87099424D01*
X121639478Y-86544684D01*
X121740557Y-86496007D01*
X121839998Y-86403740D01*
X121907825Y-86286260D01*
X121910062Y-86276457D01*
X122461496Y-86827890D01*
X122461497Y-86827890D01*
X122514381Y-86757861D01*
X122614049Y-86557701D01*
X122675238Y-86342642D01*
X122695869Y-86120000D01*
X122675238Y-85897357D01*
X122614049Y-85682298D01*
X122514380Y-85482137D01*
X122461497Y-85412108D01*
X121907296Y-85966308D01*
X121878313Y-85892459D01*
X121793735Y-85786401D01*
X121681653Y-85709984D01*
X121638209Y-85696583D01*
X122194218Y-85140574D01*
X122024286Y-85035358D01*
X121849182Y-84967523D01*
X121792887Y-84924263D01*
X121768916Y-84857436D01*
X121784880Y-84788257D01*
X121835710Y-84738692D01*
X121862088Y-84728324D01*
X121898595Y-84718542D01*
X122090006Y-84629286D01*
X122259650Y-84510500D01*
X132437960Y-84510500D01*
X132442760Y-84537723D01*
X132512570Y-84699563D01*
X132617827Y-84840949D01*
X132752848Y-84954245D01*
X132910361Y-85033351D01*
X133081872Y-85074000D01*
X133529500Y-85074000D01*
X133529500Y-84570000D01*
X133910500Y-84570000D01*
X133910500Y-85074000D01*
X134310246Y-85074000D01*
X134317559Y-85073574D01*
X134445069Y-85058669D01*
X134610696Y-84998386D01*
X134757962Y-84901529D01*
X134878918Y-84773323D01*
X134967047Y-84620678D01*
X135000033Y-84510500D01*
X134334885Y-84510500D01*
X134350240Y-84500240D01*
X134405495Y-84417545D01*
X134424898Y-84320000D01*
X134405495Y-84222455D01*
X134350240Y-84139760D01*
X134334885Y-84129500D01*
X135002040Y-84129500D01*
X135002040Y-84129499D01*
X136665829Y-84129499D01*
X136665830Y-84129500D01*
X137267927Y-84129500D01*
X137226799Y-84183962D01*
X137196105Y-84291840D01*
X137206454Y-84403521D01*
X137256448Y-84503922D01*
X137263664Y-84510500D01*
X136666586Y-84510500D01*
X136701975Y-84637960D01*
X136788985Y-84802080D01*
X136909239Y-84943654D01*
X137057120Y-85056070D01*
X137225711Y-85134068D01*
X137407121Y-85174000D01*
X137709500Y-85174000D01*
X137709500Y-84620000D01*
X138090500Y-84620000D01*
X138090500Y-85174000D01*
X138342890Y-85174000D01*
X138349703Y-85173630D01*
X138484666Y-85158952D01*
X138660698Y-85099640D01*
X138819865Y-85003873D01*
X138954726Y-84876126D01*
X139058969Y-84722379D01*
X139127723Y-84549817D01*
X139134170Y-84510500D01*
X138532073Y-84510500D01*
X138573201Y-84456038D01*
X138603895Y-84348160D01*
X138593546Y-84236479D01*
X138543552Y-84136078D01*
X138536336Y-84129500D01*
X139133414Y-84129500D01*
X139133413Y-84129499D01*
X139098024Y-84002039D01*
X139011014Y-83837919D01*
X138890760Y-83696345D01*
X138742879Y-83583929D01*
X138574288Y-83505931D01*
X138392879Y-83466000D01*
X138090500Y-83466000D01*
X138090500Y-84020000D01*
X137709500Y-84020000D01*
X137709500Y-83466000D01*
X137457110Y-83466000D01*
X137450296Y-83466369D01*
X137315333Y-83481047D01*
X137139301Y-83540359D01*
X136980134Y-83636126D01*
X136845273Y-83763873D01*
X136741030Y-83917620D01*
X136672276Y-84090182D01*
X136665829Y-84129499D01*
X135002040Y-84129499D01*
X134997239Y-84102276D01*
X134927429Y-83940436D01*
X134822172Y-83799050D01*
X134687151Y-83685754D01*
X134553818Y-83618792D01*
X134501920Y-83570344D01*
X134484453Y-83501530D01*
X134506963Y-83434196D01*
X134533659Y-83406234D01*
X134648282Y-83318282D01*
X134744536Y-83192841D01*
X134805044Y-83046762D01*
X134825682Y-82890000D01*
X134805044Y-82733238D01*
X134744536Y-82587159D01*
X134744535Y-82587158D01*
X134744535Y-82587157D01*
X134648282Y-82461717D01*
X134522842Y-82365464D01*
X134376761Y-82304955D01*
X134263448Y-82290038D01*
X134263447Y-82290037D01*
X134259361Y-82289500D01*
X134180639Y-82289500D01*
X134176553Y-82290037D01*
X134176551Y-82290038D01*
X134063238Y-82304955D01*
X133917157Y-82365464D01*
X133791717Y-82461717D01*
X133695464Y-82587157D01*
X133634955Y-82733238D01*
X133614318Y-82889999D01*
X133634955Y-83046761D01*
X133695464Y-83192842D01*
X133791716Y-83318280D01*
X133791718Y-83318282D01*
X133835393Y-83351795D01*
X133885108Y-83389943D01*
X133926975Y-83447281D01*
X133931196Y-83518152D01*
X133910499Y-83555524D01*
X133910500Y-84070000D01*
X133529500Y-84070000D01*
X133529500Y-83566000D01*
X133129754Y-83566000D01*
X133122440Y-83566425D01*
X132994930Y-83581330D01*
X132829303Y-83641613D01*
X132682037Y-83738470D01*
X132561081Y-83866676D01*
X132472952Y-84019321D01*
X132439967Y-84129500D01*
X133105115Y-84129500D01*
X133089760Y-84139760D01*
X133034505Y-84222455D01*
X133015102Y-84320000D01*
X133034505Y-84417545D01*
X133089760Y-84500240D01*
X133105115Y-84510500D01*
X132437960Y-84510500D01*
X122259650Y-84510500D01*
X122263009Y-84508148D01*
X122412348Y-84358809D01*
X122533486Y-84185806D01*
X122574547Y-84097749D01*
X122621464Y-84044465D01*
X122688742Y-84025000D01*
X123487937Y-84025000D01*
X123502043Y-84025792D01*
X123536827Y-84029711D01*
X123592275Y-84019219D01*
X123596837Y-84018444D01*
X123652647Y-84010033D01*
X123652647Y-84010032D01*
X123658902Y-84009090D01*
X123663034Y-84007730D01*
X123668629Y-84004772D01*
X123668634Y-84004772D01*
X123718508Y-83978411D01*
X123722667Y-83976312D01*
X123773509Y-83951829D01*
X123773511Y-83951826D01*
X123779205Y-83949085D01*
X123782764Y-83946560D01*
X123787232Y-83942091D01*
X123787235Y-83942090D01*
X123827147Y-83902176D01*
X123830487Y-83898959D01*
X123871844Y-83860587D01*
X123871845Y-83860584D01*
X123880774Y-83852300D01*
X123944315Y-83820629D01*
X124014892Y-83828339D01*
X124055567Y-83855567D01*
X124200000Y-84000000D01*
X124200001Y-84000000D01*
X124425301Y-83774700D01*
X130476001Y-83774700D01*
X130476001Y-83959218D01*
X130490736Y-84033305D01*
X130546876Y-84117324D01*
X130630893Y-84173463D01*
X130704981Y-84188199D01*
X130859499Y-84188199D01*
X130859500Y-83774700D01*
X131240500Y-83774700D01*
X131240500Y-84188199D01*
X131395018Y-84188199D01*
X131469105Y-84173463D01*
X131553124Y-84117323D01*
X131609263Y-84033306D01*
X131624000Y-83959218D01*
X131624000Y-83774700D01*
X131240500Y-83774700D01*
X130859500Y-83774700D01*
X130476001Y-83774700D01*
X124425301Y-83774700D01*
X125300000Y-82900000D01*
X125299999Y-82899999D01*
X125150694Y-82767282D01*
X125113069Y-82707076D01*
X125113966Y-82636085D01*
X125145305Y-82584018D01*
X126847422Y-80881902D01*
X126909732Y-80847879D01*
X126936515Y-80845000D01*
X130467937Y-80845000D01*
X130482043Y-80845792D01*
X130516827Y-80849711D01*
X130555288Y-80842433D01*
X130625936Y-80849420D01*
X130681595Y-80893496D01*
X130704589Y-80960666D01*
X130687618Y-81029604D01*
X130662266Y-81060548D01*
X130551675Y-81158523D01*
X130460503Y-81290609D01*
X130403591Y-81440675D01*
X130384246Y-81600000D01*
X130403591Y-81759324D01*
X130465929Y-81923696D01*
X130464240Y-81924336D01*
X130480456Y-81973504D01*
X130478104Y-82002239D01*
X130475500Y-82015330D01*
X130475500Y-82765468D01*
X130490265Y-82839700D01*
X130542415Y-82917747D01*
X130563630Y-82985500D01*
X130544847Y-83053967D01*
X130542415Y-83057751D01*
X130490736Y-83135093D01*
X130476000Y-83209181D01*
X130476000Y-83393700D01*
X131623999Y-83393700D01*
X131623998Y-83209181D01*
X131609263Y-83135094D01*
X131557584Y-83057751D01*
X131536369Y-82989998D01*
X131555152Y-82921531D01*
X131557550Y-82917797D01*
X131609734Y-82839701D01*
X131624500Y-82765467D01*
X131624499Y-82015334D01*
X131621894Y-82002242D01*
X131628223Y-81931528D01*
X131638211Y-81912781D01*
X131665056Y-81841993D01*
X131696408Y-81759325D01*
X131715754Y-81600000D01*
X131696408Y-81440675D01*
X131639496Y-81290609D01*
X131548324Y-81158523D01*
X131548323Y-81158523D01*
X131428192Y-81052095D01*
X131357135Y-81014801D01*
X131286080Y-80977509D01*
X131130248Y-80939100D01*
X130969752Y-80939100D01*
X130904929Y-80955077D01*
X130834001Y-80951958D01*
X130776019Y-80910987D01*
X130749391Y-80845173D01*
X130762572Y-80775411D01*
X130785679Y-80743645D01*
X130807122Y-80722201D01*
X130810486Y-80718960D01*
X130851844Y-80680587D01*
X130851845Y-80680584D01*
X130856477Y-80676287D01*
X130867815Y-80661508D01*
X131181520Y-80347804D01*
X131243833Y-80313779D01*
X131270616Y-80310900D01*
X131330246Y-80310900D01*
X131330248Y-80310900D01*
X131486080Y-80272491D01*
X131628191Y-80197905D01*
X131748324Y-80091477D01*
X131839496Y-79959391D01*
X131896408Y-79809325D01*
X131915754Y-79650000D01*
X131896408Y-79490675D01*
X131839496Y-79340609D01*
X131748324Y-79208523D01*
X131736446Y-79198000D01*
X131676858Y-79145209D01*
X131639132Y-79085065D01*
X131639912Y-79014073D01*
X131656715Y-78979321D01*
X131739496Y-78859391D01*
X131780982Y-78750000D01*
X131796408Y-78709325D01*
X131815754Y-78550000D01*
X131796408Y-78390675D01*
X131739496Y-78240609D01*
X131648324Y-78108523D01*
X131648323Y-78108523D01*
X131528192Y-78002095D01*
X131419406Y-77945000D01*
X131386080Y-77927509D01*
X131279973Y-77901356D01*
X131220345Y-77886659D01*
X131158990Y-77850935D01*
X131126689Y-77787712D01*
X131124499Y-77764327D01*
X131124499Y-77484534D01*
X131124499Y-77484533D01*
X131124499Y-77484531D01*
X131109734Y-77410299D01*
X131057584Y-77332252D01*
X131036369Y-77264500D01*
X131055152Y-77196033D01*
X131057585Y-77192247D01*
X131109263Y-77114906D01*
X131123999Y-77040818D01*
X131124000Y-76856300D01*
X129976001Y-76856300D01*
X129976001Y-77040818D01*
X129990736Y-77114905D01*
X130042415Y-77192248D01*
X130063630Y-77260001D01*
X130044847Y-77328468D01*
X130042415Y-77332251D01*
X129990266Y-77410296D01*
X129975500Y-77484533D01*
X129975500Y-78234668D01*
X129990265Y-78308900D01*
X130046515Y-78393084D01*
X130102765Y-78430668D01*
X130130699Y-78449334D01*
X130204933Y-78464100D01*
X130362190Y-78464099D01*
X130430310Y-78484101D01*
X130476803Y-78537756D01*
X130487271Y-78574911D01*
X130503591Y-78709324D01*
X130560503Y-78859390D01*
X130582238Y-78890878D01*
X130643285Y-78979321D01*
X130651677Y-78991478D01*
X130723142Y-79054791D01*
X130760868Y-79114935D01*
X130760088Y-79185927D01*
X130743285Y-79220679D01*
X130660503Y-79340608D01*
X130603591Y-79490675D01*
X130584452Y-79648299D01*
X130556385Y-79713512D01*
X130548467Y-79722206D01*
X130357948Y-79912726D01*
X130295636Y-79946751D01*
X130224820Y-79941687D01*
X130167984Y-79899140D01*
X130143173Y-79832620D01*
X130151040Y-79778951D01*
X130196408Y-79659325D01*
X130215754Y-79500000D01*
X130196408Y-79340675D01*
X130139496Y-79190609D01*
X130048324Y-79058523D01*
X130046918Y-79057277D01*
X129928192Y-78952095D01*
X129844086Y-78907953D01*
X129786080Y-78877509D01*
X129630248Y-78839100D01*
X129469752Y-78839100D01*
X129329808Y-78873593D01*
X129313920Y-78877509D01*
X129171808Y-78952095D01*
X129120494Y-78997556D01*
X129091420Y-79023312D01*
X129027169Y-79053513D01*
X129007868Y-79055000D01*
X126532063Y-79055000D01*
X126517957Y-79054208D01*
X126483173Y-79050289D01*
X126483172Y-79050289D01*
X126427768Y-79060771D01*
X126423126Y-79061560D01*
X126361118Y-79070906D01*
X126356939Y-79072281D01*
X126301490Y-79101586D01*
X126297289Y-79103707D01*
X126240818Y-79130903D01*
X126237214Y-79133460D01*
X126192874Y-79177799D01*
X126189484Y-79181065D01*
X126143529Y-79223706D01*
X126132184Y-79238489D01*
X124812578Y-80558096D01*
X124750268Y-80592120D01*
X124723485Y-80595000D01*
X124526000Y-80595000D01*
X124457879Y-80574998D01*
X124411386Y-80521342D01*
X124400000Y-80469000D01*
X124400000Y-80200000D01*
X123000000Y-80200000D01*
X123000000Y-80469000D01*
X122979998Y-80537121D01*
X122926342Y-80583614D01*
X122874000Y-80595000D01*
X122688742Y-80595000D01*
X122620621Y-80574998D01*
X122574547Y-80522250D01*
X122542788Y-80454143D01*
X122533486Y-80434195D01*
X122412348Y-80261191D01*
X122263009Y-80111852D01*
X122090006Y-79990714D01*
X122065063Y-79979083D01*
X121996677Y-79947194D01*
X121943392Y-79900277D01*
X121923931Y-79831999D01*
X121944473Y-79764039D01*
X121998496Y-79717974D01*
X122049926Y-79706999D01*
X122461766Y-79706999D01*
X122461768Y-79706999D01*
X122511255Y-79697155D01*
X122536001Y-79692234D01*
X122620184Y-79635984D01*
X122676434Y-79551801D01*
X122691200Y-79477567D01*
X122691200Y-79198000D01*
X122711202Y-79129879D01*
X122764858Y-79083386D01*
X122817200Y-79072000D01*
X124254257Y-79072000D01*
X124270701Y-79073077D01*
X124300000Y-79076935D01*
X124337486Y-79072000D01*
X124337492Y-79072000D01*
X124449322Y-79057277D01*
X124588468Y-78999641D01*
X124588467Y-78999640D01*
X124607713Y-78991669D01*
X124612120Y-78983244D01*
X124626081Y-78970777D01*
X124677954Y-78930976D01*
X124677955Y-78930974D01*
X124689312Y-78922260D01*
X124689312Y-78922259D01*
X124707955Y-78907955D01*
X124725952Y-78884498D01*
X124736805Y-78872123D01*
X124900026Y-78708904D01*
X124962340Y-78674879D01*
X124989122Y-78672000D01*
X127636663Y-78672000D01*
X127695216Y-78686432D01*
X127763920Y-78722491D01*
X127919752Y-78760900D01*
X127919754Y-78760900D01*
X128080246Y-78760900D01*
X128080248Y-78760900D01*
X128236080Y-78722491D01*
X128378191Y-78647905D01*
X128498324Y-78541477D01*
X128589496Y-78409391D01*
X128646408Y-78259325D01*
X128665754Y-78100000D01*
X128646408Y-77940675D01*
X128589496Y-77790609D01*
X128498324Y-77658523D01*
X128489520Y-77650723D01*
X128378192Y-77552095D01*
X128293922Y-77507867D01*
X128236080Y-77477509D01*
X128080248Y-77439100D01*
X127919752Y-77439100D01*
X127815863Y-77464706D01*
X127763919Y-77477509D01*
X127750535Y-77484534D01*
X127695216Y-77513567D01*
X127636663Y-77528000D01*
X124745743Y-77528000D01*
X124729298Y-77526922D01*
X124726971Y-77526615D01*
X124699999Y-77523064D01*
X124662518Y-77527999D01*
X124662502Y-77528000D01*
X124536647Y-77544569D01*
X124523534Y-77553966D01*
X124411531Y-77600359D01*
X124322045Y-77669024D01*
X124320934Y-77669867D01*
X124292048Y-77692039D01*
X124274052Y-77715491D01*
X124263189Y-77727878D01*
X124099975Y-77891095D01*
X124037663Y-77925120D01*
X124010879Y-77928000D01*
X122817199Y-77928000D01*
X122749078Y-77907998D01*
X122702585Y-77854342D01*
X122691199Y-77802000D01*
X122691199Y-77522431D01*
X122676434Y-77448199D01*
X122620184Y-77364015D01*
X122536001Y-77307766D01*
X122535996Y-77307765D01*
X122461767Y-77293000D01*
X122461766Y-77293000D01*
X122182200Y-77293000D01*
X122114079Y-77272998D01*
X122067586Y-77219342D01*
X122056200Y-77167000D01*
X122056200Y-76475300D01*
X129976000Y-76475300D01*
X130359500Y-76475300D01*
X130359500Y-76061800D01*
X130740499Y-76061800D01*
X130740500Y-76475300D01*
X131123999Y-76475300D01*
X131123998Y-76290781D01*
X131109263Y-76216694D01*
X131053123Y-76132675D01*
X130969106Y-76076536D01*
X130895019Y-76061800D01*
X130740499Y-76061800D01*
X130359500Y-76061800D01*
X130204981Y-76061800D01*
X130130894Y-76076536D01*
X130046875Y-76132676D01*
X129990736Y-76216693D01*
X129976000Y-76290781D01*
X129976000Y-76475300D01*
X122056200Y-76475300D01*
X122056200Y-75870500D01*
X132437960Y-75870500D01*
X132442760Y-75897723D01*
X132512570Y-76059563D01*
X132617827Y-76200949D01*
X132752848Y-76314245D01*
X132910361Y-76393351D01*
X133081872Y-76434000D01*
X133529500Y-76434000D01*
X133529500Y-75930000D01*
X133910500Y-75930000D01*
X133910500Y-76444809D01*
X133931524Y-76483311D01*
X133926459Y-76554126D01*
X133885108Y-76610056D01*
X133791716Y-76681719D01*
X133695464Y-76807157D01*
X133634955Y-76953238D01*
X133614318Y-77110000D01*
X133634955Y-77266761D01*
X133695464Y-77412842D01*
X133791717Y-77538282D01*
X133917157Y-77634535D01*
X133917158Y-77634535D01*
X133917159Y-77634536D01*
X134063238Y-77695044D01*
X134180639Y-77710500D01*
X134184761Y-77710500D01*
X134255239Y-77710500D01*
X134259361Y-77710500D01*
X134376762Y-77695044D01*
X134522841Y-77634536D01*
X134648282Y-77538282D01*
X134744536Y-77412841D01*
X134805044Y-77266762D01*
X134825682Y-77110000D01*
X134805044Y-76953238D01*
X134744536Y-76807159D01*
X134744535Y-76807158D01*
X134744535Y-76807157D01*
X134648282Y-76681718D01*
X134532590Y-76592944D01*
X134490723Y-76535606D01*
X134486501Y-76464735D01*
X134521265Y-76402832D01*
X134566201Y-76374580D01*
X134610699Y-76358384D01*
X134757962Y-76261529D01*
X134878918Y-76133323D01*
X134967047Y-75980678D01*
X135000033Y-75870500D01*
X134334885Y-75870500D01*
X134350240Y-75860240D01*
X134405495Y-75777545D01*
X134424898Y-75680000D01*
X134405495Y-75582455D01*
X134350240Y-75499760D01*
X134334885Y-75489500D01*
X135002040Y-75489500D01*
X135002040Y-75489499D01*
X136665829Y-75489499D01*
X136665830Y-75489500D01*
X137267927Y-75489500D01*
X137226799Y-75543962D01*
X137196105Y-75651840D01*
X137206454Y-75763521D01*
X137256448Y-75863922D01*
X137263664Y-75870500D01*
X136666586Y-75870500D01*
X136701975Y-75997960D01*
X136788985Y-76162080D01*
X136909239Y-76303654D01*
X137057120Y-76416070D01*
X137225711Y-76494068D01*
X137407121Y-76534000D01*
X137709500Y-76534000D01*
X137709500Y-75980000D01*
X138090500Y-75980000D01*
X138090500Y-76534000D01*
X138342890Y-76534000D01*
X138349703Y-76533630D01*
X138484666Y-76518952D01*
X138660698Y-76459640D01*
X138819865Y-76363873D01*
X138954726Y-76236126D01*
X139058969Y-76082379D01*
X139127723Y-75909817D01*
X139134170Y-75870500D01*
X138532073Y-75870500D01*
X138573201Y-75816038D01*
X138603895Y-75708160D01*
X138593546Y-75596479D01*
X138543552Y-75496078D01*
X138536336Y-75489500D01*
X139133414Y-75489500D01*
X139133413Y-75489499D01*
X139098024Y-75362039D01*
X139011014Y-75197919D01*
X138890760Y-75056345D01*
X138742879Y-74943929D01*
X138574288Y-74865931D01*
X138392879Y-74826000D01*
X138090500Y-74826000D01*
X138090500Y-75380000D01*
X137709500Y-75380000D01*
X137709500Y-74826000D01*
X137457110Y-74826000D01*
X137450296Y-74826369D01*
X137315333Y-74841047D01*
X137139301Y-74900359D01*
X136980134Y-74996126D01*
X136845273Y-75123873D01*
X136741030Y-75277620D01*
X136672276Y-75450182D01*
X136665829Y-75489499D01*
X135002040Y-75489499D01*
X134997239Y-75462276D01*
X134927429Y-75300436D01*
X134822172Y-75159050D01*
X134687151Y-75045754D01*
X134529638Y-74966648D01*
X134358128Y-74926000D01*
X133910500Y-74926000D01*
X133910500Y-75430000D01*
X133529500Y-75430000D01*
X133529500Y-74926000D01*
X133129754Y-74926000D01*
X133122440Y-74926425D01*
X132994930Y-74941330D01*
X132829303Y-75001613D01*
X132682037Y-75098470D01*
X132561081Y-75226676D01*
X132472952Y-75379321D01*
X132439967Y-75489500D01*
X133105115Y-75489500D01*
X133089760Y-75499760D01*
X133034505Y-75582455D01*
X133015102Y-75680000D01*
X133034505Y-75777545D01*
X133089760Y-75860240D01*
X133105115Y-75870500D01*
X132437960Y-75870500D01*
X122056200Y-75870500D01*
X122056200Y-74829949D01*
X122057278Y-74813503D01*
X122061136Y-74784200D01*
X122041477Y-74634878D01*
X121983841Y-74495732D01*
X121915176Y-74406246D01*
X121923663Y-74415922D01*
X121915176Y-74406245D01*
X121892156Y-74376245D01*
X121868705Y-74358251D01*
X121856314Y-74347384D01*
X121576696Y-74067766D01*
X123145787Y-74067766D01*
X123175413Y-74337015D01*
X123199978Y-74430976D01*
X123243928Y-74599088D01*
X123297720Y-74725671D01*
X123346749Y-74841047D01*
X123349870Y-74848390D01*
X123490982Y-75079610D01*
X123664255Y-75287820D01*
X123664256Y-75287821D01*
X123664258Y-75287823D01*
X123865993Y-75468578D01*
X123865995Y-75468579D01*
X123865998Y-75468582D01*
X124091910Y-75618044D01*
X124224074Y-75680000D01*
X124337171Y-75733018D01*
X124337173Y-75733018D01*
X124337176Y-75733020D01*
X124596569Y-75811060D01*
X124596572Y-75811060D01*
X124596574Y-75811061D01*
X124864558Y-75850500D01*
X124864561Y-75850500D01*
X125065330Y-75850500D01*
X125067631Y-75850500D01*
X125270156Y-75835677D01*
X125534553Y-75776780D01*
X125787558Y-75680014D01*
X126023777Y-75547441D01*
X126238177Y-75381888D01*
X126426186Y-75186881D01*
X126583799Y-74966579D01*
X126707656Y-74725675D01*
X126795118Y-74469305D01*
X126844319Y-74202933D01*
X126854212Y-73932235D01*
X126824586Y-73662982D01*
X126756072Y-73400912D01*
X126650130Y-73151610D01*
X126509018Y-72920390D01*
X126335745Y-72712180D01*
X126335741Y-72712176D01*
X126134006Y-72531421D01*
X126134003Y-72531419D01*
X126134002Y-72531418D01*
X125908090Y-72381956D01*
X125882046Y-72369747D01*
X125662828Y-72266981D01*
X125403425Y-72188938D01*
X125135442Y-72149500D01*
X125135439Y-72149500D01*
X124932369Y-72149500D01*
X124930099Y-72149666D01*
X124930075Y-72149667D01*
X124729839Y-72164323D01*
X124465449Y-72223219D01*
X124212441Y-72319985D01*
X123976225Y-72452557D01*
X123761820Y-72618114D01*
X123573815Y-72813117D01*
X123416200Y-73033422D01*
X123292342Y-73274328D01*
X123204882Y-73530693D01*
X123155681Y-73797065D01*
X123145787Y-74067766D01*
X121576696Y-74067766D01*
X116463580Y-68954650D01*
X116434863Y-68910234D01*
X116412203Y-68850484D01*
X116389496Y-68790609D01*
X116321478Y-68692068D01*
X119104200Y-68692068D01*
X119118965Y-68766300D01*
X119175215Y-68850484D01*
X119231465Y-68888068D01*
X119259399Y-68906734D01*
X119333633Y-68921500D01*
X121034766Y-68921499D01*
X121034768Y-68921499D01*
X121091404Y-68910234D01*
X121109001Y-68906734D01*
X121193184Y-68850484D01*
X121249434Y-68766301D01*
X121264200Y-68692067D01*
X121264200Y-68602999D01*
X121284202Y-68534879D01*
X121337858Y-68488386D01*
X121390200Y-68477000D01*
X122231276Y-68477000D01*
X122238884Y-68477230D01*
X122298713Y-68480849D01*
X122298713Y-68480848D01*
X122298715Y-68480849D01*
X122357683Y-68470041D01*
X122365196Y-68468899D01*
X122397816Y-68464938D01*
X122424710Y-68461673D01*
X122433970Y-68458160D01*
X122455937Y-68452036D01*
X122465683Y-68450251D01*
X122520346Y-68425648D01*
X122527351Y-68422746D01*
X122583427Y-68401480D01*
X122591576Y-68395854D01*
X122611448Y-68384645D01*
X122620475Y-68380584D01*
X122667686Y-68343596D01*
X122673774Y-68339116D01*
X122723127Y-68305052D01*
X122762884Y-68260174D01*
X122768067Y-68254667D01*
X122931333Y-68091401D01*
X122993643Y-68057378D01*
X123020426Y-68054499D01*
X124459268Y-68054499D01*
X124508755Y-68044655D01*
X124533501Y-68039734D01*
X124617684Y-67983484D01*
X124673934Y-67899301D01*
X124680627Y-67865654D01*
X127929700Y-67865654D01*
X127929874Y-67867982D01*
X127929875Y-67867996D01*
X127944431Y-68062228D01*
X128002946Y-68318599D01*
X128099017Y-68563384D01*
X128230496Y-68791113D01*
X128230498Y-68791116D01*
X128230499Y-68791117D01*
X128394454Y-68996710D01*
X128505775Y-69100000D01*
X128587223Y-69175573D01*
X128710066Y-69259325D01*
X128804490Y-69323702D01*
X128927314Y-69382851D01*
X129041411Y-69437798D01*
X129097452Y-69455084D01*
X129292692Y-69515308D01*
X129552718Y-69554500D01*
X129552720Y-69554500D01*
X129815680Y-69554500D01*
X129815682Y-69554500D01*
X130075708Y-69515308D01*
X130326988Y-69437798D01*
X130563910Y-69323702D01*
X130781180Y-69175570D01*
X130973946Y-68996710D01*
X131137901Y-68791117D01*
X131269383Y-68563384D01*
X131365454Y-68318598D01*
X131423969Y-68062228D01*
X131438700Y-67865654D01*
X131438700Y-67863272D01*
X134130200Y-67863272D01*
X134130375Y-67867966D01*
X134144928Y-68062153D01*
X134203426Y-68318451D01*
X134299470Y-68563166D01*
X134430912Y-68790830D01*
X134594822Y-68996366D01*
X134787534Y-69175177D01*
X135004743Y-69323269D01*
X135241594Y-69437331D01*
X135492800Y-69514816D01*
X135693700Y-69545097D01*
X135693700Y-68520527D01*
X135727569Y-68534556D01*
X135884200Y-68555177D01*
X136040831Y-68534556D01*
X136074700Y-68520527D01*
X136074700Y-69545097D01*
X136275599Y-69514816D01*
X136526805Y-69437331D01*
X136763656Y-69323269D01*
X136980865Y-69175177D01*
X137173577Y-68996366D01*
X137337487Y-68790830D01*
X137468929Y-68563166D01*
X137564973Y-68318451D01*
X137623471Y-68062153D01*
X137638024Y-67867966D01*
X137638200Y-67863272D01*
X137638200Y-66990500D01*
X136484200Y-66990500D01*
X136484200Y-66609500D01*
X137638200Y-66609500D01*
X137638200Y-65736728D01*
X137638024Y-65732033D01*
X137623471Y-65537846D01*
X137564973Y-65281548D01*
X137468929Y-65036833D01*
X137337487Y-64809169D01*
X137173577Y-64603633D01*
X136980865Y-64424822D01*
X136763656Y-64276730D01*
X136526805Y-64162668D01*
X136275599Y-64085183D01*
X136074700Y-64054901D01*
X136074700Y-65079472D01*
X136040831Y-65065444D01*
X135884200Y-65044823D01*
X135727569Y-65065444D01*
X135693700Y-65079472D01*
X135693700Y-64054901D01*
X135492800Y-64085183D01*
X135241594Y-64162668D01*
X135004743Y-64276730D01*
X134787534Y-64424822D01*
X134594822Y-64603633D01*
X134430912Y-64809169D01*
X134299470Y-65036833D01*
X134203426Y-65281548D01*
X134144928Y-65537846D01*
X134130375Y-65732033D01*
X134130200Y-65736728D01*
X134130200Y-66609500D01*
X135284200Y-66609500D01*
X135284200Y-66990500D01*
X134130200Y-66990500D01*
X134130200Y-67863272D01*
X131438700Y-67863272D01*
X131438700Y-65734346D01*
X131423969Y-65537772D01*
X131365454Y-65281402D01*
X131269383Y-65036616D01*
X131166957Y-64859209D01*
X131137903Y-64808886D01*
X131128476Y-64797065D01*
X130973946Y-64603290D01*
X130806272Y-64447712D01*
X130781176Y-64424426D01*
X130563910Y-64276298D01*
X130326988Y-64162201D01*
X130145307Y-64106160D01*
X130075708Y-64084692D01*
X129815682Y-64045500D01*
X129552718Y-64045500D01*
X129292692Y-64084692D01*
X129292688Y-64084693D01*
X129292689Y-64084693D01*
X129041411Y-64162201D01*
X128804489Y-64276298D01*
X128587223Y-64424426D01*
X128481427Y-64522590D01*
X128394454Y-64603290D01*
X128301395Y-64719981D01*
X128230496Y-64808886D01*
X128099017Y-65036615D01*
X128002946Y-65281400D01*
X127944431Y-65537771D01*
X127929875Y-65732003D01*
X127929874Y-65732018D01*
X127929700Y-65734346D01*
X127929700Y-67865654D01*
X124680627Y-67865654D01*
X124688700Y-67825067D01*
X124688699Y-65874934D01*
X124688699Y-65874933D01*
X124688699Y-65874931D01*
X124673934Y-65800699D01*
X124617684Y-65716515D01*
X124533501Y-65660266D01*
X124533496Y-65660265D01*
X124459267Y-65645500D01*
X124459266Y-65645500D01*
X124119340Y-65645500D01*
X124051219Y-65625498D01*
X124004726Y-65571842D01*
X123994622Y-65501568D01*
X124024116Y-65436988D01*
X124063178Y-65406709D01*
X124120740Y-65378046D01*
X124298802Y-65243579D01*
X124449129Y-65078678D01*
X124566593Y-64888969D01*
X124647198Y-64680902D01*
X124673444Y-64540500D01*
X123700199Y-64540500D01*
X123727759Y-64462953D01*
X123738077Y-64312114D01*
X123707316Y-64164085D01*
X123704940Y-64159500D01*
X124673444Y-64159500D01*
X124647198Y-64019097D01*
X124566593Y-63811030D01*
X124449129Y-63621321D01*
X124298802Y-63456420D01*
X124120742Y-63321954D01*
X123920996Y-63222493D01*
X123706379Y-63161429D01*
X123542780Y-63146269D01*
X123536951Y-63146000D01*
X123374700Y-63146000D01*
X123374700Y-63832194D01*
X123259796Y-63800000D01*
X123146578Y-63800000D01*
X123034417Y-63815416D01*
X122993700Y-63833101D01*
X122993700Y-63146000D01*
X122831449Y-63146000D01*
X122825619Y-63146269D01*
X122662020Y-63161429D01*
X122447403Y-63222493D01*
X122247657Y-63321954D01*
X122069597Y-63456420D01*
X121919270Y-63621321D01*
X121801806Y-63811030D01*
X121721201Y-64019097D01*
X121694956Y-64159500D01*
X122668201Y-64159500D01*
X122640641Y-64237047D01*
X122630323Y-64387886D01*
X122661084Y-64535915D01*
X122663460Y-64540500D01*
X121694956Y-64540500D01*
X121721201Y-64680902D01*
X121801806Y-64888969D01*
X121919270Y-65078678D01*
X122069597Y-65243579D01*
X122247658Y-65378046D01*
X122305223Y-65406709D01*
X122357287Y-65454977D01*
X122374990Y-65523731D01*
X122352711Y-65591142D01*
X122297525Y-65635807D01*
X122249061Y-65645500D01*
X121909131Y-65645500D01*
X121834899Y-65660265D01*
X121750715Y-65716515D01*
X121694466Y-65800698D01*
X121694465Y-65800699D01*
X121694466Y-65800699D01*
X121679700Y-65874933D01*
X121679700Y-66468582D01*
X121679701Y-66953000D01*
X121659699Y-67021121D01*
X121606043Y-67067614D01*
X121553701Y-67079000D01*
X121390199Y-67079000D01*
X121322078Y-67058998D01*
X121275585Y-67005342D01*
X121264199Y-66953000D01*
X121264199Y-66863931D01*
X121249434Y-66789699D01*
X121193184Y-66705515D01*
X121109001Y-66649266D01*
X121108996Y-66649265D01*
X121034767Y-66634500D01*
X121034766Y-66634500D01*
X119333631Y-66634500D01*
X119259399Y-66649265D01*
X119175215Y-66705515D01*
X119118966Y-66789698D01*
X119104200Y-66863933D01*
X119104200Y-68692068D01*
X116321478Y-68692068D01*
X116298324Y-68658523D01*
X116298323Y-68658523D01*
X116178192Y-68552095D01*
X116056804Y-68488386D01*
X116036080Y-68477509D01*
X115880248Y-68439100D01*
X115719752Y-68439100D01*
X115594207Y-68470044D01*
X115563920Y-68477509D01*
X115421807Y-68552095D01*
X115301675Y-68658523D01*
X115210503Y-68790609D01*
X115153591Y-68940675D01*
X115134246Y-69100000D01*
X115153591Y-69259324D01*
X115210503Y-69409390D01*
X115301675Y-69541476D01*
X115421810Y-69647906D01*
X115563918Y-69722491D01*
X115595692Y-69730322D01*
X115654636Y-69763566D01*
X120875294Y-74984224D01*
X120909320Y-75046536D01*
X120912199Y-75073319D01*
X120912200Y-75562507D01*
X120912200Y-77167000D01*
X120892198Y-77235121D01*
X120838542Y-77281614D01*
X120786200Y-77293000D01*
X120506631Y-77293000D01*
X120432399Y-77307765D01*
X120348215Y-77364015D01*
X120291966Y-77448198D01*
X120277200Y-77522433D01*
X120277200Y-79477568D01*
X120291965Y-79551800D01*
X120348215Y-79635984D01*
X120404465Y-79673568D01*
X120432399Y-79692234D01*
X120506633Y-79707000D01*
X120918474Y-79706999D01*
X120986592Y-79727001D01*
X121033086Y-79780656D01*
X121043190Y-79850930D01*
X121013697Y-79915511D01*
X120971723Y-79947193D01*
X120878396Y-79990712D01*
X120705388Y-80111854D01*
X120556054Y-80261188D01*
X120434914Y-80434194D01*
X120393853Y-80522250D01*
X120346935Y-80575535D01*
X120279658Y-80595000D01*
X120020715Y-80595000D01*
X119952594Y-80574998D01*
X119931620Y-80558095D01*
X119454005Y-80080480D01*
X119419979Y-80018168D01*
X119417100Y-79991385D01*
X119417100Y-79104162D01*
X119417892Y-79090055D01*
X119419370Y-79076934D01*
X119421811Y-79055273D01*
X119411322Y-78999841D01*
X119410539Y-78995230D01*
X119410002Y-78991669D01*
X119402133Y-78939453D01*
X119402132Y-78939452D01*
X119401191Y-78933204D01*
X119399826Y-78929057D01*
X119396872Y-78923468D01*
X119396872Y-78923466D01*
X119370503Y-78873574D01*
X119368409Y-78869426D01*
X119343929Y-78818591D01*
X119343928Y-78818590D01*
X119341189Y-78812902D01*
X119338654Y-78809329D01*
X119334190Y-78804865D01*
X119294287Y-78764962D01*
X119291045Y-78761596D01*
X119248394Y-78715629D01*
X119233607Y-78704282D01*
X117737337Y-77208012D01*
X117727922Y-77197478D01*
X117723750Y-77192247D01*
X117706095Y-77170108D01*
X117659518Y-77138352D01*
X117655683Y-77135630D01*
X117605214Y-77098383D01*
X117601285Y-77096399D01*
X117541370Y-77077918D01*
X117536895Y-77076445D01*
X117477720Y-77055738D01*
X117473372Y-77055000D01*
X117467073Y-77055000D01*
X117410672Y-77055000D01*
X117405961Y-77054912D01*
X117343305Y-77052567D01*
X117324831Y-77055000D01*
X114882746Y-77055000D01*
X114814625Y-77034998D01*
X114768132Y-76981342D01*
X114758028Y-76911068D01*
X114785346Y-76849067D01*
X114811278Y-76817469D01*
X114905667Y-76640880D01*
X114963792Y-76449269D01*
X114983418Y-76250000D01*
X114974759Y-76162080D01*
X114963792Y-76050730D01*
X114909119Y-75870500D01*
X114905667Y-75859120D01*
X114811278Y-75682531D01*
X114740658Y-75596479D01*
X114684252Y-75527747D01*
X114582819Y-75444505D01*
X114529469Y-75400722D01*
X114352880Y-75306333D01*
X114352879Y-75306332D01*
X114352878Y-75306332D01*
X114161269Y-75248207D01*
X114015014Y-75233803D01*
X114015006Y-75233802D01*
X114011934Y-75233500D01*
X113658066Y-75233500D01*
X113654994Y-75233802D01*
X113654985Y-75233803D01*
X113508730Y-75248207D01*
X113317121Y-75306332D01*
X113140532Y-75400721D01*
X112985747Y-75527747D01*
X112858721Y-75682532D01*
X112764332Y-75859121D01*
X112706207Y-76050730D01*
X112686581Y-76250000D01*
X112706207Y-76449269D01*
X112764332Y-76640878D01*
X112764333Y-76640880D01*
X112858722Y-76817469D01*
X112916813Y-76888253D01*
X112936766Y-76912567D01*
X112964519Y-76977915D01*
X112952537Y-77047893D01*
X112904624Y-77100284D01*
X112839366Y-77118500D01*
X112615213Y-77118500D01*
X112547092Y-77098498D01*
X112526118Y-77081595D01*
X112398981Y-76954458D01*
X112364955Y-76892146D01*
X112367501Y-76828790D01*
X112406792Y-76699269D01*
X112426418Y-76500000D01*
X112406792Y-76300731D01*
X112348667Y-76109120D01*
X112254278Y-75932531D01*
X112190764Y-75855139D01*
X112127252Y-75777747D01*
X112011230Y-75682532D01*
X111972469Y-75650722D01*
X111795880Y-75556333D01*
X111795879Y-75556332D01*
X111795878Y-75556332D01*
X111604269Y-75498207D01*
X111404999Y-75478581D01*
X111205730Y-75498207D01*
X111014121Y-75556332D01*
X110837532Y-75650721D01*
X110682747Y-75777747D01*
X110555721Y-75932532D01*
X110461332Y-76109121D01*
X110403207Y-76300730D01*
X110383581Y-76500000D01*
X110403207Y-76699269D01*
X110448649Y-76849067D01*
X110461333Y-76890880D01*
X110555722Y-77067469D01*
X110594652Y-77114906D01*
X110682747Y-77222252D01*
X110734228Y-77264500D01*
X110837531Y-77349278D01*
X110911618Y-77388878D01*
X110962266Y-77438631D01*
X110977975Y-77507867D01*
X110953759Y-77574606D01*
X110911619Y-77611120D01*
X110837531Y-77650722D01*
X110837529Y-77650723D01*
X110837530Y-77650723D01*
X110682747Y-77777747D01*
X110555721Y-77932532D01*
X110461332Y-78109121D01*
X110403207Y-78300730D01*
X110383581Y-78499999D01*
X110403207Y-78699269D01*
X110457412Y-78877955D01*
X110461333Y-78890880D01*
X110555722Y-79067469D01*
X110585835Y-79104162D01*
X110682747Y-79222252D01*
X110724388Y-79256425D01*
X110837531Y-79349278D01*
X111014120Y-79443667D01*
X111076214Y-79462503D01*
X111205730Y-79501792D01*
X111404999Y-79521418D01*
X111404999Y-79521417D01*
X111405000Y-79521418D01*
X111604269Y-79501792D01*
X111640917Y-79490675D01*
X111733787Y-79462503D01*
X111804780Y-79461869D01*
X111859458Y-79493982D01*
X112498020Y-80132544D01*
X112514408Y-80152724D01*
X112520438Y-80161954D01*
X112520439Y-80161955D01*
X112520440Y-80161956D01*
X112545818Y-80181708D01*
X112557523Y-80192046D01*
X112557591Y-80192114D01*
X112574782Y-80204388D01*
X112578958Y-80207502D01*
X112627237Y-80245079D01*
X112627451Y-80245189D01*
X112635129Y-80247474D01*
X112635130Y-80247475D01*
X112686133Y-80262658D01*
X112690997Y-80264216D01*
X112741339Y-80281500D01*
X112741341Y-80281500D01*
X112748920Y-80284102D01*
X112749151Y-80284136D01*
X112757158Y-80283804D01*
X112757159Y-80283805D01*
X112810273Y-80281607D01*
X112815480Y-80281500D01*
X113083717Y-80281500D01*
X113151838Y-80301502D01*
X113172812Y-80318404D01*
X113642601Y-80788192D01*
X113561900Y-80825048D01*
X113453239Y-80919202D01*
X113375507Y-81040156D01*
X113371022Y-81055429D01*
X112903038Y-80587445D01*
X112903036Y-80587445D01*
X112859038Y-80645708D01*
X112764617Y-80835333D01*
X112706647Y-81039076D01*
X112687102Y-81249999D01*
X112706647Y-81460923D01*
X112764617Y-81664666D01*
X112859039Y-81854292D01*
X112903037Y-81912553D01*
X113371021Y-81444568D01*
X113375507Y-81459844D01*
X113453239Y-81580798D01*
X113561900Y-81674952D01*
X113642600Y-81711806D01*
X113171109Y-82183297D01*
X113323336Y-82277554D01*
X113520863Y-82354076D01*
X113660319Y-82380145D01*
X113723605Y-82412324D01*
X113759447Y-82473609D01*
X113756466Y-82544543D01*
X113715609Y-82602605D01*
X113649846Y-82629360D01*
X113637167Y-82630000D01*
X113285500Y-82630000D01*
X113285500Y-83400000D01*
X112904500Y-83400000D01*
X112904500Y-82630000D01*
X112278789Y-82630000D01*
X112273161Y-82630252D01*
X112105313Y-82645359D01*
X111884949Y-82706176D01*
X111678988Y-82805361D01*
X111494039Y-82939736D01*
X111336060Y-83104969D01*
X111210124Y-83295753D01*
X111208449Y-83299673D01*
X111163282Y-83354449D01*
X111095670Y-83376110D01*
X111027081Y-83357780D01*
X110981635Y-83309856D01*
X110921190Y-83197531D01*
X110778660Y-83018803D01*
X110606502Y-82868394D01*
X110410263Y-82751147D01*
X110196229Y-82670818D01*
X109971303Y-82630000D01*
X109285500Y-82630000D01*
X109285500Y-83400000D01*
X108904500Y-83400000D01*
X108904500Y-82630000D01*
X108278789Y-82630000D01*
X108273161Y-82630252D01*
X108105313Y-82645359D01*
X107884949Y-82706176D01*
X107678988Y-82805361D01*
X107494039Y-82939736D01*
X107336060Y-83104969D01*
X107210124Y-83295753D01*
X107120276Y-83505960D01*
X107073820Y-83709500D01*
X100329500Y-83709500D01*
X100329500Y-81000000D01*
X110384083Y-81000000D01*
X110403700Y-81199171D01*
X110461796Y-81390688D01*
X110556136Y-81567187D01*
X110561665Y-81573924D01*
X111018550Y-81117039D01*
X111019835Y-81125148D01*
X111077359Y-81238045D01*
X111166955Y-81327641D01*
X111279852Y-81385165D01*
X111287958Y-81386448D01*
X110831074Y-81843332D01*
X110837809Y-81848861D01*
X111014313Y-81943203D01*
X111205828Y-82001299D01*
X111404999Y-82020916D01*
X111604171Y-82001299D01*
X111795686Y-81943203D01*
X111972188Y-81848862D01*
X111978924Y-81843332D01*
X111978924Y-81843331D01*
X111522041Y-81386448D01*
X111530148Y-81385165D01*
X111643045Y-81327641D01*
X111732641Y-81238045D01*
X111790165Y-81125148D01*
X111791448Y-81117041D01*
X112248331Y-81573924D01*
X112248332Y-81573924D01*
X112253862Y-81567188D01*
X112348203Y-81390686D01*
X112406299Y-81199171D01*
X112425916Y-81000000D01*
X112406299Y-80800828D01*
X112348203Y-80609313D01*
X112253861Y-80432809D01*
X112248332Y-80426074D01*
X111791448Y-80882957D01*
X111790165Y-80874852D01*
X111732641Y-80761955D01*
X111643045Y-80672359D01*
X111530148Y-80614835D01*
X111522039Y-80613550D01*
X111978924Y-80156666D01*
X111972187Y-80151136D01*
X111795688Y-80056796D01*
X111604171Y-79998700D01*
X111404999Y-79979083D01*
X111205828Y-79998700D01*
X111014311Y-80056796D01*
X110837812Y-80151136D01*
X110831073Y-80156666D01*
X111287958Y-80613551D01*
X111279852Y-80614835D01*
X111166955Y-80672359D01*
X111077359Y-80761955D01*
X111019835Y-80874852D01*
X111018551Y-80882959D01*
X110561666Y-80426074D01*
X110556136Y-80432812D01*
X110461796Y-80609311D01*
X110403700Y-80800828D01*
X110384083Y-81000000D01*
X100329500Y-81000000D01*
X100329500Y-73300000D01*
X105129246Y-73300000D01*
X105148591Y-73459324D01*
X105205503Y-73609390D01*
X105296675Y-73741476D01*
X105416810Y-73847906D01*
X105558918Y-73922490D01*
X105558920Y-73922491D01*
X105584154Y-73928710D01*
X105590692Y-73930322D01*
X105649636Y-73963566D01*
X106058191Y-74372122D01*
X106069057Y-74384513D01*
X106085733Y-74406246D01*
X106087045Y-74407955D01*
X106117040Y-74430971D01*
X106117045Y-74430976D01*
X106166997Y-74469305D01*
X106182111Y-74480902D01*
X106206530Y-74499640D01*
X106206531Y-74499640D01*
X106206532Y-74499641D01*
X106345678Y-74557277D01*
X106457508Y-74572000D01*
X106457514Y-74572000D01*
X106495000Y-74576935D01*
X106524298Y-74573077D01*
X106540743Y-74572000D01*
X110421891Y-74572000D01*
X110490012Y-74592002D01*
X110510986Y-74608904D01*
X110715586Y-74813503D01*
X110861767Y-74959684D01*
X110924699Y-75001734D01*
X110998933Y-75016500D01*
X111811069Y-75016501D01*
X111885301Y-75001735D01*
X111948233Y-74959685D01*
X112364684Y-74543233D01*
X112406734Y-74480301D01*
X112421500Y-74406067D01*
X112421501Y-73593931D01*
X112406735Y-73519699D01*
X112364685Y-73456767D01*
X112157918Y-73250000D01*
X111948235Y-73040317D01*
X111885301Y-72998266D01*
X111811065Y-72983499D01*
X110998932Y-72983499D01*
X110998931Y-72983499D01*
X110963203Y-72990606D01*
X110924698Y-72998265D01*
X110861765Y-73040316D01*
X110510987Y-73391095D01*
X110448675Y-73425121D01*
X110421892Y-73428000D01*
X106784122Y-73428000D01*
X106716001Y-73407998D01*
X106695027Y-73391096D01*
X106458579Y-73154649D01*
X106429863Y-73110236D01*
X106384496Y-72990609D01*
X106293324Y-72858523D01*
X106267879Y-72835981D01*
X106173192Y-72752095D01*
X106097132Y-72712176D01*
X106031080Y-72677509D01*
X105875248Y-72639100D01*
X105714752Y-72639100D01*
X105558920Y-72677508D01*
X105558920Y-72677509D01*
X105416807Y-72752095D01*
X105296675Y-72858523D01*
X105205503Y-72990609D01*
X105148591Y-73140675D01*
X105129246Y-73300000D01*
X100329500Y-73300000D01*
X100329500Y-70909500D01*
X107073820Y-70909500D01*
X107974127Y-70909500D01*
X107939300Y-71028111D01*
X107939300Y-71171889D01*
X107974127Y-71290500D01*
X107077207Y-71290500D01*
X107089838Y-71383746D01*
X107160478Y-71601156D01*
X107268809Y-71802468D01*
X107411339Y-71981196D01*
X107583497Y-72131605D01*
X107779736Y-72248852D01*
X107993770Y-72329181D01*
X108218697Y-72370000D01*
X108904500Y-72370000D01*
X108904500Y-71600000D01*
X109285500Y-71600000D01*
X109285500Y-72370000D01*
X109911211Y-72370000D01*
X109916838Y-72369747D01*
X110084686Y-72354640D01*
X110305050Y-72293823D01*
X110511011Y-72194638D01*
X110695960Y-72060263D01*
X110853939Y-71895030D01*
X110979873Y-71704249D01*
X110981546Y-71700336D01*
X110986115Y-71694793D01*
X110986123Y-71694782D01*
X110986124Y-71694782D01*
X111026708Y-71645556D01*
X111094318Y-71623889D01*
X111162909Y-71642214D01*
X111208364Y-71690143D01*
X111268809Y-71802468D01*
X111411339Y-71981196D01*
X111583497Y-72131605D01*
X111779736Y-72248852D01*
X111993770Y-72329181D01*
X112218697Y-72370000D01*
X112833163Y-72370000D01*
X112901284Y-72390002D01*
X112947777Y-72443658D01*
X112957881Y-72513932D01*
X112928387Y-72578512D01*
X112868661Y-72616896D01*
X112857742Y-72619579D01*
X112846894Y-72621736D01*
X112762875Y-72677876D01*
X112706736Y-72761893D01*
X112692000Y-72835981D01*
X112692000Y-73559500D01*
X113369827Y-73559500D01*
X113335000Y-73678111D01*
X113335000Y-73821889D01*
X113369827Y-73940500D01*
X112692001Y-73940500D01*
X112692001Y-74664018D01*
X112706736Y-74738105D01*
X112762876Y-74822124D01*
X112846893Y-74878263D01*
X112920981Y-74892999D01*
X113644500Y-74892999D01*
X113644500Y-74212674D01*
X113692685Y-74234680D01*
X113799237Y-74250000D01*
X113870763Y-74250000D01*
X113977315Y-74234680D01*
X114025500Y-74212674D01*
X114025500Y-74892999D01*
X114749018Y-74892999D01*
X114823105Y-74878263D01*
X114907124Y-74822123D01*
X114963263Y-74738106D01*
X114978000Y-74664018D01*
X114978000Y-73940500D01*
X114300173Y-73940500D01*
X114335000Y-73821889D01*
X114335000Y-73678111D01*
X114300173Y-73559500D01*
X114977999Y-73559500D01*
X114977999Y-72835981D01*
X114963263Y-72761894D01*
X114907123Y-72677875D01*
X114823106Y-72621736D01*
X114749019Y-72607000D01*
X114086347Y-72607000D01*
X114018226Y-72586998D01*
X113971733Y-72533342D01*
X113961629Y-72463068D01*
X113991123Y-72398488D01*
X114050849Y-72360104D01*
X114075055Y-72355507D01*
X114084686Y-72354640D01*
X114305050Y-72293823D01*
X114511011Y-72194638D01*
X114695960Y-72060263D01*
X114853939Y-71895030D01*
X114979875Y-71704246D01*
X115069723Y-71494039D01*
X115116180Y-71290500D01*
X114215873Y-71290500D01*
X114250700Y-71171889D01*
X114250700Y-71028111D01*
X114215873Y-70909500D01*
X115112793Y-70909500D01*
X115100161Y-70816253D01*
X115029521Y-70598843D01*
X114921190Y-70397531D01*
X114778660Y-70218803D01*
X114606502Y-70068394D01*
X114410263Y-69951147D01*
X114196229Y-69870818D01*
X113971303Y-69830000D01*
X113285500Y-69830000D01*
X113285500Y-70600000D01*
X112904500Y-70600000D01*
X112904500Y-69830000D01*
X112278789Y-69830000D01*
X112273161Y-69830252D01*
X112105313Y-69845359D01*
X111884949Y-69906176D01*
X111678988Y-70005361D01*
X111494039Y-70139736D01*
X111336060Y-70304969D01*
X111210124Y-70495753D01*
X111208449Y-70499673D01*
X111163282Y-70554449D01*
X111095670Y-70576110D01*
X111027081Y-70557780D01*
X110981635Y-70509856D01*
X110921190Y-70397531D01*
X110778660Y-70218803D01*
X110606502Y-70068394D01*
X110410263Y-69951147D01*
X110196229Y-69870818D01*
X109971303Y-69830000D01*
X109285500Y-69830000D01*
X109285500Y-70600000D01*
X108904500Y-70600000D01*
X108904500Y-69830000D01*
X108278789Y-69830000D01*
X108273161Y-69830252D01*
X108105313Y-69845359D01*
X107884949Y-69906176D01*
X107678988Y-70005361D01*
X107494039Y-70139736D01*
X107336060Y-70304969D01*
X107210124Y-70495753D01*
X107120276Y-70705960D01*
X107073820Y-70909500D01*
X100329500Y-70909500D01*
X100329500Y-65067766D01*
X102145787Y-65067766D01*
X102175413Y-65337015D01*
X102175414Y-65337018D01*
X102243928Y-65599088D01*
X102349870Y-65848390D01*
X102490982Y-66079610D01*
X102664255Y-66287820D01*
X102664256Y-66287821D01*
X102664258Y-66287823D01*
X102865993Y-66468578D01*
X102865995Y-66468579D01*
X102865998Y-66468582D01*
X103091910Y-66618044D01*
X103158513Y-66649266D01*
X103337171Y-66733018D01*
X103337173Y-66733018D01*
X103337176Y-66733020D01*
X103596569Y-66811060D01*
X103596572Y-66811060D01*
X103596574Y-66811061D01*
X103864558Y-66850500D01*
X103864561Y-66850500D01*
X104065330Y-66850500D01*
X104067631Y-66850500D01*
X104270156Y-66835677D01*
X104534553Y-66776780D01*
X104787558Y-66680014D01*
X105023777Y-66547441D01*
X105238177Y-66381888D01*
X105426186Y-66186881D01*
X105583799Y-65966579D01*
X105707656Y-65725675D01*
X105795118Y-65469305D01*
X105844319Y-65202933D01*
X105854212Y-64932235D01*
X105849451Y-64888969D01*
X105824586Y-64662984D01*
X105824586Y-64662982D01*
X105759101Y-64412500D01*
X119117401Y-64412500D01*
X119117401Y-65136018D01*
X119132136Y-65210105D01*
X119188276Y-65294124D01*
X119272293Y-65350263D01*
X119346381Y-65364999D01*
X119993699Y-65364999D01*
X119993700Y-64412500D01*
X120374700Y-64412500D01*
X120374700Y-65364999D01*
X121022018Y-65364999D01*
X121096105Y-65350263D01*
X121180124Y-65294123D01*
X121236263Y-65210106D01*
X121251000Y-65136018D01*
X121251000Y-64412500D01*
X120374700Y-64412500D01*
X119993700Y-64412500D01*
X119117401Y-64412500D01*
X105759101Y-64412500D01*
X105756072Y-64400912D01*
X105650130Y-64151610D01*
X105576828Y-64031500D01*
X119117400Y-64031500D01*
X119993700Y-64031500D01*
X119993700Y-63079000D01*
X120374700Y-63079000D01*
X120374700Y-64031500D01*
X121250999Y-64031500D01*
X121250999Y-63307981D01*
X121236263Y-63233894D01*
X121180123Y-63149875D01*
X121096106Y-63093736D01*
X121022019Y-63079000D01*
X120374700Y-63079000D01*
X119993700Y-63079000D01*
X119346381Y-63079000D01*
X119272294Y-63093736D01*
X119188275Y-63149876D01*
X119132136Y-63233893D01*
X119117400Y-63307981D01*
X119117400Y-64031500D01*
X105576828Y-64031500D01*
X105509018Y-63920390D01*
X105335745Y-63712180D01*
X105335741Y-63712176D01*
X105134006Y-63531421D01*
X105134003Y-63531419D01*
X105134002Y-63531418D01*
X104908090Y-63381956D01*
X104908086Y-63381954D01*
X104662828Y-63266981D01*
X104403425Y-63188938D01*
X104135442Y-63149500D01*
X104135439Y-63149500D01*
X103932369Y-63149500D01*
X103930099Y-63149666D01*
X103930075Y-63149667D01*
X103729839Y-63164323D01*
X103465449Y-63223219D01*
X103212441Y-63319985D01*
X102976225Y-63452557D01*
X102761820Y-63618114D01*
X102573815Y-63813117D01*
X102416200Y-64033422D01*
X102292342Y-64274328D01*
X102204882Y-64530693D01*
X102155681Y-64797065D01*
X102145787Y-65067766D01*
X100329500Y-65067766D01*
X100329500Y-62190500D01*
X129840168Y-62190500D01*
X129884869Y-62397915D01*
X129970808Y-62611780D01*
X130091651Y-62808042D01*
X130243929Y-62981064D01*
X130423252Y-63125858D01*
X130624467Y-63238263D01*
X130841786Y-63315045D01*
X131068962Y-63354000D01*
X132093700Y-63354000D01*
X132093700Y-62500000D01*
X132474700Y-62500000D01*
X132474700Y-63354000D01*
X133439047Y-63354000D01*
X133444370Y-63353773D01*
X133613853Y-63339349D01*
X133836901Y-63281271D01*
X134046926Y-63186335D01*
X134237883Y-63057270D01*
X134404287Y-62897785D01*
X134541338Y-62712481D01*
X134645104Y-62506672D01*
X134712595Y-62286290D01*
X134724862Y-62190500D01*
X133749373Y-62190500D01*
X133784200Y-62071889D01*
X133784200Y-61928111D01*
X133749373Y-61809500D01*
X134728232Y-61809500D01*
X134683530Y-61602084D01*
X134597591Y-61388219D01*
X134476748Y-61191957D01*
X134324470Y-61018935D01*
X134145147Y-60874141D01*
X133943932Y-60761736D01*
X133726613Y-60684954D01*
X133499438Y-60646000D01*
X132474700Y-60646000D01*
X132474700Y-61500000D01*
X132093700Y-61500000D01*
X132093700Y-60646000D01*
X131129353Y-60646000D01*
X131124029Y-60646226D01*
X130954546Y-60660650D01*
X130731498Y-60718728D01*
X130521473Y-60813664D01*
X130330516Y-60942729D01*
X130164112Y-61102214D01*
X130027061Y-61287518D01*
X129923295Y-61493327D01*
X129855804Y-61713709D01*
X129843537Y-61809499D01*
X129843538Y-61809500D01*
X130819027Y-61809500D01*
X130784200Y-61928111D01*
X130784200Y-62071889D01*
X130819027Y-62190500D01*
X129840168Y-62190500D01*
X100329500Y-62190500D01*
X100329500Y-60455500D01*
X100349502Y-60387379D01*
X100403158Y-60340886D01*
X100455500Y-60329500D01*
X139544500Y-60329500D01*
X139612621Y-60349502D01*
G37*
%TD.AperFunction*%
%TD*%
M02*
